/* XPM */
static char *_d422fbe113f42c5ce4731a741a3180dPeCc670k850YUbVz[] = {
/* columns rows colors chars-per-pixel */
"64 64 157 2 ",
"   c #4E2B27",
".  c #4E2B28",
"X  c #502B26",
"o  c #532F2B",
"O  c #56302C",
"+  c #5E342F",
"@  c #5D3B30",
"#  c #60362E",
"$  c #63382D",
"%  c #693B2E",
"&  c #663931",
"*  c #6B3D31",
"=  c #713F31",
"-  c #76432F",
";  c #78422E",
":  c #6D4233",
">  c #754332",
",  c #7A4532",
"<  c #764C36",
"1  c #7E4833",
"2  c #764B38",
"3  c #7B4D38",
"4  c #7B543B",
"5  c #7D583E",
"6  c #655242",
"7  c #6B5442",
"8  c #735742",
"9  c #745A43",
"0  c #7B5B41",
"q  c #7F6143",
"w  c #804733",
"e  c #844C34",
"r  c #894E35",
"t  c #835035",
"y  c #8D5135",
"u  c #84543B",
"i  c #8B5238",
"p  c #82593D",
"a  c #8C5D3D",
"s  c #935636",
"d  c #965936",
"f  c #9B5D36",
"g  c #945738",
"h  c #925D3A",
"j  c #9B5D39",
"k  c #8D643E",
"l  c #9E6237",
"z  c #95643C",
"x  c #9A623B",
"c  c #956B3D",
"v  c #9C6A3C",
"b  c #97723F",
"n  c #9B743F",
"m  c #A36336",
"M  c #A26439",
"N  c #A06F3C",
"B  c #A8693C",
"V  c #A2763E",
"C  c #A57C3F",
"Z  c #A87F3F",
"A  c #825E42",
"S  c #895E40",
"D  c #915C41",
"F  c #856243",
"G  c #8C6544",
"H  c #866941",
"J  c #8D6B44",
"K  c #8D6D4A",
"L  c #936544",
"P  c #9A6643",
"I  c #946B46",
"U  c #996D47",
"Y  c #936C49",
"T  c #9A6E48",
"R  c #967342",
"E  c #9A7642",
"W  c #9E7A43",
"Q  c #96734C",
"!  c #9D7149",
"~  c #9E7A49",
"^  c #89705E",
"/  c #937454",
"(  c #91735A",
")  c #AE6F41",
"_  c #A26D4B",
"`  c #A37D41",
"'  c #A3744C",
"]  c #AA734F",
"[  c #A37D4B",
"{  c #AA794F",
"}  c #A47650",
"|  c #AC7450",
" . c #AC7C51",
".. c #B17E53",
"X. c #8F7964",
"o. c #957762",
"O. c #957968",
"+. c #A7803F",
"@. c #AA823F",
"#. c #A68146",
"$. c #AA8444",
"%. c #AD8947",
"&. c #A5824A",
"*. c #AA8748",
"=. c #AC894A",
"-. c #B38D45",
";. c #B18E4B",
":. c #B69147",
">. c #B89347",
",. c #B4914A",
"<. c #BA954A",
"1. c #BD9A4D",
"2. c #B58255",
"3. c #B88457",
"4. c #B88F56",
"5. c #BA8558",
"6. c #BE895A",
"7. c #B49351",
"8. c #BD9C51",
"9. c #B79758",
"0. c #9D8067",
"q. c #9C8371",
"w. c #A58B6F",
"e. c #A88E78",
"r. c #A9907B",
"t. c #B2987D",
"y. c #C19E4E",
"u. c #C48C5D",
"i. c #C98E5D",
"p. c #C19E50",
"a. c #C3A04F",
"s. c #C5A351",
"d. c #C8A652",
"f. c #CCAB56",
"g. c #C3A55B",
"h. c #CBAC5B",
"j. c #CFB15D",
"k. c #D1B15A",
"l. c #CD9362",
"z. c #D09664",
"x. c #CBAE64",
"c. c #D2B562",
"v. c #D5B963",
"b. c #D8BE67",
"n. c #D9BE69",
"m. c #AF9885",
"M. c #A9958C",
"N. c #AE9A92",
"B. c #B19F96",
"V. c #B6A49B",
"C. c #B9A59A",
"Z. c #BEAA9C",
"A. c #C1AD9A",
"S. c #D3BC9C",
"D. c #C3B1A3",
"F. c #CDBBAC",
"G. c #CCBCB0",
/* pixels */
". . . . . . . . . . . . . . . . . . . . . . . . . . . . o o . . . . . . . . . . . . . . . . . . . . . . . . . . . . . . . . . . ",
"+ + + + # # + + + + # # + + + + X O # + + + # + + + + + + + O . + + + # + + + + # # + + + o . + + + + + + + + + + + # + + + + + ",
"* * * * * * * * * * * * * * * * . # * * * = * = * = * * = = + . & = = = * = * * * * * * * O O * * * * * * * * * * * * * * = : * ",
"> > > > > > > > > > > > > > > > X * = 1 = > = , = 1 = = = = & o = = = = = = 2 = > > > > > + + > > > > > > > > > : > > > = = 8 = ",
"> e i r y y y i i 1 3 i > e e > & = = > > > = 1 = 1 = , = , = & 2 * & & & & * > & = > > > * * > > > > > * = * * & & & & = = w = ",
"> r y s y y y y 1 e e , r w 1 > & = > > > = 1 = 1 = w = = A = = , = * * * = = * : > > > > * * > > > = * > * * > & & & & w = w = ",
"> 1 e e r e r e = w e > r , > > # = = 1 > > = , = D _ | | | ] _ | | ] D S A = * > > > > > & % > , > > * > * * > = & = * = w = = ",
"> > > > > > = > > > > = > > > > . * > = 1 = = _ | u.l.z.z.z.z.z.z.z.z.u...5.D D > > > > > + + > > > > > > > > > = = > = w = = w ",
"& % & & & & & & & & & & % % % & . + # * A _ 5.l.l.z.z.z.z.z.z.z.z.l.u.z.l.z.u.2.' I 3 * % o o & & % % % & % & % = & & & & & & % ",
"O O O O O O O O O O O o O O O o . O & 2.i.l.z.z.z.l.5.&.5.3.i.z.z.z.6.6.l.z.z.z.l.i...L : . . O o O O O O O o O O + O O O O O O ",
"# # # % # # +   $ # # # $ $ & # % > u.l.l.l.u.6. . .6.z.z.l.i.z.l.l.l.6.' 2.u.2. .l.u.2.' < # & & # $ $ & # $ $ & o o & # % # # ",
"y y y y y y -   y s r s y y y r x u.z.l.u.5.6.6.l.l.i.u.u.6.2.2.......u.6.{ Y { u.u.6.2.2...h y y r y y y r r s r & # r r y y y ",
"y y r > > r 1 & y j f y m m m ) i.z.z.l.u.l.l.u.5.2.! ! ! { 5.' T _ ' !  .5.{ Y U  .6.6.2. .' M m M m m r f f r r $ $ r = = w y ",
"y y e > > r w % r s d f d f B u.z.z.z.l.6.3. . .Y Y ! I Y U ! ! T Q ! U Y Y { { G G U  .5.5.T I M m f d j d f f s & $ y ; , w y ",
"y y r > > e w % y y s f y d m i.z.l.u. .' ! ! G L T ! U U Y G F G G G U L I G Y Y G F G G 2.5.F j f d y f s s f r & % y > > w r ",
"y y e > > e w % y y y y y r j u.l. .{ ! U G G U ! G F 9 F K H H G K J ~ ! G U Y Y U ! Y G  . .L i y y y r s r y y > = s = = 1 s ",
"y y e ; y y 1 % y y y y y y j u.{ T ! T G T T F F E J H H J J K J #.;.#.8.x.J k Y Y Q 2.u.' T A u y y y s r r r y > > y i 1 1 r ",
"y y r r 1 r 1 % y r y i 1 1 u _ ! ! G F Y F 9 H J J J J #.1.&.R W >.%.+.s.j.f.@.I F G U ! L A 0 i y y y r s s r y > > r 1 e r r ",
"y y y e 1 e 1 + y y y y > > 3 L T G F Y G H 9 =.K H J #.*.#.8.c.j.-.n +.s.j.f.@.+.W &.F G F G Y _ y y y y r y y y > > r 1 w r s ",
"y y e ; y y > . y y y y ; - i } ' ! ! Y Q *.~ ,.&.&.=.>.#.+.<.b.a.:.C #.d.j.k.@.+.n <.4.6.6.u.u.j y y y y y y y y = = s y 1 w r ",
"y y y y y y - . y y y y i y g  .2. .2.~ 7.<.R $.s.j.f.<.*.C <.n.a.a.+.C s.k.f.@.+.n :.*.' L ' ' h r y y y y y y y % # r y y y y ",
"$ # # # # % O . # # & # & # * L T L T ~ g.<.R +.d.b.d.>.*.C 1.n.a.<.` ` s.c.f.$.+.W ,.&.U F ! T 3 $ % # # # # $ $ o O % # $ $ # ",
"O O O O O O O O O O o o O O & Y T K ! ~ s.>.R +.s.b.d.%.#.n <.b.a.<.+.` s.k.f.@.+.E ,.&.U I ! U : O O o O o + o o o o o O O O O ",
"% % & & & * & & % & * & & & : L T G ! ~ p.>.R +.d.b.d.:.*.+.1.n.a.%.` C a.k.f.@.C E ,.[ U U E U 3 & & % % & & & & % & % & & % % ",
"> > > > = > > > > > > > > > 1 S T L ! ~ p.<.R +.s.b.d.>.=.n 1.k.d.a.W E y.j.d.@.,.E ,.[ U G ! U A > > > > = > > > > > > > > 1 = ",
"> > > * * * * * * = > * > > 2 D Y G T ~ 8.<.R +.s.v.d.>.=.+.<.k.s.1.$.&.1.f.a.#.$.n ,.&.U F ! U 3 * * * > = = = > > > > > > > > ",
"> > * & % & & & * = * * = = > G T G ! ' =.<.R +.s.k.d.>.=.n <.k.s.a.` $.y.f.s.,.$.R :.&.U F ! ! > & * * = = = = > > > > = = > > ",
"> > > & & & & % > * * > & = 2 G U G  .} &.<.R +.s.b.d.>.=.+.<.f.a.a.` Z y.j.f.$.Z E >.[ U G ! L : & * > & = = * > > > > w 2 = 1 ",
"> > > > > > > > > > > > > > > S T Y  .Y &.:.R +.d.v.d.>.%.+.<.k.s.y.` C a.k.d.@.Z E %.~ T F T Y 8 = = 1 = = = = = = = = = = > = ",
"* * * * * * * * * * * * * * * D U G ! Y [ >.R +.a.k.d.>.=.n <.f.s.1.` C y.k.f.@.Z E n T T S T Y = = * * = & = = = = = = = = = = ",
"+ + + + # + + + + + + + # + + A U G ! U &.>.R +.d.k.d.>.=.n 1.k.s.a.C +.a.k.f.@.$.E R Y } } T Y * + + + + + + + # # + + + + # + ",
". . . . . . . X . . . . . . . 0 U G ! U ~ <.R +.a.k.d.>.=.+.<.k.s.1.C C a.k.f.@.S.A.o.Y T ' _ Y @ . . o . . . o . . . . . . . . ",
"i y y s y y r r y i y i X > y z U Y ! U &.>.R +.d.j.d.<.*.+.<.j.d.a.#.=.f.k.j.S.V.B.q.G U ! ' I y y y y y y >   y i y y y y y y ",
"y d j j f f f f y d d i X > r a U ! ! Y ~ <.R #.a.k.f.1.,.=.j.c.c.c.j.h.h.h.x.G.M.t.Q L F T _ P f f d y f s >   i e 1 w y y y y ",
"y f m m m m m f g f f i   ; r a ! ! ! U &.s.7.8.j.j.j.j.j.x.y.1.1.1.,.#.` ` *.V.M.D.0.G G T ! U m f d d l s >   y 3 > > y y y y ",
"y j m m m m f y m g y y X > r p U ! ! Y W g.p.g.s.#.&.#.#.#.E W E E J J &.7.9.D.^ M.m.G U ! Y U m d g M y y , . y , - > y y y y ",
"y y y y s y y y y y y y & 1 y p T ' T U J W R R W #.#.R H H *.1.<.=.J E 1.f.c.C.K X.e.G T ! F P y y y s r y w & y y y > y y y y ",
"y y y y r r y y y y y i % 1 t 4 T T ! I R #.q H ,.d.y.-.&.R <.k.s.y.n ` a.k.x.N.0.w.r.G U T F P y y y y y y w & i e w e y y y y ",
"y y y y r s y y y y y y & 1 r 4 U ' ! I F n J +.a.k.d.<.*.n >.f.s.a.` ` y.k.h.M.F.Z.O.F U ! F P y y y y y y w % y e w e y y y y ",
"y y y y r s y y y r y i % 1 y p U T U F H n R +.s.k.d.>.*.+.1.k.s.y.` ` y.k.d.Q ( / Y F T ! A P y y y y y y w % i i e > y y y y ",
"y y y y y y y y y y y y & w e 3 T T L ! Y n R +.s.k.d.>.%.+.>.k.s.y.Z C y.k.d.@.@.n n F U ! F U y y y y y r w & y 1 , y y y y y ",
"y y y y y y y y y y y y O 1 y u T T  .' Y n R +.a.k.d.>.%.n >.f.s.y.` ` y.k.d.@.@.V b F U ! F P s y y y y y 1 O y t y y y y y y ",
"; , , = > > , , > , > >   % > , P ! ' I J b R Z d.j.d.:.*.n 1.k.s.y.` ` y.k.f.@.+.E b F U ! F L - > > > ; > %   > > > - < , - > ",
"X X X X X . X X . . . .     X . I ! T I G n R #.<.a.<.=.&.#.<.k.s.y.` ` y.k.f.@.+.E n G U ! F a         o X . . . o o .   .     ",
"& & & & % & & & & O O & & & & & L ! ! Y G n E %.h.j.h.p.*.C >.k.s.y.` ` y.k.f.@.+.n b G ~ ! U F & & & & & & & & & & +   & % & & ",
"= = = = = = = = > O O : : * > = I ! ! L G n R $.d.j.d.<.=.C <.f.s.y.` ` y.k.f.@.+.E n Y ! ! ! 4 = = = : = = : = * > #   * > = * ",
"= = = 1 = , = > > # + > = = : : I ! ! Y G b R Z s.k.d.>.*.W <.k.s.y.` ` y.k.f.@.+.E E G ! ! _ 5 1 3 1 1 > 1 1 > 1 > % + > > > > ",
"= 1 > > , > > > > * * > % % % % 5 ! ! U G n R Z a.k.d.>.=.+.1.j.d.y.$.;.f.k.k.<.c.g.{  .' T ! 5 r y y y ; e e > y 1 = & > > > > ",
"1 1 = 1 1 = 1 1 = = * > * & & & 5 ! I Y G n R $.s.k.h.y.7.,.h.c.c.j.h.h.f.f.f.d.=.` Y ' ' T ! 5 y y e > y 1 1 y > > : % > > > > ",
"= = = = = = = = = & # = = = = = 5 ! F U F [ 7.8.h.j.j.k.j.j.8.1.1.1.,.#.W #.` W J q G T ! I Y 5 w w 1 > 1 > > 1 > > % O > > > > ",
"= = = = = = = = = + O = * = = = 5 ! F U G &.8.s.s.*.&.&.&.&.W ` E E J J #.,.-.n R q J ! ! U G 2 = * = = * > : > > * % . = * = = ",
"& & & = & & & & & O O & & & & & 5 T F Y G J J R R $.#.R J F $.y.<.;.J R 1.f.f.@.+.J L ! T T F & & & & & & & & & & & +   & % & & ",
"o . . . X . X . . . . o . o . . 4 ! Y F G H 9 J ;.f.y.-.` R <.f.s.y.W C y.k.d.@.+.c J ! G U F . . X       .   .     .   . o . . ",
"= = w = = = , > > > % X 2 > > > 5 T T F G R k C s.k.d.>.&.` <.k.s.1.W +.a.k.f.@.+.I J ! F U F > > + + > , > > > > > , ; > > > > ",
"D y y r y r r y e i , X i y s g s J ! I K G I +.s.k.d.-.#.` <.f.a.1.#.C a.f.d.@.C c J ! F U A e y % % y d y y d d d g s g d g y ",
"y y r = = w , y > e > X y y s m m G U G G k J C s.k.d.-.*.` >.f.a.@.C n 1.f.-.C k u G ! G L 0 > y > : y M g d m m m m m m m f y ",
"y y e > > e r > y y > X y y d M l G Y F A k c $.y.f.a.@.V n Z >.1.+.v z c $.C a > t G U L F 0 ; y : - t y f f y m m m m m m f r ",
"y y y e e y r e y y 1 # y y d m l F 0 F q F h n @.<.:.C x h x N V z g y $ t u > > e A G G A 8 > y > > y y g y y g d d g g g s s ",
"y y y y s r y y y y w & y y s f x 5 9 9 0 0 y k V v c z y y r s y r y y % e y > > t 4 k F 7 7 1 y > - y y y y y y y y y y y r r ",
"y y y y y y y y y y w & y y y y x 7 6 2 2 4 y y y y y y y y y y y y y y % w y y - e y p 8 6 6 r y > > y y y y y y y y y r y r s ",
"y 1 1 y > > ; > y y e % y y g M y r y r y y y y y y y y r s r r y y y y & 1 e - y y y y y y r ; y > : y y y r - > ; w r ; r r s ",
"y r w 1 e 1 > > y s > O i y s g f s y s y y y y y y y y s r r s y y y y & 1 y t 1 r y y y w 1 r y & % y y y r - ; w e w r r y r ",
"y y r 1 y w 1 w y r > X y y r y f s s y y y y y y y y y y y y y y y y y @ , y y 1 r y y y e w y y $ @ y y y e 1 1 r r w y y y y ",
"y y y y y y y y y y >   y y y y r s r y y y y y y y y y r s r y y y y y   > y y y y y y y y y y y $ # y y y y y y y y y y y y y "
};
