/* XPM */
static char *af4db4710cb04ca0b8ea4a76eb4c6bfeijon8fpPh9eEI0a0[] = {
/* columns rows colors chars-per-pixel */
"64 64 130 2 ",
"   c #010101",
".  c #4E2B27",
"X  c #472D2B",
"o  c #4E2B28",
"O  c #502B26",
"+  c #532F2B",
"@  c #56302C",
"#  c #5E342F",
"$  c #493F3D",
"%  c #5E3731",
"&  c #5D3C35",
"*  c #593F38",
"=  c #60362E",
"-  c #63382D",
";  c #693B2E",
":  c #663931",
">  c #6B3D31",
",  c #713F31",
"<  c #4C413E",
"1  c #54433E",
"2  c #5D4139",
"3  c #6F402F",
"4  c #76432F",
"5  c #78442F",
"6  c #6E4132",
"7  c #61423D",
"8  c #6E4B3B",
"9  c #754232",
"0  c #794532",
"q  c #7E4833",
"w  c #7F4F39",
"e  c #474443",
"r  c #4D4441",
"t  c #494847",
"y  c #494949",
"u  c #554540",
"i  c #554847",
"p  c #5D5653",
"a  c #5F5855",
"s  c #5F5C5B",
"d  c #644842",
"f  c #6B4C41",
"g  c #6D5245",
"h  c #65534C",
"j  c #6C564C",
"k  c #6D594F",
"l  c #705244",
"z  c #7A5342",
"x  c #645750",
"c  c #675B55",
"v  c #6E5B56",
"b  c #615D5B",
"n  c #62605F",
"m  c #756259",
"M  c #636363",
"N  c DimGray",
"B  c #6B6B6B",
"V  c #757474",
"C  c #7A7775",
"Z  c #7D7C7C",
"A  c #804733",
"S  c #814933",
"D  c #804A32",
"F  c #804A33",
"G  c #834B33",
"H  c #854D33",
"J  c #864C33",
"K  c #834D35",
"L  c #844C34",
"P  c #844D34",
"I  c #864C35",
"U  c #844C36",
"Y  c #894E35",
"T  c #8D5133",
"R  c #8A5035",
"E  c #8B5235",
"W  c #8E5035",
"Q  c #8D5234",
"!  c #8C5235",
"~  c #8E5235",
"^  c #8C5137",
"/  c #8E5137",
"(  c #8C5236",
")  c #8D5237",
"_  c #81513B",
"`  c #8C5138",
"'  c #955733",
"]  c #935535",
"[  c #915536",
"{  c #945636",
"}  c #975934",
"|  c #975936",
" . c #9C5D35",
".. c #9C5D37",
"X. c #945738",
"o. c #9B5D38",
"O. c #9F5E38",
"+. c #A36336",
"@. c #A36337",
"#. c #A46337",
"$. c #A16239",
"%. c #A26338",
"&. c #868686",
"*. c #8D8D8D",
"=. c #939393",
"-. c #999494",
";. c #9D9D9D",
":. c #A4A4A4",
">. c #AAAAAA",
",. c #B1B1B1",
"<. c #B8B3B0",
"1. c #B9B9B9",
"2. c gray73",
"3. c #C0BFBF",
"4. c #C5C5C5",
"5. c #CACACA",
"6. c #CBCBCB",
"7. c gray80",
"8. c #CDCDCD",
"9. c #CECECE",
"0. c gray82",
"q. c #D7D7D7",
"w. c gray87",
"e. c #E4E4E4",
"r. c #EBEBEB",
"t. c #F3F3F3",
"y. c #F5F5F5",
"u. c gray99",
"i. c #FDFDFD",
"p. c #FEFEFE",
/* pixels */
"o o o o o o o o o o o o o o o o o o o o o o o o o o o o o o o o o o o o o o o o o o o o o o . o o o o o o o o o o o o o o o o o ",
"# % # % # % % # # % # # # % % # o @ # # # % # = % # # # = # # o # # = = % % # % # # % # % o @ # # # # % % % % # # # % % # # % # ",
"> > > > , > > > > > > > ; , > > . - > > > > > , > , > > , , = X : > > > , , : > > > > > > @ @ > > > > : > > > > : > : > , , > > ",
"4 9 9 9 9 9 9 , 9 9 9 9 9 , 9 9 . ; 0 9 9 9 9 9 , 0 , , , , : o , 0 , 9 , , , , 9 9 9 9 9 # # 9 9 9 9 9 9 9 9 9 , 0 0 9 , , , , ",
"9 L / / / / ` [ R q q ` 5 I I 9 : > 0 9 9 9 9 9 0 9 q , 9 9 , : 9 > : : > : > , : 9 9 9 9 > > 9 9 9 9 9 > , 9 : : : : : q A , q ",
"9 J / / / R Y [ q L L q I A 0 9 : 9 9 9 9 9 9 9 9 9 , 0 q 9 , : 9 > : : : , , , 6 9 9 9 9 > > 9 0 9 , > , > > > > : : : , , q , ",
"9 S L L L L L L 9 S S 9 I 0 9 9 % > 9 9 9 9 9 9 0 , 0 , , , , % 9 , > > , , , > 9 9 9 9 9 : ; 9 9 9 9 > 9 > 9 9 > > , > , z , , ",
"9 9 9 9 9 9 9 9 9 9 9 9 9 9 9 9 o > 9 9 9 9 9 9 , q , q , q > o 9 9 9 9 9 9 , 9 9 9 9 9 9 # # 9 9 9 9 9 9 9 9 9 , , , A , , , q ",
"; : : : : : : ; : > > - > : : > o @ ; ; ; ; ; ; ; : : : ; : # o : : : : ; : : : : ; : : : @ @ : : > > ; > > : > > > > : ; : : ; ",
"@ @ @ @ @ @ @ @ + @ @ @ + + + + . @ @ @ + + @ @ + @ @ @ + @ + o % @ @ @ @ @ @ @ @ @ @ + @ o o @ + + + @ + + + @ @ @ @ @ + @ @ @ ",
"- % - - - - % . - - - - - - - - - - - - - - - - - - - - - - - - o @ = = - - - - - - - - - - - - - - - - = - - - : @ + - - - # : ",
"/ T / Q R Q 9 . R ` / T Y ] Y / T T / ` R / R / / / / R / R / T i h k k j k ` ` / / T / T / T T ] Y Y [ Y / / Y / # - Y / [ Y Y ",
"T / P 9 9 J q : / o. ./ +.#.#.#.+.%.+.%.T T R / 9 9 9 9 / q s b 8.8.8.8.7.7.b h T / T / %.+.+.+.#.#.+.o./  .o.Y / = - / , 0 A W ",
"/ T J 9 9 J q ; R T }  .' ..#.#.#.%.#.%.T / / R 9 9 0 L 0 x 1.1.5.y.y.y.t.y.w.e.h _ / T %.+.+.#.#.#.O.' o.| |  ./ - - [ 5 , A W ",
"R Q J 9 9 P q ; / / ' ../ } .. . . . .../ / T / q S L Y n 5.5.8.5.u.i.i.i.i.i.i.u.;.R T .... ... . .| /  .[ [  .Y ; ; Y 9 9 0 [ ",
"Q Q L 9 4 J q ; R / / T / / / Y / ! / T / T / T / / _ M 5.5.0.i.i.u.i.i.i.i.i.i.i.i.B Y / T ` / / [ Y / [ Y / / Y 0 0 I 5 0 A J ",
"[ / J 4 R [ S : [ Y / Y [ Y [ Y [ Y T [ Y [ / Y / / _ M 7.7.0.i.i.i.i.i.i.i.i.i.i.i.=._ / / T / / W / Y Y [ T J / 5 9 Y Y q q ` ",
"R / Q L q L q > Y / [ Y A A q q [ S A [ / Y [ 5 R 8 C 7.5.5.i.i.i.i.i.y.  i.i.i.  =.u.M T T / T Y [ W [ [ Y Y [ Y 9 9 [ S S I [ ",
"/ / ! J 0 / q # / / I [ 4 9 0 q J A J Y T T J A L f Z 5.7.5.i.i.i.i.i.    i.i.i.    t.M / ! / / Y [ T Y [ / / W Y 9 9 Y q A I Y ",
"/ T q 4 / / 9 o / Y ] Y 4 4 q Y 4 J Y [ / / / Y 0 g Z 5.7.5.i.i.i.i.      i.i.i.    r.M / T [ ` [ Y Y [ Y [ Y [ ] 9 , Y / q q [ ",
"/ R / R T / 4 . / Y Y [ ` / ` ` [ Y [ Y T / T T R l Z 5.5.5.i.i.i.i.>.>.>.i.i.i.>.>.y.M 8 8 l R Y W W T W [ / Y / - - R T / / T ",
"- - - - - - @ o - - - - : = = : - - - % - - - - - -.4.5.8.8.B B B B i.i.i.i.i.i.i.i.i.r.r.r.r.C @ - - = - - - - - @ + - = - - - ",
"@ @ @ @ @ @ @ @ @ @ @ @ + @ @ @ @ @ @ @ @ @ @ @ + :.5.5.8.M i.i.i.i.b i.i.i.    i.i.6.i.i.i.i.i.&.O @ @ + @ @ @ @ @ + + @ @ @ @ ",
"; ; : : : > : : : : : : : : : : : - : : ; ; : - : :.5.5.V i.i.i.i.i.i.V e.i.i.i.i.i.8.y.i.i.i.i.-.7 ; ; ; - : : : ; ; : ; : : ; ",
"9 9 9 9 , 9 9 , 9 9 9 0 , 9 9 q 9 9 , 0 0 0 0 , 0 :.6.8.i.i.i.i.i.i.i.i.M i.i.i.i.i.8.8.r.i.i.i.u.B f 0 9 , q , 9 9 9 9 9 0 9 9 ",
"9 9 9 > > > , > > , , > 9 0 9 9 9 9 0 0 9 9 , 0 > :.7.8.i.i.i.i.i.i.*.*.M i.i.i.i.i.8.8.5.q.i.i.i.B d > 9 > , , 9 9 0 9 9 9 9 9 ",
"9 9 > : : : : > > , , > , , q , , 0 , 0 9 9 , , : :.5.7.i.i.i.i.i.b 8.M i.i.i.i.i.i.8.8.5.5.y.i.u.B d : , , , , 9 9 9 9 9 9 9 0 ",
"9 9 6 : : : : > 9 > > 9 > , , q 9 0 , 0 9 9 , : , :.q.u.i.i.i.i.y.M 5.M i.i.i.8.i.i.8.5.4.B M M a : > 9 > , , > 9 9 9 9 9 9 9 9 ",
"9 9 6 9 9 9 , , 9 9 , , 0 , , , 9 0 9 > 9 q , , M 5.q.u.u.i.y.q.V 5.M y.i.i.i.8.i.i.8.8.M 5.1.v > 9 9 9 , , , , , 9 > 9 9 9 9 9 ",
"> > > > > > > > > > > > > , > > > ; > > > , > : M 5.q.i.e.i.r.B 5.:.*.5.i.i.i.5.i.i.8.8.M ;.d : > > > > > > , , , > 9 > > > > , ",
"% % - # = = # # % % % # = = # # - # % % # # # # M 5.q.i.5.i.r.M 5.M 8.5.i.i.i.5.u.i.8.5.M # # # # = % % # # # # : # # # # % = # ",
". . o o O o o o o o o o o o o o o o o o o o o o b 6.5.5.5.i.e.M M 5.5.8.i.i.i.5.u.u.8.5.M o o o o o o o o o o o o . o o o o o o ",
"R / T / / R R / ` ` ` ` . 9 / R / R / R / ` z B 5.6.5.5.6.i.2.&.5.5.5.5.i.i.i.8.i.i.8.8.M / / / ! ` Y / / / 9 o R R / / R R / R ",
"/ } ..o.o. ... ./ } } ` . 0 L q q Y / T / } z B 5.6.6.5.5.i.B 6.5.5.5.5.i.i.i.5.i.i.8.8.M .. ... . .} T ..Q 0 . ` K q q / T / / ",
"R ..+.#.+.+.#. .} } } ` . 5 J 4 9 L T / R / z B 5.6.5.8.i.i.5.5.5.5.5.i.i.i.5.5.i.i.6.5.M ..#.@.+.o...}  .] 0 . R q 9 9 / Q / T ",
"`  .%.+.+.%.../ %.} [ Q O 0 J 9 9 L T / T g *.5.5.6.5.8.i.i.6.6.5.8.5.i.i.i.5.5.i.w.5.5.n +.#.@.#.X.X.%.T / 0 + / q 9 9 R / Q / ",
"/ T T T T / T / ` / Y ` : _ T / 9 J / / / j *.6.6.5.q.i.i.6.6.6.5.5.5.i.i.i.8.5.i.w.5.M T T T / T / / T / ! S - Q E P 9 Q ` [ / ",
"R / / / T T / T Y [ [ Y ; q L q Y Y T T h >.5.6.6.6.q.i.5.5.6.6.5.5.5.i.y.M M M M M 4.M / / T T T / T ! / T q : Q Y q J Q R T / ",
"/ / T / / / Y [ / Y Y [ : q L q P ! Q L <.8.5.5.6.5.4.5.6.5.8.6.5.8.5.s 8.M 5.5.5.5.M M T / / ! / T / / ! ! q : R P q J R / / T ",
"T T / T Y [ T T ` / / / ; _ Q Q 9 P / P 4.5.8.5.8.5.5.5.6.6.6.6.5.8.5.4.B M M B N B M ! / T T T T / / T T / S : ` ` J 4 Q T R / ",
"/ T / T / / Q / Q / ! / : q L 9 R Q w m 6.6.5.6.5.5.8.5.6.6.3.Z Z Z Z Z M ,.,.s S S J T / T / / Q / / R T / S : ` q w R Q / T / ",
"/ T T / E T T E / / / R @ q R J T p n n s s s s b s s b s b c / R / Y / b n s s Y / / T T / / T T T Q / / / 0 @ / K L Q ) / / T ",
"4 0 9 0 0 0 9 5 0 9 9 9 . ; 0 9 9 0 0 9 5 9 9 0 9 0 0 9 9 0 9 0 0 9 4 0 9 0 9 9 0 0 4 9 0 0 9 9 9 4 4 0 5 9 ; o 0 0 9 0 q 0 4 9 ",
". o . o . o . o o o o o . . . . . . . o . o o . o o o . o o o o . . . . O O O o . o . O o o o o o o @ o . . o o o o o o o . . . ",
": : : - : : : : : + @ : : : : : : : - : : : : : o % # : : : : : : : : : : : : : : : > : : : : : : : : : : : : : : : # . : ; : : ",
", , , 9 9 > > 9 9 @ @ 6 6 > 6 9 9 > 9 4 6 9 6 6 . ; 9 > > 9 6 6 9 9 9 > 6 > > 9 > 9 > 9 > , , , 9 6 9 6 4 6 > 6 9 > ; . 6 6 9 > ",
"9 9 9 9 9 9 9 9 9 - # 9 , 9 9 6 > 9 9 > 9 9 9 9 @ > 9 9 9 9 9 9 9 > > 9 9 > 9 9 9 9 9 9 q q q q q q 0 q 9 q 0 9 0 0 ; @ 9 9 9 9 ",
"9 9 9 9 9 9 9 9 9 > > 9 : : : : : > 9 : 9 9 9 9 < r 1 r r e r e r r r r e : > 9 9 9 9 9 / / / / / / / R 9 L L 9 / q > > 9 9 9 9 ",
"9 , 0 0 9 9 9 9 9 > > 9 : : : : 9 : > 6 u u 1 1 y y y y y y y y y y y y y < 1 1 1 6 9 9 R / / / / R L 9 / q q / 9 9 9 - 9 9 9 9 ",
"0 0 0 , 9 9 9 9 9 = = 9 , 9 9 , 9 e y y y y y y y y y y y y y y y y y y y y y y t y y 9 q q q q q q 0 9 q 9 9 q 9 9 ; @ 9 9 9 9 ",
", , , , > , 9 9 , % + , , , > , 6 2 2 2 t y y y y y y y y y y y y y y y y y y y y 1 2 6 9 > 9 > > 6 9 3 9 6 6 6 9 6 - o 9 > 9 > ",
": : : : : : : : : + + : : : : : : : : : % % % % y y y y y y y y y y y y y & % % % % : : : : : : : : : : : : : : : : # . : > : : ",
"o o + O o o o o + o o o o o o o . . . . o . . . X X X o X X X X X X X X X o o . . . o o . o o . o o O . o o o . o o o . o o o o ",
"9 9 9 9 0 9 9 9 5 9 ; o 9 0 0 0 4 0 0 0 q 9 9 q 9 9 9 q 4 9 0 9 9 q 0 9 . ; q 9 0 0 0 9 0 4 0 9 9 # @ 9 0 q 5 0 0 0 4 4 9 9 9 0 ",
"/ / / Y L Y L [ I Y 0 O / [ ` X.X./ / T / ! ] Q } ] } Q X.' X.E } Q Q ) . 4 R J L R T / / R J J / - ; T } R Q X.X.X.[ } X.} X./ ",
"/ / L , 9 9 S ` 9 I , o / ` | #.+.' / R ! / { @.@.@.@.@.@.@. .R @.X.Q ` . 0 L 9 9 J / T ] 0 9 9 / 9 9 / %.X.X.@.+.+.+.+.+.@.../ ",
"/ T L 9 9 L L 0 / R 9 . / Q X.#.@.{ ` / T / } @.#.@.@.@.@.} { @.Q o.../ . 4 q 9 9 L / / / q 9 4 ! 6 6 ! Q  .O.Q +.+.@.@.@.%.o./ ",
"Q / R J J R R P R / q # R Q } #.@.} ` T / / / { } { { { { / ] ] ` ] } / # q L 9 9 Y R / T q 9 4 / 4 9 ! R ] ] R X.' } } ' X.] T ",
"/ Q / T / / / T / / q - R / ]  .@.{ / T T T / Q ! Q / ! / T T / ` Q R R > q Q q 9 L Q Q / q 9 q / 9 9 Q Q ` Q / R Q / Q / T ` T ",
"/ T R / / R / / / T P ; / T / / O.} E T / Q E / ] R T / T / / T T / ` / : P R R 9 L T ` ! q q / ! 9 9 / / / E T / E / R R / T / ",
"E q q E 4 9 4 9 / / P ; E / } @.T / T / ! / T / Y Y Y ] / Q T R / R R ` : S J 9 R Q / Q ` [ L 5 Y 9 9 R / E J 4 0 9 S Q 5 S / T ",
"Q J P q L q 9 9 ! / 9 @ ` E / X...Q / / Y T / T / ] ] Y T E / E / [ Q Q : q / P q J Q / / S q J R : ; Q T / P 9 9 S S q L / T / ",
"T / L q R S q q / T 0 . E / Q Q  .] / T / T T / T / Y / Q / / T / / R Q # q / R q J T / T S q Q Q - % Q / T J q q J J 0 / / / T ",
"/ T / R T / / R T / 9 . ` T E / T / / / T / / T / T / T / T Q R / T / Q . 9 R / / Q Q T / / / Q E - - / T Q / / R / / T Q / T / "
};
