/* XPM */
static char *result[] = {
/* columns rows colors chars-per-pixel */
"64 64 151 2 ",
"   c #4E2B27",
".  c #4E2B28",
"X  c #502B26",
"o  c #532F2B",
"O  c #56302C",
"+  c #5E342F",
"@  c #5C3630",
"#  c #60362E",
"$  c #63382D",
"%  c #693B2E",
"&  c #703427",
"*  c #7C3B2C",
"=  c #663931",
"-  c #6B3D31",
";  c #713F31",
":  c #76432F",
">  c #78442F",
",  c #6E4033",
"<  c #754232",
"1  c #7A4532",
"2  c #7E4833",
"3  c #774A3B",
"4  c #7B4D3B",
"5  c #774C40",
"6  c #85412D",
"7  c #89432E",
"8  c #97492F",
"9  c #804733",
"0  c #844C34",
"q  c #894E35",
"w  c #814B38",
"e  c #894C3B",
"r  c #954A33",
"t  c #8D5135",
"y  c #8C5239",
"u  c #8E5B39",
"i  c #935636",
"p  c #975936",
"a  c #9C5D36",
"s  c #925639",
"d  c #9C5D38",
"f  c #BB4B23",
"g  c #A1522F",
"h  c #A15232",
"j  c #A1523F",
"k  c #A95B3C",
"l  c #926F29",
"z  c #906431",
"x  c #9D6F36",
"c  c #906539",
"v  c #9C703F",
"b  c #A36336",
"n  c #A46B31",
"m  c #A26339",
"M  c #BF633D",
"N  c #A07830",
"B  c #EE5913",
"V  c #E6531A",
"C  c #EE561C",
"Z  c #EF581C",
"A  c #F55515",
"S  c #F95416",
"D  c #F45C14",
"F  c #F5551A",
"G  c #F8541A",
"H  c #F45C19",
"J  c #EE690E",
"K  c #F1640F",
"L  c #F3720E",
"P  c #F57D0F",
"I  c #F66216",
"U  c #F36D12",
"Y  c #F66B18",
"T  c #F9691C",
"R  c #F77512",
"E  c #F87218",
"W  c #C64F28",
"Q  c #C65224",
"!  c #C85222",
"~  c #CB5628",
"^  c #DC5321",
"/  c #D95927",
"(  c #C55533",
")  c #DF5130",
"_  c #D75D36",
"`  c #DC5E31",
"'  c #ED5622",
"]  c #EB5922",
"[  c #F05521",
"{  c #F85421",
"}  c #C1653F",
"|  c #DD6132",
" . c #8F5446",
".. c #855B44",
"X. c #945340",
"o. c #9D5B43",
"O. c #A15A42",
"+. c #A85F45",
"@. c #8B6042",
"#. c #8F6A4A",
"$. c #956B48",
"%. c #866255",
"&. c #8A6153",
"*. c #AF6444",
"=. c #AD6248",
"-. c #BC6144",
";. c #B66B4A",
":. c #C56645",
">. c #B58E2F",
",. c #ED840E",
"<. c #F1830A",
"1. c #FA930E",
"2. c #F69D0C",
"3. c #FA9C0E",
"4. c #FC8E16",
"5. c #FC8219",
"6. c #F69312",
"7. c #FB9213",
"8. c #FA9C10",
"9. c #FC9018",
"0. c #D8B30E",
"q. c #D8B216",
"w. c #DCB219",
"e. c #F6A808",
"r. c #F9B505",
"t. c #FDBC07",
"y. c #F9B50C",
"u. c #FDBB09",
"i. c #FAA110",
"p. c #FCA815",
"a. c #E7BA17",
"s. c #CD9337",
"d. c #D1973A",
"f. c #D5AF38",
"g. c #FCC504",
"h. c #FDCA02",
"j. c #FDC008",
"k. c #FEC808",
"l. c #F7CA13",
"z. c #F2C926",
"x. c #FCD32F",
"c. c #B48843",
"v. c #A5927F",
"b. c #AD927F",
"n. c #CCB492",
"m. c #EDE3C1",
"M. c #FDF4C6",
"N. c #F7EDD3",
"B. c #FAFBD3",
"V. c #FEF7DB",
"C. c cornsilk",
/* pixels */
". . . . . . . . . . . . . . . . . . . . . . . . . . . . . . . o . . . . . . . . . . . . . . . . . . . . . . . . . . . . . . . . ",
"+ @ + @ + # @ @ + @ @ # @ # + @ X O + + + @ # # + + + + + + O . + + # # @ @ + + # + @ @ @ o X # @ # @ @ @ # @ # + + + + + + + + ",
"- - - - % - - - - - - - - ; - -   # - ; - - - - - ; - - ; - @ . = - - - - - - - - - - - - o O % ; ; - - - - - = - ; - - - - - - ",
"> < < < < < < < * < < < ; < < ;   % < < < < < 1 ; 1 ; ; 1 ; = . ; 1 < ; 3 ; 1 ; < < < < < + + < ; ; 1 ; < < < 1 ; ; 5 ; ; w ; ; ",
"< 0 y y i q y i y 2 2 y < 0 0 < = - < < < < < < 1 1 1 ; 1 1 ; = < - = = = = - ; - , < < < - - < < ; ; 3 = ; ; = = = - = * * 3 1 ",
"< 0 y y i q q y 2 9 0 9 q 0 2 < - ; < < < < < < 1 ; 1 ; 1 ; ; = < - = - = - ; ; - < < < < - - < 1 1 ; - ; ; - ; = = = = 3 ; 1 ; ",
"< 9 q 0 0 q 0 0 : 9 9 < w 2 < < @ - < < < < < < 1 ; 3 3 1 ; ; # < ; ; - ; ; ; - < < < < < = % < 1 1 ; - ; ; ; < ; - ; - 1 ; 3 ; ",
"< < < < ; < < < < < < < < < ; < . - 1 < < < < < ; 1 ; * ; 3 = . < < ; 1 ; < < ; < < < < < + + < ; ; 1 1 1 ; 1 ; < ; ; 1 ; 3 * ; ",
"= % = = = = = = = - % % = = % =   + % % % = % % = = % = = % @ . = = = = % % = = % = % = % o O = = = % % = - = % = = = = % = = % ",
"O O O O O O O O O O O O O O O O X X o O o o O O O O O O O O O . O O O O O O O O o O O O O   X O O O o o o O o o O O O O O O O O ",
"$ $ $ $ @ $ + . $ $ + $ $ $ $ $ $ $ $ # % $ $ $ $ $ $ + + $ + $ . + # = $ $ % $ $ $ # $ $ $ $ $ $ $ $ $ # $ $ $ = o o $ $ $ $ $ ",
"t t t t t t :   t t t t t t t t t t q i y t q t y y t t t t t t . < s q q i q q t t t r t q i t t r i q q i t t t # = q t y r q ",
"t t 0 < : 0 2 = t a a t b b b b b b b m i q t t > < < > t 9 2 t   < q i b m d y t t t t b b b b b b b x t a a y y $ $ q : < 2 y ",
"t t 0 < < 0 0 % t i p a i a b b b b b b q y t t < < 2 0 > 0 t t . 1 k q b b d q t t t t b b b b b b j i a p p a y $ $ y < < 2 t ",
"t t 0 : : q 2 = t t i a t p a a a a a a t t t t > 2 0 y 2 q t t o 1 H i m b a i t t t t a a a a a a p t a i i a t % % y : < 2 t ",
"t t q 1 : 0 9 $ t t t t t t t t t t t t t t t t i t t y t t t y = 2 F y m m a q t t y t y q y t t t t t t t t t q < < q : < 2 t ",
"t t 0 : t y 2 % t t t t t t t t y t t t t t t t y t t t t t t t r B 8 t t a a y t t t t t t t t t t t t t t t t q : , y t 2 2 y ",
"t t t 0 2 0 0 = t t t q 2 2 2 2 t 9 0 t t t 0 2 y 0 9 2 2 q t t r F t t a p i q t t t t t t t t t t t t t t t t y : < t 2 9 0 t ",
"t t t 0 2 0 2 + t t t t : < < 2 0 9 0 t t t t 2 0 9 1 < < 0 t t r F t t a p i q t t t t t t t t t t t t t t t y q < < t 2 9 t t ",
"t t 0 : t t < . t t t t : : 2 t > q t t t t ;.F > 0 0 : : 0 t y 6 F t t t a a i t t t t t t t t t t t t t t t t i ; < q t 2 2 t ",
"t t t t t t 1   r y y t y q q y t y t y t t t t t y t y y F y t 6 G F y y i q t t q i q t y t t t t q i q i r y i $ $ y t t t t ",
"$ $ + $ $ $ + . $ $ $ $ $ $ = = $ $ $ $ $ $  .Z $ $ $ $ $ F A r 6 F F % # $ $ $ $ $ $ $ + = $ $ $ $ $ $ # # $ $ $ o o + $ $ $ $ ",
"O O O O O O O O O O O o O O O O O O O O O O y F O O O O O j F 6 7 G Z y # o o o o o o O.O O O O X o O O o o O O o o O O O O O O ",
"= % = = = = = % = = = = = - = - % % = = = = o.' = = % % % O F r 8 G F F 6 = - = - % % F - = = = % - - $ - = = = % % = % = % $ % ",
"< < < < * < < < < < < < 3 ; ; ; < < < < < < 1 < G < < 1 < O G G G F 4.G G ` < < < < < < < < < < < < < < < < ; 1 < < < < < 1 < ; ",
"< < < - - - - - - ; < - ; 1 * 3 < < < < < < < < - - - - < = = Q T 7.4.G G | 9 < w -.[ < < ; - - - - - - < ; ; < < < < < < 1 < 1 ",
"< < , = = = = - - - - - ; ; ; 1 < < < < < < ; ; - - = = < - _ ' T 7.7.4.I | 0 2 ` ] [ 1 < - = = = = = - ; - - ; < < < < 1 1 < 1 ",
"< < , = = = = - < - - < - ; 1 1 1 < < < < < ; - ; - = = < 6 F D E 7.7.7.I ` 2 t F / ~ * 1 - = = - = - < = ; ; = < < < < ; ; ; 3 ",
"< < < < < < ; ; < < ; 1 < 1 ; ; < < ; * 1 < ; < < < ; ; * G F P 7.7.4.6.I ` : < G O.; ; 3 ; ; ; < < < 1 ; * 3 < ; 3 * ; 1 ; 1 ; ",
"- - - - - - - - - - - - - - - - - - - - - - - - - G ..- ; G F P 7.1.4.F F ` - S G X.; - - - ; - - = ; = - - - - - ; ; - - - - ; ",
"+ + + @ # @ # @ @ @ # @ @ # + + # @ # @ @ @ @ + # G F W + o F P 7.7.A F * + + G G X.+ + + + + + # @ @ @ + + + + @ + + + + + # # ",
"  . . X . . . . . . . . . . . . . . . . o . . . . G G !     G R 7.7.P F & + f F G e . W . o . . . . . . . . . . . . . . . . . . ",
"t y t t t t t t t y t y   1 y y q q s k q t t y y F F ^ t t F P 7.7.4.F h d S G G *.y A t t y y t y t t t t : . t y y t t t t y ",
"t p a a a a a k t p i y   > 0 2 9 q s S t t t y 9 G G ^ t y F P 9.7.9.D g $.G G F =.y A a a a a a a a t a i :   y 0 2 2 y t t t ",
"t a b b b b b a p p a t   : 0 : < e q q F t q 0 G F G ) t t S G T 7.7.7.I K 4.G r M A G b b b b b k p i a i 2 . t : < < t t t t ",
"t d b m b b z t x p t y X > 0 1 < q i q A H } : G 4.D G A t G G T 7.7.7.1.4.4.G q -.C i m b b b x i i b t y < . t 2 : < t t t t ",
"t y t t q 8 t t q y y y = 2 u t < q i q h H ] ^ G 9.D G G ^ S E 4.7.t.7.6.7.7.G ^ ] C y q i t t q q q i q q 9 = t t 0 1 y t t t ",
"t t t t t q t t q r y y = 2 0 2 0 q i q t B F G D 7.K I J D D <.4.1.h.7.4.7.4.K D A C q q t t t q i i q q i 2 % t 0 0 0 t t t t ",
"t t t t t i t t t t t y % 2 0 2 0 t t q t Z G S 9.7.1.2.h.7.7.7.7.6.h.7.7.7.7.1.7.U C t i q t t q i q q i i 6 = y 2 2 0 t t t t ",
"t t t t t t t t t t t y = 0 t y > 0 t t t Z G S 7.6.j.t.9.7.6.1.7.7.1.h.3.7.7.7.7.U F D 8 q t t i q q i q q 2 = u t q : t t t t ",
"t t t t t t t t t t t y = 2 0 < t t t t t B Y 7.7.7.j.u.7.7.7.r.r.7.7.h.3.7.7.h.6.9.9.S { s y t t t t t t t 9 = y 2 2 t t t t t ",
"t t t y t t t t t t t t O 2 t 0 t t t y :.F L y.7.7.j.g.r.7.9.d.s.7.6.h.3.2.y.h.r.3.9.F G y y y t t t y t y 2 O y 0 t t t t t t ",
"> > 1 1 1 < > > 2 < : <   % : 1 : 1 < 1 S S ,.h.1.1.j.h.h.1.6.n n 1.1.h.8.2.h.h.h.e.7.G G 2 < < > > 1 1 > : % . < 1 : : : 2 : : ",
"      .   .     . . . .     .         . F F U 7.h.h.h.h.g.7.h.l l h.h.h.i.i.k.v.h.e.4.G F O . . .     . .   . . . . . . . . . . ",
"= = = - = = = = = O O = = = = = = # = = F F R 6.7.h.#.z h.k.= , N h.h.h.h.z.%.b.h.<.G G G - = = = = = = = = = = = = + X = = = = ",
"; ; ; ; ; ; ; ; < O O , , ; , ; ; < ; ; < C A A 7.h.$.4 @.k., f.k.h.k.M.B.n.5 l.h.<.F S < < < - < - < , % < < - , , % . , , , < ",
"; < < < < < < < < + + < ; < , ; < < < ; < ( V A 5.h.c.v < w.< >.a.k.q.@., 3 x k.p.R { ~ 1 2 2 2 2 2 1 2 < 2 1 < 2 1 % O < < < < ",
"< < < < < < < < < - - < % = = = = - ; $ < < o.C F h.h.0.3 < , = N k.= = , u h.h.F ' B < y y t t y t y y : 0 0 < t 2 ; = < < < < ",
"< 1 ; 1 < < < < < - - < - = = = < - - < < < < < F F y.h.h.5 , < = , < m.x.h.h.S F +.< < y t y y y y 0 > y 2 2 t < < ; % < < < < ",
"< 1 1 ; < < < < < # # < ; ; ; ; < , < < < < < < O F F L h.h.N.V.C.C.B.k.h.y.F G < < < : 2 2 2 2 2 2 1 : 2 < < 2 < < % O < < < < ",
"; ; ; ; ; ; , < ; @ O - < ; ; , , < - < - ; ; < . 1 q t c c 3 &.&.&.&.c c u 0 w ; ; ; ; ; ; , ; < - ; : ; ; ; ; ; - % . - ; ; ; ",
"= = = = = = = = = o o - = = = = = = = = = = = = . @ = = = = = = = = = = = = = = = = = = = = = = = = = # = = = = - = +   = = = = ",
". . . . . .     . . .   . . . . . . . . . . . . . .   . . .     . . . .   . .   . .   .     .   . .   . .   o   . . .   . . . . ",
"1 1 1 1 < 1 < < 1 < %   < < < 1 < 1 1 1 : 1 1 : 1 < 1 < 1 1 < < < < < 1   % 2 < < 1 1 1 < > 1 1 1 O O : 1 : < < 2 : > : 1 1 < 1 ",
"e y r w 0 0 t t 0 t 1   y y t p p t t t y t t p i i p i i i i t p t t y   > t 0 0 q y t t q 0 0 y % % t p s q p i i i i i p s y ",
"y y 0 < 1 < 2 t < 0 1 X y y p b b p t t t t i b m m b b b b a t b p t y   1 9 1 < 0 t t y 2 1 < y < < t x s i m b b b b b b a y ",
"t t 0 : < 0 0 : t t >   t t p m b i t t t t p b b b b b b p p b t a a t   : 0 < < q t t t 2 : : t : : t i a c t b b b b b m d y ",
"t t t 0 0 t t 0 t t 2 + t t p b b p t t t t t p p p i i p t y i y i i t + 2 0 < < 0 t t t 2 < : t , < t q i i t i i p i p p i y ",
"t t t t y t t t t t 2 = t t i c b i t t t t t t r t t t t t t t t t t y = 0 0 2 : 0 t t t 2 < 2 t < < t t t t t t t t t q t t t ",
"t t t t t y y y t t 9 = y r q i m i t t t t t t t t t t t t t t t t t t = 2 t t : 0 t t t 2 2 y t , : q t t t t t t t t t t t t ",
"t 2 2 t < < : 1 t t 0 % t t i m t t 8 t t t t t t t t t t t t t t t t t % 0 0 : t t t t y t 0 : t < < t t t 0 : < < 2 t > q t t ",
"t 0 9 2 0 < < < q t 2 O y t t i p i t t t t t t t t t t t t t t t t y t = 2 t 0 1 t t t t 0 9 0 t = = t t t 0 : : 2 0 2 0 q t t ",
"t t t 2 t 0 2 2 t t <   t t t t a i t t t t t t t t t t t t t t t t t y @ 2 t t 2 0 t t t 0 0 t t $ + t t t t 2 2 0 q 6 t t t t ",
"t t t t t t t t t t 2   y t t t q i t t t t t t t t t t t t t t t t t t   < t t t t t t t t t t t $ $ t t t t t t t t t t t t t "
};
