/* XPM */
static char *_240a78bd5ea4022b0c6232aac888d9cTYkExkwXDoel1vfU[] = {
/* columns rows colors chars-per-pixel */
"64 64 29 1 ",
"  c #020101",
". c #080707",
"X c #090807",
"o c #0E0C0C",
"O c #100E0D",
"+ c #12100F",
"@ c #151413",
"# c #181716",
"$ c #1A1817",
"% c #1C1A19",
"& c #201F1D",
"* c #22211F",
"= c #262523",
"- c #282725",
"; c #292926",
": c #2D2D2A",
"> c #302F2D",
", c #31312E",
"< c #353533",
"1 c #383735",
"2 c #383835",
"3 c #3C3C3A",
"4 c #403F3D",
"5 c #41413E",
"6 c #454543",
"7 c #484846",
"8 c #4D4D4A",
"9 c #51514F",
"0 c #555553",
/* pixels */
";477777777777777777777777775:;&&:<888888888888888888888888882:+ ",
"444452,<,<<,,<<<<<,<,<<,<<53:*Xo22566522<2222<22222222222<462:O ",
"74323,:;::;:;:;::;:;:;:::,32:*  355353:::,:::::,:,;:::::::341:+ ",
"72,<,;;;:;:;:;:;;:;;;::;;:,:%# X23<<<<:,:,:,::;;:,;;:,:,::<<-%. ",
"7<;:;;=;:;;;;:;:;:;::;:::;;*+X  33:>:,::::,:::;;::;-;,:::,,:%O  ",
"7<;,;;;;;;;;:;:;;;:;;:;;;::;oo X23>::::,,::::,;::::;:::,::::%O. ",
"7,;;::;::;=;:;;;*;;::;;::;:;Oo  33:>:>::,:::,:::,:,,:::::,,:%o  ",
"7<;;;::;;;;;;::;;;::;::;;::*oX  33>:>::,;::,:::,::::,:,:::::%+  ",
"7<;;;;:;;:;:;:;:;;:;:;;::;;=OX  23>::>::;;:::::::,:,,::::,:,%O. ",
"7;%%%-;::;:;:;;:::;:;:;-%%%#OX .32%%%%:>:;,:,:,:::::::,>=%%%#o  ",
"7*+o+*:;;;;;:;:;;;;::;;-OoOOoo  22+OO@::::::::::,:::::::$oOOOO. ",
"3%ooo$%*****&&&**&&&*&*%OOoOoX  ;;OOO+**=**=**=******=**#oOOOO  ",
":#oooooooooooooooooooooooOoOoX  OO+o+ooOoooOOOoO++oOoOOOOOooOO. ",
"&oXX..XXXXXXXXXX..............  XX..XX..XX..XX..XXXX..XXXXX..X  ",
"+                                                               ",
"%###@######@OX  Xo@@@@@@@@@@@@@@@@@@@@@@@@@@..  Xo@###########. ",
"267777777773;@ X%:33433444333433343533333443#O  *-677777777777@ ",
"645555555673>% o:<44531222222222222232231143=%  :1677755555555@ ",
"0422222225752& @343352:::::,:,:,>>,::::::>34,:. 17777632222221+ ",
"042222222563<% @433321,:,:::::::::::::::>>31:=  2766662222222<+ ",
"05222222222,-@ @32:,::,:,:::::::=;>>::::::>:@O  27322222222222+ ",
"0322<222222,;# @42::,:::;::,,:,:;;>;::::>:::@O  27222222<<222<+ ",
"052<,,22121<-# @41::,:::;;:::::,:>>:--;;::>:@O .27222222,,<22<+ ",
"052<,<22221,-# @31,:::,:;;,:,:::::>:;-;;::>:@o  37322222<,<221+ ",
"05222222222,-# @4<:::::::::,:,:,>:::>>::::::@+  2732221122222<+ ",
"0522222<<,<,-# @4<=--;,:,::::,::>:>::::>-=-=+o  36<>,><1222222+ ",
"0522122,;;;;-# @4;ooo$:::,,::::::::::>>:@ooo+o  27&$#%<122222<+ ",
"93<<<<<,;;;;-# O1-OOO$;;;;;;;:;;;:;::=:=+OOO+o  <4&%%%:<,<,<<<o ",
"2>;;;;;;-;;;;# .OOoo+oo++++o+o+o++++ooooOOO+Oo  @%$$$$%$%$$#$$. ",
",*&&***%&&&&&O  oooooooXoXoXoXoXXXoXoooooXoXoX  +@@@@@@@@@@@@@. ",
"+X                                                              ",
"+X X . . . .. .  .   . . . .       .  .. .  .  . . .  . . .     ",
";133233323322323332323323331%@  %*22222222222222222222222222:#X ",
"<334533333333333333333333332*$  &-3333222<222222222222222222:&o ",
"76444<:::>:,,:,::::,:,:,:<43,* .223333;;;::;:;:::;:::;;::;<3,;o ",
"85333<,::::,:::::::::::::,52:*  222222:;::;:;:;;;:;::;:;::<2,;o ",
"82:,,,::;::::,:,::,:-;;;::,;+o  22:::,;;;::;;:*;;::;:;:::;::%+  ",
"82:::::;;:>:::::,:::-;-;:,,;+o .22;:;;;::;;::;;*;;;:;:;;;:;:$o  ",
"82:,:,:::,:::,::::::,::::::;+X  22:;;:::;:;:;:;::;:;:;==;::;%+X ",
"82:::,:,:::>:,:,,,::::,:,,:;oo .22:;:;:;:;:;:;:;;:;:;:==;;;;%o  ",
"82::::::::>;;;::::,::,:::>:;Oo  22::;;;:;;;=:;:::;;=;;;;:;;;%o  ",
"81::::,:>:::;:,:,:::::::;::=oo  22---=:;:;=-;;:;;:=;;::;;;;;#OX ",
"8=OOO=:::>:>:::::,::;;,;++++OX .2<+++@;;:;:;;::;:;;;:;;:#OOO+o  ",
"8*+oo=,::>::::,:::::-;:;+OOOOo  2,OOo@;;;:;::;::;:::;:;;#OOOoO  ",
"1%OOO@@@@@@@@@@@@##@@@@@OOOOoo  @@oOoO@@@@+@@+@+@@+@@@@@+oooo+X ",
":@OOoOoOOoOOOooOoooOooOoOOOoOX  oooOooOOoo+ooooooooooooooooooo  ",
"+.          .                                                   ",
"o.                             .                                ",
"-,<<2<<<,<<-#o o*:32323222323322322222323222-&  @#:<<<<<<:<<<<o ",
":2433334335,&+ o;277777677777577777777777777>-  %*235533333333@ ",
"72>,<:,,,252:@ @57777633333233232323333223772<. ,25533<,<<:<,,o ",
"82:::::::252>% @777775<1<222222222222222227721. <44453,:::::::O ",
"81::,;;::,<;@o @753332,,,<222222222222<,2233;=  <3<<,<,:,::>:;o ",
"81:,,;-::::&Oo @75222<,,,,22222222222<,,2222%$  <3,,,;:::>::;-o ",
"8<:;;;:::::=O. @75222211<222222<,,2222222222&$  ,3,;::;;::>:::o ",
"81,;=::::,:=O. %75222222222222<2,,2222222222*$  <3,,:,;=::::::O ",
"8<,::::>:,:=oX #751222222<,<22222<2222221222&$  <5,:::::::::::o ",
"82:::,::,::=o. #7512222222,,2222222222221122&$  ,3,:,,:::,,:,:o ",
"82,::::=@$$@o. #71&==-1122<<22222222222<====%# .<3&$$$;:::::::O ",
"82:::,:*OOoOO. #7<$%$=1222222<2222222222%##%%$  <3@Oo+;::,,:::o ",
"3=%%%%%@OOOOOX o:=$$%%==============**--$$$$$#  %=+oOO$%%%%%%$. ",
":@O+OoOOoOOoOX .$##$$$$$$$$$$$$##$$$%$$$$$$$$#  ooOOOoOOOOOo@o  ",
"o..  .. .  ..   ....XX....XX....XX....XX....X.    .  .. .  ..   ",
"                                                                "
};
