/* XPM */
static char *_94440cef33b4313c06d396286be5eafrcCRfF4tyKlATOXw[] = {
/* columns rows colors chars-per-pixel */
"32 32 171 2 ",
"   c #060500",
".  c #0C0A00",
"X  c #241B01",
"o  c #2C2000",
"O  c #35320B",
"+  c #39441B",
"@  c #5D4803",
"#  c #684F02",
"$  c #795C03",
"%  c #7D5747",
"&  c #7F5B45",
"*  c #785548",
"=  c #7B6D40",
"-  c #7C7A46",
";  c #81261B",
":  c #816203",
">  c #967303",
",  c #A27B04",
"<  c #8D5523",
"1  c #8A5928",
"2  c #815435",
"3  c #B64A3F",
"4  c #896428",
"5  c #87722C",
"6  c #89732F",
"7  c #8A6F3D",
"8  c #897A30",
"9  c #AD7E2F",
"0  c #BE6A39",
"q  c #A67939",
"w  c #BA763C",
"e  c #C65A1C",
"r  c #E06E1D",
"t  c #C75936",
"y  c #D75838",
"u  c #F7542E",
"i  c #F55F2C",
"p  c #EF4736",
"a  c #E64B36",
"s  c #EC4A37",
"d  c #EE413B",
"f  c #F54135",
"g  c #F94134",
"h  c #F74A31",
"j  c #F0413A",
"k  c #E35537",
"l  c #C9673B",
"z  c #C26D3C",
"x  c #C07B32",
"c  c #E26E2D",
"v  c #F4612C",
"b  c #FA6228",
"n  c #825B44",
"m  c #846944",
"M  c #AC6241",
"N  c #AF7B5D",
"B  c #BA4267",
"V  c #AA5F6A",
"C  c #AA4073",
"Z  c #D15F4A",
"A  c #C2405F",
"S  c #E34144",
"D  c #C14160",
"F  c #6C933D",
"G  c #779736",
"H  c #74953D",
"J  c #7B953D",
"K  c #759A3D",
"L  c #7B9C3E",
"P  c #77A23F",
"I  c #7CA13E",
"U  c #7BA93F",
"Y  c #788B44",
"T  c #6D9541",
"R  c #759441",
"E  c #7C9541",
"W  c #769A41",
"Q  c #7C9C41",
"!  c #79994E",
"~  c #69905F",
"^  c #77A142",
"/  c #7DA242",
"(  c #7EA941",
")  c #878738",
"_  c #838E3B",
"`  c #97843E",
"'  c #889739",
"]  c #819E3E",
"[  c #92923F",
"{  c #A88638",
"}  c #91A02E",
"|  c #82A23E",
" . c #8AA83B",
".. c #99A938",
"X. c #A3A62C",
"o. c #ACA62F",
"O. c #B2AE26",
"+. c #CA9B05",
"@. c #CC981F",
"#. c #D49F1C",
"$. c #FA831D",
"%. c #D9A505",
"&. c #D9A419",
"*. c #E2AC05",
"=. c #FFA90C",
"-. c #EEB606",
";. c #E8B60F",
":. c #F4BA06",
">. c #FFBF07",
",. c #F6BB0D",
"<. c #FCBC09",
"1. c #E5AD13",
"2. c #E4BB12",
"3. c #E7B719",
"4. c #F3BC11",
"5. c #C99620",
"6. c #E88F28",
"7. c #F38122",
"8. c #C5B422",
"9. c #DAB12A",
"0. c #FFC306",
"q. c #F0C20E",
"w. c #FCC109",
"e. c #858C45",
"r. c #809442",
"t. c #829D42",
"y. c #889D43",
"u. c #959744",
"i. c #B49B50",
"p. c #83A342",
"a. c #8AA444",
"s. c #84A944",
"d. c #8BA945",
"f. c #80A248",
"g. c #8BA648",
"h. c #84AA49",
"j. c #94A946",
"k. c #94B040",
"l. c #B8A04B",
"z. c #8D8976",
"x. c #2D54B6",
"c. c #3B6DA4",
"v. c #3063B6",
"b. c #6F5F9A",
"n. c #49728B",
"m. c #5B778F",
"M. c #68749A",
"N. c #455EBD",
"B. c #675CA3",
"V. c #536BAD",
"C. c #4563BB",
"Z. c #293EDD",
"A. c #383FD1",
"S. c #0B3FF7",
"D. c #003EFF",
"F. c #433FC9",
"G. c #1643DD",
"H. c #1C55D7",
"J. c #325ACE",
"K. c #3840D1",
"L. c #2652D5",
"P. c #2F5AD1",
"I. c #2152DF",
"U. c #134BE6",
"Y. c #0A44F5",
"T. c #0141FE",
"R. c #4541C6",
"E. c #4061C1",
"W. c #8E3F8A",
"Q. c #864F8C",
"!. c #914189",
/* pixels */
"t.t.r.j.p.p.| y.| | t.E L t.p.E Q W / Q Q E E Q Q t.a.Q I I K P ",
"t.t.J d.L / t.L L t.a.t.Q Q Q Q / t.h./ f.W R Q L r.p.I a.s.I P ",
"p.p.I p.L E J E t.t.p.p.p.E K R Q / Q E ^ F T ^ / t.| L / ( p.| ",
"E L p.I I ] e.E J p./ a./ H W Q t.W W W ^ T T ^ W I / Q / L a.t.",
"t.H | a.I ] E E p./ K p.L K ^ Q ! / ^ Q E W ! ^ Q R ^ W / f.p.p.",
"/ F K K J L K E / L L t./ R W R ! / / h.h.( / / ^ ^ / ( f.p.Q t.",
"/ H L p.H K L W L K K Q p.( H R W ^ W a.h./ Q Q p./ / Q L L W H ",
"t.] K a.L J L Q / / ) z z z 0 0 z z e.t.h.f./ t.( ( P K K W / E ",
"t.a.y.p.r.] J t.L J q f g f g f f f M ) u.u.[ d.( ^ ^ I R ^ / L ",
"p.t.y.H F j.a.L L y p f g f f f f h h a s p y u.( ( ( K L ( L K ",
"p.Q y.E H j.j.J t.M 3 3 3 t $.$.r ; e 7.0 w w ] / P K F R L L W ",
"Q Q t.Q R J p.Q r.m n * & q w.0.+.. > q..... .] / t./ / K K I K ",
"| K G K Q p.a.e.m #.5.% @.,.0.0.+.  > 0.,.q.2. .t.g.a./ ( / Q L ",
"] L K K K r.a.e.% 1.&.% 9 #.>.0.;.$ : , :.0.w.O...p.p.p./ / Q J ",
"L | L H H H p.r.& &.#.n n q <.0.>.-.# X %.:.-.>.8.p.p.j.d.a.t.r.",
"r.| I I Q L | a.J 7 9 1.1.;.>.0.+.O     X o O ' k.s.p.p.a.d.a.a.",
"L I L / r.L ] a.L - { 0.0.0.0.0.*.# # @ O + + E p.p.] r.L | t.r.",
"L L L G J Q Q L L y.o.<.,.4.<.<.<.,.,.;.k.] h.p.p.L | t.] L a.t.",
"y.Q I | K H R t.y.l k v b.B.i b Z N.V i k q I I L t.a.y.r.E J L ",
"Q Q H a.I H E _ { k g j R.K.d g A S.W.g g l ` a.d.t.r.L r.t.K K ",
"Q / E Q L K L q f f f j R.A.S f D S.!.g g f a [ a.E ^ Q I / E Q ",
"/ Q E R K J 0 k f f f f F.Y.R.R.A.D.!.g f f j y { s./ / p.Q W ^ ",
"W / / R K J c b b h S B B.P.T.T.Y.E.Q.D j u b b x / p./ / L Q Q ",
"^ W Q W L L ;.>.<.i C Y.i.l.Y.T.J.3.M.Z.S $.0.w.8.p.s.Q I / / W ",
"W / E H F H 2.0.0.=.N S.J.C.T.T.U.V.I.I.6.=.0.0.8.E p.p.E Q / p.",
"I / K K L G 2.0.0.9.z.D.D.S.T.T.T.D.T.I.l.3.0.0.8.Q E ] H Q / / ",
"/ ( s./ | G 2.0.,.C.Y.D.T.T.T.T.D.T.T.T.Y.z.0.0.8.W K Q R / U L ",
"s.p.p.L  .I X.O.X.L.D.D.D.U.n.n.c.T.T.T.T.m.O.O.} K H H K H P P ",
"/ s.a.I a.| L I H x.G.G.U.v.K G ~ H.U.G.G.n.G J p.L R / / H K ^ ",
"U d.s.P P s.] J 4 2 2 2 Y ! E Y Q ! = 2 & 1 < J Q p.a.s./ F K / ",
"L | | ( I I 8 4 < < < < ) a.J J J ] 5 < < < < 6 ) L J | a.K K L ",
" .p.a.] J J 1 < < < < 1 ) p.] J J J 5 < < < < < 8 I P a.d.d.L H "
};
