/* XPM */
static char *_166219230f042cc875997f4d876f8a2TemA54kJSygrozLU[] = {
/* columns rows colors chars-per-pixel */
"32 32 55 1 ",
"  c #534741",
". c #544841",
"X c #554841",
"o c #564942",
"O c #584A42",
"+ c #5A4B42",
"@ c #5E4D43",
"# c #614F44",
"$ c #625044",
"% c #645144",
"& c #655244",
"* c #675345",
"= c #685445",
"- c #695445",
"; c #6A5445",
": c #6A5545",
"> c #7C5F49",
", c #7E6149",
"< c #806249",
"1 c #88674B",
"2 c #8C694C",
"3 c #8F6A4C",
"4 c #916C4D",
"5 c #926C4D",
"6 c #936D4D",
"7 c #946E4D",
"8 c #956E4D",
"9 c #A47750",
"0 c #A57850",
"q c #A97A51",
"w c #B78254",
"e c #B98354",
"r c #BA8454",
"t c #BB8454",
"y c #C98D57",
"u c #CA8E57",
"i c #CC8F58",
"p c #CD8F58",
"a c #CE9058",
"s c #CF9158",
"d c #D09158",
"f c #D19158",
"g c #D19258",
"h c #D29259",
"j c #D9975A",
"k c #E69E5C",
"l c #E79F5D",
"z c #E8A05D",
"x c #E9A05D",
"c c #ECA25D",
"v c #F1A45E",
"b c #FEAC61",
"n c #FFAF61",
"m c #FFAF62",
"M c #FFB062",
/* pixels */
" X O XXO...X XOX XXX...X X O  X ",
"X9uuuuuuuuuuupu1,uuuuuuuupuiii9 ",
"XiMmmmmmMMMMmmm83mmmMMMMmmmMMMiO",
"XummbbmmMMMvmmv83bmmMMMvmmvMmMi ",
"XuMMmmbbMMvMMMM43mmmvmMMMMMMmmy ",
"OuMvbbbmMvMMvMv81bmvmMMvmvmvbmu ",
"XummmvmmMnMMMMM83mmmmmvMmvmmmMp ",
"Xqhhhdddfffgfff,,fffffjghjfffhq ",
"X$=====&O*=====&&===;==O&:====% ",
"Xwzzklzt&fkkkkkkkkkzkkh&rxkzkkw.",
" uMMvMmp=zmmMMMMmvvMmmz=iMvMmMu.",
" umMmmmp=zMvMvMvMMmmMvl=iMMMmMu.",
"Xummmbmp=zMmvMmmMMMvMmz=iMMmmMi ",
"Xummmbmp*cMvmMMvvMMMvml=fMvvvMuO",
"Xummbbmp=lmmvMmmmMMvMMz=iMmmMMuX",
"X,44444>O14488484888441O,44444, ",
".,5858858448448==4445558858555, ",
".uMMMMvMvmMMvMM83mmvMMvMMMMvMMu.",
".uMvMvMMMMmvMMM83mMmvMvmvMvmmMu.",
".uMMMMvMvMMMvMv84MMvMMMMMMMMmMp.",
".pMmMMvMMvMMMMM81vvMMMvMmvmvvMi ",
"OimmMvMMMMmMvMM84MnMvnmMMmmmMMuX",
".rxxzzzczzxxzzz11zzzvcxxzzvmvMi ",
" :&:;;;===&:;==@#==;::::==2z1quX",
".0puyyuq#tauuyuppuuiuie#qijvjcuO",
".ummmmmi*lmmmmMMmMmmmMl;fMMvMMuO",
".ummmmmp*lmmmmmMmvmvmml=iMvmmMuX",
"Oummvmmp*lbmvmvmmmbbmml=iMMMmmuX",
" umMMvMh=zmmbmmmmvMMmml=immmmmu ",
"XumMMMMh;lmmmmmMmmMMmml*ammMmmuX",
"X9auuuuq#euuuyuuuuuuuue*quuuuu9X",
" XXXXXXX XXO  OXXX  XO    XXXXX "
};
