/* XPM */
static char *_c3f7a8845ec437fda716b34252e82a7txeL218oe9Ml5Agv[] = {
/* columns rows colors chars-per-pixel */
"32 32 156 2 ",
"   c #070000",
".  c #252222",
"X  c #282728",
"o  c #2C2B2C",
"O  c #342727",
"+  c #302C2D",
"@  c #392C2C",
"#  c #343435",
"$  c #3A3737",
"%  c #4C0000",
"&  c #520001",
"*  c #5D0202",
"=  c #600000",
"-  c #720E0F",
";  c #731113",
":  c #73191A",
">  c #4D3D3D",
",  c #444444",
"<  c #4D4C4D",
"1  c #534C4D",
"2  c #4E4F50",
"3  c #5C4F50",
"4  c #545354",
"5  c #575758",
"6  c #5B5A5B",
"7  c #60625C",
"8  c #626162",
"9  c #696D65",
"0  c #716162",
"q  c #707269",
"w  c #757A6C",
"e  c #787D6D",
"r  c #737475",
"t  c #757870",
"y  c #7A7C72",
"u  c #7E7E7F",
"i  c #850D0E",
"p  c #C20000",
"a  c #CA0000",
"s  c #CA1A1A",
"d  c #E20909",
"f  c #FF0404",
"g  c #FF0D0D",
"h  c #FF1313",
"j  c #FF1A1A",
"k  c #FF2121",
"l  c #FF2F2F",
"z  c #FF3232",
"x  c #FF3C3C",
"c  c #847071",
"v  c #DC4C4C",
"b  c #E54141",
"n  c #FF4040",
"m  c #FF4D4D",
"M  c #FF5555",
"N  c #FF5959",
"B  c #FF6363",
"V  c #FF7373",
"C  c #FF7B7B",
"Z  c #778D3F",
"A  c #6F9637",
"S  c #6D933B",
"D  c #73953C",
"F  c #7A963D",
"G  c #759A3D",
"H  c #7B9C3E",
"J  c #77A23F",
"K  c #7CA13E",
"L  c #7BA93F",
"P  c #6D9541",
"I  c #759541",
"U  c #7B9641",
"Y  c #769A41",
"T  c #7C9C41",
"R  c #7E9C48",
"E  c #77A142",
"W  c #7DA242",
"Q  c #7DA941",
"!  c #819F3F",
"~  c #82A23F",
"^  c #868E44",
"/  c #809442",
"(  c #829D42",
")  c #899F43",
"_  c #83A342",
"`  c #8AA544",
"'  c #84A844",
"]  c #8BA944",
"[  c #83A34B",
"{  c #8AA54B",
"}  c #84AA49",
"|  c #8BA94D",
" . c #92A646",
".. c #90A847",
"X. c #94A649",
"o. c #92AD49",
"O. c #84A553",
"+. c #8BA553",
"@. c #86A953",
"#. c #8DAC54",
"$. c #8DA85F",
"%. c #91AE53",
"&. c #97AA58",
"*. c #8BB256",
"=. c #93B452",
"-. c #98B555",
";. c #96B258",
":. c #808675",
">. c #838A76",
",. c #838D7A",
"<. c #8EA560",
"1. c #9EBB67",
"2. c #96B368",
"3. c #9EB36D",
"4. c #9DB86B",
"5. c #9EAF75",
"6. c #9EBA76",
"7. c #A4B66D",
"8. c #838283",
"9. c #868788",
"0. c #8D8D8D",
"q. c #94998A",
"w. c #999F8C",
"e. c #919090",
"r. c #9C9B9B",
"t. c #9CA38D",
"y. c #9DA391",
"u. c #A1A88D",
"i. c #A2A995",
"p. c #A5A5A5",
"a. c #B8B9B9",
"s. c #FF8484",
"d. c #FF8989",
"f. c #FF9595",
"g. c #CDA0A0",
"h. c #CDADAD",
"j. c #DBA3A3",
"k. c #FFA9A9",
"l. c #E5B9B9",
"z. c #FFB3B3",
"x. c gray76",
"c. c #C7C8C8",
"v. c #CBCDCD",
"b. c LightGray",
"n. c #DDDDDD",
"m. c #EACFCF",
"M. c #FFC3C3",
"N. c #FFCFCF",
"B. c #E2D2D2",
"V. c #FFDBDB",
"C. c #E3E3E3",
"Z. c #EBEBEB",
"A. c #FFE9E9",
"S. c #F3F3F3",
"D. c #FFF3F3",
"F. c #FFFEFE",
/* pixels */
"( ( / o._ ( _ ` ~ ~ ( F H ( ( U T G W R R I U R H F ` T K K G K ",
"( ( F ] ! H ! F F ( ` ( H ( H Y [ ( _ Q W Y I R T ( _ K _ ' K J ",
"_ _ K _ H T F / ( ( _ _ ( Y G G Y W R G E P P E T _ ! H Q _ _ _ ",
"U H _ K K U ^ F U _ _ ' _ I Y R ( Y Y Y E Y P E Y K W T W W _ ( ",
"( G _ _ _ F / H _ W G _ K I Y R T [ E Y Y Y Y E Y G E E T _ _ _ ",
"W S G F F F G T W H H T W G Y Y I R W | } O.W W R R Q _ _ [ T R ",
"W D K _ D G H Y T G F U _ Q Y I Y E T } } Q Y U W W W H K G Y D ",
"( ( F _ ! F H H K W G F ( *.@.#.@.@.R W ' _ ( ( ' E E G G G T T ",
"( ` _ ` H ~ F H H G D R 5.i.:.,.,.:.w.5.+.` T ' L J E E G W W K ",
"_ U ) G Z X.` H H T <.t.y o 1 : ; 3 X t t.7.H ' ' L Q G G ' G G ",
"_ ( / F D X. .F _ 1.i.# < 0.B.z k m.0.5 o y.4._ K J J D I K G T ",
"T T ( ( D F ` ! | u.# & j.F.d.h g C F.l.= o w.{ W ( W G G G K G ",
"K F A F T _ ` _ 3.e < v x N j f f h M n b 6 9 6.( ] _ W E ( T F ",
"H K H G G ( ` | t.o 9.V.x f d.z.z.f.g l N.r.X q.#._ ` _ W ' W F ",
"F ! H D D G _ -.>.4 C.F.B s.D.F.F.F.f.M F.Z.8 w 1.H (  .] ` ( U ",
"( ~ K K U H H =.>.r F.D.N z.F.F.F.F.M.m A.F.9.w ;.] _ ` ` ] ` ` ",
"F ~ H K ~ U ! %.,.0 V.V g f.F.F.F.F.k.h B V.c w #.~ ~ / H ~ ( / ",
"H F H G F F ( { ,.- j d a s g.v.v.h.s a d j i w #.H _ / ! ! _ ( ",
"_ ( ! ~ G G Z +.,.& p * O > . , , . > @ % p * w #.! ) ) ( F F H ",
"U T G _ H D Y [ t.+   + a.Z.< x.b., C.c.$   . w.;.( ( F ( ( F G ",
"T R Y U H G H Y 2.y.o e.F.S.e.n.Z.0.S.F.p.X q.6.' F E T U T Y T ",
"W W Y U G G W Q H 3.q 2 n.F.F.F.F.F.F.C.6 7 6.G _ ' W W _ T Y W ",
"I Q _ D G D Y T G [ t.# < 8.u u u u 8.5 o t.O.K T _ _ W W G T R ",
"Q I T Y T Y D G S D $.t.e w e y w e w w t.4.T W W _ ] T W J W G ",
"I W U G S S G S A D G [ *.@.O.+.+.&.%.#.| ~ ~ ` ] U ' _ Y T Q _ ",
"K E F G G S D S G D H H T G G G ( ( _ ( ( ~ ' ! _ K U ! F U W T ",
"E W ' W _ D A A D D H H F Y D G _ _ U ( ( ( _ ] Q F F T G W L G ",
"' _ ' K _ K S A A A H K G Y Y ( T _ _ H W F ! K G G D S D I K J ",
"W ' ' K ' _ H K F G H K F F F A T T ~ H G G H ! _ T U W W S Y E ",
"_ ] ' K K ~ ~ H ( G G A _ ! ! Z T _ F H K K H H U _ _ ` W D H E ",
"K ~ ' K K K _ ~ ~ ! _ ~ W ( F D F ! H K G A F _ _ K H _ ' H F K ",
"~ ~ _ ! F (  .o.' H ` .._ _ ! F F F ~ G G D H ~ ] ~ K _ ] _ H D "
};
