/* XPM */
static char *result[] = {
/* columns rows colors chars-per-pixel */
"64 64 169 2 ",
"   c #020101",
".  c #0A0700",
"X  c #0D0A02",
"o  c #0B0A0A",
"O  c #120B00",
"+  c #110F0E",
"@  c #181002",
"#  c #1F1A05",
"$  c #15100D",
"%  c #191309",
"&  c #1E1B09",
"*  c #221B02",
"=  c #221F0C",
"-  c #231914",
";  c #291B15",
":  c #2C1D1B",
">  c #272100",
",  c #2C2200",
"<  c #2D2608",
"1  c #352B07",
"2  c #3E2F01",
"3  c #3C3202",
"4  c #2B2313",
"5  c #342D14",
"6  c #35221A",
"7  c #39311E",
"8  c #372623",
"9  c #3B2725",
"0  c #3C2C24",
"q  c #3B2A29",
"w  c #453805",
"e  c #40390F",
"r  c #4E3F0A",
"t  c #462B1E",
"y  c #482C1D",
"u  c #43311B",
"i  c #4F301B",
"p  c #412D22",
"a  c #4E2B26",
"s  c #452E29",
"d  c #4D2B28",
"f  c #502B26",
"g  c #542F2B",
"h  c #4F3020",
"j  c #4B3B25",
"k  c #45312A",
"l  c #4B332A",
"z  c #4C382A",
"x  c #523223",
"c  c #56302C",
"v  c #5E342E",
"b  c #59392C",
"n  c #60362E",
"m  c #63392D",
"M  c #6A3C2E",
"N  c #703D2E",
"B  c #663931",
"V  c #6B3D31",
"C  c #713F31",
"Z  c #4A411E",
"A  c #68581E",
"S  c #756514",
"D  c #71641D",
"F  c #77691D",
"G  c #7C6D1F",
"H  c #57492D",
"J  c #76432E",
"K  c #78442F",
"L  c #7E482F",
"P  c #6F4031",
"I  c #754232",
"U  c #7A4532",
"Y  c #7E4833",
"T  c #635B34",
"R  c #625439",
"E  c #7C6D20",
"W  c #796C2C",
"Q  c #7D743B",
"!  c #837100",
"~  c #84741A",
"^  c #804733",
"/  c #844C34",
"(  c #894E35",
")  c #8D5135",
"_  c #8C5138",
"`  c #945636",
"'  c #975936",
"]  c #9C5D36",
"[  c #945738",
"{  c #9C5D38",
"}  c #867827",
"|  c #8B7C34",
" . c #A36336",
".. c #A26339",
"X. c #847B43",
"o. c #918110",
"O. c #A28E04",
"+. c #B69F0E",
"@. c #A28D13",
"#. c #B09C1E",
"$. c #B6A017",
"%. c #928324",
"&. c #978922",
"*. c #998B2E",
"=. c #A69426",
"-. c #C6AD14",
";. c #D2BB2A",
":. c #DDC315",
">. c #DBC21A",
",. c #ECCC02",
"<. c #EBCC09",
"1. c #F0CF06",
"2. c #EFD007",
"3. c #EFD00A",
"4. c #F4D406",
"5. c #F4D40B",
"6. c #F8D70B",
"7. c #F9D90A",
"8. c #EBCE12",
"9. c #E6CA1C",
"0. c #E7CB1E",
"q. c #EED115",
"w. c #EDD01A",
"e. c #F5D511",
"r. c #F6D915",
"t. c #F9D914",
"y. c #F5D81D",
"u. c #FDDE1B",
"i. c #FEE01E",
"p. c #E8CD23",
"a. c #E5CC2D",
"s. c #EDD124",
"d. c #EAD029",
"f. c #F5D926",
"g. c #FDDF23",
"h. c #FADE2C",
"j. c #FADE30",
"k. c #F5DA38",
"l. c #F6DC39",
"z. c #FDE022",
"x. c #FDE235",
"c. c #FAE13A",
"v. c #B5A96E",
"b. c #B9B06C",
"n. c #C1B354",
"m. c #DAC649",
"M. c #DCC950",
"N. c #EFD843",
"B. c #ECD64E",
"V. c #EFD84E",
"C. c #FBE544",
"Z. c #FCE849",
"A. c #F9E552",
"S. c #FDEA54",
"D. c #FEEB5B",
"F. c #D5C76D",
"G. c #D3C772",
"H. c #E7D66B",
"J. c #FCE766",
"K. c #FFEE62",
"L. c #FFED6C",
"P. c #FFED73",
"I. c #FDEB7A",
"U. c #C7BC82",
"Y. c #E6DA85",
"T. c #E8DB81",
"R. c #FAEB83",
"E. c #F4E58B",
"W. c #F7E98F",
/* pixels */
"d d d d d d d d d d d d d d d d d d d d d d d d d d d d d d d d d d d d d d d d d d d d d d d d d d d d d d d d d d g g s d d d ",
"v v v v v v v v v v v n v v v v f c v v v v n n v v v v v B v d v v v v v v v v v n v v v g g n v v v v v v v v v v v v v v v v ",
"V V V V V V V V V V V V V V V V d n V V V V V V C C V V V V B d B V V V V V V V V V V V V c c V V V V V V V V V V V V V V C B B ",
"U I I I I I I U I I U I I I I I a M U I I U U C C C U C I C B d C I I I I I I I I I I I I v c I I I I I I I I I I I I I I I I I ",
"I / _ ) _ _ ) _ _ Y Y _ I ( / I B C I I I I I I I I Y C I I V B I V B B B B V I V C I I I V B I I I I I V C C B B B B B I I I I ",
"I / ) _ ) ) ) _ Y / / Y ( ^ Y I B C I I I I I I U I I I I I V B I V B B B V C V C I I I I V V U Y I C V C V V I V B B B I I ^ I ",
"I ^ / ( ( / / / I Y Y I / U I I v V I I I I I I I Y C I ^ I C B I C V V V C I V I I I I I B B I I I C V I C V I V V V V I I I I ",
"I I I I I I I I I I I I I I I I g V I I I U U C I C Y C I C B d I I I I I I I I I I I I I v v I I I I I I I I I I I I I I I I I ",
"B B B B B B B B B B M M m B M B a b M M B B M B B B B B B B v d B B B B M m B B M B B B B c c B B B B B B B B B B B B B B B B B ",
"c c c c g c g g c c c c c c c g a c g g c g c c c c g c c c g d c c c c c c c c g c c c c f f c c c c c c c c g c v c c c c c c ",
"m m m m m m v a B n n n m m m m m m m m m m n m m v s s k k k k q q k k s s b n m m m m m m m m m m m m m m m m v c g v n B n n ",
") ) ( ( _ ` U a _ _ ) ) ) ) ) ) ) ) ) ) ) ) ) ) ) I o             o   o   o L ) ) ) ) ) ) ) ) ( ) ) ) ( ` ) ) ) _ B B _ ) ) ) ) ",
") ) ( C U / Y B ) ] ] (  . . . . . . ...) ) ) / I P & # * & & & & & & & & = L / ( ( ( (  . . ... . . . .( { { ) _ n B ( C C ^ ) ",
") ) / U I / / m ) ` ' ] ` ]  . . . . ...) ) ) z o 3 M.m.H.T.Y.Y.Y.Y.Y.Y.Y.U.5 + b ) ` (  . . . . . .] ` { ' ' ] ` n n ` C Y ^ ) ",
"` ( ( I J / / B ) ) ` ] ) ] ] ] ] ] { { ) ) _ k . 3 l.x.D.P.I.P.I.I.I.I.I.E.<   b ( ` ` ] ] ] ] ] ] ' ) ] ` ` ] ( M M ( U C ^ ) ",
"( ( ( I J / / m ) ) ( ` ( ( ( ` ) ) ) ) ) h y W ~ @.f.z.h.k.k.l.l.l.l.l.l.B.*.X.R y x ( ` ( ( ` ) ) ) ) ( ` ( ) ( I C ` C U ^ ( ",
") ) ( C ` ( ^ M ) ) ) ` ( ) ) ) ) ) ) ) ) $   =.l.g.g.g.5.,.<.,.,.<.<.<.<.0.J.W.Q   - ) ) ) ) ) ) ) ) ) ) ) ) ) ) N C ` ) ^ ^ _ ",
") ) ( / Y ( ^ B ( ) ) ( ^ ^ Y ^ ( / Y Y J 1 , +.g.i.u.u.5.<.<.1.,.2.,.,.2.8.Z.J.%.> 5 J L ) ) ) ) ) ) ) ) ) ) ) ` N C ) ^ / ( ) ",
") ) ( / Y ( Y n ) ) ) ) U I I Y ( ^ a   O m.N.h.z.u.,.,.t.u.u.g.i.i.i.i.i.u.q.9.V.W.v.X   P ) ) ) ) ) ) ) ) ) ) ) C C ) Y ^ ( ( ",
") ) ( K ( ) I d ) ) ) ( J J Y ) J ( i   O a.z.z.z.r.,.,.t.g.g.g.j.z.j.z.u.i.,.<.c.I.G..   P ) ) ) ) ) ) ) ) ) ) ) C C ` ) ^ ^ ) ",
") ) ) ) ) ) U a ) ) ) ) ) ) ( ) ( ` h   O a.z.z.z.r.2.,.i.i.x.S.D.D.D.C.z.z.3.<.l.I.G..   m ) ) ) ) ) ) ) ) ) ) ) m m ) ) ) _ ) ",
"m m m m m m c d n m B m B m m n n m 6   O a.z.z.i.r.,.,.r.z.c.L.I.P.L.S.z.i.2.<.l.I.F..   s m m m M m m m m m m m g g m m n m m ",
"c c c c c c c c c c c c g c g c d d u e r s.z.u.r.7.3.2.e.i.x.Z.A.A.S.Z.C.c.q.3.f.A.M.Z 4 p d s f c c c c c c c c c c c c c c g ",
"B B B B B B B B B B B B B B B n o   D p.w.g.u.5.2.2.i.i.5.4.5.r.r.r.y.C.L.K.x.i.q.8.d.I.E.7   + M B B B B B B B B M B B B M B B ",
"U I I U I I I I I I I I I U C C o   S 5.4.u.i.3.,.2.i.i.6.5.4.7.7.7.6.c.P.L.c.i.e.,.w.L.R.T   o I I I I I C Y C C C I C U Y C C ",
"C I C V V V V V V C I V I I U C     S 4.4.i.i.4.,.2.i.i.6.4.4.7.7.7.r.c.P.L.c.i.3.,.w.L.R.T   o V C B V C C C C C Y I I U C C Y ",
"I I C B B B B B V V C V C C C M     S 4.4.u.i.5.,.2.i.i.7.5.4.7.7.7.r.c.P.L.c.i.e.,.w.L.R.T   + B B B V C C C C C C U I C Y Y C ",
"I I C B B B B V I V V I B C U C o   S 5.4.u.i.3.,.2.i.i.7.4.4.7.7.7.t.c.P.L.c.z.e.,.w.L.R.T   o B B C I B C C V U U U I ^ C C Y ",
"I I I I I I C C I I C I I I C C o   S 4.5.u.i.4.,.2.i.i.6.4.4.7.7.7.r.c.L.L.c.i.e.,.w.L.R.T   + I I I I C C C C Y C C C C C I I ",
"V C V V V V V V V V V V V V V n o   S 4.4.u.i.2.,.2.i.i.6.4.4.7.7.7.r.c.P.L.c.i.5.,.w.L.R.R   + V V V B V B C C V V C V C V V C ",
"v v v v v v v v v v v v v v v g     S 4.5.u.u.5.,.2.i.i.e.4.4.7.7.7.7.c.P.L.c.i.e.,.w.L.R.T   o v v v v v v v v v v v v v v B v ",
"f d d f d g d d g g d d g d d s o   S 5.4.u.i.5.,.2.i.i.6.5.4.7.7.7.t.c.P.L.c.i.e.,.w.P.R.T o + d d d g d d g d d g d d d d d d ",
") ) ) ) ) ) _ _ ) _ ) _ a U ) Y     S 4.4.i.i.5.,.2.z.i.6.4.4.7.7.7.e.c.P.L.x.i.e.,.w.L.R.T   o ) ) _ ) ( ) U d ( _ ) ) ) ) ) ) ",
") ' ] ] ] ] ' ] ) ' ' _ a J ( J o   S 4.4.i.i.2.,.2.i.i.6.4.4.7.7.7.r.c.P.L.c.z.5.,.w.L.R.T   + { ] ' ) ] ` U a _ ^ Y Y _ ) ) ) ",
") ]  . . . . .{ ' ' ' _ a J / P o   S 4.4.u.i.5.,.<.i.i.t.4.4.7.7.7.7.c.P.L.c.i.e.,.w.L.R.T   o ..{ ' ` ' ` U a _ Y I I _ ) ) ) ",
") {  . . . .] ) ..` ) _ a U ( P o   S 4.4.i.i.2.,.4.i.i.6.4.4.7.7.7.r.c.P.L.c.i.e.,.w.L.R.T   o  .' ` ..` ( U d ) Y I U ) ) ) ) ",
") ) ) ` ) ` ) ) ) ) ) _ B / ) Y     S 5.5.u.i.5.,.2.u.i.6.4.4.7.7.7.e.c.P.L.c.i.e.,.w.L.R.T   + ) ) ) ` ( ( Y B ) _ / U _ ) ) ) ",
") ) ) ) ) ) ) ) ) ) ) _ m / ( J o   S 4.4.i.i.4.,.2.i.i.t.4.4.6.7.7.e.c.L.L.x.i.e.,.w.L.R.T   + ) ) ) ) ( ` / M ) / / / ) ) ) ) ",
") ) ) ) ) ) ) ) ) ) ) ) B Y / J     S 5.5.u.u.5.,.3.i.i.6.4.4.7.7.7.6.c.L.L.x.z.e.,.w.L.R.T   + ) ) ) ) ( ( / B _ / ^ / ) ) ) ) ",
") ) ) ( ) ) ) ) ) ) ) _ B Y ) / : - A #.$.y.r.5.3.6.t.t.5.6.7.7.7.7.7.x.S.S.h.i.e.<.p.n.b.H ; 4 ) ) ) ) ` ( ^ B _ _ / K ) ) ) ) ",
") ) ) ) ) ) ) ) ) ) ) _ B Y ( I _ ) i . O :.4.u.u.u.,.,.t.u.u.4.4.4.4.e.z.z.3.,.e.g.;.O   P ( ) ) ) ) ) ) ) ^ B _ Y Y ) ) ) ) ) ",
") ) ) ( ) ) ` ) ) ) ) _ c Y ( ( ) ) y   O :.5.t.u.u.,.,.t.u.u.4.5.4.4.r.u.u.3.,.6.g.;.X   m ) ) ) ) ) ( ) ( Y g _ ( ( ) ) ) ) ) ",
"K U U U C U J U I U U I a M U U U U t   X :.5.t.g.t.,.,.t.g.u.u.u.r.i.i.i.i.1.,.5.g.;.X   b U U U K U U U U M d I U I U U U J U ",
"f a d d f a d a d d d d a d a d d d :   O >.3.u.i.t.,.,.r.u.z.i.i.i.i.i.u.u.1.,.e.h.;.X   9 d d a d d d a a d d a a a d s d a d ",
"B B B B B B B B B c c B B B B B B B d 8 0 } o.>.y.t.5.5.e.t.6.t.t.t.e.t.t.6.5.w.-.&.| 0 8 c B B B B B B B B B B B B v f B B B B ",
"C C C C C C C C I c c P P C P P I P P I M % X O.5.6.i.i.5.,.,.,.,.,.,.,.,.,.t.h.! . - V V I C C C C C P I V V I V I m d I P C C ",
"C C I U I U C I I v m I I V I P V I I C I - % %.;.9.g.u.3.,.,.,.,.,.,.,.<.<.a.m.F $ : I Y Y Y Y Y Y Y Y J Y Y I Y U M c I I I I ",
"U U I I I I I I I V V I B B B B B V P B I J V j @ w 0.4.4.4.4.4.4.4.4.6.u.k.2 O l C I U ) ) ) ) ) _ _ _ I / / I _ Y C B I I I I ",
"I C U I U I I I I V V I B B B V I V V I I I I q o 3 a.w.e.w.8.q.w.8.q.f.h.B.,   l I U I _ _ ) ) ) _ / U _ Y Y _ U I I B I I I I ",
"C Y Y C C C I U C B n I C C C C I C C I I I I v q j W E G G G G G G G E } Q j k n I I I Y Y Y Y Y Y Y I Y U U U I I M c I I I I ",
"C C C C C C C C C v c C I C V C C C C C C C C C d b                       . m I C C V C C C C C C C V N I V V I I V m d V I C C ",
"B B B B B B B B B c c B B B B B B B B B V B B B d c + o o o o o o o o o o + v B B B B B B B B B B B B B B B B B B B v a B B B B ",
"g d g d d d d d f d d d d d d d f f f f f f f f d d d a d d a a f d d d a d d a d d d d f d d d d d a a d d d d a d d l d d d d ",
"C C U C U C U U U I M d I I I U C ^ C ^ C C ^ C I I K I U I I J U U I I a M I I U U I U U U U U I v b I I U I I U U K J I U I U ",
"[ ) ) ( ( ( ( _ / _ U d _ ) [ [ [ ) ) ) ) ) ) ` ` ` ` ` ' ` ` ) ' ) ) _ d K ) / / ( ) ) ( ( / / ) m M ) ' ` ) ` ` ` ` ` ` ` [ ) ",
"_ _ ( C C U ^ _ U / U f _ ) ` .. .' ) ) ) ` `  . . . . . . .{ _ ..' ) _ d U / U I / ) ) ( Y U U _ I I ) ..` `  . . . . . . .{ ) ",
"( ` / I I ( / U _ ) U a ) ) ' .. .` ) ) ) ) `  . . . . . .' '  .) ] { _ a K / I I / ) ) ) Y I K _ J J ) ) ] ] ) .. . . . . .{ _ ",
"( ( ( ( / ( ( / ) _ Y n ) ) '  . .` ) ) ) ) ` ` ' ` ` ' ' ( ` ` ) ` ` _ b Y / I I ^ ) ) ) Y I I _ P I ( ) ` ` ) ` ' ` ` ' ' ` ) ",
"` ( ` ( ) ) ) ) ) ) Y B _ ) ` {  .` ) ) ) ) ) ) ) ) ) ) ( ) ) ) ) ) ) ) B ^ ( Y J / ) ) ) Y U Y _ J I ) ) ) ) ( ) ) ) ) ) ) ( ) ",
"` ( _ ( ( ` _ ( ) ) Y m ( ) ) )  .' ) ) ) ` ) ) ) ) ) ) ) ) ) ) ) ) _ ) B ^ ) ( J ( ) ) ) Y Y ) ( I J ) ) ) _ _ ) ) ) ) ) ) ) ) ",
"( / Y ( I I K U ) ) / B ) ) `  .) ) ) ) ) ) ) ) ) ) ) ) ` ( ) ) ) ) _ ) V ^ ( U _ _ ) ) ) ) / K _ J I _ ) ) / J K K ^ ( C ( ) ) ",
"( ( / Y / Y I I ) ) U c _ ) ) ' ] ` ) ) ) ) ) ) ) ) ) ) ( ( ) ) ) ) ) ) m ^ _ / Y ( ) ) ) ^ ^ / _ m m ) ) ) ( J I ^ / ^ ( ) ) ) ",
") ) ( Y ) / Y Y ) ) U a ) ) ) ) { ` ) ) ) ) ) ) ) ) ) ) ( ` ` ( ( ` _ ) b Y _ ) Y ( ) ) ) / / ) ) m m ) ) ) ( Y Y ( ( ^ ) ) ) ) ",
") ) ( ) ) ) ( ) ) ) U a _ ) ) ) ) ) ) ) ) ) ) ) ) ) ) ) ( ` ( ) ) ( ) ) f J _ ) ) ) ) ) ) ) ) ) ) m m ) ) ) ) ) ) ( ) ) ) ) ) ) "
};
