/* XPM */
static char *result[] = {
/* columns rows colors chars-per-pixel */
"64 64 71 1 ",
"  c #010100",
". c #0E0D0D",
"X c #1D1412",
"o c #221D03",
"O c #221713",
"+ c #261A14",
"@ c #2A1D15",
"# c #281F1C",
"$ c #26210C",
"% c #2F2608",
"& c #2B211C",
"* c #3A2C2B",
"= c #453A00",
"- c #493E04",
"; c #463E08",
": c #432F25",
"> c #4E2B27",
", c #412F2D",
"< c #4E2B28",
"1 c #502B26",
"2 c #532F2B",
"3 c #44322D",
"4 c #4A362E",
"5 c #4E382F",
"6 c #56302C",
"7 c #5E342F",
"8 c #513A2F",
"9 c #553C31",
"0 c #60362E",
"q c #63382D",
"w c #693B2E",
"e c #663931",
"r c #6B3D31",
"t c #713F31",
"y c #55460D",
"u c #524511",
"i c #5A4D16",
"p c #594D19",
"a c #6D5F1D",
"s c #6F601B",
"d c #584030",
"f c #77432F",
"g c #78442F",
"h c #6F4031",
"j c #754232",
"k c #7A4532",
"l c #7E4833",
"z c #817108",
"x c #804733",
"c c #844C34",
"v c #894E35",
"b c #8D5135",
"n c #8C5138",
"m c #945636",
"M c #975935",
"N c #9C5D36",
"B c #945738",
"V c #9C5D38",
"C c #A36336",
"Z c #A26339",
"A c #ECCB01",
"S c #E5C711",
"D c #E6C912",
"F c #FADB19",
"G c #E0C421",
"H c #F4D627",
"J c #FEDF21",
"K c #F7DA2F",
"L c #FBDE2F",
"P c #F8DE31",
"I c #F3D93D",
/* pixels */
"<<<<<<<<<<<<<<<<<<<<<<<<<<<<<<<<<<<<<<<3<<<<<<<<<<<<<<<<<<32<<<<",
"7777707777007777167777077777007<77777777007772277777777777777777",
"rrrrrrrrrrrrrrrr<0rrrrrtrrrrrr7<errrrtrrrrrrr26rrrrrrrrrrrrrrrrr",
"jjjjjjjtjjjjjjjj1rjjjjjjjjjjtjr<jjjjjtjtjjjjj77jjjjjjjjjjjjjjjjj",
"kcnbnbbmnllnjvcjerjkjjjjjjjjjjtejrerrerjrtjjtrtjjjjjrthreeeejjjj",
"jcmnmvnnllclvxkjetjjkjjjjjjkjktejreeertrtjjjjrrjjjtrtrrheeeejjjj",
"jlcccvccjlcjckjj7tkjjjjjjjjjjjt7jtrrtttrjjjjjewtjjjrjrhjtrrrjjjj",
"jjjjtjjjjjjjjjjj<rjjjjjtkjjjjjr<jjjjjjtjjjjjj70tjjjjjjjjjjjxjjjj",
"eweeweeeeewweewe>7wweqwwweewwe7<eeeewweeeweee66eeewweeqweeeeeeee",
"6666666666666666>22266626666666<66666666666661166666666666666666",
"qqqq7q7<e00qqq00qq00q000700w0000<7eeqqwqqq00qqqe00qqqqqqe66eee00",
"bnbbnbg>nbbbmbbbbbbmbmvmbbnbbbbb<jnnbbvbbbbbbbbbbbbbbbbvn77nvbbb",
"bbcjjvlebNNbCCCCCCCZbbbbkjjjbllb<jbbZZVbbbbbCCCCCCCCvVNmnqqbttxb",
"bbvjjclwnmMNmNCCCCCCbbbbjj9&&&&&X#&:ZZNbbbbbCCCCCCNMVMMVmqqbtxxb",
"bbcggclwbbmNbMNNNNNNbbbblx5        OZCVvbbbbNNNNNNMbVmmVvewbgjxb",
"bncjgcx0bbbbbbbbbbbbbbbbbb8 $zzzz% #CZVmbbbbbbbbbbbbbbbvbjjbtjxv",
"bbcgnbcwbbbmvbbbbbbbbbbbbb8 uILLPp +bNNbbbbbbbbbbbbbbbbbbttmbxxv",
"bbbclclwnbbvxxlxbccbbbvlbc4 -HJJJi +NMmbbbbbbbbbbbbbbbbbmttbxcvn",
"bbbclvk7bbbbjjjlcxcbbbclcx4 -KJJJi +NMmbbbbbbbbbbbbbbbbbbttblcvv",
"bbcgbnk<bbbvgflbgcbbbbbbjc5 -KJFJp +bVNbbbbbbbbnbbbbbbbbbttmbxxb",
"bbnnbbg<bbbbnnnnmvbbbbbbbv9 -KJJJi +bbbbbbbbnnnvbbbbbbbbvwqvbbbb",
"qqq0qq6<qqqqqq000qqqqqqqqq, -KJJJi X000qw0qqee00qqe0qq00q22w00w0",
"66666666666666666666662666* -KJJJi X6666626666666666626666266666",
"wweeeeeweeeeeeereeeqwqwwee3 -KJFJi Xeweeeewweeerwweeewewwweee0ww",
"jjjjjjjjjjjjjjjjttkjjkjjjj4 -KJJJp Ojjjjtttjjjjtjjjjjjtjjjjjjjjj",
"jjjrrrrrrtjrjjjjjkjjjjjjrr3 -KJJJi +vcxjntkjjtrrrrrrjttjjtjjjkjj",
"jjreeeeerrtrrjjjjjkjjjttrr3 -PJJJi Obvxlnxjtjrreeeerttrtjjjjjjjj",
"jjheeeeejrrjrtjjkjjjjjtrjr3 -PFJJp #nllbkjjxjteeeetjettrjjkjjljj",
"jjjjjjjjjjjjjjjjjtttkjtjjt4 ;PJFJi Ojjjjttttjtjtjjjjttktjjjtjjjt",
"rhrrrrrrrrrrrrrrttrrrtrrrr3 ;PJJJi Xrrrrrrtttrtrrrrrrrtrtrrrtrrt",
"77777707777077770770077777* -KJJJi X7770777777777777777707777777",
"<<<<<<<<<<<<<<<2<<<<<<<<<<* -HFFFp X<<<<<<<<<2<<<<23<<<<<<<<2<<<",
"bbbbbbbbnnnn<knnbbbvbnbbbb8 =SAAAu +nbnnbbbbvbvmvbvmnbk<nbbbbnbb",
"bMNNNNNNbMMn<gcllvbbbbbblm9 =SAAAy +bbbbbbbbVNNVVNMvMmj>ncllbbbb",
"bNCCCCCNMMMn>gcfjcbbbbbccN9 =SAAAy +bbmmbbbbCCCCCVVmNmk<nkjjbbbb",
"bVCCCCNbZMbn>gvgjvbbbbcfZCd =SAAAu @bVZCbbbbCCCCCmBCbbk1bljknbbb",
"bbbmbbbbbbbnecnnfvbbbbbnjMd =SAAAy XbfkCbbbbmbbbmvbbbbxenncgbbbb",
"bbbbbbbbbbbnelvlcvbbbbbmcc8 =SAAAy Ojjkmbmbbvbbbbbbbbbxwncccbbbb",
"bbbbbbbbbbbnelclcbbbbbbbbc5 =SAAAu Xhjlbvvmvvmbbbbbbbbxwncccbbbb",
"vbbbbbbbbbbnecbbgcbbbbbbbb5 =SAAAy Xfjlbmvvmvvbbbbbbbbxwnbcjbbbb",
"bbbbbbbbbbbbelcgbbbbbbbbbb8 =DAAAy +bnnbbbbbbbbbbbbbbbxenllbbbbb",
"bbbbbbbbbbnn6lncbbbbbbbbbb8 =DAAAu +bbbbbbbbbbbbbbbbbbl6bcvbbbbb",
"gkkjkkgjljjj>wgkgjkkkkgjjj4 =SAAAy Okjkjkjjkkkjjgjkkgjw<jkkgkjgg",
"1>>><1<1<<<<>><<><><><<><<* =SAAAy X<<<<<1<1<<<<>><<>><<>1<4><<>",
"eeereeeee66eeeeeeeeeeeee<7* =SAAAu Xeeeeeeeeereeeeeeeeeeee7>eeee",
"tttttttth66hhthtthhrhhth<w4 =SAAAy Xrjtttttttttjjrjhrjjrrhw<hhtt",
"tjjjjjjjje0jthjhhjjjjjjj2w4 =SAAAy Xjhjjjjjjklxllllkjkljlkr6jjjj",
"jjjjjjjjjrrjeeeeerjejjjjej3 =SAAAu Xeeejjjjjnbbbbnnngccjnltejjjj",
"jjjjjjjkjrrjreeejrrjjjjjrt3 =DAAAy Xeerjjjjjnbbbbncjnllnjjjwjjjj",
"jjjkktjjte0jttttjtjjjjjj6r4 =GDDDu Xjrjjjjjjllllllkklkjlgjw6jjjj",
"ttttttttt66thrtrtttttttr<e3 oasss$ Xrjhjjtjrjrjrjrjhrtjrjr0<rjjr",
"eeereqeee66reeereeereeee<7,        Xeeeeeeeeeeeeeeeeeeeeee7>eeee",
"<<1<<<><1<<<<<<<11111111<<*........#<<<><<<<><<><<><<>4>>>>4<<<<",
"ktjkjkljkjw<ljjjktjjjkktjjjkkgkjkjjj>wkkjkkkkjkjj66gkkjkjkggjkjk",
"nnbvvvvncnl1nbmBmmbbnbmmBMBmmmmbMbnn<gnccvbbbvccbwwbBbbMmmmmmmBb",
"nnvtjjknjcj1nnBZCBbbbbmCZZZCCCNnZMbn<kxkjcbbblkjbjjnZmMCCCCCCCVb",
"bbvjjxcknbj>nbMCCmbbbbmCCCCCCmmCbNVn>jcjjcnbbljfnfhbbNNbCCZCCZVb",
"bnnccbncbbl7bbmCCmbbbbmmMmmMmbmmbmmn7lcjjcnbbljgnhfbbmmbmmMmMMmb",
"bbbbbbbbbbxebbmNCmbbbbbbvmbbmbbbbbbbwxvlfcbbblglnfjbbbbbbbbbbbbb",
"bbbbbbnbbbxwbbbbCMbbbbbbbvbbbbbbbbbbwlbngcbbbllbnhjbbbbbbbbbbbbb",
"bllbjggjnbcwnbMCbbbbbbbbbbbbbbbbbbbbelcjbbbbbbcgnfjnbbcfgfxbtvbb",
"bcxlcgjjbnk6nbbmNmbbbbbbbbbbbbbbbbbbwlnclvbbbcxcbw0bbbvfjxcxvvbb",
"bbblbcllbbk>bbbbNMbbbbbbbbbbbbbbbbbb7lbblvbbbccbbq0bbbcllvvxbbbb",
"bbbbbnbbbbk>nbbbbbbbbbbbbbbbbbbbbbbb>jnbbbbbbbbbbq0bbbbbbvbbbbbb"
};
