/* XPM */
static char *result[] = {
/* columns rows colors chars-per-pixel */
"64 64 177 2 ",
"   c #020201",
".  c #0A0702",
"X  c #0E0901",
"o  c #080708",
"O  c #0A0909",
"+  c #130B00",
"@  c #130F0E",
"#  c #151102",
"$  c #1C1300",
"%  c #1D1905",
"&  c #181109",
"*  c #1F1C0A",
"=  c #191412",
"-  c #1F1915",
";  c #251E0C",
":  c #291C17",
">  c #221C1A",
",  c #2D2300",
"<  c #2D270B",
"1  c #382B02",
"2  c #312C11",
"3  c #3B2816",
"4  c #34221F",
"5  c #352320",
"6  c #3A2520",
"7  c #3D3521",
"8  c #493C00",
"9  c #4A3A0A",
"0  c #452C1C",
"q  c #463F11",
"w  c #4A3E1A",
"e  c #452C23",
"r  c #4E2B27",
"t  c #412C28",
"y  c #4E2B28",
"u  c #502B26",
"i  c #532F2B",
"p  c #4B3222",
"a  c #4D3922",
"s  c #503121",
"d  c #56302C",
"f  c #5E342E",
"g  c #5F392D",
"h  c #4D3A33",
"j  c #463938",
"k  c #583632",
"l  c #5F3A32",
"z  c #613B23",
"x  c #60362E",
"c  c #63382D",
"v  c #693B2E",
"b  c #663931",
"n  c #6B3D31",
"m  c #713F31",
"M  c #49400B",
"N  c #534303",
"B  c #5A4A15",
"V  c #52421C",
"C  c #594D1B",
"Z  c #615117",
"A  c #65511D",
"S  c #776715",
"D  c #79691B",
"F  c #4D4727",
"G  c #52402D",
"H  c #57433C",
"J  c #5B453C",
"K  c #5E483E",
"L  c #6D482E",
"P  c #76432F",
"I  c #78442F",
"U  c #6A5B27",
"Y  c #675F29",
"T  c #664034",
"R  c #6C4132",
"E  c #6F4836",
"W  c #61493D",
"Q  c #6D4A39",
"!  c #754232",
"~  c #7A4532",
"^  c #744A35",
"/  c #7E4833",
"(  c #675736",
")  c #765039",
"_  c #78543A",
"`  c #676027",
"'  c #6A5D43",
"]  c #804733",
"[  c #844C34",
"{  c #894E35",
"}  c #8D5135",
"|  c #8C5138",
" . c #945636",
".. c #975936",
"X. c #9B5D36",
"o. c #945738",
"O. c #9C5D38",
"+. c #8E7E26",
"@. c #9F6137",
"#. c #A36336",
"$. c #A26339",
"%. c #9B8605",
"&. c #9A871F",
"*. c #D4B918",
"=. c #C1AB25",
"-. c #CAB527",
";. c #CFB82B",
":. c #DEC41C",
">. c #ECCC03",
",. c #ECCD0B",
"<. c #EED009",
"1. c #F4D406",
"2. c #FBD805",
"3. c #F5D50C",
"4. c #F9D90A",
"5. c #E5CA1B",
"6. c #EBCF1F",
"7. c #ECD01F",
"8. c #F5D613",
"9. c #F7D812",
"0. c #F9DA15",
"q. c #F2D418",
"w. c #FDDE1C",
"e. c #FEE01E",
"r. c #D9C22E",
"t. c #D6C137",
"y. c #DAC438",
"u. c #E4CA29",
"i. c #F7DB25",
"p. c #FDDF23",
"a. c #F4D72B",
"s. c #F7DB2B",
"d. c #FBDF2C",
"f. c #E5CD36",
"g. c #E3CD39",
"h. c #F7DC33",
"j. c #FADF32",
"k. c #F9DF3A",
"l. c #FEE021",
"z. c #FDE02C",
"x. c #FCE134",
"c. c #FBE23C",
"v. c #99875B",
"b. c #988F5B",
"n. c #AD9E45",
"m. c #B6A74B",
"M. c #BCAB4A",
"N. c #BBA951",
"B. c #B59F6B",
"V. c #B9A975",
"C. c #EDD643",
"Z. c #EFD84A",
"A. c #F0D947",
"S. c #FAE343",
"D. c #FFE845",
"F. c #FCE34A",
"G. c #FFE84B",
"H. c #FFE751",
"J. c #FDE953",
"K. c #F6E15B",
"L. c #F8E35E",
"P. c #FFEB5B",
"I. c #DDCE6C",
"U. c #D6C477",
"Y. c #E3D472",
"T. c #F8E565",
"R. c #FFEB65",
"E. c #FFEC6A",
"W. c #FFEC74",
"Q. c #F3E37F",
"!. c #CEC185",
"~. c #EDDF86",
"^. c #E9D98C",
"/. c #F6E782",
"(. c #FAEA85",
"). c #F4E68C",
"_. c #F9EA89",
/* pixels */
"y y y y y y y y y y y y y y y y y y y y y y y y y y y y y y y y y y i y y y y y y y y y y y y y y y y y y y y y y y y y y y y y ",
"f f f f f f f f f f f x f f f f u d f f f f f x f f f f f f d y f f f f f f f f f x f f l i i f f f f f f l f f f k f k f f f f ",
"n n n n n n n n n n n n n n n n r x n m n n n m n m n n n n f y n m m m m m n n n n n n b i d n n n n n n n n n n m n n n m n n ",
"~ ! ! ! ! ! ! ! ! ! ! ! ! ! ! ! y n ! ! ! ! ! ! m ~ m m ] m b y m m m m m m m m ! ! ! ! ! f f ! ! ! ! ! ! ! ! ! m m ! ~ m m ] m ",
"! [ | } | | }  .| / / | ! { [ ! b m ! ! ~ ! ! ! ~ ! ' ] m m m b m b b b n b n ! b ! ! ! ! n n ! ! ! ! ! b m m b b b b b ! ! ! ! ",
"! [ } | } } } | / [ [ / { ] / ! b m ! ! ! ! ! ~ ~ ! m ~ m ] m b ] m b b b m m n m ! ! ! ! n n ! ! ! m n m m n ! b b b b ] ! ! ! ",
"! ] [ { { [ [ [ ! / / ! ] / ! ! x n ! ~ ! ! ! ! ! ~ m ~ ] ] n f m m n n m m m n ! ! ! ! ! b b ! ! ~ m m ! n m ! m b n m ! ! ! ! ",
"! ! ! ! ! ! ! ! ! ! ! ! ! ! ! ! y n ! ! ! ! ! m m ~ ~ m m m b y m m ' m ! m ~ m ! ! ! ! ! f f m ! ! ! ! ! ! ! ! ] ! ! ! ! ! ! ! ",
"n c b n c b b b b b n v b n c b r f c v v c b v c n b n v b f y n n b b v v b n b b b v n i i n b b v v b b b n b b b b b b b b ",
"i d d d d d d d d d d d i d d i r i d d d d d i i d i d d d i y d d d d d d i i i d d d d u u d d d d d d i i i d d d i d d d d ",
"x c x x x x f r b g x x c c c c c c c x c c c x c c x c x x x x u f b b x x c x c c c c c c c c x c c c c c x x b d i b x c x c ",
"} } } | }  .~ r } } } } } {  .{ } } } } } } {  . .| | } } } } } u m } {  .} } } } } } { } } } } } } } } } }  .} | f x | } } } } ",
"} } [ ! ~ [ ] b { X.X.} #.#.#.#.#.#.#.$.{ } } } m ! ! ! } / / } u m {  .$.$.O.} } } { } $.#.#.#.#.#.#.$.{ O.X.} { b c } m m ]  .",
"} } { ! ! [ [ c {  ...X. .@.#.#.#.#.#.#.} } } | ! ! b W H J K K j b W K Q @.X.| } }  .{ #.#.#.#.#.#.O. .O.....X.} b c { m ] ] } ",
"} } [ ! P [ ] b  .{  .X.} ..X.X.O.O.O.O.} } } } / ] h           o       o @.O.| } {  . .O.O.O.O.X.X... .X. . .X.{ v v } / m / { ",
"} } { ! I [ ] b  .{ } } } } } } } } } } } } ^ Q Q Q ' ` Y Y Y ` Y Y Y Y Y _ ) Q E { { { { } } } } } } } {  .{ } } ! m  .m m ] } ",
"} } [ I } } ] b {  .{ { {  .} } } } } } } } >       b._._.(.(._.(.(._._.^.+       [ } }  .{ } } } } } } } } } } } m m  .| ] ] } ",
"} } } [ ] { / n | } {  ./ / / ] { [ [ } ^ ^ F q M 9 m.E.P.J.J.P.P.J.J.J.L.N 8 8 M ^ ^ { { {  .} } } } } } } } }  .m m } ] [ { } ",
"} } { [ / { / f  .{ {  .m ! ! / { ] [ } o . !._._._.T.S.c.d.p.d.d.d.p.d.d.h.h.h.A.<   ~ {  .} } } } } } } } } } } m m } ] ] { | ",
"} } [ I } } ! y { } } { I I ] } I [ ] / < , Y.R.R.P.S.d.p.w.w.0.0.w.w.w.w.e.l.e.s.N , L ] { } } } } } } } } } } } m m  .} ] ] { ",
"} } } } } } I r { } } } | | { | } [ O X B./.K.S.j.d.q.>.>.>.>.>.>.>.>.>.>.w.e.e.l.h.Z.7   v } } } } } } } } } } } c c } } } | } ",
"c x x x x c f y c c c c c x x l g g # $ Q.R.S.x.d.w.3.>.>.>.>.>.>.>.>.>.>.e.e.e.l.l.s.N + 0 x c c c c f c c f x c d i c x c c x ",
"d d d d d d d d d d d i d d k i o * V.Q.K.S.x.l.3.>.4.w.w.w.w.w.w.w.w.w.e.>.>.w.w.l.l.h.Z.w   4 d d d d d d d d d d d d i i d d ",
"c v b b b b b b b b b b b n b b   % ).W.F.x.l.e.<.>.8.p.d.j.j.j.j.j.d.p.e.>.>.w.e.e.l.w.d.C   6 c v v b v v b v v v b b b n c n ",
"~ ! ! ! m ! ! m ! ! ! ! ! ! ! R   % ).W.k.p.,.>.0.w.w.p.D.R.E.E.E.E.P.z.e.e.e.>.>.w.e.l.j.C   e m m m m m m ] m m m ! ! ! m ~ m ",
"! ! ! n n n m n n m ! n ! ! ! R X , /.R.j.w.,.>.w.p.p.j.G.E.E.E.E.E.P.l.e.e.e.>.>.i.z.p.d.Z . 0 m n m m m m n m ] m ! ! ~ ! ~ ~ ",
"! ! m b b b b b n m m n n T - 7 v.I.K.S.,.,.0.w.w.p.D.R.F.s.i.i.s.i.i.3.1.e.e.e.i.J.P.c.p.u.t.U > t n n m m m m ! ! ! ~ m ] ~ m ",
"~ ! R b b n b n ! n n ! b l   2 ~.E.F.x.,.>.w.w.l.d.H.W.F.4.4.3.4.4.4.1.1.e.e.e.d.R.W.c.i.e.z.D o 5 m m n m m n ! ! ! ! m m ' ~ ",
"! ! ! ! ! m m m ! ! m ! ! n   2 ).E.k.p.>.>.w.p.e.p.H.W.F.4.4.3.4.4.4.1.1.e.e.e.d.R.E.S.l.0.0.S   6 ! ! m m ] m m m ] m ] m ] m ",
"n n n n n n n n n n n n n l o 2 ).E.j.e.>.>.w.w.p.d.J.W.F.4.4.4.4.4.4.1.1.e.l.e.d.R.W.S.e.4.8.S   5 n n n n n n m n n n b m m b ",
"x f f f x f f f k f f f l h o 2 ).E.h.w.>.>.w.p.w.d.H.W.F.4.4.4.4.4.4.1.1.e.e.e.d.R.W.S.w.4.8.S   4 x f f f f f f f f f f f f f ",
"y y u y i y y y i y y y y y   2 ).R.j.w.>.>.w.w.l.p.H.W.F.4.4.4.4.4.1.1.1.e.l.l.d.R.W.D.l.4.8.S   4 y y y i y y y y y y y u u u ",
"|  .} { } } } { } | } | y T   2 ).E.j.w.>.>.w.w.p.p.J.W.G.4.2.4.4.4.4.2.1.e.e.e.d.R.E.c.i.4.9.S   e } } } } ! y | } } } } } } } ",
"{ o.X.@.X.X.X.X.} .. .| y T   2 ).E.j.w.>.>.w.l.p.d.J.W.F.4.3.4.4.4.4.1.1.e.e.e.d.R.W.S.e.4.9.S   p ..} X. .P r | [ / / | } } } ",
" .X.#.#.#.#.#.X. .X.X.} r T   2 ).R.j.w.>.>.w.w.e.p.H.W.F.3.4.4.1.4.4.1.1.w.l.l.d.R.W.S.e.4.9.S   p ....O. .~ y } / ! ! } } } } ",
"{ X.#.#.#.#.O.} @. .| | u R   2 U.E.j.w.>.>.w.p.l.p.H.W.F.2.4.4.4.4.4.1.1.e.e.e.d.R.W.c.e.4.9.S   e o.$.} } ~ y } / ! ! | } } } ",
"{ } } }  .{ } } } } } | b ^ 3 a ( n.h.w.3.3.8.9.w.p.D.J.x.2.3.1.1.1.1.9.8.e.l.S.F.J.J.d.9.=.&.A 3 c } } } } / b } } [ P | } } } ",
" .{ } } } } } } } } } | n / [ ^ . $ C.w.e.w.>.>.w.w.i.w.0.1.1.1.1.1.1.e.e.e.z.R.W.x.p.4.3.B   s } } } } } } / v | [ [ [ } } } } ",
"} } } } } } } } } } } | b / [ ^ . $ C.w.e.e.3.3.0.0.w.e.w.3.9.3.9.4.9.e.p.c.S.P.P.x.w.4.9.B   s } } } } } } ] v } / / { } } } } ",
"} } } } } } } } } } } | n / } /   % A.w.l.w.i.w.<.>.9.w.l.e.e.w.e.e.l.l.h.E.E.k.p.p.w.4.8.B   p } } } } } } ] v | | [ P } } } } ",
"} } } } } } } } } } } } b ] [ R : 2 M.-.s.e.l.e.3.,.p.c.c.k.k.c.c.c.c.c.S.P.P.z.l.w.w.*.=.V ; c } } } } } { ] b | / / } } } } } ",
"} } } } } } } } } } } } d / } [ } { X + C.l.l.l.p.p.G.W.W.W.W.W.W.W.W.W.R.x.z.l.e.9.8.9 . z } } } } } } } } / i | { } } } } } } ",
"I ! / ! ! ! I ! ~ ! ~ ! r v / ! ~ ! - ; N.r.s.l.w.p.D.R.R.E.R.E.R.E.R.R.P.l.e.0.w.:.;.w = c ~ ! I ! ! ~ ~ ~ v y ^ ~ ! ! / ~ P ! ",
"u u u y u u u u y y y y r y r r r y r r + + y.l.p.w.d.d.d.d.d.d.d.d.d.z.l.2.2.2.q.1 . e y y y y y u y y r r y y r u y y r y r r ",
"b b b n b b b b b d d b b b b b b b b x = & N.g.f.f.a.w.e.e.0.w.w.w.w.w.w.5.5.r.t.2 @ f b b b b b b b b n b b b b b f r b b b b ",
"m m m m m m m m ! d d R R ! n m n ! n ! R n < + X + %.2.2.2.2.2.2.2.2.1.5.$ X + + v R ! ! R n ! m m ! R m n n ! n ! c u R R m m ",
"m ~ ! m ~ ! ! m ! x x ! m m ! R ! ! ! n ! ! > o o X +.7.7.7.6.6.7.7.6.5.t.# o o O R ~ ! ~ / / / / / / / I / / ! / ~ v i ! ! ! ! ",
"m ~ ! ! ! ! ! ~ ! n n ! b b b b b n ! c ! ! ! ! b m G + + + + + + + + + # x n ! ! ! ! ! } } } } } } | | ! [ [ ! | / m n ! ! ! ! ",
"~ ~ m ~ ~ ! ! m ~ m n ! b b b n ! n n ! ! ! ! ! n m j                   o b n ! ! ! ! ! | } } } } } [ ! | / / | ! ! ! b ! ! ! ! ",
"m ~ ~ m m m ! ~ m x x ! m m m m ! m ! ! ! ! ! ! d n ! m ! m m ! n m ! n n m ! ! ! ! ! ! / / / / / / / ! / ~ ! / ~ ! v d ! ! ! ! ",
"m m m ! m m m m m f d m m n m n n m m m m m m m y b m m n m ! R m m R m ! n ! n m m n ! m m m m m n m m ! n n ! m R c r n m m m ",
"b b b b b b b b b d d b b b b n b b n b b b b b y x b b b b b b b b b b b b b b b b b b b b b b b b b b b b b b b b f r b b b n ",
"i y y y y y y y i y y y y y y y u u y u u u u u y y u y y y y r y y y y y y r r i u y y r y y u y y r r r r y r y u y y y y y y ",
"m m ] m ~ m / ! ! ! n y ! / ~ ! ] m ! ! ! m / m ! ! ! ~ ! ~ ~ ! ~ ! ! ~ r v ! ~ ! ! ~ ~ P ! ! ~ ! f f ! ^ ! ! ! ~ I ^ P ~ ~ ! ~ ",
"o.| | { { { { | [ } ~ u {  .| o.o. .} } } }  . .o. . ... ... .} o. .| | y ~ { [ { { } }  .{ { [ } c v } ..}  . . ... . . . .o.} ",
"| | { m m ~ ] | ! [ ! u | } o.#.#.o.} } } } ..#.#.#.#.#.#.#.X.} #...} | y ~ [ ! ! [ } } { ] ! ! } ! ! } #. . .#.#.#.#.#.#.#.X.} ",
"{  .[ ! ! { [ ! } } ! r } }  .#.#...{ } } }  .O.#.#.#.#.#... .#.} X.O.| r ! [ ! ! [ } } } / ! ! } ! P } } X.O.} $.#.#.#.#.#.O. .",
"{ { { { { { { [ } } / f } } ..#.#...} } } }  ..... . .....} } ..}  .} } f / [ ! ! [ } } } / ! P } P R } }  . .}  . ... . .o. .{ ",
" .{  .{ {  . .{ } } / n } }  .@.#...} } } } } } {  .} } } } } } } } } } b / } / ! [ } } } / ~ / } R ! { } } } } } } } } } } { } ",
" .{ | { } { {  .} } ] b } } } } #. .} } } } } } } { } } } } } } } } } } b / } } P [ } } } / / } } ! ! } } } } } } } } } { } } } ",
"{ ] ] } ! ! ! ! } } ] n } |  .$.} } } } } } } } } } } } } } } } } } } } v [ [ P } } } } } } [ I } ! ! } } } [ I I P ] } / [ } } ",
"{ { [ / [ ~ ! ! } } ~ i | { }  .X. .} } } } } } } } } } } } } } } } } } b ] } [ / } } } } [ ] [ } b b } } } [ P ! ] [ ] [ { } } ",
"} } [ / } [ / / } } ~ i } } } } O. .} } } } } } } } } } } } } } } } } | f / } } / [ } } } [ [ } } c g } } } { / / [ { ] } } } } ",
"} } } } } } { } } } ~ p | } } } } } } } } } } } } } } } } } } } } } } | r ! } } } } } } } } } } } x x } } } } } } } } } } } } } "
};
