/* XPM */
static char *result[] = {
/* columns rows colors chars-per-pixel */
"64 64 140 2 ",
"   c #040202",
".  c #0A0501",
"X  c #0C0901",
"o  c #0B0A0A",
"O  c #150C00",
"+  c #110E0C",
"@  c #1F1C12",
"#  c #251A00",
"$  c #23160D",
"%  c #231714",
"&  c #241914",
"*  c #291C14",
"=  c #221C1A",
"-  c #2D1B1A",
";  c #362F0B",
":  c #3B2B0D",
">  c #3C320C",
",  c #2E201C",
"<  c #2C2421",
"1  c #3F2920",
"2  c #4D2B27",
"3  c #4E2B28",
"4  c #502B26",
"5  c #532F2B",
"6  c #46312F",
"7  c #5A3625",
"8  c #56302C",
"9  c #5E342F",
"0  c #583C28",
"q  c #4A3230",
"w  c #533631",
"e  c #5E3731",
"r  c #5F3C33",
"t  c #60362E",
"y  c #63382D",
"u  c #6A3C2E",
"i  c #663931",
"p  c #6B3D31",
"a  c #713F31",
"s  c #544706",
"d  c #564508",
"f  c #5A4C0F",
"g  c #4E441E",
"h  c #594C12",
"j  c #564B1D",
"k  c #5F531E",
"l  c #7F6C0D",
"z  c #746312",
"x  c #584C24",
"c  c #5F4033",
"v  c #76432F",
"b  c #78442F",
"n  c #64572A",
"m  c #674437",
"M  c #6E4031",
"N  c #754232",
"B  c #7A4532",
"V  c #7E4833",
"C  c #754C39",
"Z  c #745030",
"A  c #7A5236",
"S  c #8C780B",
"D  c #804733",
"F  c #844C34",
"G  c #894E35",
"H  c #875037",
"J  c #8D5135",
"K  c #8C5138",
"L  c #945636",
"P  c #975936",
"I  c #9C5D36",
"U  c #945738",
"Y  c #9C5D38",
"T  c #927F38",
"R  c #A36336",
"E  c #A26339",
"W  c #B09E3D",
"Q  c #B7A433",
"!  c #B3A23C",
"~  c #C8B32D",
"^  c #D6BC21",
"/  c #C5B132",
"(  c #CFBA31",
")  c #C6B238",
"_  c #ECCB02",
"`  c #E7C90D",
"'  c #EACB0C",
"]  c #F0D007",
"[  c #E5C915",
"{  c #E8CC13",
"}  c #E1C618",
"|  c #E7CA1D",
" . c #E9CA1B",
".. c #F6D612",
"X. c #FADC17",
"o. c #F5D619",
"O. c #FCDD1B",
"+. c #FEE01E",
"@. c #DEC52E",
"#. c #F3D727",
"$. c #F5D823",
"%. c #FCDF24",
"&. c #F2D62C",
"*. c #FADE2A",
"=. c #E8CF3D",
"-. c #E7D03C",
";. c #F5DC35",
":. c #FADE32",
">. c #F5DC3A",
",. c #F8DF3A",
"<. c #FDE021",
"1. c #FDE028",
"2. c #F9E13B",
"3. c #A7944F",
"4. c #CDBA44",
"5. c #D5C44F",
"6. c #D5C451",
"7. c #EDD648",
"8. c #F0D840",
"9. c #F5DE52",
"0. c #F4DE5A",
"q. c #F8E042",
"w. c #F8E258",
"e. c #FDE95B",
"r. c #FBE667",
"t. c #FDE962",
"y. c #FBE66A",
"u. c #FFEE6E",
"i. c #FBE774",
"p. c #FDED74",
"a. c #FDEC7D",
"s. c #FFEE84",
"d. c #FCEB8D",
"f. c #FFF283",
"g. c #FEEE94",
"h. c #FFF193",
"j. c #FFF09D",
"k. c #FEEFA4",
"l. c #FEF0A4",
"z. c #FEF0A8",
/* pixels */
"3 3 3 3 3 3 3 3 3 3 3 3 3 3 3 3 3 3 3 3 3 3 3 3 3 3 3 3 3 3 3 3 3 3 3 3 3 3 3 3 3 3 3 3 3 3 3 3 3 3 3 3 3 3 3 3 3 3 3 3 3 3 3 3 ",
"9 e e 9 e t e 9 9 9 9 t 9 9 9 e 2 8 9 9 9 e 9 t 9 9 9 9 9 9 9 3 9 9 t t 9 9 e e e e e 9 e 5 5 9 9 9 9 e e e e 9 9 9 e t 9 9 9 9 ",
"p p p p a p p p i a p a p a p p 2 y p a p p p a a a p p a a e 3 i p p p p a i p p p p a i 8 8 p p a p p p p p p i p p p a a p p ",
"v B a N N a N N a B a N a B a a 4 i N N a B B a a B a a a a i 3 a N N N N N a a N N N N a 9 9 b a B a a N N N N a N N N a B a a ",
"N F J J J K K J K V V K N G H a i a N N N a a B N B N N N N a i N p i i i i p N i a N N N p p a N B a N i a a i i i p i a C a D ",
"B F J J J J K K V F D V G D V N i a N N N B B B B a B N N N a i N p i i i a a p a N N N N p p B N N a p a a p N i i i i B a a a ",
"N V F F G G G H N D F B H V a N t p N B N N B a N B B N C D a 9 N a p p a a a p N N N N N p i N N a N a N a p N p p p p N N D a ",
"N N N N a N a N N N N a a N N N 3 p N N N N B a N a a B a a p 3 N N N N N N N a N N N N N 8 9 N N N B N N N N N a a N N N N N D ",
"p i i i i i i i u i p i i i i i 2 y y i i i i i i p p y p y e 3 i i i i u p i i i i i i i 8 8 i u i i i i i i p p p i i i i i i ",
"5 8 8 8 8 8 8 8 5 5 8 5 8 8 8 8 4 5 5 8 8 8 8 8 5 5 5 5 8 8 8 3 w 8 8 9 8 8 5 5 8 8 8 8 8 4 4 8 8 8 8 8 8 5 5 5 8 8 8 8 8 8 8 8 ",
"y y y y y y 9 3 y y y y y y y y y y y y y y y y y y y y y y y 9 3 e t t y y y y y y y y y y y y t t y y y y y y i 5 5 t y y y y ",
"J J J J J J b 2 J J J J J J J J G G L G J J J J K G K H C C C C q m C C C F J J J J J J J J J J J J J G L J J J K i t K J J J J ",
"J J F N B F V i G I I J R R R R R R R E L J J J B B N y .               . A I J J J J J R R R R R R R R G I I G G i i J a a D J ",
"J J F N B F D i G L P I L I R R R R R R G G J J N N B u X . . . . . . . X Z I G J J G J R R R R R R Y L Y L I I L t y G a D D J ",
"J J F B v F D u L G L I L P I I I I I I J J L G V 1 & g / / ~ ~ ~ ~ ~ ~ ) n & 6 G J J L I I I Y Y I P J I L L I G u u K a B D J ",
"J J F N v F D u G J J J G J J J L G J J J J G J J &   > *.%.%.%.*.*.%.%.>.k   = J J J J J J J J J J J J L G G L G a B J b a D G ",
"J J G v J J D i J J J J J J G L G J J J J J J J J *   > *.+.X.X.X.<.<.<.;.k   = G L G J J J J J J J J J J J J J J a a L J D D J ",
"J J G F D F F i G J J J D D V V G F F J J J G D J &   ; %.+.] _ ..+.O.<.;.k   @ G G L G J J G J J J J J J J J J L a a J D F G J ",
"J J J F V G V y J J J J b N N V G D D J J J F v B : # d o.+.] _ #.q.2.1.*.z # ; D F G L L G J J J J J J J J J J J a a J D D G G ",
"J J F b J J N 3 J J J G b v V J b G J J J J F + . T 7.&.' _ X.<.e.f.u.;.%.;.7.3.O o F G L G J J J J J J J J J J J a a L J D D J ",
"J J J K J J N 2 J J J J K K K K J J J J J J V .   Q %.X._ _ *.:.y.l.s.,.%.+.%.6..   F K J J J J J J J J J J J J J y y J J K G J ",
"y y y y y y 9 3 t t i y t i t i y y y y y y 0     Q %.X._ ' e.p.g.k.s.,.<.+.%.6..   7 y y y y y y u y y y y y y u 5 5 y y y y y ",
"5 8 5 5 8 8 8 8 8 8 8 8 8 8 8 8 5 8 5 8 8 8 w o   Q <.X._ { a.g.l.z.s.2.<.<.1.6..   3 8 8 8 8 8 8 8 8 8 8 8 8 8 5 8 8 8 8 8 8 8 ",
"i p i p i y i i i i i i i i i p i p i i i i e     Q <.X._ ' e.a.g.l.s.,.O.+.1.6.. . 9 i i i p i u y i i y i i i i i i i i y i p ",
"N N N a a B a a N N N N N N a N a N N N N N p o   Q %.X.] _ %.:.y.l.s.,.%.<.%.6..   p N N N N N N N N a a a D a a a N N N a B a ",
"N N N p p p a p a a a p N N B N N N N N N N p o   Q %.X._ _ *.>.i.l.s.,.%.+.%.6..   u N N a p i p p p p B a a a B B N N N B B B ",
"N N a i i i i p p a a p a a a B N N N N N N m     Q <.X._ ' t.a.g.l.s.,.%.+.<.6..   p N N p p i i i i p a a p a a N N B N N N N ",
"N N a i i i i p N p p N p a B B N N N B N C i     Q <.X._ ' a.j.l.z.s.,.+.%.%.6.. o p N N p i i i i a N i a a p N B N N B N N N ",
"N N a a N N a a N N a a N N a a N B a a B B i o   Q <.X._ ' w.y.d.k.s.&.....o.4..   p a a a a a N N N N a a D a a a a a a a N N ",
"p p p p p a p p p p p p p a p p p a p p a p i o   Q <.X._ _ %.1.y.j.a.| _ _ ' / .   i p a a a p p p p m p p p p a p a p a a p a ",
"t e 9 e t 9 9 9 e e e 9 t t 9 9 t e 9 9 9 9 9     Q %.X._ _ O.<.y.j.a.| _ _ _ ) .   9 9 i 9 9 9 9 9 e e 9 9 9 9 i e e e 9 9 t t ",
"3 3 3 4 3 3 3 3 3 3 3 3 3 3 3 3 3 3 3 3 3 3 3     Q O.X._ _ O.<.y.j.s.| _ _ _ ) .   3 3 3 3 3 3 3 3 3 3 3 3 3 3 3 3 3 3 3 3 3 3 ",
"K K J J J J J G J K K K 2 B K K J J J J K J C     Q <.X._ _ X.1.y.j.a.| _ _ _ ) .   F J J J J J J J K J K K v 2 K K J K G J J J ",
"J P I I Y I I I J P U K 2 b F V V G J J J J F o   Q <.X._ _ X.<.y.j.a.| _ _ _ ) X   D J Y Y I I I I P J I L v 2 K F V V J J J J ",
"J I R R R R R I U I I K 2 b H v N F J J J J B o   Q +.X._ _ +.<.y.j.a.| _ _ ' ) .   F J E R R R R R I U I L B 3 K V v v K J J J ",
"J Y R R R R I J I P J K 4 b F N a G J J J J Z o   Q +.+._ _ ..+.r.j.a.| _ _ _ ) .   F J E E R R R U U E J J B 3 K V v N J J J J ",
"J L G J L J J G J J J J i F J J B G J J J J V o   Q %.X._ _ _ _ 0.j.a.| _ _ _ ) . . D J G L J J J J J L G J D i J J F B K J J J ",
"J J J J J J G L J J J J i V H V F G J J J J F .   Q O.X._ _ _ _ 0.j.s.| _ _ _ ) .   D J G J J J J J J J J J D p K F D F J J J J ",
"G L J J J J J J J J J J i V F V F J J J J J V o   Q <.X.] _ _ _ 0.j.a.| _ _ ` ) .   F J L G J J J J J G J J D y K F D F J J J J ",
"L G J J J J J J J J J K i F J J b F J J J K V .   Q <.X._ _ _ _ 0.j.a.} _ _ _ ) X   D G L G J J J J J J J J D u K J F v J G L J ",
"G G G G L L G J J J J K i D F b J J J J J J F .   Q %.X._ _ _ _ 0.j.i.| _ _ _ ) .   D J J J J J J J J J J J D i K V V J J J J J ",
"G L L G G G J J J K J K 8 V K F J J J J J J V o   Q O.X._ _ _ _ 0.j.s.| _ _ ` / .   D J J J J J J J J J J J V 8 J K H J J J J J ",
"b B B N B B b B B N B N 2 u B B B B N B v N M .   Q <.X._ _ _ _ 0.j.a.| _ _ _ ) .   v N B B N B B N B B b N u 3 N V v v B B v v ",
"4 4 3 2 3 4 3 4 3 3 3 3 2 4 2 3 2 3 2 2 3 2 6 o   Q <.X._ _ _ _ 0.j.a.| _ _ _ ) .   2 2 3 3 3 3 3 2 3 4 2 2 3 3 3 3 3 3 3 3 3 3 ",
"i i i i i i i i i 5 5 i i i i i i i i i i p e o   ! ;.$._ _ ' { 0.d.p. ._ ` } W . o y i i i i i i i i i p i i i i i 9 2 i i i i ",
"a a a a a a a a N 8 8 M M a a p a M p N M p p r 6 x h l o.$.w.y.9.8.&.' ` S s g c r p a N p a a a a a M a p p a M N y 3 M M p N ",
"a B N N N N a N B y 9 N a N M N N N N a N N N N 5 $   > *.:.s.h.9.` _ _ [ f   @ N N N v B V V V V V V V N V V N V B u 8 N N N N ",
"N B N N N N N N N M i N y i i i i p M p N N N N i %   > *.1.e.u.;.' _ _ [ h   = N N N N K J J J J J K K v F F N K V a i N N N B ",
"N N B a N N N N B p i N i i i i N p p N N N N N i %   : <.<.1.:.o._ _ _ [ h   @ N N N N G K L G J K F B K V V K N N a i N N N N ",
"a B a B N a N N a i e N a N a a N a a N N N N N e , + > 5.-.-.=.@.^ ^ ^ ( j o < N N N N D V V V V V V N V B N V N N u 8 N N N N ",
"a a a a a a a a a 8 8 a N p a N a a a a a a a a 3 t M 0 O O O O O O O O O 0 p N a a a a a a p a a p u a M a M N a N y 2 a p a a ",
"i i i p i i i i i 9 8 i i i i i i i i i i i i i 3 e i 8                   w i i i i i i i i i i i i i p i i i i i i 9 2 i p i i ",
"3 3 5 3 3 3 4 4 4 3 3 3 3 3 3 3 3 4 3 4 3 4 4 8 3 3 2 2 - - , - - - - - - 3 3 2 5 4 3 3 2 3 3 2 3 3 3 3 3 3 2 3 2 2 3 2 3 3 3 3 ",
"B B B a B a B N B N u 4 N C B a B B a D a B b a B N B v N N v v N N v N 2 u N N N N B B B B B B N 9 7 N N B b N N B B v B N N B ",
"K K J G K G G J F G B 3 J J L U P J J J J J J P U U U L U P L J U J K K 2 B K G F G K J J G F F J y u J U L J U U U L L U U U J ",
"K K G a a B B J B F B 5 K G L R R P J J J J L R E R R R R R I J R P J K 2 B F N N F J J G V B B K N N J E U L R R R R R R R I J ",
"J J F N N F F B K J N 2 J J U R R L J J J J P R R R R R R L L R J I I J 2 b F N N F J J J V N N J M M J J I I J R R R R R R I J ",
"J J J F F K G F J G V y K J U R R L J J J J J P P L P L L L J P J L J J 9 V H N B F J J J V N v K N v J J L L J P P U L P L L J ",
"J J J J J J J J J J D i J J L I R L J J J J J J J J J J J J J J J J J J y D J B v F J J J V B V K v N J J J J J J J J J J J J J ",
"J J J J J J J J J J D i J J J J R P J J J J J J J J J J J J J J J J J J u V K K v F J J J V V J J N N J J J J J J K J J J J J J ",
"J V V J B N N N J J D u J J U E J J J J J J J J J J J J J J J J J J J J i D H v J J J J J J F v K v N K J J F b b b D G b G G L ",
"J G D V F B N B J J B 8 J J L U I L J J J J J J J J J J J J J J J J K J u D K F D F J J J F D F K y y J J J F v N D F V F G G G ",
"J J G V J F V V J J b 4 K J J J I L J J J J J J J J J J J J J J J J J J 9 V K J V H J J J F F J J y y J J J G V V F G D G L L G ",
"J J J J J K J J J J N 2 J J J J J J J J J J J J J J J J J J J J J J J K 2 N J J J J J J J K J J J y y J J J J J J J G L G G L G "
};
