/* XPM */
static char *result[] = {
/* columns rows colors chars-per-pixel */
"64 64 173 2 ",
"   c #020101",
".  c #0A0700",
"X  c #0C0A01",
"o  c #0B0A0A",
"O  c #120B00",
"+  c #100E0E",
"@  c #181002",
"#  c #1F1A05",
"$  c #19140C",
"%  c #1E1B09",
"&  c #151211",
"*  c #221B02",
"=  c #2A1C14",
"-  c #271F1B",
";  c #2F1C1B",
":  c #272100",
">  c #2C2200",
",  c #2D2608",
"<  c #362C07",
"1  c #3E2F01",
"2  c #3C3202",
"3  c #272016",
"4  c #312B16",
"5  c #32221C",
"6  c #382219",
"7  c #3C3419",
"8  c #302723",
"9  c #3C2B29",
"0  c #483A07",
"q  c #452A1F",
"w  c #453817",
"e  c #50301B",
"r  c #4E2B27",
"t  c #4D2B28",
"y  c #502B26",
"u  c #542F2B",
"i  c #4F3223",
"p  c #44332F",
"a  c #4B322A",
"s  c #483929",
"d  c #523223",
"f  c #56302C",
"g  c #5E342F",
"h  c #543B28",
"j  c #5C3A2D",
"k  c #473635",
"l  c #4C3B34",
"z  c #563732",
"x  c #513B36",
"c  c #5D3933",
"v  c #60362E",
"b  c #63382D",
"n  c #693B2E",
"m  c #623730",
"M  c #663931",
"N  c #6B3D31",
"B  c #713F31",
"V  c #4A411E",
"C  c #756514",
"Z  c #71641D",
"A  c #7C6D1F",
"S  c #584626",
"D  c #53472B",
"F  c #574136",
"G  c #574238",
"H  c #5F4A38",
"J  c #5D5132",
"K  c #65412F",
"L  c #68422F",
"P  c #76432F",
"I  c #78442F",
"U  c #6A5A20",
"Y  c #664134",
"T  c #6E4132",
"R  c #66493B",
"E  c #754232",
"W  c #7A4532",
"Q  c #7E4833",
"!  c #635B34",
"~  c #7B6D25",
"^  c #7C6F30",
"/  c #7D743B",
"(  c #6F6042",
")  c #837100",
"_  c #84741A",
"`  c #804733",
"'  c #844C34",
"]  c #894E35",
"[  c #8D5135",
"{  c #8C5138",
"}  c #805838",
"|  c #945636",
" . c #975936",
".. c #9B5D36",
"X. c #945738",
"o. c #9C5D38",
"O. c #867827",
"+. c #8C7D35",
"@. c #A36336",
"#. c #A26339",
"$. c #918110",
"%. c #A28E04",
"&. c #B69F0E",
"*. c #A28D13",
"=. c #B09C1E",
"-. c #B6A017",
";. c #938324",
":. c #988A28",
">. c #A69426",
",. c #C6AD14",
"<. c #D7BE19",
"1. c #D2BB2A",
"2. c #DDC315",
"3. c #DBC21A",
"4. c #ECCC02",
"5. c #EBCC09",
"6. c #F0CF06",
"7. c #EFD007",
"8. c #EFD00A",
"9. c #F4D406",
"0. c #F4D40B",
"q. c #F8D70B",
"w. c #F9D90A",
"e. c #EBCE12",
"r. c #E6CA1C",
"t. c #E7CB1E",
"y. c #EED115",
"u. c #EDD01A",
"i. c #F5D511",
"p. c #F6D915",
"a. c #F9D914",
"s. c #F5D81D",
"d. c #FDDE1B",
"f. c #FEE01E",
"g. c #E8CD23",
"h. c #E5CC2D",
"j. c #ECD127",
"k. c #F5D926",
"l. c #FDDF23",
"z. c #FADE2C",
"x. c #FADE30",
"c. c #F5DA38",
"v. c #F6DC39",
"b. c #FDE022",
"n. c #FDE235",
"m. c #FAE13A",
"M. c #B9B06C",
"N. c #BEB174",
"B. c #C1B354",
"V. c #DAC649",
"C. c #DAC751",
"Z. c #E2CC45",
"A. c #EFD843",
"S. c #ECD64E",
"D. c #EFD84E",
"F. c #FBE544",
"G. c #FCE849",
"H. c #F9E552",
"J. c #FDEA54",
"K. c #FEEB5B",
"L. c #D3C772",
"P. c #E7D66B",
"I. c #FCE766",
"U. c #FFEE62",
"Y. c #FFED6C",
"T. c #FFED73",
"R. c #FDEB7A",
"E. c #CEC487",
"W. c #E6DA85",
"Q. c #E8DB81",
"!. c #FAEB83",
"~. c #F4E58B",
"^. c #F7E98F",
/* pixels */
"t t t t t t t t t t t t t t t t t t t t t t t t t t t t t t t t t t t t t t t t t t t t t t t t t t t t t t t t t t t t t t t t ",
"g g g g v v g g g g g m g g g g y f v g g g g v g g g g g m f t g g c m g g g g g m g g g u f g g g g g g g g g g c c m g g g g ",
"N N N N N N N N N N N N N N N N r v N N N N N B N B N N B B m t N N N N N N N N N N N B N f f N N N N N N N N N N N N N B B N N ",
"W E E E E E E E E E E E E E E E y n E E E E E E B W E B B B M t B W B E E B W B E E E E E f g E E E E E E E E E B E E E B B B B ",
"E ' { { { { ] { { Q Q { E ' ' E M B E E E E E E E E Q B E E N M E N M M M M N E M B E E E N N E E E E E N B T N M M N M Q ` B Q ",
"E ' | { [ [ | ] Q ' ` Q ] ` Q E M B E E Q E E E W E E B Q E B M E N M M M B B N B E E E E N N E E E B N E N N T M M M M B B Q B ",
"E ` ' ' ' ] ' ' E Q ` E ' Q E E m N E E E E E E W B W Q B E B c E B N N N B B N E E E E E M b E E W E N E N N E N N N N E E E E ",
"E E E E E E E E E E E E E E E E t N E E E E E B B W E B E E M u E E E E E E E E E E E E E g g E E E E E E E E E B E E E E E E E ",
"M n n b M M M M M M n n M M n M r g n n b M n n M N M N M M z t M M M M M M M M M M M n n u u M M M n n M M M M N M M M M M M n ",
"u f f f f f f f f f f f u u f f y y u f f f f f u f u f u u u t z f f f f f f f f f f f u r u u f f f f f f u u f g f f f f f f ",
"b b b b b b g t b b b b b b b b b b v v b b b b m g x x x x x G k x x x l x g m b b b b b b b b b b b b b b v b m f f m b b m m ",
"[ { [ { { { I r { [ [ [ ] ] | { [ [ { | [ { [ [ { ' o                     o Q X.{ [ [ { | ] ] | [ [ [ [ [ [ | [ { m g { [ [ [ [ ",
"[ [ ' E W ' ` M ] ....] @.@.@.@.@.@.@.#.] { { { E Y 3 # % % % % % % % # # * Q } ] [ [ [ @.@.@.@.@.@.@.#.] ..o.] ] m b [ B ` ` [ ",
"[ [ ] E E ' ' b | |  ... ...@.@.@.@.@.@.{ { { R o 4 E.Q.W.W.W.W.W.W.Q.P.Z.C.0 + F [ [ [ @.@.@.@.@.@...| ..| ....| M b [ B B ` [ ",
"[ [ ' E P ' ` M ] ] | ..|  .............[ [ { R   , ~.T.R.T.T.R.R.R.T.K.n.c.2   F [ [ [ o........... .[ ..| | ..] M n [ I E ` ] ",
"[ [ ] E I ' ` n ] | [ [ ] [ [ [ [ [ { [ [ j k ( ;.:.S.c.c.c.c.c.A.v.x.x.l.z.*._ ^ d h [ { [ { [ [ [ [ [ | ] ] | ] E B [ I B ` [ ",
"] | ] P ] [ ` b ] [ [ [ [ [ ] | ] ] [ [ [ 3   / ^.I.r.5.5.4.5.4.5.4.5.0.d.l.z.v.>.  & [ | ] ] ] [ [ [ [ [ [ [ [ [ B B | [ ` ` ] ",
"] ] ] ' ` ] ` n { [ [ [ ` ` Q ` | ' Q ' Q 7 : ;.I.G.y.7.5.4.7.7.6.5.4.0.d.d.d.l.&.> < Q ` ' | | [ [ [ [ [ [ [ [ [ B B [ ` ` ] [ ",
"| [ ] ' Q ] ` v [ [ [ [ I E E Q ' ` b . X N.~.D.r.e.l.b.f.b.f.f.d.d.d.a.4.4.d.l.z.A.V.O . d [ [ [ [ [ [ [ [ [ [ [ B B | ` ` ] [ ",
"] [ ] I { { W t [ [ [ ] I E Q { I ' L   X L.R.v.5.4.f.b.b.b.n.k.z.l.l.a.4.4.a.l.b.b.h.O   d [ [ [ [ [ [ [ [ [ [ [ B B | { Q ` [ ",
"[ [ { { [ [ P r [ [ [ [ { { { { { { K   X L.R.v.5.4.f.b.F.K.K.K.J.n.b.a.4.4.a.d.b.b.h.O   i ] [ [ [ [ [ [ [ [ [ [ b b ] [ ] { | ",
"b b b b b b f t b b b b b b m M b v a   . L.R.v.5.7.f.b.J.T.T.T.Y.m.b.a.4.4.a.l.f.b.h.O   6 b b b b b m b b b M b u f b b b b b ",
"f f f f f f f f f f f f f f f f r t s 4 V C.H.z.8.y.m.F.G.J.J.J.J.x.d.a.8.0.i.a.d.l.j.0 7 w t t f f f u u u f f f f f f f f u u ",
"b n M M b M M N M M M M M M M M +   s ~.R.j.e.i.f.n.U.Y.m.s.p.p.a.0.0.q.d.d.0.4.0.d.l.s.j.Z   o b n n M n M M M n n M n M M b n ",
"E E E E B B W B E E E E E E B E o   ! !.Y.u.4.i.b.m.Y.T.m.p.w.w.w.9.9.w.f.f.7.4.8.f.f.9.9.C   o B E E B B B ` B B B B B W E E B ",
"E E E N N N B N N B E N E W W E +   ! !.Y.u.4.8.f.m.Y.T.m.p.w.w.w.9.9.i.f.f.7.4.9.f.f.9.9.C     M N N N Q B B B ` B W W E E B Q ",
"E E B M M M M M N N B N B B W E o   ! !.Y.u.4.i.f.m.Y.T.m.a.w.w.w.9.9.i.f.f.7.4.9.f.f.9.9.C   o M M M N B N N B E E E E E E Q B ",
"E E B M N M M N E N N E N B B W o   ! !.Y.u.4.i.f.m.Y.Y.m.w.w.w.w.9.9.w.f.f.7.4.8.f.d.9.0.C   o M M B E M B B N E E E W W B Q E ",
"E E B E E E B B E E B E E E B B &   ! !.Y.u.4.i.b.m.Y.T.m.a.w.w.w.w.9.w.f.f.7.4.0.d.d.9.0.C   o N E E E B B ` B ` B B B E B E E ",
"N N N N B N N N N N N N N N N M o   ! !.Y.u.4.i.f.m.Y.Y.m.a.w.w.w.9.9.i.f.f.7.4.0.d.d.9.0.C   o M N N N N N N N N N B N B N N B ",
"m v g g g m g g c g m g m g m g o   ! !.Y.u.4.i.f.m.Y.T.m.i.w.w.w.9.9.w.f.f.7.4.0.d.d.9.9.C   o f m c c g g g g g m g g g g m c ",
"t t t t t t t t y t t t t t t t o   ! !.Y.u.4.i.f.m.Y.T.m.a.w.w.w.9.9.i.f.f.7.4.0.d.d.0.6.C   o t t t t t t t t t t t t t t t t ",
"{ ] ] | ] [ [ [ { { { { r E { [ +   ! !.Y.u.4.i.f.m.Y.T.m.a.w.w.w.9.9.w.f.f.7.7.9.f.f.9.9.C   o ` [ [ [ [ [ P t { [ [ [ [ [ [ [ ",
"| ..............[  . .{ r E ' Q o   ! !.Y.u.4.i.f.n.Y.T.m.q.w.w.w.9.9.i.f.f.7.4.8.f.f.9.9.C   o  ...X.[ ..| P r { ' Q Q { [ [ [ ",
"] ..@.@.@.@.@. .X... .{ r W ] P +   ! !.Y.u.4.i.f.m.Y.T.m.a.w.w.w.9.9.w.f.f.7.4.9.f.d.9.8.C   o ......| ..| E r { Q E E [ [ [ [ ",
"] ..@.@.@.@...| @.| [ [ y I ' E +   J !.Y.u.4.0.f.m.Y.T.m.i.w.w.w.9.9.w.f.f.7.4.8.f.f.9.9.C   o ..X. .#.[ { W r [ Q E P { [ [ [ ",
"| | ] [ [ [ [ [ [ [ [ { M Q [ { o   ! !.Y.u.4.i.f.m.Y.T.m.a.w.w.w.9.9.w.f.f.7.4.8.f.f.9.9.C   o ' [ [ [ [ [ ' M [ { ] P [ { { [ ",
"] ] [ [ [ [ [ [ [ [ [ { n ` ] Q +   ! !.Y.u.4.i.f.m.Y.T.m.a.w.w.w.9.9.i.f.f.7.4.0.d.f.9.9.C   o ' [ [ [ [ [ ' b { ' Q ' [ [ [ [ ",
"[ [ [ [ [ [ [ [ [ [ [ { N Q ] Q o   ! !.Y.t.4.i.f.m.Y.Y.m.i.w.w.w.9.9.w.f.f.7.4.0.d.d.0.5.C   o ] [ [ [ [ [ ' b { ' ` ] [ [ [ [ ",
"[ [ [ [ [ [ [ [ [ [ [ { b Q { { 5 = J M.B.g.0.i.a.l.J.K.z.q.q.q.w.w.i.a.a.a.8.7.9.d.s.-.=.U = 6 ' [ [ [ [ [ ` n [ { ' P [ [ [ [ ",
"[ [ ] | ] [ [ [ [ [ [ { b ' ' E { { K . X 1.l.q.4.4.l.l.a.9.9.9.9.d.f.i.4.4.a.f.a.0.2.O   e { [ [ [ [ [ ] | ` b { Q Q { [ [ [ [ ",
"[ [ ] | [ [ [ [ [ [ [ { f Q [ ' [ { K   X 1.l.q.4.6.d.l.a.0.9.9.9.d.f.a.4.4.a.b.d.9.2.O   i [ [ [ [ [ { ] { Q f { ] ] { [ [ [ [ ",
"I E W E E E E I E E E E r n I W W E j   . 1.z.q.4.4.f.b.d.d.a.d.d.f.f.a.4.4.d.b.a.0.2.O   q E W I W W E I W n t P W W P P W P P ",
"y y y y y y y y u t t t r r r r r r 9   . 1.z.i.4.9.d.d.d.l.f.b.f.f.f.a.4.4.a.f.a.0.3.O   ; t t r y y t t y t t r r t t t r r a ",
"M M M M N M M M M f f M M M M M M v c p l +.:.,.u.0.i.i.q.a.i.i.a.a.i.i.q.0.a.a.<.$.O.D p z M M M M M M M M M M M M g r M M M M ",
"B B B B B B B B E f f T T B T B B P B B N 3 . ) x.a.6.4.4.4.4.4.4.4.4.0.b.d.i.8.%.X $ n B B B B B B B T N E B T N E b t T E E N ",
"B B B W W W B E E v v E B E N E T E E B E 8 $ A V.g.e.4.6.4.4.4.4.4.4.6.d.l.r.1.;.& - E Q Q Q ` Q Q Q Q E Q W W Q W n f E E E E ",
"B Q W W B E E E E N N E M m M M M B B b E E B H O 1 c.d.q.9.9.9.9.9.9.9.9.t.0 @ D E E E [ [ ] { { { { { P ' ' E { Q B M E E E E ",
"E Q B E W B W E W M M E M M M M E B N E E E E G o * S.x.s.e.u.y.y.y.y.y.u.h.2   l E E E { { { { { { ' I { Q Q { E E E b E E E E ",
"E E B E W B B W W m m E B T E B B B B B E W E N 9 h / O.O.A ~ A A A ~ A ~ ~ S a Y E E P Q Q Q Q ` Q W I Q W E Q E E n f W E E E ",
"B E B B B B B B B f f B T B B B B B B B B B B B t c .                     . Y E E N B B B B B B E N B B E N T T E N b r B N E B ",
"M M M N M M M M M f f M M M M M M M M M M M M M t f & o o o o o o o o o o + c M M M M M M M M M M M M M M M M M M M g r M M M M ",
"u t u t t t y y y t t t t t t u u y y y y y y y t t t r t t r r r t r t r t t r t u t t r r t y t t y y t t r r r r r r t t t u ",
"B B W B W B W E W E n t E W W E B B B ` B ` I B E E W E P E E E W W E E r n E W E E W W E E W E W f f I E Q E E E W W I E W E E ",
"X.{ { ] ] ] ] { ' { Q y { ] { X.| | [ [ | [ | |  . .X.| X.| | [ | | { [ r I { ' ' [ { [ | ] ] ] { b n [  .{ [  .X.X.| | | | X.{ ",
"{ { ] B B W ` { E ' E y { | | #.@.| [ [ [ [ | @.@.@.@.@.@.@...[ @.X.{ { r I ' E E ' [ [ ] ` E I { P E { #. . .@.@.@.@.@.@.@...{ ",
"[ ] ' I E ' ' I [ { W r [ [ X.@.@.| [ [ [ [ | @.@.@.@.@.@. .| @.[ ....[ r P ' E E ' { [ [ Q E E ] P P ] [ ....[ @.@.@.@.@.@...{ ",
"] | ] ' ] { ] ' [ { Q v { [ X.@.@.| [ [ [ [ [ |  . . . . .] |  .[ | | { g Q ' E E ' { [ [ Q E I [ E T [ [ | | [ | | X. .X...| [ ",
"| ] [ [ [ [ [ [ [ [ ` b { [ | ..@.| [ [ [ [ [ [ [ [ [ [ ] [ [ [ [ [ [ ] M ` ] Q P ' [ [ [ Q I I [ E P [ [ [ [ [ [ [ [ [ [ [ ] [ ",
"[ [ { [ [ { { { [ [ ` n { [ [ [ @.| [ [ [ | [ [ [ [ [ [ [ [ [ [ [ [ [ [ M Q [ [ P ' [ [ [ Q Q { { T P [ [ [ [ { [ [ [ [ [ [ [ [ ",
"] I ` | I P P E { [ ` n [ [ | @.[ [ [ [ [ [ [ [ [ [ [ [ [ [ [ [ [ [ [ { n ' ' P [ [ [ [ [ [ ' I [ E E [ [ [ ' I P P ` [ I ] ] | ",
"| ' ` Q ' Q E E [ { Q f { [ | | ..| [ [ [ [ [ [ [ [ [ [ [ [ [ [ [ [ [ { M ` [ ' Q [ [ [ [ ' ` ] [ M M [ [ [ ' P P ` ' ` ' ] ] ] ",
"[ [ ] Q [ ` Q Q [ [ I r [ [ [ [ ..| [ [ [ [ [ [ [ [ [ [ [ [ ] ] [ [ [ { j Q [ [ Q ' [ [ [ ' ` [ [ b j { [ [ ] Q Q ' ] ` [ [ | ] ",
"[ [ [ [ [ { [ [ [ [ P r { [ [ [ [ [ [ [ [ [ [ [ [ [ [ [ [ ] | | ] [ { { r E [ [ [ [ [ [ [ [ [ [ [ b b [ [ [ [ [ [ { [ [ [ [ [ [ "
};
