/* XPM */
static char *result[] = {
/* columns rows colors chars-per-pixel */
"64 64 139 2 ",
"   c #040202",
".  c #0A0502",
"X  c #0D0B0A",
"o  c #150C00",
"O  c #110D0B",
"+  c #1E150D",
"@  c #1D1914",
"#  c #1D1918",
"$  c #251A00",
"%  c #24170C",
"&  c #221714",
"*  c #2D1E15",
"=  c #211B19",
"-  c #2D1B1A",
";  c #362E0B",
":  c #3D2B0B",
">  c #3C320C",
",  c #3F3714",
"<  c #342520",
"1  c #452C1D",
"2  c #433B1A",
"3  c #452724",
"4  c #462926",
"5  c #4E2B27",
"6  c #4E2B28",
"7  c #502B26",
"8  c #532F2B",
"9  c #4E312D",
"0  c #543426",
"q  c #593422",
"w  c #56302C",
"e  c #5D342E",
"r  c #5A3A2C",
"t  c #61372E",
"y  c #63382D",
"u  c #6A3B2E",
"i  c #663931",
"p  c #6B3D31",
"a  c #713F31",
"s  c #544706",
"d  c #564508",
"f  c #5A4C0F",
"g  c #594C12",
"h  c #54491B",
"j  c #5F531E",
"k  c #60531C",
"l  c #7F6C0D",
"z  c #746312",
"x  c #564A23",
"c  c #5F5327",
"v  c #6D442F",
"b  c #76432F",
"n  c #7A462E",
"m  c #7F4C2E",
"M  c #6E4332",
"N  c #754232",
"B  c #794532",
"V  c #7E4833",
"C  c #8C780B",
"Z  c #804733",
"A  c #844C34",
"S  c #894E35",
"D  c #845331",
"F  c #8D5135",
"G  c #8C5138",
"H  c #945636",
"J  c #975936",
"K  c #9C5D36",
"L  c #945738",
"P  c #9C5D38",
"I  c #877432",
"U  c #A36336",
"Y  c #A26339",
"T  c #A69538",
"R  c #B7A433",
"E  c #B3A23C",
"W  c #C8B32D",
"Q  c #D6BC21",
"!  c #C5B132",
"~  c #CFBA31",
"^  c #C6B238",
"/  c #ECCB02",
"(  c #E7C90D",
")  c #EACB0C",
"_  c #F0D007",
"`  c #F0D008",
"'  c #E5C915",
"]  c #E8CC13",
"[  c #E1C618",
"{  c #E7CA1D",
"}  c #E9CA1B",
"|  c #F6D612",
" . c #FADC17",
".. c #F5D619",
"X. c #FCDD1B",
"o. c #FEE01E",
"O. c #DEC52E",
"+. c #F3D727",
"@. c #F5D823",
"#. c #FCDF24",
"$. c #F2D62C",
"%. c #FADE2A",
"&. c #E8CF3D",
"*. c #E7D03C",
"=. c #F0D530",
"-. c #F5DC35",
";. c #FADE32",
":. c #F5DC3A",
">. c #F8DF3A",
",. c #FDE021",
"<. c #FDE028",
"1. c #F9E13B",
"2. c #918043",
"3. c #CDBA44",
"4. c #D5C44F",
"5. c #D5C451",
"6. c #E2CC43",
"7. c #EDD648",
"8. c #F5DE52",
"9. c #F4DE5A",
"0. c #FBE355",
"q. c #F8E258",
"w. c #FDE95B",
"e. c #FBE667",
"r. c #FDE962",
"t. c #FBE66A",
"y. c #FFEE6E",
"u. c #FBE774",
"i. c #FDED74",
"p. c #FDEC7D",
"a. c #FFEE84",
"s. c #FCEB8D",
"d. c #FFF283",
"f. c #FEEE94",
"g. c #FFF193",
"h. c #FFF09D",
"j. c #FEEFA4",
"k. c #FEF0A4",
"l. c #FEF0A8",
/* pixels */
"6 6 6 6 6 6 6 6 6 6 6 6 6 6 6 6 6 6 6 6 6 6 6 6 6 6 6 6 8 6 6 6 6 6 9 6 6 6 9 6 6 6 6 6 6 6 6 6 6 6 6 6 9 6 6 9 6 6 9 6 6 9 6 6 ",
"e e e e e e e e e e e t e e e e 5 w e e e e e t e e e e e e w 8 e e t t e e e e t t e e e 9 8 t e e e e e e e e e e e i w e e e ",
"p p p p p p p p p p p p p p p p 6 y p a p p p a a a p p a a e 9 i a p p a a i p p p p p p w w p p p p p p p p p i a p p a a p p ",
"B N N N N N N N N N N N N N N N 6 u N N N N N N a a N a a a i 6 a a a N a a a a N N N B a e e N N N N N N N N N a a N N a a a a ",
"N A G G F G F H G B V G N A A N i a N N N B N N B N N N N N a i N p i i p i p a i a N N N p p a N N N N i a a i i i i i Z N N N ",
"N A F G S H S G V A A V S A V N i a N N N N N N N N N N B N a i N p i p i a a a a N N N N p p B N N a p a p p N i i i i N N Z N ",
"N V A S A S A A N V V N A V N N t p N N N N N N N B N B N N a e N a p p a a a p N N N N N p i N N B a a N a p N a p i p N N N N ",
"N N N N N N N N N N N N a N N N 6 p N B N N a B B a N N N N i 9 N N a N N N N a N N N N N w t a N N N N N N N N N N N N N N N N ",
"i p i i i i i i i i p u i i y p 5 e y u p y i i p i y i i i e 6 i i i i u i i p y i i i i w w i i i i u i i i i i i i i i i i i ",
"w w w w w w w w w w w w w w 8 8 6 0 w w w 8 w w w w w w w w w 6 w w w w w w 8 w w w w w w 7 7 w w w w w w w w w w e w w w w w w ",
"t t t y t t e 5 i t t t y y y y y y t t y y y y t t i e t t t y 6 e i t y y y t y y y y y y y y y y y y y y y y e w w t t i i t ",
"F F F F F F B 5 G F F F S S H F F F F F F S H S F F D M v M M M < i M M S F F F S F F F F F F F F F F F F F S H G e i G F F F F ",
"F F A B B A Z i H J K F U U U U U U U Y F F F F B N r .   .     X     . D Y K F F F F F U U U U U U U U F K K S S t y F a a Z H ",
"F F A N N D Z i S H J J J P U U U U U Y F F F F N N r . . . . . . . . . m U K F F F F S U U U U U U P H K J J K F i y F a B Z F ",
"F F A B b A Z i F F H K H J K K K K K K F F F F < + c ^ W W W W ! W W ! h + 1 F F F F H P K K P P K J F K H H P F p u F n a Z S ",
"F F A N b A Z i F F H S S S S H F F F F F F F F #   c :.#.<.#.#.<.#.<.;.;   * F F F F F F F F F F F F F F F F F F a a H a a Z F ",
"F F A b F F V i S H S H S F S F F F F F F F F F #   j -.o.X.,.X.| | o.%.>   * F F F F F H S S S F F F F F F F F F a a H F Z Z S ",
"F F F A Z F Z y G F F S Z Z V V F A Z F F F S Z #   k -.,.X.,.` / _ o.%.;   * S F F F F S S H H F F F F F F F F H a a F Z A S F ",
"F F F A B F Z e F F F S N N B V A Z A F F F n u ; $ z %.<.1.1.+./ `  .X.d $ : m Z F F F F F F F F F F F F F F F F a a F V Z S F ",
"F F A b G F B 6 F F F G b b V F b S F F F m X o 2.7.-.#.1.y.d.w.o.o./ ) =.7.I . O n F F F F S H F F F F F F F F F a a H F Z Z F ",
"F F F F F F n 6 S F F F G G G G F F F F F Z . . 5.<.o.#.>.a.h.u.1.@./ /  .,.R   . b F F S F F S F F S F F F F S F y y F F G S F ",
"y y y i t y r 6 i t y y i t t i y y t t t 0   . 5.#.o.#.>.a.j.f.y.w.) /  .#.R   . w y y y i y y y y i t y y t i y w 8 y y y y y ",
"8 w 8 8 w w w 8 w w w w w w w w w w 8 w w 5   . 5.#.o.#.>.a.l.k.h.i.] /  .,.R   . 5 w w 8 w 8 8 w 8 8 w w 8 w w w w w w w w w w ",
"i i i i p i i i i i i i i i i i i p i p y e   . 5.#.o.#.1.a.j.f.i.w.) /  .#.R     w p u p i i i u u i u u i i i i u i i i y i p ",
"N N N N N N N N N N N N N N N N N N N N N p . . 5.#.#.#.>.a.j.t.1.#./ / X.,.R     u a N N N N N N N N N N a B a a a N B a N N B ",
"N N N p p p p p p a N p N N N N N N N N N u   . 5.#.o.#.>.a.j.u.:.%./ /  .,.R   X u N N N a p p p p p p N a a a Z a N N B N B a ",
"N N p i i i i i p a p p a N N N N N N N N u   . 4.#.o.#.>.a.l.f.p.r.] /  .X.R     p N N N p p i i i i p a a a a B N B N N N N N ",
"N N a i i i i p N p p N p a N N N N N N N u   . 4.<.,.X.>.a.l.j.h.i.] / X.#.R   X i N B N p i i i i p N p a a a a N N N N N B N ",
"N N N N N N a N N N N N N N N N N N N a N p   . 3...| | $.a.j.s.t.0.) /  .,.R   X t a a a a a a N N N N a a a a a a a a N a B a ",
"p p p p p p p p p p p p p p p p p a p p p i . . ^ / / / { p.h.t.<.#./ /  .,.R     e p p a p a p p p p p i p a a a p a p a p a a ",
"t e e e e e t e e e e e e t e e t e e t e 8   . ^ / / / { p.h.t.<.X./ /  .X.R     8 e e i e e e e e e e e e e e e e e e e e e i ",
"7 6 6 7 6 6 6 6 6 6 6 6 6 6 6 6 6 7 6 6 6 3   . ^ ) / / { p.h.t.,. ./ /  .#.R   X 4 6 6 6 6 6 6 6 6 9 9 6 6 6 6 8 8 6 6 6 6 9 6 ",
"G G F F F F F F G F G G 5 B F F F F F F F V   . ^ / / / { p.h.t.,.X./ /  .,.R     B G F F F F F F F G F F F N 6 G F F F G F G G ",
"F J P K P K K K F K H G 5 B A V V S F F F Z   . ^ / / / { a.h.e.#.X./ /  .,.R   X n F F P P K K K K K F K H b 5 G A V V F F F F ",
"F K U U U U U J H K J G 5 N A N N A F F F Z   . ^ ( / / { p.j.e.#. ./ /  .X.R   . B F F Y U U U U K K H K H N 5 G V N N F F F F ",
"F P U U U U J H Y H F F 7 B A B N S F F F m   . ^ / / / { p.h.t.X. ./ / X.#.R   . b F F Y Y U U U H L Y F F B 6 G B N b F F F F ",
"F H S F F F F F F F F F i A G G N S F F S Z . . ^ ( / / { p.h.9./ / / /  .,.R   . N F F H F F F F F F H F F A i F G A B F F F F ",
"F F F F F F F F F F F F i V D V A S F F S m . . ^ / / / { p.f.9./ / / /  .,.R   X m F F S F F F F F F F F F Z i G A Z A F F F F ",
"S H F F F F F F F F F G i V A V A F F F H Z   . ^ / / / { p.h.9./ / / /  .X.R   . b F S S H F F F F F F F F Z p F A Z A F F F F ",
"S F F F F F F F F F F G i A F F b A F F S Z   . ^ / / / { a.h.9./ / / / X.#.R   . n F H S S F F F F F F F F Z y G G D b F F F F ",
"H S S S H H S F F F F F i A A N F F F F F V   . ^ ( / / { p.h.9./ / / /  .,.R   . b F F F F F F F F F F F F V i G V V G F F F F ",
"H S H S S S F F F F F G w B F A F F F F F m   . ^ / / / { p.h.9./ / / /  .o.R   X b F F F F F F F F F F F S V w F F D G F F F F ",
"b B B N B B b B B N N N 5 u B B b B B B B u . . ^ ( / / { p.f.9./ / / /  .#.R   . u b B B B N N b B B B B b u 6 N n n N B B B N ",
"5 7 5 5 6 6 7 7 6 6 6 6 5 6 5 6 5 5 6 5 7 3   . ^ / / / { p.h.9./ / / _  .#.R   . 3 6 7 6 6 8 6 6 5 6 6 5 6 6 6 6 6 6 6 5 6 6 6 ",
"i i i p i i i i i w w i i i i i i i i i i w X . T [ ) / } i.g.8.] ) / / @.-.E   X w i i i i i i i i i i i i i i i i e 5 i p i i ",
"a a a a a a a a N w w M N a p a M N u N N p w 0 2 s C ( ) $.&.8.e.q.@...l g x 0 w p N M M p a a a a a M a a p N p N y 7 M p a a ",
"a a N N N N a N N t e N p N M a p N N p N N N N @   f ] / / ' 8.g.d.;.%.>   % N N N N n V V V Z V V V V N V V N V N p 8 N N N N ",
"B B N N N N N N N p p N i i i i p p N p N N N N #   g ' / / ) -.y.w.%.%.>   & N N N N N G G G S G F G G N A A B G V a i N N N N ",
"N B a B N N N N N a p N p i i i N p p N N N N N #   h } / / / ..;.%.#.%.>   & B N N N N G G F F S G A B G V V G N N N i N N N N ",
"a B a N N a N N N t t N a a a a N a a N N N N N = O h ~ Q Q Q O.*.*.*.6., X - N N N N N V V Z V Z V V N V B N V B N u w N N N N ",
"a a a a a a a a a e w p N p a p a a a a a a a a 6 y 0 o o o o o o o o o q p M p a a a a a a p a a p p a p a M N a p y 6 a p N p ",
"i i i p i i i i i w w i i i i p i i i i p i i i 6 e 9                   0 i i i i i i i i i i i i i i i i i i i i i e 7 i p i i ",
"6 6 6 6 6 7 6 7 7 6 6 6 6 9 6 6 7 7 7 6 7 7 7 8 6 6 4 - * - - - - - - - 5 5 6 6 6 8 6 7 5 6 6 5 6 8 8 6 6 6 6 6 6 6 6 6 6 6 6 6 ",
"B B Z a N N B B B N p 6 N N N N B B N B a Z a a N N N B N B B N N N N N 6 u N n N N B N B B B B B w 0 N N B N N N N n n B N N B ",
"G G G S S S S S A S V 7 G S H L H F F F F F F J H H H H H H H F L F F F 6 b F A A G F F F S S A F y u F L H F H H H H H H H L F ",
"G G S a N N V G B A N 7 F G J U U H F F F H H U U U U U U U K F U K F G 6 B Z N B A F F S V N N F N N F Y H J U U U U U U U P F ",
"F F A N N A A N F F N 5 F F L U U H F F F F J U U U U U U J J U F K P G 5 n A N N A F F F V B b F M v F F K K F U U U U U U K H ",
"F F S A S F S A F G V e F F K U U H F F F F F J H H J J J F F J F H F F e V A N B A F F F V N N F b N F F H H F K H H H H H H F ",
"F F F F F F F F F F V i F F F K U H F F F F F F F F F F S F F F F F F F p Z D V N A F F F V N Z F N N F F F F F F F F F F F S F ",
"F F F F F F G F F F Z i G F F F U J F F F F F F F F F F F F F F F F F F i Z G G N A F F F V V G F N N F F F F F G F F F F F F F ",
"F V V F B N b B F F Z p F F H Y F F F F F F F F F F F F F F F F F F F F i Z D B G F F F F F A b S N N F F F A b b B Z S B A F F ",
"F S Z V Z V N N F F B 0 G F F K P H F F F F F F F F F F F F H S F F F F i V F Z Z D F F F A Z A G i i F F F A b N Z A V A S F F ",
"F F S V G A V V G F N 7 G F F F P H F F F F F F F F F F F F F F F F F G e V F F m A F F F A A F F y e F F F A V V S S Z S H F F ",
"F F F F F F F F F F B 5 G F F F F F F F F F F F F F F F F F F F F F F G 5 N F G F F F F F F F F F y t F F F F F F F S H S S S H "
};
