/* XPM */
static char *_96e8cff98d64673fd67b86059723f38NoOWdeH3iZ28bFqr[] = {
/* columns rows colors chars-per-pixel */
"64 64 144 2 ",
"   c #3F3727",
".  c #34332E",
"X  c #3A362B",
"o  c #3E382A",
"O  c #303030",
"+  c #3C3C3C",
"@  c #4D2C26",
"#  c #4D2B28",
"$  c #4D3F24",
"%  c #413929",
"&  c #55302B",
"*  c #5D352E",
"=  c #4D3331",
"-  c #4F3937",
";  c #4E3A39",
":  c #543834",
">  c #553E3B",
",  c #64392E",
"<  c #6A3C2E",
"1  c #653A31",
"2  c #6B3D31",
"3  c #5B451B",
"4  c #75530E",
"5  c #604715",
"6  c #664D1A",
"7  c #694F18",
"8  c #6E5117",
"9  c #7A5711",
"0  c #7E5B15",
"q  c #70551F",
"w  c #514222",
"e  c #5D4C29",
"r  c #5C423C",
"t  c #5C523C",
"y  c #6F402F",
"u  c #76432F",
"i  c #655025",
"p  c #6A5427",
"a  c #66532D",
"s  c #6F4031",
"d  c #62453C",
"f  c #66483D",
"g  c #6A4B3E",
"h  c #754332",
"j  c #7A4631",
"k  c #7D4832",
"l  c #714E3E",
"z  c #7B4E38",
"x  c #605236",
"c  c #6E5B36",
"v  c #74503F",
"b  c #7A553F",
"n  c gray31",
"m  c #5C4641",
"M  c #504C4B",
"N  c #594D4C",
"B  c #575043",
"V  c #52504B",
"C  c #525252",
"Z  c #5C5B5B",
"A  c #634940",
"S  c #684F44",
"D  c #755140",
"F  c #7A5540",
"G  c #635D52",
"H  c #636363",
"J  c #6C6462",
"K  c #6B6B6B",
"L  c #706763",
"P  c #716E6A",
"I  c #79756B",
"U  c #747474",
"Y  c #787270",
"T  c #7C7C7C",
"R  c #855901",
"E  c #8C5E01",
"W  c #845D0E",
"Q  c #8E620A",
"!  c #916101",
"~  c #9E6901",
"^  c #906309",
"/  c #A36D01",
"(  c #844D33",
")  c #894E34",
"_  c #8D5135",
"`  c #8B5238",
"'  c #945736",
"]  c #965937",
"[  c #9B5D36",
"{  c #A36336",
"}  c #A16338",
"|  c #837976",
" . c #818181",
".. c #848484",
"X. c gray53",
"o. c #888888",
"O. c #8B8B8B",
"+. c #8D8D8D",
"@. c #8E8E8E",
"#. c gray56",
"$. c #909090",
"%. c #929292",
"&. c #939393",
"*. c #959595",
"=. c gray60",
"-. c #9B9B9B",
";. c gray61",
":. c #9D9D9D",
">. c gray62",
",. c #9F9F9F",
"<. c #A0A0A0",
"1. c #A2A2A2",
"2. c #A4A4A4",
"3. c #A5A5A5",
"4. c gray65",
"5. c #A7A7A7",
"6. c gray66",
"7. c #ABABAB",
"8. c #ACACAC",
"9. c gray68",
"0. c gray69",
"q. c gray70",
"w. c #B4B4B4",
"e. c #B6B6B6",
"r. c #B7B7B7",
"t. c gray72",
"y. c #B9B9B9",
"u. c #BBBBBB",
"i. c #BCBCBC",
"p. c #C0C0C0",
"a. c #C1C1C1",
"s. c gray76",
"d. c #C3C3C3",
"f. c #C5C5C5",
"g. c #C8C8C8",
"h. c gray79",
"j. c #CACACA",
"k. c #CECECE",
"l. c #D0D0D0",
"z. c #D3D3D3",
"x. c #D8D8D8",
"c. c #DADADA",
"v. c #DCDCDC",
"b. c gray87",
/* pixels */
"# # # # # # # # # # # # # # # # @ @ = = N H U +.e.x.2.H P 2.q.7.t.b.5.U H 5.5.=.O.H H N = = # # # # # # # # # # # # # # # # # # ",
"* * * * * * * * * * * , * * * * @ : n n ..0.b.H +.x.8.H U 7.b.t.t.b.5.U H 5.7.U Z 2.5.T n n : * * * * * * * * * * * * * * * * * ",
"2 < 2 2 2 2 2 2 2 2 2 2 2 2 1 2 ; n n p.e.7.7.>...H Z n C Z H Z Z H Z C C Z Z T >.2.k.u.*.n n m 2 2 2 1 2 2 2 2 2 2 2 2 2 2 2 2 ",
"h h h h h h h h h h h h h h h A J T T &.>.2.2...H n p p p p p p p p p p p p n H  .7.u.1.U T &.| A h h h h h h h h h h h h h h h ",
"h ( _ _ _ _ _ _ ` j k ` h ( z Z +.8.2.H T =.=.G B t R R R ! E R ! R Q R R R t B G =.=.T H 4.h.4.Z g h h 1 2 h 1 1 2 2 2 h h h h ",
"h ( _ _ _ _ _ _ k ( ( k ( l C 2.h.l.7.2.T n n 4 R R / E ! ~ / / ~ / ~ ! ! / R R 9 n n U 4.4.4.4.2.M d 2 h 2 2 2 1 1 1 2 h h j h ",
"h ( ( ( ) ) ) ( u k k h S J &.H &.>.Z H c 9 9 ~ ~ ~ / E ! / / / / / / ! ! / ~ ~ ~ 9 4 c H H &.O.H p.Y r h 2 h h 2 2 2 2 h h h h ",
"h h h h h h 2 h h h h f | *.2.U T I a a 0 ! R ~ / / / ! ! / / / / / ~ ! Q / / / ~ R ! W a a I T T f.&.L f h h h j 2 2 2 D h h h ",
", y , , 1 , 1 , , 1 1 Z 8.p.>.>.P x R E ! ~ R ~ / / / E ! / / / / / / ! R / / / ~ R ~ ! R R t P ,.,.,.o.C 1 1 1 2 1 , 1 1 , 1 , ",
"& & & & & & & & & > C 2.K C n n q E / / / ~ R ~ / / / E ! / / / / / / ! ! / / / ~ R ~ / / / ! q n n n K 7.n > & & & & & & & & & ",
", * , * , , * @ , r C 2.*.+.+.n q E / / / ~ R ~ / / / E ! / / / / / / ! ! ~ / / ~ R ~ / / / E q C +.+.*.5.n r , , & & , , , , , ",
"_ _ _ _ ` ` j @ ` v C 2.e.e.2.n q ! / / / ~ R ~ / / / E ! / / / / / / ! ! / / / ~ R ~ / / ~ E q C 2.6.8.t.C D _ _ , , ) _ _ ) _ ",
"_ _ ) u u ( z , ` F C 2.h.h.1.n q E / / / ~ R ~ / / / E ! / / / / / / ! ! ~ / / ~ R ~ / / / E q C 7.7.e.v.C F _ _ , , _ < k ( _ ",
"_ _ ( h h ( ( , ` D n n +.7.2.n q E / / / ~ R ~ / / / E ! / / / / / / ! ! / / / ~ R ~ / / / ! q C b.e.2.2.n F [ _ * , ' j < j _ ",
"' _ ( h u ( k , _ v n X.U K K C q E / / / ~ R ~ / / / E ! / / / / / / ! R / / / ~ R ~ / / / ! q n ..U K K C ( [ _ < < _ j j j _ ",
"_ _ ( h u ( ( , _ v C 7.T K K C q E / / / ~ R ~ / / / E ! / / / / / / ! ! ~ / / ~ R ~ / / / E q n K K K K n D _ _ 2 2 ' < 2 k _ ",
") _ ( u ` _ ( , ) D C 2.7.2.2.C p E / / / ~ R ~ / / / E ! / / / / / / ! E / / / ~ R ~ / / / E q C 2.6.2.5.n l _ _ h h ` ` k j _ ",
"_ _ ) ) k ) ( , ` D C 2.j.h.1.C q E / / / / R ~ / / / E ! / / / / / / ! E / / / ~ R ~ / / / E q C 2.2.6.2.n D _ _ h h _ j ( ( ` ",
"_ ) ) ( k ( k * ) D C U X...U n q E / / / ~ R ~ / / / E ! / / / / / / ! E / / / ~ R ~ / / / E p C 2.6.*.U n D _ _ h s ` j ( ) _ ",
"' ) ) u _ _ u @ ` D C P J H H n q E / / / ~ R ~ / / / E ! / / / / / / ! E / / / ~ R / / / / W i C &.&...H C D _ _ h s _ _ j j _ ",
"_ ) _ _ _ ) j # ` D C b.t.2.1.n q E / / / ~ R ~ / / / E ! / / / / / / ! E / / / ~ R ~ / / / $ + n n n K 2.C l _ _ , * _ _ _ _ _ ",
", , , , , , * # , > C 0.h.h.2.C q E / / / ~ R ~ / / / E ! / / / / / / ! E / / / ~ R @   % % O + C -.>.8.x.C > , , & & , , , , , ",
"& & & & & & & & & > C 7.t.t.1.C q E / / / ~ R ~ / / / E ! / / / / / / ! E / / / ~ R   . O O O + C 2.t.p.p.C > & & & & & & & & & ",
", , 1 1 1 1 , , 1 m C 2.>.=.=.C q E / / / ~ R ~ / / / E ! / / / / / / ! E / / / ~ R $ o % % O + C =.d.h.2.n m 1 , , , s , , , , ",
"h h h h 2 j 2 ( 2 g N 2.K C n n q E / / / ~ R ~ / / / E ! / / / / / / ! E / / / ~ R ~ / / / w + n n o.2.2.C A k u h h h h h h h ",
"h h h 2 2 2 2 2 2 A C H 1.0.&.n q E / / / ~ R ~ / / / E ! / / / / / / ! E / / / ~ R ~ / / / R i C &.Y H H n f 2 h h h k h h h h ",
"h h 2 1 1 1 1 1 2 1 C U 8.f.i.C q E / / / ~ R ~ / / / E ! / / / / / / ! E / / / ~ R ~ / / / E q C 2.X.U U M A 2 h h h h h h h h ",
"h h h 1 1 < 1 1 h A C 2.2.e.x.C q E / / / ~ R ~ / / / E ! / / / / / / ! E / / / ~ R ~ / / / E p C 2.2.6.2.C A 1 h h h h h h h j ",
"h h h h h h h h h A C 2.2.7.2.n q E / / / / R ~ / / / E E / / / / / ~ ! E / / / ~ R ~ / / / E q C 2.6.2.2.C A h h h h h h h h h ",
"2 2 2 2 2 2 2 2 1 A n K K T 2.C q E / / / ~ R / / / / E ! / / / / / / ! E / / / ~ R ~ / / / E q C 2.2.6.2.C 1 2 2 2 2 2 2 2 2 2 ",
", * * * * * * * * > C P T X.X.n q E / / / ~ R ~ / / / E E / / / / / / ! E / / / ~ R / / / / E p C 2.&.o.X.n > * , * * * * * 1 * ",
"# # # # # # # # # ; C 7.h.8.n n q E / / / ~ R ~ / / / E ! / / / / / / ! E / / / ~ R ~ / / / ! q C 2.K n n n ; # # # # # # # # # ",
"_ ` _ _ _ _ _ ) ` D C 2.2.5.2.n q E / / 6 O O O 7 / / E ! / / / / / / ! E / / / ~ R ~ / / / E q n n o.2.2.V r @ ` ` _ _ ` _ _ _ ",
"` ] [ [ [ ] { [ _ F C 2.6.2.2.C q E / / W 8 O 8 ^ / / E ! / / / / / / ! E / / / ~ R ~ / / / E q C X.>.0.h.C d # ` ( k k _ _ _ _ ",
"_ [ { { { { { [ ] F C #.+.*.2.C q E / / / ^ O ^ / / / E ! / / / / / / ! E / / / ~ R ~ / / / E q C 2.2.w.h.C d @ _ k u h ' _ _ _ ",
"_ [ { { { { { _ } F n n n K 1.C q E / / / ^ O ^ / / / E E / / / / / / ! E / / / ~ R ~ / / / E q C 4.4.4.2.C r # _ k u h ) _ _ _ ",
"_ _ _ _ _ _ _ _ ' D C 1.1.o.C n q E / / 7 X . X 7 / / E ! / / / / / / ! ! / / / ~ R ~ / / / E q M C n C Z n f 1 ` ` ( u _ ' ) _ ",
"_ _ _ _ ) ) _ _ ( l C 2.2.=...n q E / 7 7 8 3 8 7 7 / E ! / / / / / / ! E ~ / / ~ R ~ / / / ! q C ........n f 2 ` ( k ( _ _ ) _ ",
"_ _ _ _ ) ' _ _ ] D C 2.2.6.2.C q E / X 8 ~ R ~ 8 X / E ! / / / / / / ! ! / / / ~ R ~ / / / E q C 2.2.2.2.n f 1 _ ( ( ) ) ' ' ) ",
"_ _ _ _ ) ' _ _ ) D C 6.6.2.2.n q E / X 7 ~ R / 8 X / E ! / / / / / ~ ! E / / / ~ R ~ / / / E q C 7.2.7.1.C f 1 ` _ ( u ) _ _ _ ",
"_ _ _ _ _ _ _ _ _ D n Z Z Z Z n q E / ^ 7 % X % 7 Q / E ! / / / / / / ! E ~ / / ~ R ~ / / / E q C z.e.#.Z n f , _ j k _ _ _ _ _ ",
"_ _ _ _ _ _ _ _ _ D C T T T T n q E / / W 6 3 7 W / / E ! / / / / / / ! ! / / / ~ R ~ / / / E q C *...T T n d & _ ( _ _ _ _ _ _ ",
"j j 2 j < j j j h f C 4.2.6.2.C q E / / / ~ R / / / / E ! / / / / / / ! E ~ / / ~ R ~ / / / E q C Z Z U 2.V r @ h u h h h j u h ",
"# # & # & # # # # : C 4.5.2.2.n q E / / / ~ R ~ / / / E ! / / / / / / ! ! / / / ~ R ~ / / / E q C 2.2.7.2.n ; # @ & @ # @ @ # @ ",
"2 2 1 2 , 2 < 1 1 > Z z.e.4.2.C q E / / / ~ R ~ / / / E ! / / / / / / ! E / / / ~ R ~ / / / E q C 2.2.r.l.C r 1 1 1 * @ 1 , 1 1 ",
"2 2 2 2 2 2 2 2 2 r C b.,.T ..n q E / / / ~ R ~ / / / E ! / / / / / / ! E / / / ~ R ~ / / / E q C ..;.8.f.C d y s y , @ h s s s ",
"j j 2 j 2 j k j h d C z.T C C n q E / / / ~ R ~ / / / E ! / / / / / / ! ! / / / ~ R ~ / / / R p C C o.>.<.C f h k h < & h h h h ",
"j 2 j j j j j 2 h d C M +.4.2.n q E / / / ~ R ~ / / / E ! / / / / / / ! R / / / ~ R ~ / / / w + C 2.K n n V g u ` k h 1 h j h h ",
"j j j 2 2 j j j j d C +.,.5.2.C q E / / / / R ~ / / / E ! / / / / / / ! E / / / ~ R 3 w 3 $ . + C 2.*.+.+.n S _ h h u , h h h h ",
"2 j j j j j j 2 2 d C 2.2.8.t.C q E / / / ~ R ~ / / / E ! / / / / / / E E / / / ~ R % O O O O + C 7.7.8.t.C f ( u h < & h h h h ",
"h h 2 2 2 2 2 2 2 r C 2.1.e.x.C q E / / / ~ R ~ / / / E ! / / / / / / E E / / / ~ R % O O O O + C 2.2.t.v.C d h 2 u , @ h s h 2 ",
"1 1 1 2 1 2 2 1 2 r N C C ..v.C q E / / / ~ R ~ / / / E ! / / / / / / E E / / / ~ R ~ / / / w + n n o.t.b.C r 1 1 1 * @ 1 1 1 1 ",
"# # # # # # & # # - C o.......C q E / / / ~ R ~ / / / E E / / / / / / ! E / / / ~ R ~ / / / 4 e C o.U U ..n ; # @ @ @ @ @ @ # @ ",
"j 2 h h j j 2 j 2 A C 2.2.&.H C q E / / / ~ R ~ / / / E E / / / / / / ! E / / / / R ~ / / / E q C 2.T K K n f h h k h u h h h j ",
"` _ _ ) ) ) ) _ ` D C 7.2.2.2.C q E / / / ~ R ~ / / / E ! / / / / / / ! E / / / ~ R ~ / / / E q C 2.7.2.2.C D ] ] ' ' ' ' ' ' _ ",
"` ` ) h 2 j j ) 2 g C 2.h.h.2.C q E / / / ~ R ~ / / / E ! / / / / / / ! E / / / ~ R ~ / / / E q C 2.2.6.2.n F } { { { { { { [ _ ",
"_ _ ) 2 2 ) ) 2 _ D n U X...U n q E / / / / R ~ / / / E ! / / / / / / ! E / / / ~ R ~ / / / E q C 2.u.8.U V b _ { { { { { { [ _ ",
"_ _ _ ) ) _ ) ) _ D C H H H H n q E / / / / R ~ / / / E ! / / / / / / ! E / / / ~ R ~ / / / E q C &.q.1.H V b _ ' ] ' ' ] ' ' _ ",
"_ ' _ _ _ _ _ ' _ D N 2.2.5.1.n q E / / / ~ R ~ / / / E ! / / / / / / ! E / / / ~ R ~ / / / E q n n n K 2.n D _ _ _ _ _ _ _ _ _ ",
"_ _ _ _ _ _ _ ' _ D Z 2.7.5.2.n q E / / / ~ R ~ / / / E ! / / / / / / ! E / / / ~ R ~ / / / E q C =.<.8.z.C D _ ` _ _ _ _ _ _ _ ",
"_ k k _ 2 k j 2 ) D n T =.2.2.C q E / / / ~ R ~ / / / E ! / / / / / / ! E / / / ~ R ~ / / / E q C 2.t.p.p.C f h u u j _ u ( _ _ ",
") ) ( k _ 2 2 k ` D n H X.=.=.n q E / / / ~ R ~ / / / E ! / / / / / / E E / / / ~ R ~ / / / E q C >.h.j.5.V g h < ( ( j ) ) _ _ ",
"_ _ ) j _ ( k k _ D Z b.T n n n q E / / / ~ R / / / / E ! / / / / / / E E / / / ~ R ~ / / / E p n n 8.l.2.C g j ( ) ) ( ' _ _ _ ",
"_ _ _ _ _ _ _ _ ) D C 0.>.&.&.n q R E E R E R E E E E R R E E E E E E E E E E E E R E E E E E p C &.T K H V v _ _ _ _ ) ) ) ' ) "
};
