/* XPM */
static char *result[] = {
/* columns rows colors chars-per-pixel */
"64 64 134 2 ",
"   c #4E2B27",
".  c #4E2B28",
"X  c #502B26",
"o  c #522F2A",
"O  c #56302C",
"+  c #5D342E",
"@  c #5E3830",
"#  c #61362E",
"$  c #63382D",
"%  c #693B2E",
"&  c #663931",
"*  c #6B3D31",
"=  c #713F32",
"-  c #77432F",
";  c #78442F",
":  c #6D4134",
">  c #6A4837",
",  c #6E4939",
"<  c #754232",
"1  c #794532",
"2  c #774835",
"3  c #7D4833",
"4  c #744B39",
"5  c #7A4D38",
"6  c #76533C",
"7  c #7A533C",
"8  c #7F593F",
"9  c #625143",
"0  c #6C5441",
"q  c #755841",
"w  c #7C5B41",
"e  c #786447",
"r  c #7B684B",
"t  c #804733",
"y  c #844C34",
"u  c #894E35",
"i  c #834F3A",
"p  c #8D5135",
"a  c #885836",
"s  c #82543C",
"d  c #8C5238",
"f  c #825A3E",
"g  c #8B5C3D",
"h  c #935636",
"j  c #965936",
"k  c #9B5D36",
"l  c #925638",
"z  c #915D3A",
"x  c #9C5D38",
"c  c #9F633B",
"v  c #A36336",
"b  c #A26339",
"n  c #A76C3A",
"m  c #A47C3F",
"M  c #815E42",
"N  c #8A5D40",
"B  c #856143",
"V  c #8B6544",
"C  c #8C6B44",
"Z  c #8D6D48",
"A  c #946744",
"S  c #946B46",
"D  c #996D47",
"F  c #976D49",
"G  c #9B6F48",
"H  c #957244",
"J  c #997442",
"K  c #9D7841",
"L  c #917048",
"P  c #9E7149",
"I  c #9B7949",
"U  c #8F6A5E",
"Y  c #A06D43",
"T  c #A46E4C",
"R  c #A37C40",
"E  c #A3744C",
"W  c #AB774E",
"Q  c #A47B4B",
"!  c #A57751",
"~  c #AC7753",
"^  c #A67852",
"/  c #AD7C52",
"(  c #B27E53",
")  c #B97F54",
"_  c #AC843F",
"`  c #AA8441",
"'  c #AF8944",
"]  c #A4834D",
"[  c #A88649",
"{  c #AE8D4D",
"}  c #B38E46",
"|  c #B79349",
" . c #B99548",
".. c #BD994B",
"X. c #AE8E58",
"o. c #B68356",
"O. c #BA8456",
"+. c #BB8559",
"@. c #BF895A",
"#. c #B39351",
"$. c #B89751",
"%. c #BD9D53",
"&. c #BEA15D",
"*. c #9D8068",
"=. c #A88E72",
"-. c #C09D4E",
";. c #C18555",
":. c #C38C5D",
">. c #C98F5F",
",. c #C7905F",
"<. c #C8905F",
"1. c #C4A354",
"2. c #C8A753",
"3. c #CBA954",
"4. c #C4A65B",
"5. c #CCAD5C",
"6. c #D0B058",
"7. c #C98F60",
"8. c #CC9261",
"9. c #D09664",
"0. c #CFB463",
"q. c #D2B766",
"w. c #D6B963",
"e. c #D0B56A",
"r. c #D5B86C",
"t. c #DBC26D",
"y. c #AB9790",
"u. c #AC9991",
"i. c #B3A29B",
"p. c #BDAEA6",
"a. c #C6B7AC",
"s. c #D9C4A7",
"d. c #DAC8B3",
"f. c #DAC9BA",
/* pixels */
". . . . . . . . . . . . . . . . . . . . . . . . . . . . . . . . . . . . . . . . . . . . . . . . . . . . . . . . . . . . . . . . ",
"+ + + + + # + + + + + + + + + + X O + + + + + # + + + + # # O o + + + + + + + + # # + + + o o + + + + + + + + + + + + # + + + + ",
"* * * * * * * * * * * = * * * * . # * = * * * = * * * * * * + . & * * * * * & * * * * * * O O * * * * * * * * * * * * * = = * * ",
"1 < < < < < < < < < < < < < < < X % < < < < < < < < < < < < & o < < < < 2 < < < < < < < < O + < < < < < < < 2 < 2 = = 2 = = 2 = ",
"< y p p d d p d p 3 3 d < y i < & = < < < < < < < < < < < < * & < * & & & & * < & < < < < & * < 1 < < < & = = & & & & & = t = 2 ",
"< y l d p p p d 3 y t 3 u t 3 < & = < < < < < < 1 < < = 1 < = * < * & & & * = * = < < < < * = < < < = * = = * = * & & & 2 = t = ",
"< t y y u u y y < t t 1 y 1 < < + * < < 2 < < < < i 7.7.7.7.7.7.8.7.( D 5 < = * < < < < < & % = < 2 = = < * = < * * : * < < = = ",
"< < < < = < < < < < < < < < < < . * < < < < d T :.9.9.9.9.9.9.9.9.9.9.o.+.~ N i < < < < < + + < < < < < < < < < = = < < < < < t ",
"* $ & * & & & & & * % % & & % &   + % * s 9.9.9.9.9.9.9.9.9.9.9.9.8.8.9.9.9.9.E E s * & & O o & & % % $ & % & & * * & & & & % & ",
"O O O O O O O O O O O O O O O O . o ~ :.9.9.9.9.9.8./ / 8.@.9.9.9.:.o.9.9.8.9.9.9.7.F N o o o O O O O O O O O O O O O O O O O O ",
"# # # # # # + . # # # $ $ $ # # # E 9.9.9.:.:.E / ( 9.9.9.9.9.9.9.9.7./ P :.8./ 8.:.8./ N % $ $ & # $ $ $ $ $ $ & O O # # & & # ",
"p p p p p p 1   p p p p p p p p @.9.9.8.E :.7.7.9.8.9.9.9.E E E E E 8.8./ F P o.8.<.E E >.D l u p p p p p p p p d + # p p p p p ",
"p p y 1 ; y t & h k k u v v v ;.9.9.9.:.9.8.9.o.O.P P P P O.o.P P P P P o.o.^ V E o.9.@.W o.Y b v v v b p k x u u & $ p = ; t p ",
"p p y < 1 y y $ u h j k j k ;.9.9.9.9.8.8.W P P P P B w w P P P P E P M G G P / w V F >.8.E Z Y v v x h x j j k p & $ p = ; t p ",
"p p y 1 < y 1 % p u h j h j O.9.9.9./ E P P S V S P P P J B V V B B E D S A B P S B C B F 8.P B x k j p k h h k p % % p = = t p ",
"p p y < ; y t % u h h u u p ) 9.>.P P P S V V P D F V Z 8 p p p & 3 f f S D P M S ! M B S :.P w p p p p p p p p p = = p t = t p ",
"p p y ; p p t % p p p u p p ) >.P G P V F G S M z %._ &.a u p p % 3 p p p z w V F F Q ,.+.P V M p p p p p p p p p = = p p t t u ",
"p p p y 3 u t & p p u l t t T E P D w F C I [ 6.m 2._ $.3 u p p % y p p c j l p s M S P F A w s p p p p p p p p p = = p t u u p ",
"p p p y 3 p 3 + l u p u - < 7 G G w P B r 6. .6.m &.m $.; y p p + 3 p u k h h p p p 8 w w w w :.p p p p p p p p p = ; p 1 t u p ",
"p p y ; p p < . u p p u - - ) / ( ( ( H I 6. .6.H 4._ $.; y p p   < p p p k k p p p l / >.8.9.W p p p p p p p p p = = h l t t p ",
"p p p p p p - . u p p l d p A 7.F >.G I I 6. .6.{ 2._ $.p p p p   < p p p p l p p p p F S F P D p p p p p p p p p $ $ u u u l u ",
"# $ # # # $ O . $ $ $ $ # # N P M E Y #.I 5. .6.K 3._ $.$ $ # # . + $ $ # # $ $ % # : F S Y P A # % # + # # # & % o O $ $ $ $ $ ",
"O O O O O O O O O O O O O O N G M P G #.J 6. .6.K 3._ 1.6.o o O O O O O O O O O O O @ S S G G A O O O O O O O O o O O O O O O O ",
"$ % & & & & & * % & & & & & N P M P G { I 6. .6.K 3._ t._ O O & & % & % & & & # & % : S G E G A % % & % % % & & % $ & % & & % & ",
"1 < < < < < < < < < < < < < 7 P M P G #.I 6. .6.K 5.d.{ < + + < < < < < < < 1 < < < 1 F S G P D = 2 < = 2 = = 3 = = t = = 2 = t ",
"< < < * * * * * * = < * < < 7 G M P G { J 6. .6.K r.a.C < % $ < < 3 u y y y t < y 1 2 F S G P S = * * * = = = = = t = 2 t = = = ",
"< < < & & & & & * * = * < < 7 P M P G F I 6. .6.K e.p.=.< * : < < y p p p y y 3 i 3 1 F V G E A & & & * = = = = = = 1 = = = t = ",
"< < * & & & & * < * * < & * 7 G M E @.V J 6. .5.4.Q f.i.U % : < < y d d p 3 3 p < < 2 F S G G 7 & & = < & = = * 1 2 = t 3 3 = 3 ",
"< < < < < < = < < < < < < < 7 P F E E V H 6. .6...` s.*.f.@ O - - < < < < < < < < < 1 F A G T q = = < < = = = = = = = = = = = 3 ",
"* * * * * * * * * * * * * * 6 P M P G B J 6...q.S 2.p.p.u.O o : * * * * * * * * * * M ^ B N T q = * * = & = = = = = = = = = * * ",
"# + + + + + + + + + + + + + # T M P P V I 6. .` g 2.*.y.@ O o @ # + + + + + # + + + M P 8.P G q # + # + + + + + & + + + + + + # ",
". . . o . . . . . o . . . . . G M P P V I q.%.R ] 2.` X.o       . .   . .   o . . . M P P P T q . . . . . . . . . . . . . . . . ",
"p p p p p p u u p d p d   < p P V P P V I 2.` 6.K 3._ $.p p p p u p u l u p p p p p B P D P P M u l u u p u 1 . u d p p p p p p ",
"p k k k k k k k p j j d   1 y P P P P B q.I ] 6.K 2._ $.p p p p u l p u p p u p p p w P V P P j k k j l k h 1 X d y t t d p p p ",
"p x v v v v v k j j j d   - y P P P P V | | ' 6.K 2._ $.p p p p u l h h u h j l p p M A S P P v v x j j k h < . p 3 < < u p p p ",
"u x v v v v k h b j p p   1 y P P P J V C 2. .6.m 3._ $.p p p p l k v b l x b b p p M M P P G v v h h b p p < . p 3 < < d p p p ",
"p p p p p p p p p p p d & 3 p B P P P B e 6. .6.J 3._ C b j p p p j h % u = t v p p M S P P S p p p p h p p t * p p y - p l u p ",
"p p p p p p p p p p p d % 3 p B P P E B I 6. .6.K 2._ L -.k j p p h u = < = 3 h p p M D P P V p p p p p p p t % p y t y p p p p ",
"p p p p p p u p p p p d & 3 u B P P P B C 6. .6.m 3._ 0.n v c j p p u < % < t p p p M M P P V p p p p p p p t & p y t u h u p l ",
"p p p p p u l p p p p d % 3 p M E G S B C 6.{ 6.J 2.5.] c v v v p p y - < - 3 p p p M G P P A p p p p p p p t % d d y - u l u u ",
"h p p p p p p p p p p p & y y B G A P P C 6.6.6.K 6...C < h k p p p p p p d d p p p w D P P A p p p p p l p t & p 3 3 p p p p p ",
"p p p p p p p p p p p d O 1 p B F / ( P C .. .6.K 6.H Z u p l p p p p p p p u p p p w D G E V p p p p p p p 1 O d y p p p p p p ",
"= 1 1 = 1 < 1 1 1 < < <   % 1 7 P P G V C q. .6.&.K K C 3 < 2 1 1 < ; 1 1 1 < < < < w S P G V 1 - 1 < 1 - 1 % . 1 1 < 2 < 1 - - ",
"X X X X X X X X . . . .       & P P E A Z 6. .6...m R C . .   .   .     X X X . X . w D P P S . .   .   .   . . . . . .   .     ",
"& & * = & & & & % o o & & & & 4 P P G S C 6...w.F 1.m C * & & % & & & & & & & & & & M E G P S & & & & & & & & & & & +   & & & & ",
"= = = = = = = = : + O < * = = 5 P P P V C 6. .' C 1.m f = = * = < = = * = : = = = = M P P P V = = = = : * < < * = : % X : < = * ",
"= = = = 2 = = = < # + < = < < 5 G Y G S C w.%.K K 1.R 5 < < < : < < * < < : = < < < M P P G B t 3 3 3 3 - 1 1 < 1 1 = o < < < < ",
"t = 1 1 = < 1 1 < * * < & & & : F P P S C 2.` 6.K 1.R < < < = & < & & & & & * < < 7 :.Y P E V d p p p d ; y u < d 3 = & < < < < ",
"= t = 2 < 2 = t = = * = * * & * F P P V C Q ] 6.m ` 7 < < * * < & * = & & & * < < 5 P E P P V p p p y < d 3 3 d < < < # < < < < ",
"2 = t = = = 2 = = & & = = = = 2 F S P V f } ' 6.m m < < < = = < = < < : < = < < < 7 G P P w V 3 3 t 1 < 3 1 1 1 < 1 % O < < < 1 ",
"= = = = = = = = = + O = < : * 2 D V G V H &. .6.K & < * * < : < = = = = * = < * = 5 P P P w V : = * < = * = < : = < #   = = = = ",
"& & & & & & & & & O o & & & & * F A G B D %. .6.7 + & & & & & & & & & & & & & & & 4 P P P P > & & & & & & & & & & & +   & & & & ",
"o . X X . . X o X . . X . . . + D P w V D %._ 3.. .   .   .   . . . . . .   .   . > P P V P : . . .   .   .       X .   . . . . ",
"t = t = 1 = < < 1 1 & X < 2 < 2 S E w V S -._ a < 2 ; - ; 2 1 ; 1 1 1 < . % 1 < 1 7 P E B P 4 < < + O 1 1 2 < - ; 2 < - < 1 < 1 ",
"d p p p u u u p i u < X p l l l 8 G B P w -.g h j j h h j j l p j l p d   ; u u i s P G V S s u p $ % p j p l j j h l h j j l p ",
"d d t = = 1 t p < y < . p u j b M P M E w R h v b b v v v b j p v l p d   1 y < < s P P B w 3 < p < < p b h l v v b v v v b x p ",
"u l y < < u u < p p <   p p j b f P w B w d l v v v v v k h h v p j k d   1 y 1 < s J F V w 5 < p : - p p k k p v b v v v v x u ",
"p u u u u u u y p p 3 + p p j b M V w B w d l j h h j j j h l h p j l p + 1 y < < s S D A w 4 < p - : p p h l p j j j j h h h p ",
"p p p p u u p p p p t & p p h k N w 0 f w p p p h p p p p p h u p p p u * t u 1 < f 8 F q w , 3 p < < p p p p p p p p p p p p p ",
"p p p p u l u l p p t * p p p p 0 7 9 5 0 p p p p p p p p p p p p p p p & t p d ; y a 8 0 9 4 d p < - p p p p p p p p p p p p p ",
"p t 1 l < < - ; p u t % p p j b p p p p p p p p p p p p p p p p p p p d & t y 1 p p p p p p y - p < : p p p y - < - t p = u p p ",
"p u y 1 y 1 < < p l 2 O d p p h k h p p p p p p p p p p p p p p p p p p $ y p y 3 p p p p y t u p & $ p p p y - - t t t u u p p ",
"u h u 1 p y 1 t p p ; X p p p p k h p p p p p p p p p p p p p p p p p p @ 2 p p 3 y p p p y y p p $ # p p p u 3 t u u t p p p p ",
"p u u h p u l p p p 2 X d p p p p p p p p p p p p p p p p p p p p p p p X < p p p p p p p p p p p $ # p p p p p p p p p p p p p "
};
