/* XPM */
static char *_f15dd6d1c6d4ec49566f60cdf561588efluzLa69EWMBugG[] = {
/* columns rows colors chars-per-pixel */
"32 32 142 2 ",
"   c #31201B",
".  c #392D2B",
"X  c #3C302E",
"o  c #42251C",
"O  c #4A2C23",
"+  c #452F28",
"@  c #4B352F",
"#  c #463531",
"$  c #4C3934",
"%  c #433A3A",
"&  c #553C35",
"*  c #5C3D33",
"=  c #464C3D",
"-  c #5C433C",
";  c #465634",
":  c #4D563C",
">  c #624035",
",  c #69463B",
"<  c #6B483E",
"1  c #7E543E",
"2  c #546632",
"3  c #586733",
"4  c #556A32",
"5  c #5A6B34",
"6  c #577335",
"7  c #587233",
"8  c #5C7139",
"9  c #62743B",
"0  c #64793A",
"q  c #464243",
"w  c #4D4C4E",
"e  c #504745",
"r  c #544D4B",
"t  c #515846",
"y  c #58504E",
"u  c #555C4A",
"i  c #5B5E4E",
"p  c #4F4E50",
"a  c #545255",
"s  c #5D5552",
"d  c #565951",
"f  c #5A5A55",
"g  c #585658",
"h  c #5C5A5C",
"j  c #674E47",
"k  c #634E49",
"l  c #764F42",
"z  c #775043",
"x  c #7E5548",
"c  c #7C594E",
"v  c #605856",
"b  c #645D5C",
"n  c #7B5C54",
"m  c #5B6C44",
"M  c #5B634C",
"N  c #5E6451",
"B  c #5F6950",
"V  c #617241",
"C  c #63714C",
"Z  c #616753",
"A  c #646A56",
"S  c #69615E",
"D  c #666C5A",
"F  c #696F5D",
"G  c #76615B",
"H  c #677250",
"J  c #605F61",
"K  c #646364",
"L  c #6B6363",
"P  c #6B6F63",
"I  c #676669",
"U  c #6B6B6C",
"Y  c #6E7562",
"T  c #717664",
"R  c #6F6F71",
"E  c #747474",
"W  c #777778",
"Q  c #7C7B7D",
"!  c #80563E",
"~  c #815742",
"^  c #845A43",
"/  c #80574A",
"(  c #855B4E",
")  c #895F4B",
"_  c #865D50",
"`  c #885E50",
"'  c #8D614C",
"]  c #826056",
"[  c #8D6254",
"{  c #84645B",
"}  c #916557",
"|  c #9A6D52",
" . c #926658",
".. c #96695B",
"X. c #996C5D",
"o. c #8C6C63",
"O. c #936C61",
"+. c #9C6F61",
"@. c #8C7069",
"#. c #9D7062",
"$. c #A37263",
"%. c #648734",
"&. c #6A8C36",
"*. c #668C3C",
"=. c #6D8B3B",
"-. c #748E3F",
";. c #6D9136",
":. c #6C933B",
">. c #729037",
",. c #74953C",
"<. c #7A963D",
"1. c #759A3D",
"2. c #7B9C3E",
"3. c #77A23F",
"4. c #7CA13E",
"5. c #7BA83F",
"6. c #6D8342",
"7. c #6D9541",
"8. c #749341",
"9. c #7B9641",
"0. c #769A41",
"q. c #7C9C41",
"w. c #77A142",
"e. c #7DA242",
"r. c #7CA941",
"t. c #829C3E",
"y. c #82A23F",
"u. c #868E44",
"i. c #809442",
"p. c #829D42",
"a. c #8A9D42",
"s. c #83A342",
"d. c #8AA444",
"f. c #84A843",
"g. c #8BA944",
"h. c #81A349",
"j. c #90A846",
"k. c #94A649",
"l. c #91AD49",
"z. c #7F7F80",
"x. c #848385",
"c. c #888889",
/* pixels */
"p.p.i.l.s.s.y.p.t.4.p.2.2.p.p.p.q.2.e.0.9.9.0.q.q.9.d.q.4.4.3.4.",
"p.p.<.j.t.2.q.t.2.p.d.p.2.2.,.=.8.-.h.e.e.0.9.q.p.p.s.4.s.f.4.1.",
"s.s.4.e.2.q.<.i.p.a.s.9.6.C t f d P : V :.:.7.w.q.p.4.2.e.f.f.s.",
"9.2.e.y.4.9.u.<.<.h.9.H L K X # # $ % g = m *.w.0.e.s.0.e.q.s.p.",
"p.1.s.s.y.<.i.9.p.-.A K . & ` ) ` .., @ r w ; 0.0.0.w.q.e.s.s.s.",
"e.;.1.2.<.2.2.2.-.P q & _ ( ..[ ..#.) ..j # b M 8.e.e.r.e.h.q.p.",
"q.,.2.s.,.,.1.,.B U @ ` +./ ^ } ..$.) +.( / $ J 0 e.e.q.2.1.0.8.",
"p.s.<.s.4.<.2.6.W % < } +.( ' [  .+.` X.` [ $ p : 1.3.1.1.0.q.q.",
"p.d.d.s.2.y.>.M S $ [ } +._ +.[  .X.( +._ [ < e w 6 e.e.0.e.r.q.",
"h.9.a.,.,.k.t.T U &  .[ +._ +.[ } ( / ..( / z b U 6 r.1.1.e.2.1.",
"s.q.p.<.-.k.t.i g &  .[ +._ $.[ } ^ ^ +./ ! z s N 4 w.:.0.4.1.0.",
"q.q.p.p.-.i.t.Z h & } [ +.` $.[ } ^ / O./ _ G g J 2 w.w.1.1.2.1.",
"y.1.>.2.q.s.t.F E & [ ` +._ $.} } ^ ^ X.c J g e g 9 s.e.e.4.t.2.",
"t.2.1.1.1.p.t.A K & 1 ) X.` $.[ } / / +._ ] j a K 5 d.s.e.h.q.<.",
"2.y.2.,.,.,.1.D K & 1 ) | _ +.[ }  .( X._  .z J I 2 s.j.g.d.p.9.",
"i.y.4.4.q.2.,.: K - [ [ | ) +.[ } +.( X.` ..z R 6.9 d.s.d.g.d.d.",
"<.4.2.4.t.2.<.u K & } [ X._ +.[ } X.` +.( X.z k J 5 s.i.2.y.p.i.",
"t.2.2.,.<.9.,.Y E - } ] +.` +.[ } +.( ..` X.z r h 3 s.p.p.2.s.p.",
"h.t.t.s.1.,.-.i p & #.@.{ n +.[  .$.( +.` } z r p 3 a.a.i.9.<.2.",
"q.2.1.s.4.,.6.Y I &  .o.O.] #.[  .$.( ..` } z b U 3 p.9.t.p.2.1.",
"q.e.0.9.1.1.,.K J &  ._ { _ +.[  .$.( ..( } z r h 4 e.0.9.e.q.q.",
"e.q.0.9.1.2.,.6.z.& X.[ X.( +.[  .$.( ( ~ } z G Q 8 e.e.s.q.0.q.",
"0.e.h.,.1.1.-.u q & X.` [ ) +.[ } $._ ( ! } z r g 7 f.e.e.1.q.0.",
"e.0.q.1.1.,.=.u I - X.` ^ ( } [ } +._ / ~ } z L c.9 g.e.e.w.e.0.",
"0.q.9.1.;.:.*.u p & ..` ^ ^ ) [ } +._ [ _ O.n h h 2 s.s.q.q.e.s.",
"3.e.2.1.1.:.;.Y z.,  .` ! ( +.` } +._ X.n K h J U 8 e.i.1.9.e.e.",
"e.e.f.e.s.1.%.Y x.e } ` ^ ) +. .} +._ X./ n k y g 4 9.q.,.e.5.1.",
"f.e.f.2.s.e.&.u a & ' ` ) ) +.` ..$._ X.` } z e p 4 1.>.7.1.4.3.",
"e.f.f.4.f.4.>.Y z.& ^ [ +.` #.` } $.) X.( ~ l b W 8 1.h.e.:.1.e.",
"f.g.f.4.4.f.<.F J &  .` +.` #.[ ..#._ X.( ^ z v g 5 d.d.s.,.1.e.",
"2.y.y.e.4.4.<.M a + ( ` +.( ..x _ +._ X.( / , e h 4 2.s.f.2.1.2.",
"y.y.f.y.2.i.y.Z p   O * , > * o O > > , * O o r h 4 4.s.g.s.2.,."
};
