/* XPM */
static char *bcccb150f2374ca5d872f335881af0488gD0MM4wEV50xahG[] = {
/* columns rows colors chars-per-pixel */
"64 64 121 2 ",
"   c #000000",
".  c #0D0D0D",
"X  c #111111",
"o  c #222222",
"O  c #2D2D2D",
"+  c #353535",
"@  c #3A3A3A",
"#  c #4D2C26",
"$  c #4D2B28",
"%  c #55302B",
"&  c #5D352E",
"*  c #4D3432",
"=  c #4F3937",
"-  c #4E3A38",
";  c #543934",
":  c #553E3B",
">  c #64392E",
",  c #6A3C2E",
"<  c #653A31",
"1  c #6B3D31",
"2  c #5C423C",
"3  c #6F402F",
"4  c #76432F",
"5  c #6F4031",
"6  c #62453C",
"7  c #66493D",
"8  c #6A4B3E",
"9  c #754332",
"0  c #7A4631",
"q  c #7D4832",
"w  c #724D3D",
"e  c #7B4E38",
"r  c #74503F",
"t  c #7A553F",
"y  c #434343",
"u  c #4F4F4F",
"i  c #5B4641",
"p  c #504C4B",
"a  c #594E4D",
"s  c #525252",
"d  c #5B5B5B",
"f  c #634840",
"g  c #684F44",
"h  c #755140",
"j  c #7A5540",
"k  c #69615F",
"l  c #636363",
"z  c #6F6763",
"x  c #6A6A6A",
"c  c #746E6C",
"v  c #747474",
"b  c #7B7B7B",
"n  c #844D33",
"m  c #894E34",
"M  c #8D5135",
"N  c #8C5234",
"B  c #8D5234",
"V  c #8C5235",
"C  c #8D5235",
"Z  c #8D5136",
"A  c #8C5236",
"S  c #8B5238",
"D  c #945736",
"F  c #965937",
"G  c #9A5D36",
"H  c #9B5D36",
"J  c #9A5E36",
"K  c #A36336",
"L  c #A16338",
"P  c #807572",
"I  c #817774",
"U  c #818181",
"Y  c gray51",
"T  c #848484",
"R  c gray53",
"E  c #888888",
"W  c gray54",
"Q  c gray55",
"!  c #8D8D8D",
"~  c #8E8E8E",
"^  c gray56",
"/  c #929292",
"(  c #939393",
")  c gray59",
"_  c #989898",
"`  c #9B9B9B",
"'  c #9D9D9D",
"]  c gray62",
"[  c #9F9F9F",
"{  c #A2A2A2",
"}  c #A4A4A4",
"|  c #A5A5A5",
" . c gray65",
".. c #A7A7A7",
"X. c #AAAAAA",
"o. c #ACACAC",
"O. c gray68",
"+. c gray70",
"@. c #B4B4B4",
"#. c #B6B6B6",
"$. c #B7B7B7",
"%. c gray73",
"&. c #BCBCBC",
"*. c gray",
"=. c #C0C0C0",
"-. c #C3C3C3",
";. c #C4C4C4",
":. c #C5C5C5",
">. c #C6C6C6",
",. c gray79",
"<. c #CACACA",
"1. c gray80",
"2. c #CDCDCD",
"3. c gray81",
"4. c #D0D0D0",
"5. c #D3D3D3",
"6. c #D7D7D7",
"7. c gray85",
"8. c #DBDBDB",
"9. c gainsboro",
"0. c gray87",
/* pixels */
"$ $ $ $ $ $ $ $ $ $ $ $ $ $ $ $ # # * * a l v W +.6.| x v | @.X.$.0.| v x | | _ ~ l l a * * * # $ $ $ $ $ $ $ $ $ $ $ $ $ $ $ $ ",
"& & & & & & & & & & & & & & & & # ; u u U o.0.l ~ 6.| x v | 0.$.%.8.| v x | X.v d | | U u u ; & & & & & & & & & & & & & & & & & ",
"1 , 1 1 , 1 1 , 1 1 1 1 1 1 1 1 - u u %.@.| O.] U l d s s d l d d l d s s d d b ] | 4.*.W u p 2 1 1 1 1 1 1 1 1 1 1 1 1 1 1 1 1 ",
"9 9 9 9 9 9 9 9 9 9 9 9 9 9 9 f k b b / { | ..U x y O o O o O o O o o O o o u x U | *.| b b ~ I f 9 9 9 9 9 9 9 9 9 9 9 9 9 9 9 ",
"9 n Z Z Z Z A Z A 0 q A 4 n e d ~ O.| x b _ _ s y @                         @ y s ) ) b x | <.{ d 9 9 9 < 9 9 < < < 1 1 9 9 9 9 ",
"9 n Z Z Z Z A Z 0 n n q n w s } :.2.| | v u u .                                 . s s v | | | | | s 6 1 1 1 1 9 < < < 1 9 9 9 9 ",
"9 n n n n m n n 9 q q 9 g k / l ^ ] d l + X X                                     X . + l l / W l *.c i 9 1 1 9 1 1 1 1 1 1 9 9 ",
"9 9 9 9 9 9 9 9 9 9 9 7 I / | v b x O + X                                             X O O x b b -.W z 7 9 9 9 0 1 0 1 n n 1 w ",
"> 3 > > < < & 3 < < < d X.-.] ] x +                                                         + x ] ] [ E s < < < < 1 > > < < < , ",
"% % % % % % % % % 2 s } x u u u o                                                             o u u u x } s : % % % % % % % % % ",
"& > > > > & & # & 2 s | ) ^ ~ s o                                                             o s ^ ^ ) } s 2 > > % % > > > > > ",
"A Z A A A A 4 # N r s | @.@.| u o                                                             o s } ..O.$.s w D Z > & Z m Z Z m ",
"A Z n 9 4 n e > Z t s { <.2.| u o                                                             o s ....@.8.s j m m > > N , 0 n Z ",
"Z N n 9 9 n n > A r u s Q ..| s o                                                             o d 7.$...} s j G Z > > Z 0 1 0 Z ",
"Z N n 9 4 n q < N r s E v x x u o                                                             o u U v x x s t G N > , D 0 1 n n ",
"N N m 9 4 A q > A r s ..b l x s o                                                             o u x l x l u e D D , 1 D , n 1 N ",
"Z N n 4 Z Z n > Z h s | | | } u o                                                             o s ..| ..| u h S Z 9 9 A A 0 0 Z ",
"Z N m n q m n > Z h s | <.2.| u o                                                             o s | ..| | s h Z Z 5 9 A 0 n m A ",
"N Z m m q m q & m h s v T T v u o                                                             o s } | ) v u h Z A 9 3 A 0 n m A ",
"Z N n 4 Z Z 9 # S h u c l l l u o                                                             o s ( ( T l u w Z Z 9 5 Z N 0 q N ",
"N N N Z Z N 4 # m h s 0.@.| | s o                                                             o s u u x } s h m N & > Z N A m N ",
"> > > > > > % # < : s O.<.<.| u o                                                             o s ` ` O.6.s 2 > > % % > > > & > ",
"% % % % % % % % % : s | %.%.| u o                                                             o s } %.-.&.s : % % % % % % % % % ",
"> > < < < < > < < i s | [ _ ` s o                                                             o s ` :.,.} s 2 < > > > > > 3 > > ",
"9 9 9 9 1 1 n 1 0 8 a | x u u u o                                                             o u s ! | } s f 9 9 9 9 9 9 9 9 9 ",
"9 9 9 1 < 1 1 1 1 7 u l { +.( u o                                                             o s ( c l l s f 9 9 0 9 0 9 9 9 9 ",
"9 9 1 < < < 1 1 1 < s v O.:.*.s o                                                             o s } T v v u f 1 9 9 9 9 e 9 9 9 ",
"9 q 1 < < < < 1 9 f s | | @.6.s o                                                             o s } | | } s 1 1 9 9 9 9 , 9 9 9 ",
"9 9 1 9 9 9 1 9 9 f s | | | | u o                                                             o s | ....} s 7 1 0 1 0 1 q 1 n 1 ",
"1 1 1 < 1 1 1 1 1 i u x x b | s o                                                             o s } ..| | s 6 1 1 1 1 1 1 1 1 1 ",
"> & & > > > & & & : s c b T T u o                                                             o s } ^ R T s : & < & > & & & < & ",
"$ $ $ $ $ $ $ $ $ - s ..2.@.u u o                                                             o s { x s u p = $ $ % $ $ $ $ $ $ ",
"D m D m m D m m A h s | | | } s o                                                             o u u ~ | | s 2 # A A A Z A Z A A ",
"m D G H H H H J Z t s | | | } s o                                                             o s R ] +.:.s 6 # A n q q Z A A Z ",
"Z H K K K K K J D t s ~ Q / | u o                                                             o s | } +.<.s 6 $ A 0 9 0 n D Z N ",
"m H K K K K J D L t u u u x | s o                                                             o s | | | | s 6 $ A 0 4 9 Z N N Z ",
"D D m m D m m N Z r s [ { E s u o                                                             o s s s s d u 7 < Z m n 4 Z Z Z N ",
"m m m D N Z N Z Z r s | | ] U s o                                                             o s U U U b s 7 > Z n n n Z N N Z ",
"D m Z Z Z N Z N Z r s ..| | { s o                                                             o s | | | | s 7 1 Z n n n N m D m ",
"m Z Z Z m D N Z Z r s | | | | u o                                                             o s | | | | s 7 < A Z n 4 N m D m ",
"Z Z M M M M M M Z r s d d d d u o                                                             o s 5.+.^ d u 7 > A 0 q A A A N Z ",
"M M M M M M M M Z h u b b v b u o                                                             o s _ T b b u 6 % Z n N N N A Z N ",
"0 9 n 1 0 1 9 n 0 7 s | | | | s o                                                             o s d d v | u 2 # 9 0 9 0 0 0 4 9 ",
"$ $ # # $ $ $ $ $ - s | | | | s o                                                             o s | | | } s - $ $ $ # $ # $ # # ",
"1 1 1 1 , < < < < : s 2.@.| { s o                                                             o s | ..@.3.s 2 < < > & # < < < < ",
"1 1 1 1 , 9 9 1 9 2 d 8.] U U s o                                                             o s U ] O.:.s 6 3 5 3 > # , 9 5 1 ",
"9 9 9 9 9 9 9 9 9 2 s 3.b s s s o                                                             o u s W ] ] s 8 9 0 0 , % 9 9 9 9 ",
"9 9 9 0 9 9 0 9 9 6 s s W X.{ s o                                                             o s | x u u u 8 9 S q 9 < 9 9 0 9 ",
"0 1 n 1 0 0 1 0 1 f s ^ ] ..} s o                                                             o s ..) ~ ~ s g Z 9 9 4 > 9 9 9 9 ",
"1 n 1 n 1 n n 1 1 6 s } ..X.#.s o                                                             o s | ..O.@.s 8 q 4 9 , % 9 9 9 9 ",
"1 1 1 1 1 1 1 1 1 i s } } #.9.s o                                                             o s } | @.8.s 6 9 4 1 > # 9 5 9 5 ",
"1 1 1 1 1 1 1 > 1 > s s s v 9.s o                                                             o u u ~ %.8.s 2 < < < & # < < < < ",
"% $ $ $ $ $ $ $ $ - s R R R U s o                                                             o s W v v U u - # $ # # # # # # $ ",
"n 1 m 1 n 1 9 9 0 f s } } ( l u o                                                             o s } v x x u 7 9 0 0 4 4 9 9 0 9 ",
"m Z m m m m m m m h s X.} } } s o                                                             o s | | ..| s t D D D D D D D F Z ",
"m Z m 1 1 0 n m 1 7 s } 1.,.} s o                                                             o s | ..| | s t K K K K K K K J A ",
"m N n 9 9 n n 4 D w s v R R v s o                                                             o s | &.O.v u t Z K K K K K K J Z ",
"Z Z N n n Z Z n m h p l l d d u o                                                             o s ( @.| k p r Z D D D D D D D N ",
"Z N Z N Z Z Z Z Z h s  . .}  .s o                                                             o u u u x | u r Z A Z Z N Z N Z N ",
"N Z N Z A Z Z m Z w s .. . . .s o                                                             o s _ _ O.6.s r Z A N A A N Z N Z ",
"Z q q N 0 4 4 9 m h s b )  . .s o                                                             o s ..%.-.=.s 8 4 4 1 n m 4 n N Z ",
"N m n q n 0 9 9 Z h u l E ' ) s o                                                             o s ` <.2.{ s 8 0 4 q n 0 m m m N ",
"D m n q Z n 0 n Z w s 9.b u u u o                                                             o u u @.2.{ s 8 q n n m n m D D m ",
"m N N N Z Z m Z Z h s +.` / / s o                                                             o s ^ b x l s w D N m N Z m N Z N "
};
