/* XPM */
static char *_18f4d5dee7e4dc0dbe6a78ee78f7336JcDJ4gwu5Kopt4cu[] = {
/* columns rows colors chars-per-pixel */
"64 64 142 2 ",
"   c #010101",
".  c #0E0E0E",
"X  c #131313",
"o  c #202020",
"O  c #4D2B26",
"+  c #4D2B28",
"@  c #502B25",
"#  c #522F2A",
"$  c #55302B",
"%  c #5D352E",
"&  c #533432",
"*  c #583430",
"=  c #563934",
"-  c #533C39",
";  c #60372D",
":  c #64392E",
">  c #6A3C2E",
",  c #653A31",
"<  c #6B3D31",
"1  c #703F31",
"2  c #55443F",
"3  c #5E423E",
"4  c #6F402F",
"5  c #76432F",
"6  c #78452F",
"7  c #6F4031",
"8  c #64463E",
"9  c #69473B",
"0  c #65483B",
"q  c #6B4A3E",
"w  c #754331",
"e  c #7A4531",
"r  c #7E4833",
"t  c #754D3D",
"y  c #7B4C39",
"u  c #75513F",
"i  c #7B523E",
"p  c #4F4847",
"a  c #494949",
"s  c #544441",
"d  c #584642",
"f  c #524A47",
"g  c #5E4C44",
"h  c #5D504E",
"j  c #5F5857",
"k  c #674943",
"l  c #674E49",
"z  c #665146",
"x  c #6D5244",
"c  c #65524D",
"v  c #6F584F",
"b  c #735043",
"n  c #7F5646",
"m  c #72544A",
"M  c #7E5C4C",
"N  c #6D5754",
"B  c #645957",
"V  c #6B5B55",
"C  c #655C5A",
"Z  c #6B5E5A",
"A  c #775F54",
"S  c #7A5E51",
"D  c #6B625E",
"F  c #71645D",
"G  c #636363",
"H  c #6D6562",
"J  c #6E6865",
"K  c #6C6C6C",
"L  c #776A66",
"P  c #786A66",
"I  c #7D6E6A",
"U  c #727272",
"Y  c #7D7572",
"T  c #7D7D7D",
"R  c #834C33",
"E  c #884E34",
"W  c #875036",
"Q  c #8D5135",
"!  c #845339",
"~  c #8B5339",
"^  c #935636",
"/  c #955935",
"(  c #9B5D36",
")  c #9A5D38",
"_  c #9E6035",
"`  c #A46336",
"'  c #A26436",
"]  c #A16338",
"[  c #A16339",
"{  c #845742",
"}  c #845842",
"|  c #885842",
" . c #815E4D",
".. c #936244",
"X. c #996744",
"o. c #816C63",
"O. c #8A756B",
"+. c #817975",
"@. c #887A76",
"#. c #807978",
"$. c gray51",
"%. c #848484",
"&. c #8F8987",
"*. c #8B8B8B",
"=. c #938C8A",
"-. c #929292",
";. c #949494",
":. c #979797",
">. c #9A9491",
",. c #9A9A9A",
"<. c #9C9C9C",
"1. c #9F9F9F",
"2. c #A3A3A3",
"3. c #A7A7A7",
"4. c #A8A5A5",
"5. c #ABABAB",
"6. c #AEAEAE",
"7. c #AFAFAF",
"8. c #B4B3B3",
"9. c gray73",
"0. c #BCBCBC",
"q. c gray75",
"w. c #C1C1C1",
"e. c #C3C3C3",
"r. c gray77",
"t. c gray78",
"y. c #CACACA",
"u. c #CBCBCB",
"i. c gray83",
"p. c #D5D5D5",
"a. c #DBDBDB",
"s. c #DDDDDD",
"d. c #DFDFDF",
"f. c gray88",
"g. c #E2E2E2",
"h. c #E3E3E3",
"j. c #E6E6E6",
"k. c #EDEDED",
"l. c gray94",
"z. c #F4F4F4",
"x. c #F6F6F6",
"c. c #FDFDFD",
/* pixels */
"+ + + + + + + + + + + + + + + + O O + + + + + + + O + + + + + + + + + + + # + + + + + + + + + + + + + + + + + + + + + + + + + + ",
"% % % * ; * * ; ; * ; % * ; ; * O $ % % % % % % % % % * % % $ @ ; * ; * * ; * * % * * ; * + $ % % % % % % % * % % * ; * * ; ; * ",
"< > < < < < < < < < < < < < < < O ; < < < < < < < 1 < < < < * + < < < < < < < < < < < < < $ $ < < < , < < < , < < < < < < w < < ",
"w w e w w w w w w e 1 e w e 1 1 O > w w w w e w w w w w w e > + w w w w w e w 1 w w e w e % % w w w w e w w e w w w e w w w w w ",
"w R Q Q Q Q Q Q ~ e r Q e R R 1 , w w w e w w w w w 6 1 e 1 < , < < > , < , < 1 , w w w e < , w w w w w , < w , , , , , w w w w ",
"w E Q Q Q Q Q Q e R R e R R r w > 1 w w w w e e Z H H Z Z H D D y < , , , 1 1 < w w w w w < < e e w w < w < < 7 < , , , w w w w ",
"w R R R E E R R e r R w R e w e % < w w w b Z Z 4.7.7.8.6.7.7.7.P N N ; < 1 1 < w w w w w , ; e w w w < w w < w w < > < e 1 w e ",
"w w w w w w w w w w w w w e w 1 @ , w w b &.3.3.a.g.g.g.g.g.a.u.,.-.&.A e w w e w w w w e $ % w w w w w w w w w 1 < R 1 1 < y w ",
"> , % 4 : , , > , , : > : , > , O % 9 I e.d.c.c.c.c.c.c.c.c.k.u.u.u.r.3.P k , , : , > , ; $ $ > : > : > , , : , , < : , : > : , ",
"$ $ $ $ $ $ $ $ $ # $ $ # $ $ # + = N 5.c.c.c.c.c.c.c.c.c.c.x.d.a.i.u.u.:.P 3 $ $ $ $ # $ $ O $ $ $ # $ $ $ $ $ $ $ $ $ $ $ $ $ ",
"% : % : % : * O : : : ; : : : : ; c %.c.c.c.c.c.c.c.c.c.c.c.c.c.c.j.u.u.y.;.Z ; ; : : : ; : ; % : : : ; : : ; : , # $ : : : ; : ",
"Q Q Q Q Q Q 6 O Q Q Q Q E E ^ E Q O.1.c.c.c.c.c.c.c.c.c.c.c.c.c.c.j.u.u.u.;.H Q Q Q Q Q Q Q Q Q Q E Q Q Q Q Q Q Q : ; Q E Q Q Q ",
"Q Q W e 5 R r , Q ( ( E ` ` ` ` P w.c.k.9.f.c.c.c.d.e.c.c.c.c.c.c.k.i.u.u.2.+.{ ~ Q Q Q ` ` ` [ ` ` ` ` Q ( ( Q ^ ; : E 1 1 R Q ",
"Q Q R w w R r > Q ^ / ( / _ ` ` F w.g.U   *.c.c.c.G o ;.x.c.c.c.c.c.x.u.u.u.q.G M Q Q Q ' ` ` ` ` ` ( ^ ( / / ( E ; : Q 1 6 R Q ",
"Q Q R e 5 R r , Q Q / ( E ( ( ( D w.r.    *.c.c.c.G     u.k.c.c.c.c.x.u.u.u.q.G S Q Q Q ) ( ( ( ( ( / Q ( ^ ^ ( Q > > ^ 1 1 6 Q ",
"Q Q R w 5 E R : Q Q Q Q Q Q Q E D e.u.    *.c.c.c.J       $.c.c.c.c.x.u.u.u.q.G S Q Q Q Q Q Q Q Q Q Q Q E Q Q Q E 5 1 ^ 1 1 R Q ",
"Q Q E 5 Q Q r > E Q Q Q ~ Q ~ ~ F e.u.. . *.c.c.c.K X . . $.c.c.c.c.z.u.u.u.q.G  .Q Q Q Q Q Q Q Q E Q Q Q Q Q Q Q 1 1 Q Q r r E ",
"Q Q E R e W r : Q ^ Q Q H H G G G e.c.c.c.c.c.c.c.c.c.c.c.c.c.c.c.c.z.u.u.u.q.G S Q Q Q Q Q Q Q Q ^ ^ E Q Q Q Q Q 1 w Q R R R Q ",
"Q Q Q R r W r % ^ E  .J j.l.k.l.k.x.c.c.c.c.c.c.c.c.c.c.c.6.U U U U $.u.u.u.u.e.<. .Q Q Q Q Q Q Q Q E ^ Q Q Q E ^ 1 w Q e R E Q ",
"Q E E 5 Q Q e + E S 5.l.c.c.c.c.c.d.i.c.c.T X X g.c.c.c.U 6.l.l.l.l.p.K 8.u.u.u.1. .Q Q Q Q Q Q Q Q Q E Q Q Q Q Q 1 w Q Q e R Q ",
"Q Q Q Q Q Q 6 O ^ A 6.c.c.c.c.c.c.g.i.c.c.d.u.u.x.c.d.T i.k.c.c.c.c.c.a.*.2.u.u.1.S E E E E Q E Q Q E Q Q Q Q Q Q ; ; Q Q Q Q Q ",
": ; % ; ; ; % + F 8.k.c.c.c.c.c.a.u.i.c.c.c.c.c.c.6.*.d.c.c.c.c.c.c.c.c.j.p.u.u.1.l , < : < : : : : : : : : : : ; $ $ ; : : ; % ",
"$ $ $ $ $ $ $ * G r.c.c.c.c.l.a.u.u.i.c.c.c.c.c.c.1.$.c.c.c.c.c.c.c.c.c.c.g.u.u.1.l # # # $ # # # $ $ $ $ $ $ $ $ $ $ $ $ $ $ $ ",
": > , , , , , 7 G r.c.c.c.k.a.u.u.u.i.c.c.c.c.c.c.1.K 2.3.i.c.c.c.c.c.c.c.g.u.u.1.l , , , , < < : : < : : , , , : > > , : : > : ",
"e w w w 1 1 e w H e.c.c.c.g.u.u.u.u.i.c.c.c.c.c.c.i.5.G ,.1.9.c.c.c.c.c.c.g.u.y.1.v > 1 e 1 1 w w w w w w w 1 w e w w w w w w w ",
"w w w < < < 1 < l >.9.8.8.3.5.u.u.u.i.c.c.k.k.c.c.c.d.G r.;.*.c.c.c.c.c.c.l.d.y.1.A w e e 1 < < < < < < w 1 1 w w w e w w w w w ",
"w w < , , , , , < q V G -.-.;.,.u.u.i.c.c.g.a.c.c.c.k.2.,.-.,.8.l.c.c.c.c.c.c.y.8.@.m e 1 < , , < , < , 1 < 1 1 w w w w e e w w ",
"w w w , , < , < w > k N 2.9.5.G e.u.i.c.c.g.a.c.c.c.x.k.K ,.9.$.9.d.c.c.c.c.x.y.y.1.Z w e 1 , , , , < w , w 1 < w w w e 1 1 1 y ",
"w w e w w w 1 w w w 1 w N =.,.G e.u.i.c.c.g.i.c.c.c.l.u.$.,.9.u.U 2.c.c.x.c.x.u.u.1.C 1 w 1 w 1 w w w e 1 1 e 1 e 1 1 1 y 1 1 1 ",
"< < , < < < < < < < < < , b C G q.u.i.c.c.g.a.c.c.c.x.u.u.;.T u.U 2.c.c.p.g.x.y.u.1.C < 1 < 1 < < < < < < < 1 < 1 < 1 1 1 < 1 1 ",
"* * : % * * ; * * * ; * : % k G q.u.i.c.c.j.a.c.c.c.x.u.u.2.*.6.U 3.c.c.p.d.k.y.u.1.C * ; * % % ; * * * % % % % ; % % % % % , % ",
"# @ + + @ @ # + @ @ # + + + & G q.u.i.c.c.g.a.c.c.c.k.u.u.u.8.U G 2.c.c.p.y.y.y.u.2.L * # + + + + # @ @ + + + + + + + + + + + + ",
"Q ~ Q Q Q E Q Q Q Q ~ W O 6 n G e.u.i.c.c.g.i.c.c.c.l.u.u.u.u.u.$.2.k.c.i.y.y.u.u.u.9.G { E E ^ E Q Q Q E Q e O Q Q Q Q Q Q Q ~ ",
"Q / ( ( ( ( ( ( ~ / / Q O w n G e.u.i.c.c.g.a.c.c.c.l.u.u.u.u.u.u.1.T c.p.y.u.u.u.u.9.G ..( ) ( ( ( ) Q ( ^ w O ~ R r r Q Q Q Q ",
"Q ( ` ` ' ` _ ( / ( / Q O 5 n D q.u.i.c.c.h.i.c.c.c.c.l.u.u.u.u.u.q.q.c.l.d.u.u.u.u.9.G X.` ` ` ` ( ( ^ ( ^ w + Q r e w Q Q E Q ",
"Q ( ` ` [ ` ( ^ _ ^ Q Q O 6 } G e.u.i.c.c.g.u.u.c.c.c.c.u.u.u.u.u.u.i.c.c.g.u.u.u.t.9.G X.` ` ` ` ^ ^ [ Q E e + Q e w 5 Q Q Q Q ",
"Q Q Q Q Q Q Q Q Q Q Q Q , r | G q.u.u.a.c.g.u.u.x.c.c.c.i.u.u.u.u.u.p.c.c.f.y.y.u.u.r.e.+.F Q Q Q Q E Q Q Q R , Q Q R 5 Q ^ E Q ",
"Q Q Q Q Q ^ Q Q Q Q Q Q > r E y Y 6.u.i.c.g.u.u.x.c.c.c.u.u.u.u.u.u.u.p.x.c.k.y.u.u.u.u.T H Q Q Q Q ^ E Q Q E : Q R r R Q Q Q Q ",
"E ^ Q Q Q Q Q Q Q Q Q Q > r R r D 2.q.,.5.1.;.:.3.d.c.c.u.u.u.u.u.u.u.u.d.k.c.u.u.u.u.u.2.>.M Q Q E ^ E Q Q R ; Q y r E Q Q Q Q ",
"^ E Q Q Q Q Q Q Q Q Q Q > y Q Q D $.-.,.,.,.,.,.H *.8.j.u.u.u.u.u.u.u.u.u.f.c.d.a.u.u.u.u.e.G | Q Q E ^ Q Q R , Q Q E w Q E ^ Q ",
"E Q E E ^ Q Q Q Q Q Q ~ , r E w D G T r.u.u.u.u.U *.1.$.u.u.u.u.u.u.u.u.u.i.a.a.i.u.u.u.u.t.3.o.~ Q Q Q Q Q r : Q r r W Q Q Q Q ",
"Q Q ^ E E Q Q Q Q Q Q Q # e R E M D U 1.2.1.1.2.K *.,.*.r.u.u.u.u.u.u.u.u.u.y.y.y.u.u.u.u.u.u.Y } Q Q Q Q Q r $ Q E W Q Q Q Q Q ",
"e e w e e e e e e w e e O > e e e x B j C G G U U J U 9.9.q.9.9.0.r.u.u.u.u.u.u.u.y.u.u.u.u.u.%.n y w e e e > O w e w e e e w 6 ",
"O + + + + + + + + + + + O O + O O + + + + s U 6.3.$.G h h h h h h Y 3.7.5.5.5.5.5.5.5.5.5.5.5.5.K D - $ + O + + O + O + O + O + ",
", , , < , , , , , $ $ , , , , , , , , , ; l V C j C c , , , , , , k C V C C C C C B C N C C C C C C C 8 , , , , , ; % O , , , , ",
"1 1 1 1 1 1 1 < w # $ w w < 1 1 < 5 1 1 1 < 1 < + ; w < 7 7 7 7 < w 1 < 1 1 w < < w 1 1 w < 1 < 7 7 w < 7 7 7 7 7 5 ; O w 7 7 7 ",
"w w w w w w e w w % : w 1 < w < w w w 1 w w w w $ < e w w w w 7 e w < w 1 w w w w w w w e r r R r r r r w r e e r e > $ w w w w ",
"w w e w w w w w w < < e , , , , , < w , w e w w , w w w w w 7 , w < , , , , < w w e w e Q Q Q Q Q Q E ~ 5 R R 5 ~ r 7 , w w e w ",
"w w w e w e w w w < > w , , , , w , < w w e w w , w w w w , 7 w , < < , , , < w w w w w Q Q Q Q Q Q R w ~ r r W e w 5 % e e w w ",
"w e w w w w w w e ; % w w < 1 w e 7 w w w w w w $ < w w w w w w w w w w w < w w w e w e r r y r r r e e r e e r 5 w 7 $ w w w e ",
"1 1 1 1 < w 1 1 1 % $ w 1 1 1 1 7 7 w 7 7 7 7 7 + : w < 7 7 7 7 1 w 7 1 < 1 < w 7 7 7 7 7 4 7 7 7 7 w < 7 7 7 7 7 4 % O 7 7 7 7 ",
", , , < , , , , , # $ , , , , , , , , , , , , , + * , , , , , , , , , , , , , , , , , , , , , : , , , , , , , , , , % O , , , , ",
"+ + # + + + + + O + + + + + + @ + O + + + + + + + - p p p p p p p p p a p p p p p p s + O O O O + + + + + + O + + + + + + + + O ",
"w y w w e e e e e 5 > + w e e e 5 e e w 2 2 2 s s p a a a a a a a a a a a a a a a a a s 2 2 p 2 w % $ e e r e 5 5 5 e 5 e e e w ",
"Q Q Q E R E E E R Q e O Q Q Q ^ ^ i x l a a a a a a a a a a a a a a a a a a a a a a a a a a a a z d 2 ! / ~ ~ / / / / ^ ^ / Q Q ",
"Q Q R 1 1 w r ~ 5 R e + ~ Q / ` ` x a a a a a a a a a a a a a a a a a a a a a a a a a a a a a a a a a i _ / / ' ' ' ' ' ' ' _ Q ",
"Q Q R e w R R w Q Q e O Q Q ^ [ ` ~ ! b a a a a a a a a a a a a a a a a a a a a a a a a a a a a u 0 0 ! Q _ _ Q ' ' ` ` ` ` ) Q ",
"Q Q W R R E Q R Q Q r % Q Q ^ ' ` ^ Q Q t b t b u g a a a a a a a a a a a a a a a a f u u q 0 0 Q 5 w Q Q / Q Q / / ^ ^ ^ ^ ^ ^ ",
"Q Q Q Q Q Q Q Q Q Q r , Q Q ^ ( ` ^ Q Q Q ^ E ^ Q u g g g g l g g g g g f g g g 2 0 q Q Q r 6 r Q w 7 Q Q Q Q Q E Q ^ Q Q Q E Q ",
"Q Q Q Q Q Q Q Q Q Q r , Q Q Q Q ` ^ Q Q Q E Q E Q Q Q Q Q Q E Q Q Q Q Q , r ~ ~ 6 R Q Q Q r r Q Q w 5 Q Q Q Q Q Q Q E Q Q Q Q Q ",
"Q r e Q e w 5 e Q Q r > Q Q ^ _ Q Q Q Q Q Q Q Q Q Q Q Q Q Q Q Q Q Q Q Q : R R w Q Q Q Q Q Q R 6 Q w 7 Q Q Q R 5 6 w R E e E E Q ",
"Q W R r R e w w Q Q e $ Q Q Q ^ ( ^ Q Q Q Q Q Q Q Q Q Q Q Q Q Q Q Q Q Q : R E R r W Q Q Q R r R Q , > Q Q Q R 5 w e R e R E Q Q ",
"Q Q W r Q R r r Q Q 5 O Q Q Q Q ( ^ Q Q Q Q Q Q E ^ Q Q Q Q Q Q Q Q Q Q % r Q Q r W Q Q Q r R Q Q : % Q Q Q E r e E E R E Q Q Q ",
"Q Q Q Q Q Q Q Q Q Q r O ~ Q Q Q Q Q Q Q Q Q E ^ E E ^ E Q Q Q Q Q Q Q Q O e Q Q Q Q Q Q Q Q Q Q Q % : Q Q Q Q Q Q Q Q E ^ E ^ Q "
};
