/* XPM */
static char *_b3763a585d04363c56c61b4779475a8IN0Zy3Awg6ifPKuG[] = {
/* columns rows colors chars-per-pixel */
"64 64 147 2 ",
"   c #020202",
".  c gray3",
"X  c #141414",
"o  c #323232",
"O  c #3C3C3C",
"+  c #4E2B27",
"@  c #4E2B28",
"#  c #502B26",
"$  c #532F2B",
"%  c #4D302D",
"&  c #56302C",
"*  c #5E342F",
"=  c #4B3432",
"-  c #583531",
";  c #573935",
":  c #5F3C36",
">  c #5D3E39",
",  c #60362E",
"<  c #63382D",
"1  c #693B2E",
"2  c #663931",
"3  c #6B3D31",
"4  c #613E3A",
"5  c #713F31",
"6  c #5B433F",
"7  c #76432F",
"8  c #78442F",
"9  c #654237",
"0  c #6E4032",
"q  c #63433A",
"w  c #6B4539",
"e  c #754232",
"r  c #794531",
"t  c #7E4833",
"y  c #734638",
"u  c #72483B",
"i  c #794A39",
"p  c #7C513C",
"a  c #484847",
"s  c #494949",
"d  c #514541",
"f  c #5A4543",
"g  c #5F4844",
"h  c #514B4A",
"j  c #654C45",
"k  c #6E4A42",
"l  c #754F43",
"z  c #675047",
"x  c #765042",
"c  c #765B4E",
"v  c #7C5B4B",
"b  c #695450",
"n  c #655856",
"m  c #6D5956",
"M  c #6C5E58",
"N  c #785E52",
"B  c #6C625C",
"V  c #766157",
"C  c #71645E",
"Z  c #7A6158",
"A  c #656565",
"S  c #6A6665",
"D  c #6C6C6C",
"F  c #7E6A65",
"G  c #746E6B",
"H  c #747474",
"J  c #787473",
"K  c #7E7E7E",
"L  c #804733",
"P  c #844C34",
"I  c #894E35",
"U  c #8D5135",
"Y  c #84543E",
"T  c #8C5239",
"R  c #8F583F",
"E  c #925536",
"W  c #925537",
"Q  c #945636",
"!  c #975934",
"~  c #975936",
"^  c #9B5D37",
"/  c #9C5D35",
"(  c #9C5D37",
")  c #925639",
"_  c #91593E",
"`  c #9B5D38",
"'  c #9C5C38",
"]  c #9F5E38",
"[  c #A36337",
"{  c #A46336",
"}  c #A46337",
"|  c #A16239",
" . c #A26338",
".. c #A2623A",
"X. c #825641",
"o. c #875742",
"O. c #885641",
"+. c #835A44",
"@. c #8D5A43",
"#. c #815D4C",
"$. c #885F4B",
"%. c #905940",
"&. c #916447",
"*. c #9D6641",
"=. c #856252",
"-. c #966E5C",
";. c #987A66",
":. c #847976",
">. c #827F7E",
",. c #89817F",
"<. c #91807A",
"1. c #848484",
"2. c #8B8582",
"3. c #8D8887",
"4. c #8B8B8B",
"5. c #8C8C8C",
"6. c #99928E",
"7. c #929292",
"8. c #989897",
"9. c #9B9B9B",
"0. c #9F9F9F",
"q. c #AF8F80",
"w. c #B0968A",
"e. c #B69A8A",
"r. c #A5A5A5",
"t. c #ABA7A5",
"y. c #A8A7A7",
"u. c #ACABAB",
"i. c #B2B2B2",
"p. c #B4B4B4",
"a. c #BABABA",
"s. c #C3C2C2",
"d. c #C3C3C3",
"f. c gray79",
"g. c #CBCBCB",
"h. c gray80",
"j. c #D4D4D4",
"k. c #D7D7D7",
"l. c #DBDBDB",
"z. c #DFDFDF",
"x. c #E4E4E4",
"c. c #EBEBEB",
"v. c gray95",
"b. c #F4F4F4",
"n. c #F5F5F5",
"m. c #FDFDFD",
"M. c #FEFEFE",
/* pixels */
"@ # @ @ @ @ @ @ @ @ @ @ @ @ @ @ + + @ @ @ @ @ @ @ @ @ @ @ @ @ @ @ @ @ @ @ @ @ @ # @ @ @ @ @ # @ @ @ @ @ # @ @ @ @ @ @ @ @ @ @ % ",
"* - , - * , - , * - * * * * * - $ $ * * * - , , * * * * * * * @ * * , , * * * * , , - , - $ $ < - , , - , < - , * , , , * * * * ",
"5 3 3 3 3 3 3 3 5 5 5 5 5 5 5 3 $ , 3 3 3 3 3 3 5 5 3 3 5 3 , @ 2 3 3 3 3 5 4 5 1 3 3 3 3 $ & 3 5 5 3 3 3 3 3 3 3 3 3 5 5 5 3 3 ",
"e e e e e e e e 5 5 5 r 5 5 e 5 # 2 e e e e e r 5 r 5 5 r 5 2 @ 5 e e e e 5 e 5 e e e e 5 , , 5 5 r 5 5 e e e y 5 5 y 5 5 5 5 5 ",
"e P U U U U W T T r t U e I P e 2 5 e r e e e e e e 5 5 L 5 5 2 e 3 2 2 2 2 3 5 2 e e e e 3 3 e 5 r 5 5 3 5 5 2 2 3 2 2 5 i 5 L ",
"e P U U T T I T t P P t I L t e 2 5 e e r e e e r e t 5 5 t 5 2 e 3 2 2 2 5 5 5 5 e e e e 3 3 e 5 r 5 3 5 5 5 5 2 2 2 2 L 5 5 5 ",
"e L I P I I I P e L P e P e e e , 3 e e e e e e e 5 t i t t 5 - e 5 5 3 5 5 5 3 e e e e e 2 2 5 r 5 5 5 y 5 5 e 3 3 5 5 5 5 L 5 ",
"e e e e 5 e 5 e e e e e e e e e # 3 e e e e e e 5 t 5 5 5 5 2 @ e e e 5 e e 5 y e e e e e , , e 5 L t 5 5 e e 5 5 5 5 5 L L 5 i ",
"1 2 2 2 2 2 < 2 2 2 1 2 2 2 1 2 + * 1 2 1 < 2 1 2 2 1 2 1 2 - + 2 2 2 2 1 2 2 2 2 2 2 2 2 $ & 2 2 2 2 2 2 2 2 2 3 3 2 2 2 2 1 2 ",
"& & & & & & & & & & & & $ & & $ @ $ $ $ & $ & & $ $ $ & & & $ + - $ & $ & & & & & & & & & # # & & & & & & & & & & & & & & & & & ",
"< < < < < < * + < < < < < < < < < < < < < < < < 1 , 1 < < * , < # * < < < < 2 , < < < < < < < < < < < < < < , < 2 $ $ , < < , < ",
"U U U T U U r # U U U U I W U U U U U U U U U U U T O.O.Y O.o.Y # r U U I W I U W I I W U U I W U I I Q U U U U T 2 , I U U I U ",
"U U P e e P t 2 U ( ( U { { { { { { {  .U U U U x Z 1.1.1.1.1.1.f l W W  .| ' U I W U U { { { { { { { { I ] ' U I < < I 5 L L Q ",
"U U P e e P P , U W ! ' ! ( { { { { }  .U U $.q.0.i.z.z.x.x.z.g.5.3.;.-.*.{ ' W W I U U { { { { { { / ! ] ~ Q / Q 2 < T 5 5 L U ",
"U U P e 8 I t 2 U U Q ( I / ( / ( ( ( ' U @.6.n.m.m.m.m.m.m.m.z.k.g.d.t.;. .' U I I E I ] ] / / / / ! U ] W Q ] I 1 1 Q r 5 r U ",
"U U P e 8 P L 2 U U I Q I U U I U U U U U V x.m.m.m.m.m.m.m.m.n.v.g.f.d.6.&.' I I E I E I U I U U U U U U U I U U 5 5 Q 5 5 L U ",
"U U P 7 U U t 1 U U U U U U U U U U U T V d.m.m.m.m.m.m.m.m.m.m.m.g.g.g.8.+.! W U U U U U U U U U U U U U U U U U 5 5 Q U L L U ",
"U U U P t I L 2 U I I U t L t t U L L R C c.v.O m.m.p.s a.m.m.m.m.c.h.g.d.2.O.U U U U U U U U U U U U U U U U U Q 5 5 U L L I T ",
"U W U P t U t * I W U U e e r t P P P R C c.X X m.m.y.X . a.m.m.m.n.h.g.g.4.+.T U U U U U U U U U U U U U U U U Q 5 5 I L L I I ",
"U U P 7 U U e @ W I U I 8 8 t U 8 I U R C c.  X m.m.y.X     k.m.m.n.h.h.h.5.o.W W U U U U U U U U U U U U U U U I 5 5 Q U L L U ",
"U U U U U U 8 @ I W I W U U I T U p Y v B x.O 6 m.m.a.O o o x.m.m.b.g.h.g.5.X.T U U U U T I U I U U U U U U U U I 1 < I U U U U ",
"< < * 1 , < & @ < < < < 1 , 2 k F 4.4.4.5.x.m.v.l.x.m.m.m.c.x.x.x.x.a.d.g.0.b , < < < < , , < < < < < < < < , 2 1 $ $ 1 1 , < , ",
"& & & & & & & & & & & & $ $ - :.l.m.m.m.m.l.m.v.7.i.m.m.l.a.d.h.g.g.i.y.a.g.K ; & & & & $ * $ * & & & & & & & & $ $ $ $ $ $ & & ",
"1 1 2 2 2 2 2 2 2 2 2 2 2 2 m d.m.m.m.n.x.g.m.m.l.x.l.y.a.l.m.m.m.m.x.j.d.g.>.3 < 2 1 2 2 2 2 3 2 1 2 2 < 1 2 1 1 2 2 1 2 2 2 1 ",
"e e e e 5 r 5 5 e e e e e e J m.m.m.c.l.g.g.m.m.m.m.d.D d.m.m.m.m.m.m.m.x.g.1.u 5 5 5 t 5 5 5 e e e e 5 e y 5 5 e e y e e e e 5 ",
"e e e 3 3 3 5 3 5 5 5 3 e e H m.m.c.g.g.g.f.m.m.m.m.d.D K 1.c.m.m.m.m.m.x.g.K u P t L 5 t 5 3 3 3 3 3 3 5 5 5 5 e e r e e e 5 L ",
"e e 3 2 2 2 2 3 3 5 5 3 5 5 H m.m.x.g.g.f.f.m.m.m.m.n.x.4.r.1.n.m.m.m.m.x.g.K i T L 5 i 5 3 2 2 3 2 2 3 5 5 5 5 e e e e 5 t t 5 ",
"e e 0 2 2 2 2 3 y 3 3 e 2 5 5 S S A 9.g.f.g.m.m.k.m.m.n.7.u.H v.m.m.m.m.m.z.K Y 5 5 L 5 t 3 2 2 3 2 5 e 3 5 5 3 e e e e e e e e ",
"e e 5 e e e 5 5 e e 5 5 t 5 5 l 1.d.7.H a.g.m.n.k.m.m.m.n.5.a.H c.m.m.m.m.z.g.J u 5 5 5 i 5 5 5 5 y 5 5 5 5 t 5 t 5 5 5 e 5 t 5 ",
"3 3 3 5 5 3 3 3 3 3 3 3 5 5 3 3 w ,.3.H a.f.m.m.j.m.m.m.x.5.u.g.D m.m.n.n.x.g.J 3 3 5 5 3 3 5 3 3 3 5 5 3 3 5 3 3 5 5 3 5 3 3 5 ",
", - , - - , * * , - , * * * * * - 4 n H a.g.m.b.j.m.m.n.l.g.4.u.D m.m.x.l.k.h.K * * * * * * , * * * , * * * * * * * * * * * , * ",
"@ @ # # # @ @ @ @ @ @ @ @ @ @ @ + @ f H i.g.m.m.j.m.m.m.l.g.a.0.D m.m.x.h.h.g.8.j @ $ @ @ @ @ @ @ @ @ @ @ @ @ @ @ @ @ @ @ @ @ @ ",
"T U U U U U U U U T U T + e T U U U N J a.g.m.n.l.m.m.n.l.f.f.f.r.i.n.x.g.g.g.g.G U T U T U U U U U U U U U e @ T U U U U U U T ",
"U ! ` ' ^ ( / ( U ! ! T + e I t L I v J a.g.m.m.j.m.m.m.c.j.h.f.g.r.n.c.k.g.h.d.D U U U ` ^ ( ' ' ( ! U ( W 8 + T P t t U U U U ",
"U ^ } } { } ( ( W ^ ! T + 8 P 8 e P v J a.g.m.n.g.x.m.m.m.k.h.h.d.g.m.m.x.g.h.g.D U U U  .[ { { { | ' W ' W e @ U t e e U U U U ",
"U ^  .{ { { ' )  .! U U + r P e e P v J i.f.j.n.g.k.m.m.m.k.f.h.g.k.b.m.x.g.h.g.d.B M U  . .{ { [ ) Q  .U U r @ U t e e U U U U ",
"U U U U U U U U U U U U 1 t U U e I U _ C a.h.m.d.l.m.m.m.k.g.h.g.g.g.x.m.z.g.d.g.A B U U U U U I U U U U U t 2 U T P e T U U U ",
"U U U U U U U U U U U T 1 P I t I I U %.C u.G D H D 4.z.v.k.h.f.g.g.h.g.x.x.g.g.g.g.a.B U U U W U U U U U U L 1 T P L I U U U U ",
"U U U U U U U U U U U T 3 i I t L I U _ B A g.h.h.y.H 1.8.d.h.h.g.h.g.g.l.c.j.g.g.g.d.:.T U I I U U U U U U L 1 T P t P U U U U ",
"U U U U U I U U U U U U < i U U e U U U v A r.y.y.7.K r.7.p.h.h.g.g.g.g.f.g.h.g.g.f.g.i.c U W U U U U U U U P 1 T U P 7 U U U U ",
"U U U U U U U U U U U T < P P 8 T T U U U v c c A D S S >.e.e.w.w.r.r.r.r.r.r.r.r.r.r.8.S +._ U U U U U U U L 2 U t t U U U U U ",
"U U U U U U U U U T U T & r U P U U U U U U U U v =.N +.T ~ _ T T =.=.=.=.=.=.=.=.=.=.=.#.+.R I U U U U U U t & U P P T U U U U ",
"8 r e r r r 8 e e r r e + 1 r r r e r r r e 8 e r r e e e e r r e r r r r r e e r e e r r r e r 8 r r e 8 e 1 @ r r r 7 r 8 r r ",
"# + # @ @ @ # # @ @ @ @ + + + + + + + @ + @ + + @ # # @ # @ @ @ + @ @ @ @ @ # + + @ + + @ @ @ @ @ + @ @ + + @ @ @ @ @ @ + % + + ",
"2 2 2 2 2 2 2 2 2 & & 2 2 2 2 2 2 2 2 2 2 2 2 2 @ - 2 2 2 2 2 2 2 2 2 2 2 2 2 2 2 2 2 2 2 2 2 2 2 2 2 2 2 2 2 2 2 2 * + 2 1 2 2 ",
"5 5 5 5 5 5 5 5 e & & 0 0 3 e e 3 8 3 e 0 e 3 0 + 1 5 5 5 3 e 1 3 e 1 0 0 e e 1 3 e 3 e e 5 5 5 e 3 e 0 e 3 3 0 3 e < $ 0 0 3 0 ",
"e 5 e e e e e e e * * e 3 e e 0 0 e e 3 e e e e $ 3 e e e e 7 e e e 3 e 0 e e e e e e e t t t t t t t r 8 t r e t r 1 & e e e e ",
"e r e e e e e e e 3 3 e 1 2 2 2 2 3 e 2 e r e e 2 e e w w w 9 f w 4 4 : > 4 : w e e e e U U T I U T U U e P I e U t 5 2 e e e r ",
"t t 5 t e e e e e 5 3 y 2 2 2 2 y 3 3 e e i u q > q g h s s s s s s s s s s s s q q q q p _ U U U U I e T t t U e e e < e e e e ",
"5 5 5 5 e e e e 5 2 , e 5 5 5 5 e 5 5 e e l j s s s s s s s s s s s s s s s s s s s s a h z x t t t r e t e e t e e 1 & r e e e ",
"5 5 5 5 5 5 5 5 5 * $ 3 e 5 5 5 5 5 5 5 3 9 9 s s s s s s s s s s s s s s s s s s s a a d q w e 5 3 0 e 0 e 0 3 e 0 < @ 3 3 e e ",
"2 2 2 3 2 2 2 2 2 & & 2 2 2 2 2 2 2 2 2 2 2 2 > = ; f h s s s s s s s s s s s s > > > > : 2 2 2 2 2 2 2 2 2 2 2 2 2 & # 2 2 2 2 ",
"@ @ $ @ @ # # # @ @ @ @ @ @ @ @ # # # # # # # # @ @ @ % % % % % % % % % % % % % @ @ @ @ + @ @ + @ @ + + + @ @ + + + @ @ @ @ @ @ ",
"5 t r 5 r 5 e e r e 1 @ e r r e r e e e e r r 5 r e r e e r e r r r 7 r $ < 8 e r r r e e r r r r & * t e e e e t e r e r r e r ",
"T U U I U I I T I U e $ U U W Q W U U U U U W W ) Q Q ! ! W W U ! U U Y + 8 U P I I U U U I I P U 2 < U ' T U ! ! ! ! ) ) ! ) U ",
"T W P 5 5 e L T e P r # U U Q { [ ' U I I W Q { } { { { { { ^ U  .! U T @ e P e e I U U I t e e U e e U | ! ! [  .| { { { { ' U ",
"U U P e e P P e I U e + T U ! { { Q U U U U Q { [ [ { { { ! W { U ( ` T + e P e e I U U U t e 7 T 0 3 U U / ( U {  .{ { { { ( U ",
"U U I I I U I I U U t * T U ' { { Q U U U U W Q ! ' Q Q ! W U ! U ! U U * t I e e P U U U t e 7 T 8 8 U U W W U Q ~ Q ' Q Q W U ",
"U U I U U U U U U U t 3 U U U ^ { Q U U U U U U I W U I U U U U U U U U < P P t 8 P U U U t e t U 7 e U U U U U U U U U U U U U ",
"U U T U U U U U U U t 2 U U U U  .! U U U U U W U I U U U U U U U U U U 1 t T T 8 P U U U t t U T 0 e U U U U T P U U U U U U U ",
"U r t U e e e r U U t 1 U U ! [ U U U U U U U U U U U U U U U U U U T U < L P r T U U U U U P 8 T 8 e U U U P 8 e 8 L I e I U U ",
"U I L t P r e e U U t & U T U ! / Q U U U U U U U U U U U U U U U U U U 3 t U P t U U U U P L P U < < U U U P 8 8 L P t P I U U ",
"U U P t U P t t U U 7 + T U U U / W U U U U U U U U U U U U U U U U U U * t U T r P U U U P P U T < < U U U I t t P I L U U U U ",
"U U U U U U U U U U e + T U U U U U U U U U U U U U U U U U U U U U U T + e U U U U U U U U U U U < < U U U U U U U U U U U U U "
};
