/* XPM */
static char *_1702ac4086a4038eaa0b14946a1f626JPw3O8XjC8yKZ1HP[] = {
/* columns rows colors chars-per-pixel */
"64 64 169 2 ",
"   c #010000",
".  c #0D0201",
"X  c #0A0807",
"o  c #0C0A08",
"O  c #150403",
"+  c #190403",
"@  c #170E0B",
"#  c #1F120D",
"$  c #171511",
"%  c #1E1512",
"&  c #220604",
"*  c #290B08",
"=  c #20150F",
"-  c #241F18",
";  c #2C1C19",
":  c #311E1A",
">  c #36211B",
",  c #2E2A21",
"<  c #382420",
"1  c #332F25",
"2  c #383227",
"3  c #3E382C",
"4  c #490A03",
"5  c #4C100A",
"6  c #581008",
"7  c #630C04",
"8  c #6E0B02",
"9  c #761D17",
"0  c #432619",
"q  c #6E241E",
"w  c #4E2B27",
"e  c #4E2B28",
"r  c #502B26",
"t  c #532F2B",
"y  c #513122",
"u  c #56302C",
"i  c #5E342F",
"p  c #593A2A",
"a  c #682622",
"s  c #6B2F28",
"d  c #62362D",
"f  c #63382D",
"g  c #6A3B2E",
"h  c #743C2E",
"j  c #7A3C2C",
"k  c #663931",
"l  c #6B3D31",
"z  c #713F31",
"x  c #4A4336",
"c  c #4F4739",
"v  c #554C3C",
"b  c #584F3F",
"n  c #76432F",
"m  c #6F4031",
"M  c #614739",
"N  c #754232",
"B  c #7A4532",
"V  c #7E4833",
"C  c #6F624D",
"Z  c #8C0403",
"A  c #800F06",
"S  c #950300",
"D  c #9D0600",
"F  c #9C0B06",
"G  c #811106",
"H  c #8B1106",
"J  c #941004",
"K  c #9E1105",
"L  c #9C1509",
"P  c #94180D",
"I  c #9C1B0D",
"U  c #881614",
"Y  c #8C1C14",
"T  c #9A1E11",
"R  c #A40300",
"E  c #A70F01",
"W  c #A21305",
"Q  c #A11306",
"!  c #A71708",
"~  c #A71E0E",
"^  c #85211B",
"/  c #8D221B",
"(  c #88291F",
")  c #952017",
"_  c #992716",
"`  c #922C1D",
"'  c #B12A19",
"]  c #882F22",
"[  c #803227",
"{  c #8C3224",
"}  c #8D3A27",
"|  c #843C2A",
" . c #853E2A",
".. c #86442F",
"X. c #8A492F",
"o. c #9B4427",
"O. c #92432B",
"+. c #844632",
"@. c #814A33",
"#. c #854D33",
"$. c #834B34",
"%. c #854D35",
"&. c #864C35",
"*. c #864E35",
"=. c #894E34",
"-. c #8D5133",
";. c #8B5135",
":. c #8E5134",
">. c #8D5234",
",. c #8C5137",
"<. c #8D5137",
"1. c #8C5236",
"2. c #8E5236",
"3. c #8C5238",
"4. c #965633",
"5. c #925536",
"6. c #945636",
"7. c #975935",
"8. c #975936",
"9. c #9B5D36",
"0. c #9C5D35",
"q. c #9C5D37",
"w. c #945738",
"e. c #9B5D38",
"r. c #9E5D38",
"t. c #B54937",
"y. c #BB4835",
"u. c #BE553E",
"i. c #A36337",
"p. c #A46336",
"a. c #A46337",
"s. c #A16239",
"d. c #A36338",
"f. c #A26339",
"g. c #966446",
"h. c #8D6E57",
"j. c #83765B",
"k. c #88795E",
"l. c #D0785B",
"z. c #928264",
"x. c #9B8B6C",
"c. c #A58468",
"v. c #A88769",
"b. c #B5906A",
"n. c #A59371",
"m. c #A9997A",
"M. c #BCA67E",
"N. c #D08863",
"B. c #D8926C",
"V. c #C39F75",
"C. c #D79572",
"Z. c #D69870",
"A. c #C3A179",
"S. c #E3A67D",
"D. c #C2AB83",
"F. c #C7B086",
"G. c #C7B288",
"H. c #CAB48B",
"J. c #E2A983",
"K. c #E2B489",
"L. c #DCC393",
"P. c #E1C897",
"I. c #E3CA99",
"U. c #F0C593",
"Y. c #F6D09E",
"T. c #F6D9A4",
"R. c #FCDFA7",
"E. c #F9DFAE",
"W. c #FBE2B1",
/* pixels */
"e e e e e e e e e e e e e e e e e e e e e e e e e e e e e e e e e e e e e e e e e e e e e e e e e e e e e e e e e e t e e e e e ",
"i i i i i i i i i i i i i i i i w u i i i i i i i i i i i k u e i i i i i i i i i i i i i u u i i i i i i i i i i i i i i i i i ",
"l l l l l l l l l l l l l l l l w d l l l l l l l z l l l l i e l l l l l z M l l l l l l u u l m l m k l l l l l l l l z z v g ",
"B N N N N N N N N N B N B N N N e g B N N N B N N N N N N N k e N N N N z N z z N N N N N i i N N N N N N N N N N N N N z z z z ",
"N %.2.2.,.,.,.2.2.V V 3.N %.%.N k l N N B N N N N N N N N N z k N l k l l k l z k N N N N l l N N N N N k m m k k l k k +.V N N ",
"N %.2.2.2.2.,.,.V V $.V %.$.B N k N B N N N N N N N N N N N z k N l k k k z z l m N N N N l l N N N N l N l l N k k k k z z N N ",
"N V %.%.&.&.&.%.N V $.N %.B N N i l N N N N N N B B N N N N z i N z l l l z z z N N N N N k g N N N N l N l l N l l l l V N N N ",
"N N N N N N N N N N N N N N N N t k N N N N N N B z N B N N l e N N N N N N N N B N N N N u i N N N N N N N N N N N N N N N N N ",
"k k g k k k k k k k k g k k g k e u g g g k g k g k k g k g i e k k k k g k k k k k g k k u u k k k k g k k k k k k f k k k k k ",
"u u u u u u u u u u u u t u u t w t u u u t u t u u u u u u u w u u u u u t t t u u u t u e e u i t u u t u t t i i i t t u u u ",
"i f f f f f i w k f f f f d g d d f g d f f f f i f f f f i d i e i k k d g f d d d f f g f f f i d d f g d f f f t t d k d s d ",
"2.;.2.;.;.2.N w 3.2.2.2.2.-.-.;.-.2.2.2.;.2.-.;.,.,.2.,.2.2.,.2.e N ,.2.2.2.2.2.2.2.2.2.=.>.>.2.>.-.-.2.2.2.2.;.,.i d 3.:.3.3.3.",
"2.-.$.N N #.V k 2.e.0.2.s.s.a.i.a.a.i.s.2.2.2.3.N N B N 3.V V 2.e N 5.=.i.i.r.2.2.2.=.>.d.a.a.a.i.a.i.i.2.9.e.2.3.f g =.B N V =.",
"2.2.#.N N #.%.g ;.>.7.0.4.9.i.a.a.a.a.s.-.=.2.;.N N B %.V @.#.2.e N 2.2.a.i.9.2.2.2.2.>.s.a.a.a.i.i.q.4.9.7.7.9.3.f d 3.N N V 5.",
"2.>.#.N N $.V f 2.2.5.9.2.7.q.q.q.q.q.9.;.>.2.2.V V %.2.B =.2.2.u B 2.2.s.a.q.2.;.#.2.>.q.q.q.q.9.9.7.2.9.5.5.q.-.k k 3.N N V =.",
"2.>.%.N n %.$.g ,.2.>.2.;.2.2.2.2.=.5.;.>.-.2.=.2.2.;.2.&.|  . .s j |  .4.i.q.=.2.2.2.2.2.2.2.=.2.2.2.2.2.,.2.2.2.N z 5.j N @.=.",
"2.,.%.n 5.2.$.k ,.2.;.2.;.2.2.2.2.2.2.2.2.-.;.2.2.2.2.2.{ W F W K W W W ` r.r.:.2.2.2.=.2.=.5.=.2.;.2.=.2.2.2.2.5.N N ,.,.V V =.",
"=.>.=.%.V %.@.k ,.;.-.;.V V V V 2.@.@.2.2.2.#.V 3.$.B j ] W E E E E E E ) X.&.:.2.2.2.2.2.5.=.2.;.2.2.2.2.;.-.=.#.N N ;.V @.$.2.",
">.2.=.%.V =.V i 2.2.2.,.n N N V #.@.@.2.2.2.#.V =.+.[ D E E E E E E E E E R ] :.;.2.2.2.2.=.5.=.2.2.-.2.>.2.%.2.2.N N 2.V $.=.2.",
"2.>.%.n 2.2.N e ,.,.2.2.n n V ;.n &.2.=.2.2.=.2.h j ] E E E E E E E E E E W T ..+.=.2.2.=.5.=.5.2.;.>.2.2.>.2.;.5.l N ;.;.V V 2.",
"2.-.2.3.2.2.n e 2.=.5.2.3.3.,.,.2.2.2.=.2.2.;.2.{ L L E E E E E E E E E E E W W ` =.2.=.=.2.2.=.-.=.2.2.2.2.;.2.5.f d 2.2.,.,.2.",
"d f f f d f t e f f d d k d d k f f f d d f d d Y W W E E E E E E E E E E E E E Y d d g f f f f f f d f f d d g d t u f f f f d ",
"u u u u u u u u u u u u t t u u t u u u u i 9 S E E E E E E E W E E E E E W E E E E U t u u u u u t u u u u u u t u t u u u u u ",
"g g k k k k k l k k k k k k k k k k k g f g q 8 G G K E E E E E E E E E E E E G G 8 9 d k k k k k k k g k k k k g g k k k f k g ",
"N N N N N N N N N N N N N N N B j N N N ^ P 5 + + + 7 E E E E E E E E E E E J + + + * P Y z N N N N N N N z V z N N B N N N N N ",
"N N N k l l l l l z N l N N N N B N N N Y F 4   X o 6 W E E E E E E E E E W H o o . + E I h l l l l l l N l z z N N N N N N N N ",
"N N l k k k k k l l z l z N B N N j U S E E K F S.E.j.  7 E E E E E W E 8 . 1 W.J.' W E E S S k k k k l z z z z N N N N N V N N ",
"N N N k k k k k N l l N k z N N N j T E E E E E S.R.j.  5 H H H J H H H 6 . 1 R.J.' E E E E W d k k l N l z z l N N N N N N N N ",
"N N N N N N N N N N N N N N N N N j P W E E E R S.T.j.  O & & & & & & & +   1 R.S.' E E E E L l N N N N z z V z B z z z N N N N ",
"l l l l l l l l l l l l l k l k l g Y E E E E E S.T.j.                      1 R.J.' E E E E Q l l l l l l l l l z l z k l l l l ",
"i i i i d i i i i k i i i k i i Z S E E E E E E S.R.j.  x.W.C.F L L t.W.m.$ 1 R.J.' E E E E E S Z a i i i i i i d i k i i i k i ",
"e e e e e e e e e e e e e e e e R E E E E E E E S.T.z.- n.T.B.E E E y.R.M.1 x R.J.' E E E E E W F a e e e e e e e e e e e e e e ",
";.2.2.2.2.=.2.2.;.,.,.,.w N ,.2.R E E E E E E E S.R.L.M.P.R.B.R E E y.R.I.D.D.R.S.' E E E E E E W } 2.2.2.;.N e 2.,.2.,.,.;.,.2.",
"2.7.0.q.q.9.9.q.;.7.w.;.w B %.V D E E E E E E E S.R.R.R.R.R.B.E E E y.R.R.R.R.R.S.' E E E E E E W o.7.2.0.5.B w ;.$.V V 2.2.2.;.",
"2.9.a.a.a.a.q.q.7.q.7.2.w N #.n D E E E E E E E F F F F F F W W E W E F F F F F F E E W E E E W W o.9.5.q.5.N e 3.V N N 2.2.;.2.",
"2.e.s.a.a.a.9.5.d.w.2.2.w B %.N P I W E E E E E E E ! ~ ~ ~ ~ ~ ~ ~ ~ ~ ~ ~ ~ E E E E E E E E ~ _ O.w.s.2.2.B e 3.V N N 2.2.2.=.",
";.2.;.-.>.=.5.=.2.2.;.2.k %.;.;.h  .I W E E E E E E u.Z.Z.Z.Z.Z.Z.Z.Z.C.C.C.N.E E E E E E E W ....=.2.;.=.2.+.k 2.;.%.n ;.2.2.,.",
"2.2.;.2.2.>.=.5.,.2.3.;.k V ;.V %.X.T R R R R R R R l.R.R.R.R.R.R.R.R.R.R.R.U.R R R R R R R D =.=.5.2.2.2.>.V g ;.@.%.%.2.;.=.>.",
"=.;.2.2.2.2.2.2.2.,.2.3.k V %.V #.=.=.=.%.=.=.=.3.K.Y.R.R.R.R.R.R.R.R.R.R.R.R.K.g.#.=.=.-.=.#.2.2.2.=.2.>.=.%.k 3.%.$.%.2.2.2.>.",
"2.2.-.2.2.=.2.2.%.2.,.2.l V 2.2.n #.2.2.2.2.2.2.b.R.R.R.R.W.R.R.R.R.R.R.R.R.R.T.A.;.-.=.-.2.2.2.2.2.2.2.=.5.@.k 2.3.@.n ;.2.>.2.",
"2.2.>.2.2.2.2.2.>.2.2.2.k V %.N 2.2.2.2.2.2.2.2.A.R.R.R.R.R.R.R.R.R.R.R.R.R.R.R.G.p 0 0 y @.-.2.2.;.2.2.;.>.V k ,.V V ;.;.2.2.2.",
"2.2.#.5.;.2.2.2.>.;.2.,.u V 2.%.2.2.2.2.;.=.-.2.b.R.R.R.R.R.R.R.R.R.R.R.R.E.R.R.M.-     % N 2.2.;.2.-.2.2.>.V u 2.%.=.;.2.;.;.2.",
"N N B N N B n N N N N N e g B N N B N B N N 0 # # 2 n.E.R.R.R.R.R.R.R.R.M.c 3 3 , o       # # N n N B B N n g e N B N N B B N n ",
"w w w w r e w w e e e e w e w e w e w e e e ;       k.T.R.R.R.R.R.R.R.R.n.$                 o e w w e e e r e e e e e t e e e w ",
"k k k k k k k k k t u k k k k k k k k k k k <       x j.H.R.R.R.R.R.L.k.b o                 o k k k k k k k k k k k i e k k k k ",
"z z z z z z z z N u u m m m l N m m m m N l <           x.R.R.R.R.R.G.                        m N l N m N l l N l n d e m m l N ",
"N N N N N N N N N f f N N m N m m N N m N n k u %       1 v x.R.R.R.G.                  @ y p V V V B V n V B N V N g i N N N N ",
"N B N N N N N N N l l N k k k k k l m g N N N N >           C T.T.T.D.                  # B ,.,.2.3.2.3.N %.$.N 2.V N k N N N N ",
"N B B z N N N N N l l N l k k k N l k N N N B N e > > > > : M c.c.v.h.; : : : > > > > > y %.2.2.2.2.$.N ;.V V 2.N N N k N N N N ",
"B z z B N N N N N d d N l N l N N N N N N N N N t l N N N l N N l z N N l z N N N N N N B V V V V V V N V N N V N N g u N N N N ",
"z z z z z z z l z i u l N N N l l N l N N l z l e k l z m N m m z z N l N l N z z z l N m N z z l N z k m N l N N m f e l N N l ",
"k k k k k k k k k u u k k k k k k k k k k k k k e i k k k k k k k k k k k k k k k k k k k k k k k k k k k k k k k k i e k k k k ",
"t e e t e e e e e e e e e e e e w w w w w w w w e e w e e e w e e e e e e e t w e e e e e e e r e e y e u e w e w w e w e e e e ",
"B z B j N N B N B N g e N N N B V n N B N B B N N N n n B B B N N B N N w g n N B B B N B B B N N i u N N N N N N B B n N B N B ",
"3.2.2.2.%.,.%.2.%.3.N t 2.2.;.w.5.>.2.2.2.2.5.5.7.6.w.6.7.w.5.-.w.w.2.;.w n =.%.&.3.2.;.=.=.%.=.2.g g ;.7.;.5.7.w.w.5.7.w.w.5.2.",
"3.2.%.z N N V 2.n %.B w ,.3.7.d.i.w.2.;.2.2.w.a.s.a.d.a.i.i.q.2.s.7.,.,.e N %.N N %.2.2.=.@.N N 2.N m 2.d.w.w.i.i.i.i.i.i.i.9.2.",
"2.2.%.N N %.%.N 2.3.N w ;.;.7.s.i.5.2.2.2.2.5.a.a.a.a.a.i.7.5.i.2.e.q.2.w N #.N N %.2.;.=.V N N ;.N N 2.>.9.9.2.i.i.i.i.i.i.9.2.",
"2.2.=.%.%.=.=.%.2.-.V i 2.2.7.a.i.7.2.2.2.;.5.w.7.5.4.w.5.5.5.w.2.5.5.=.i V $.N N %.,.2.2.V N n 2.N m ;.>.5.5.,.5.7.7.w.5.7.5.2.",
"2.-.2.3.2.2.2.2.2.2.V g =.2.5.q.i.5.2.2.-.2.;.=.5.=.2.>.-.2.-.=.2.2.;.2.k @.;.V N %.2.2.2.V N @.,.m N -.>.>.-.2.2.-.;.2.=.2.=.2.",
"2.;.2.2.2.2.2.2.2.;.V k 2.;.2.2.s.w.2.2.2.2.;.2.=.5.2.=.2.2.2.;.>.2.;.3.k V ,.;.n %.2.=.2.V %.#.2.N N 2.2.=.3.2.2.2.2.-.2.2.2.2.",
"=.V V 2.N N N n 2.2.%.g ;.2.7.s.2.2.-.2.2.=.2.2.=.5.=.5.2.2.2.2.2.;.,.2.g V %.N 2.;.2.2.;.2.%.n ;.N N ,.-.;.%.n N N @.=.n #.2.2.",
"2.$.%.V %.B N N ;.2.B u 3.2.2.5.9.5.=.2.2.2.2.2.5.=.5.=.2.2.-.;.2.2.,.;.k @.2.#.V =.2.,.3.$.@.%.,.g f 2.2.;.%.n N +.@.V %.=.2.2.",
"2.2.#.V 2.$.V V ;.2.N w 2.2.2.;.9.5.=.2.2.2.=.2.=.5.=.-.2.=.=.;.-.;.2.2.i V 2.;.V #.=.2.2.@.%.2.>.f i ;.2.2.%.V V #.#.@.2.2.2.=.",
"2.#.2.2.2.2.=.;.2.,.B e ;.;.2.2.2.2.2.2.2.2.2.2.2.=.5.=.;.2.2.,.2.2.2.2.w N ,.,.2.2.-.2.;.-.>.2.>.f f ;.;.2.2.2.2.2.;.2.2.2.2.2."
};
