/* XPM */
static char *c3971dbf94c7462692fe9a01fa1bf9b6CFUQt7vopixW9ZdL[] = {
/* columns rows colors chars-per-pixel */
"64 64 165 2 ",
"   c #010000",
".  c #090403",
"X  c #0C0A08",
"o  c #1A0503",
"O  c #140C08",
"+  c #18110C",
"@  c #1E1C16",
"#  c #220604",
"$  c #3B0502",
"%  c #310906",
"&  c #20120D",
"*  c #281A15",
"=  c #311E1A",
"-  c #24211A",
";  c #37221B",
":  c #3A231C",
">  c #2C2922",
",  c #3F2725",
"<  c #393429",
"1  c #3E382C",
"2  c #741007",
"3  c #7F1107",
"4  c #6C1914",
"5  c #6A1E1B",
"6  c #761E1C",
"7  c #42261A",
"8  c #73241F",
"9  c #7D261C",
"0  c #442E26",
"q  c #4E2B26",
"w  c #4E2B28",
"e  c #502D24",
"r  c #5E2B27",
"t  c #532F2B",
"y  c #533027",
"u  c #5B3425",
"i  c #56302C",
"p  c #5E342E",
"a  c #463F32",
"s  c #692E27",
"d  c #662F28",
"f  c #732E26",
"g  c #7C2D23",
"h  c #62362D",
"j  c #63382D",
"k  c #693B2E",
"l  c #7A3227",
"z  c #753A2C",
"x  c #7D3C2C",
"c  c #663931",
"v  c #6B3D31",
"b  c #713F31",
"n  c #4A4234",
"m  c #4F4738",
"M  c #59503F",
"N  c #76432E",
"B  c #78442F",
"V  c #6F4031",
"C  c #754232",
"Z  c #7A4532",
"A  c #7E4833",
"S  c #685E4A",
"D  c #715741",
"F  c #6E634E",
"G  c #736753",
"H  c #800F06",
"J  c #8B0F03",
"K  c #940200",
"L  c #9C0500",
"P  c #970C04",
"I  c #9C0B06",
"U  c #811106",
"Y  c #8B1106",
"T  c #81180E",
"R  c #9E1205",
"E  c #9D1609",
"W  c #95190D",
"Q  c #9A1A0C",
"!  c #9F1F14",
"~  c #A40300",
"^  c #A60E01",
"/  c #A31103",
"(  c #A11306",
")  c #A01709",
"_  c #A71E0E",
"`  c #A71B10",
"'  c #872B1F",
"]  c #9B2011",
"[  c #882C22",
"{  c #8A3223",
"}  c #8C3B27",
"|  c #803829",
" . c #853E2B",
".. c #8B3B29",
"X. c #953221",
"o. c #933B26",
"O. c #AF3122",
"+. c #88442D",
"@. c #834631",
"#. c #804A33",
"$. c #824A33",
"%. c #854D33",
"&. c #834B34",
"*. c #844C34",
"=. c #854D35",
"-. c #864C35",
";. c #894E34",
":. c #904F30",
">. c #875036",
",. c #8D5133",
"<. c #8D5234",
"1. c #8D5136",
"2. c #8D5137",
"3. c #8C5236",
"4. c #8C5138",
"5. c #8E5A3E",
"6. c #925536",
"7. c #945636",
"8. c #975935",
"9. c #975936",
"0. c #9B5D36",
"q. c #9B5D37",
"w. c #9C5D35",
"e. c #9C5D37",
"r. c #945738",
"t. c #9B5D38",
"y. c #9E5D38",
"u. c #BD4632",
"i. c #B64936",
"p. c #A36337",
"a. c #A46336",
"s. c #A46337",
"d. c #A26339",
"f. c #A2623A",
"g. c #98674B",
"h. c #9B795F",
"j. c #A17453",
"k. c #A97D5B",
"l. c #C96A4D",
"z. c #C66B51",
"x. c #A8876A",
"c. c #AC9A77",
"v. c #BBA67E",
"b. c #CB9D75",
"n. c #D69770",
"m. c #D69870",
"M. c #CBB58B",
"N. c #D1BA8E",
"B. c #DEBE8C",
"V. c #CCB890",
"C. c #DCC393",
"Z. c #D6C199",
"A. c #EEC193",
"S. c #E6CC9A",
"D. c #F1C797",
"F. c #F3C997",
"G. c #F3CC9B",
"H. c #EED29D",
"J. c #F0D39D",
"K. c #E8D1A4",
"L. c #F4D6A0",
"P. c #F4D9A5",
"I. c #FCDFA7",
"U. c #F5D9A9",
"Y. c #FCE3B2",
/* pixels */
"w w w w w w w w w w w w w w w w w w w w w w w w w w w w w w w w t w t w w w w w w w w w w w w w w w w 0 w w i w w w w w w w w w ",
"p p p p p p p p p p h p p p p p q i p p p p h h p p p p p h i w p p p p p p p p p p p p p t t p p p p p p i p p p p p p p p p p ",
"v v v v v v v v v v v v v v v v w j v v v v v v v b v v v v p t c v v c v v c v v v v v v i i v v v v v v v v v c v v v v b v v ",
"Z C C C C C C C C Z C C C C C C w k C Z C C C C Z b C C C C c w C C C C D C C C C C C Z C p p C C Z C C C C C C C C D b b C x b ",
"C =.1.1.1.4.1.1.4.A A 4.C =.=.C c C C C C C C C C C Z C C C v c C v c v c c v b c C C C C v v C C C C C v b C v c v c c C C C C ",
"C =.1.1.1.1.1.1.A &.-.A =.=.Z C c b C C C Z C C C C C C C C b c C v c v c v b v v C C C C v v C C C b v b v v v c c c c C C C C ",
"C A =.=.=.-.-.=.C A A C >.Z C C p v C C C C C C C C C C C C b p C v v v b b b v C C C C Z c c Z C C C v C v C C b v v v C C C C ",
"C C C C C C C C C C C C C C C C w v C C C C Z C C C C C Z C c t C C C b C C b x C C C C C p i C C C C C C C C C C C C C C C C A ",
"c c c c c c c c c c c c c c k k q p k c c k c c k c k c c c p w c v c c c c c c k c k c c i i c c c c k c c c c c c c c c c c c ",
"i i i t i i i i i i i i i i t t q t t y t t y t i i i i i i i w i i i i i i i i i i i i i w w i i t t t i t i y i i i i i i i r ",
"k h j j j j p q j j j j j j j j j j k j k j j k j j j j j p j j w i c h j j j h h j h j j j h k j j k j k j j j c t t h j c h h ",
">.,.1.1.1.1.C q >.1.1.,.6.,.1.1.1.,.;.1.1.1.=.1.>.4.1.1.1.1.1.1.t Z 4.4.,.,.1.1.4.6.:.;.,.1.1.;.;.6.1.1.1.;.1.1.4.c p 4.4.1.4.1.",
"1.1.%.C C %.#.c 1.0.e.1.a.a.a.a.s.d.s.d.6.,.1.=.C C C C 1.A A 1.w C 6.;.a.s.0.1.;.6.1.6.d.a.d.s.s.s.s.d.1.0.0.1.>.j j 1.x C A 1.",
",.1.%.C C %.#.k 1.7.8.e.6.y.a.a.s.s.s.d.,.1.1.1.C C A =.@.#.=.1.w C 1.:.d.s.e.1.1.;.1.,.d.a.s.a.s.s.e.6.t.8.8.0.1.c j 1.C C A 1.",
"1.1.%.C C %.#.c 1.,.7.e.1.8.y.y.w.w.e.e.,.1.1.1.A @.#.1.Z =.;.6.i Z ;.6.s.s.e.1.1.1.1.,.e.e.0.e.e.e.8.,.e.7.7.e.1.k k 1.C C A =.",
"1.1.%.C N =.#.k =.3.,.1.1.;.6.;.1.1.1.1.,.1.,.1.1.6.;.;.+. .+.+.s x  . .e.d.y.1.1.1.1.,.;.6.;.6.1.,.1.1.1.1.1.4.;.C C ;.B C A 1.",
",.1.%.N 1.1.#.c 1.1.1.;.1.,.,.1.1.,.1.1.,.,.1.1.1.1.1.+.] / / ( R / / Q } 0.e.1.1.1.1.,.1.,.,.1.1.,.1.1.1.1.1.1.:.C C 1.4.A A 1.",
",.1.;.=.A =.#.c 1.1.1.>.A #.A A 1.#.#.1.1.1.;.A 1.A B | ) / ^ ^ ^ ^ / R o.:.,.1.,.,.1.1.1.1.1.1.1.1.1.,.;.6.1.1.1.C C 1.Z *.=.1.",
"1.1.1.=.A 1.@.p 1.1.1.1.N C Z A %.*.&.,.1.,.%.A =.A L ~ / ^ ^ ^ ^ ^ ^ ^ ~ L =.6.1.1.,.1.,.1.1.,.1.1.1.,.4.4.6.;.;.C C 4.A %.=.1.",
"1.,.=.N 1.1.C w 1.1.1.1.B C A 1.N =.1.1.1.1.,.;.z x ^ ^ ^ ^ ^ ^ ^ ^ / ^ ^ ^ +.@.%.1.1.1.,.1.1.1.,.,.1.1.;.:.;.2.1.C b 1.,.A A 1.",
"3.,.3.1.1.,.C q :.1.1.;.4.4.4.4.1.;.6.;.,.1.,.} ] ) / ^ ^ ^ ^ ^ ^ ^ ^ ^ / ^ ) Q } ,.1.1.1.1.,.>.1.1.7.;.6.;.;.7.6.j j >.1.1.1.1.",
"j j j k j j i w j h c j j h h c j j j j j j p 8 / ^ ^ ^ ^ ^ ^ ^ ^ ^ ^ ^ ^ ^ ^ / 8 j j j p c j j j j j j j j j j j t t j j j j j ",
"i i i i i i i i i i i i i i i i i i i i y r K ~ / ^ ^ ^ ^ ^ ^ ^ ^ ^ ^ ^ / ^ ^ ^ ~ L r y i i i t y i i i t i i i t i i i t i i i ",
"k j c c c c c c c c c c c c c v c c c j j d 3 3 U Y ^ ^ ^ ^ ^ ^ ^ ^ ^ ^ ^ ^ Y U 3 U d j c c c c j c c c k c v c k c k c j c k c ",
"C C C C C b C C C C C C C C C C C Z b g Q T o o o o / / ^ ^ / ^ ^ ^ ^ ^ ^ / $ o o o 4 W g C C C D C C C C b Z b C Z C C C C C C ",
"C C C v v v v v v b C v C C C C C C b [ ^ Y . . X X R / ^ ^ ^ ^ ^ ^ / / / R % X . . 2 / [ v c C c v v v C b b C Z v C C C C C Z ",
"C C v c c c c c v v b v b C C Z C l K L ^ ^ ) i.G.U.  # J ^ ^ ^ ^ ^ ^ R $   V.U.z./ ~ ^ L K f c c c c v b v b b Z C C C C Z C C ",
"Z C b c v c c v C v v C c b C C C l ~ ^ ^ ^ ^ u.G.P.  o 2 Y Y Y W Y Y U % . N.J.l.^ ^ ^ ^ ~ f c c c v C c C b c b Z C C D C C C ",
"C C C C C C b b C C C C C C b C C l ~ / ^ ^ ^ u.D.P.  . o # # # # # # o .   M.L.l.^ ^ ^ / ~ x b b b x b b b b b b b b b x b x b ",
"v v v v v v v v v v v v v v v v v l ^ ^ ^ ^ ^ u.G.P.                        M.L.l.^ ^ ^ / ~ l v v b v b b v b b b b b v v v v b ",
"p h p p p p h p p p p p p p p 5 K L / ^ ^ ^ ^ u.D.P.  1 Z.Y.! E E P G.K.M   M.L.l.^ ^ ^ ^ ^ ~ K 6 p c p p p p p c p p p p p c p ",
"w w w w w w w w t w w w w w w 5 / ^ ^ ^ ^ ^ ^ u.D.P.@ m C.I._ ^ / ~ G.H.F * N.L.l.^ ^ ^ ^ ^ / / 6 w w w w w w w w w w w w w w w ",
"1.1.1.1.1.1.1.1.3.4.3.4.q C 1.' ^ ^ ^ ^ ^ ^ ^ u.F.U.v.M.P.I._ ^ / ^ F.P.N.v.J.J.l.^ ^ ^ ^ ^ ^ ^ X.1.1.1.;.1.Z q 1.1.1.1.1.>.1.=.",
"1.8.0.0.t.0.e.w.1.8.8.4.q Z =.' ^ ^ ^ ^ ^ ^ ^ u.F.I.I.I.I.I._ ^ ^ ~ F.I.I.I.I.L.l.^ ^ ^ ^ ^ ^ ^ X.e.8.1.e.7.C q 4.=.A A 1.1.1.1.",
"1.t.a.a.s.s.a.8.8.8.8.4.q N %.9 ^ ^ ^ ^ ^ ^ ^ ^ I I I I I I ^ ^ / ^ I I I I ^ I ^ ^ ^ ^ ^ ^ ^ / X.y.8.8.y.7.C w 1.A C N 1.,.1.1.",
"1.t.a.a.p.p.0.1.d.6.1.1.e Z %.g ! _ ^ ^ ^ ^ ^ ^ ^ ^ _ _ _ _ _ _ _ _ _ _ ` _ / ^ ^ ^ ^ ^ ^ ^ ) ` o.6.r.d.;.6.C w 1.A C C 1.1.1.1.",
"1.,.,.,.,.6.1.1.1.1.1.1.c A 1.%.x { ^ ^ ^ ^ ^ ^ ^ / m.m.m.m.m.m.n.n.m.m.m.m.O./ ^ ^ ^ ^ ^ / { +.=.6.,.6.;.1.A c 1.4.=.B 1.7.1.1.",
"1.1.1.1.,.1.,.1.1.1.1.1.k A >.A >.} ~ L ~ ~ ~ ~ ~ ~ I.I.I.I.I.I.I.I.I.I.I.I.u.~ ~ ~ ~ ~ ~ ~ ..1.6.;.1.1.1.,.#.k 1.*.#.=.1.1.,.1.",
"1.1.1.,.,.1.1.1.1.1.1.1.v A =.A %.%.#.;.;.;.=.=.g.A.I.I.I.I.I.I.I.I.I.I.I.I.D.b.=.;.;.;.=.;.,.1.;.1.,.,.1.1.#.c 1.=.A %.1.,.1.1.",
",.,.1.1.1.1.,.1.1.1.1.1.v A 1.1.C %.,.1.-.1.1.5.B.I.I.I.I.I.I.I.I.I.I.I.I.I.I.H.j.6.;.,.1.1.,.1.1.1.1.1.,.1.=.c 4.4.%.N 1.1.1.,.",
"1.1.,.1.1.1.,.1.3.1.1.3.c A =.Z 1.1.,.N 7 7 7 A S.I.I.I.I.I.I.I.I.I.I.I.I.I.I.J.k.,.1.1.1.,.1.1.1.1.1.,.1.1.&.c 1.A A 3.3.3.,.3.",
"1.,.1.1.,.1.,.1.3.1.,.3.y A =.%.,.1.,.u .     n S.I.I.I.I.I.I.I.I.I.I.I.I.I.I.H.k.,.1.,.1.1.1.,.,.,.1.1.1.;.A y 1.=.,.>.3.,.,.3.",
"Z Z C Z Z Z Z C C Z Z C q k Z Z Z p & O       + < 1 1 S C.I.I.I.I.I.Y.I.I.I.G < * O j B Z C C C C Z Z Z C Z k w C C C Z Z Z C N ",
"q q q w q w q q w w w q w w w w q ;         .         < N.P.I.I.I.I.I.I.I.P.a       0 q w w w w q q w w q q w w w i q w q w w q ",
"c c c c c c c c c i i c c c c c j q                   @ G G P.I.I.I.I.L.c.G -       t c c c c c c c c c c c c c c c p q c c c c ",
"b b b b C v b b V p i V v C V v C q                     .   L.I.I.I.I.S.M X         y C V V V C b b C V v C C v C v k w v C C v ",
"b C C C C C C C C p p C C v V V C j e = X                   L.I.I.I.F m @     . : y V N A A A A A A Z A C A Z C Z Z k i C C C C ",
"C Z C Z C C C C C v V C c c c c c N C : .         .   .     S.P.P.L.>         X w C C C 4.1.4.1.1.4.4.4.N =.*.C 4.A C c C C C C ",
"C C C C C C C C Z v v C v c c c C v v p ; ; : : = ; ; ; ; * h.x.x.h.0 = = = = : p C C C 1.1.1.1.1.1.=.C 4.A A 4.C C C c C C C C ",
"C C C C Z C C C C h h C b C C v C C v C C C C C i v C C C C C C v b C V v C C C C C C C A A A A A A Z C A C Z A C C k i C C C C ",
"b b b b C v v C b i i b b v v C v C b C C v b v q k b b v C V V C v v C C v C v C v v C v C b b v C C k V V V V C V j w b V b b ",
"c c c c c c c c c t i c c c c c c c c c c c c c w p c c c c c v c c c c c c c c c c c c c c c c c c c c c c c c c c p q c c c c ",
"t w w w w w w w t w w w w w w w q w w q w q w w w w q q w w q q w w w w w w w q w w q w e w q w w w q q q q q q w w w q w w w w ",
"Z b Z Z C C Z C C C k w C Z C Z Z Z C Z Z Z C C C C Z N Z C C C C Z C Z q k Z C Z C Z Z C A Z Z C p p C Z C Z N Z Z B B C Z Z C ",
"4.1.1.4.=.=.;.1.%.1.A w 4.1.r.6.8.>.,.1.1.1.1.8.6.r.r.7.8.7.7.,.6.7.4.4.q B 1.%.=.-.1.1.1.=.;.=.1.k k 1.8.1.7.r.r.r.6.6.r.r.6.1.",
"1.1.=.b C C @.1.N -.C w 4.1.8.d.p.8.1.1.,.1.7.s.a.d.s.a.p.p.0.1.d.8.4.4.w Z #.C Z =.1.,.;.A C C >.C C >.d.r.8.d.s.s.a.a.a.a.t.1.",
"1.,.=.C C =.=.C >.1.C q 1.1.8.s.d.6.1.,.1.1.6.p.s.s.s.s.p.8.8.d.1.e.0.>.t Z #.C C =.1.1.1.A C N >.V C 1.,.w.e.3.p.s.p.p.p.a.0.1.",
"1.1.1.%.=.1.;.%.1.1.A p 1.1.8.s.s.r.1.1.1.1.8.8.8.7.7.6.8.1.1.8.1.7.7.1.p Z =.C C =.1.1.,.A C N 1.C C ,.1.6.8.1.7.7.8.8.6.8.6.1.",
",.1.1.,.1.1.1.1.1.1.A c >.1.6.0.p.8.1.1.,.,.1.1.;.6.1.,.1.1.,.1.1.,.1.1.c A ;.A C =.,.1.1.A Z A 3.N C >.1.,.1.1.,.3.<.1.1.,.1.1.",
",.1.1.1.1.1.1.>.,.1.#.k 3.1.,.,.d.7.1.1.1.1.1.,.6.;.1.,.1.1.1.1.1.1.1.1.k A 3.1.N =.1.1.1.A A 1.3.C C ,.1.1.1.1.1.3.1.,.1.1.1.,.",
"3.A A ,.C C N C 1.,.#.c 3.1.8.a.,.1.6.1.1.,.,.1.;.1.1.1.1.1.,.,.1.1.1.1.c #.%.C 1.1.1.,.1.>.%.N 3.C V 3.1.1.%.N C C A ,.N %.1.1.",
"1.%.*.A *.Z C Z 1.1.A i 4.3.1.7.0.6.;.:.1.1.1.1.6.;.,.1.,.1.1.1.1.1.1.1.k A ;.#.#.=.,.1.3.*.*.%.3.k k 3.,.1.%.C C #.#.A =.;.1.,.",
"1.1.%.A 1.*.A @.1.;.Z q 1.,.1.,.e.6.6.1.,.1.1.,.1.,.1.1.,.1.1.1.1.,.1.1.p A 6.3.A ;.1.1.;.#.%.1.<.p p 1.,.1.%.A @.%.;.#.1.,.1.,.",
",.,.1.1.1.1.1.,.1.1.Z w 4.1.1.1.;.6.;.1.,.1.1.,.1.1.1.,.1.1.,.,.1.1.1.1.q C 1.1.1.3.,.,.1.1.,.1.,.j j 1.1.1.1.1.1.1.1.1.1.1.1.1."
};
