/* XPM */
static char *_7ac3265001b4f2093d82e6026fa2f51E8y13sXRf8MJiUR1[] = {
/* columns rows colors chars-per-pixel */
"32 32 36 1 ",
"  c #6F9637",
". c #6D933B",
"X c #73953C",
"o c #7A963D",
"O c #759A3D",
"+ c #7B9C3E",
"@ c #77A23F",
"# c #7CA13E",
"$ c #7BA93F",
"% c #788E40",
"& c #6D9541",
"* c #759541",
"= c #7B9641",
"- c #769A41",
"; c #7C9C41",
": c #77A142",
"> c #7DA242",
", c #7EAA43",
"< c #819F3F",
"1 c #81A23F",
"2 c #868E44",
"3 c #819543",
"4 c #829D42",
"5 c #899F43",
"6 c #83A342",
"7 c #8AA544",
"8 c #84A944",
"9 c #8BA945",
"0 c #80A248",
"q c #8BA649",
"w c #84AA49",
"e c #92A646",
"r c #91AA47",
"t c #94A649",
"y c #92AD49",
"u c #91B047",
/* pixels */
"443y6614114o;44;;->;==;;;;7;##O#",
"44or<++4o474;+;;;4w>,**;;36>68>O",
"66#++oo344664-O-;>;;:&&:;40;>886",
"=+>6#42o;4686*-;;--*--&:->0;>;6<",
";O66><2o6>O6;*-;;>:=*--:--:>;q66",
">.OoooO->+;;>---*;>www,:;:>>>0;;",
">X#6XX#OoOo;8>-*;:;ww>-=0>>;#O-*",
"44o61o+;>>O=4,>>::*0w504,>:OOO;;",
"4q56<<o4+*.O=>68>#>O4q>6,@>@->>+",
"6;5o.t5o+4X+>,#>@>>>45#8,$>OO,OO",
"6;4oXteo684868@O>886o768#$X.*#+-",
";;44X41<67>;>$$>>888>96o04>#OO#O",
"+o o;6764716#O>#,896#89#4706>;;;",
"<++OO476+##8#X+6>+78>#814676>8;o",
"o1+XXX691O#97+O>+118<o6ry>6e974o",
"41#+;++8#1178++##161<047981777q7",
"o1+#6o46+671@ o,>;=3r74711<3o143",
"<+oXXo4;<46#8>O+o635u+166164<+64",
"0<<1+X%46716681+>6=68++>o6554oo+",
";+O6#XO#<1+#4847466++O>6944o;4oO",
";;-;#O+-;#6;46774o+71$O66;>-;4;;",
";>*=Xo>>+443q76;6;O>6#OO08>>4;*:",
"->0XOO;;OO+4>>*O0;.$;OO:o68>>->-",
":--;-*.XXXO#OXO*;;X#66#6667>#;>-",
";;=*.. XXXOo1OO=;56o<11q9;66;;>6",
"#>;OO.X OOO+>OOO4464<18<>+o<*;>;",
">>8>1X..X ++;-.-6q4444698+++O:$O",
"8>6#6#.   +#X-;4;;6+>o#1XXX.X-#@",
"686+81+#oO##ooo ;+6+X +16;*6;O-:",
",78$$61+6XO 6<oo;6++###+<66q6.O>",
"#18>#17<6+16>4oXo<o#XX+64++18;O+",
"1161oory9o7976<ooo1OOX+171+696+X"
};
