/* XPM */
static char *_bec22ccc5cd415fb45e0d2ba7c91a17SN75aHtT4XgIqX9u[] = {
/* columns rows colors chars-per-pixel */
"64 64 183 2 ",
"   c #000000",
".  c #0A0403",
"X  c #0B0906",
"o  c #180E06",
"O  c #160C08",
"+  c #1F1708",
"@  c #210E0D",
"#  c #23160E",
"$  c #261110",
"%  c #271B1A",
"&  c #3A1A19",
"*  c #332A17",
"=  c #252322",
"-  c #2C2624",
";  c #353535",
":  c #4E0101",
">  c #4D0A09",
",  c #510304",
"<  c #520806",
"1  c #550E0A",
"2  c #5B080D",
"3  c #5A110C",
"4  c #490916",
"5  c #5D0710",
"6  c #441E1C",
"7  c #581511",
"8  c #640B14",
"9  c #680B15",
"0  c #720E1A",
"q  c #621711",
"w  c #75111D",
"e  c #7F1823",
"r  c #4E2B27",
"t  c #4E2B28",
"y  c #552925",
"u  c #542F2B",
"i  c #56302C",
"p  c #5E342F",
"a  c #6C3426",
"s  c #61362D",
"d  c #63382D",
"f  c #693B2E",
"g  c #7B3C29",
"h  c #663931",
"j  c #6B3D31",
"k  c #713F31",
"l  c #684412",
"z  c #784C14",
"x  c #7F501B",
"c  c #74422D",
"v  c #78422E",
"b  c #6F4031",
"n  c #754232",
"m  c #7A4532",
"M  c #7E4833",
"N  c #172366",
"B  c #2B2669",
"V  c #35326F",
"C  c #3A396B",
"Z  c #272B75",
"A  c #2C317A",
"S  c #3A3B74",
"D  c #4A3A5A",
"F  c #423B68",
"G  c #3F4472",
"H  c #4E4C4B",
"J  c #794E47",
"K  c #845415",
"L  c #895616",
"P  c #885817",
"I  c #855519",
"U  c #89561C",
"Y  c #88581B",
"T  c #8D5021",
"R  c #8D5527",
"E  c #995B23",
"W  c #9A5B28",
"Q  c #834B37",
"!  c #844C34",
"~  c #894E35",
"^  c #8D5135",
"/  c #8C5238",
"(  c #8E583F",
")  c #945636",
"_  c #975936",
"`  c #9C5D36",
"'  c #93583B",
"]  c #9C5D38",
"[  c #8F6532",
"{  c #926834",
"}  c #A36337",
"|  c #A26239",
" . c #881D47",
".. c #951D47",
"X. c #9A2349",
"o. c #942051",
"O. c #B4294E",
"+. c #A62556",
"@. c #AD255E",
"#. c #AF2760",
"$. c #B02760",
"%. c #BB2A62",
"&. c #B23668",
"*. c #D03156",
"=. c #E23863",
"-. c #E6396B",
";. c #EC3C6D",
":. c #F33E6D",
">. c #F83F6F",
",. c #BD544E",
"<. c #C35650",
"1. c #D45F58",
"2. c #D5664E",
"3. c #D96359",
"4. c #E3665E",
"5. c #E56A5C",
"6. c #F54D67",
"7. c #F94070",
"8. c #F6567F",
"9. c #EF6B63",
"0. c #F46E66",
"q. c #F96E66",
"w. c #F96C69",
"e. c #F87067",
"r. c #F97068",
"t. c #EF7A72",
"y. c #F77B74",
"u. c #D28738",
"i. c #E18B3E",
"p. c #A98657",
"a. c #B29C51",
"s. c #CFA556",
"d. c #E8CB69",
"f. c #F6D76F",
"g. c #F9DA71",
"h. c #1D2C85",
"j. c #1F2F88",
"k. c #1F3088",
"l. c #212E84",
"z. c #253482",
"x. c #203388",
"c. c #27428B",
"v. c #39608A",
"b. c #356792",
"n. c #376A93",
"m. c #386D93",
"M. c #3B7395",
"N. c #3E7D97",
"B. c #418199",
"V. c #44899F",
"C. c #72E3E8",
"Z. c #7CF4F6",
"A. c gray70",
"S. c #D2AA93",
"D. c #E7AF9A",
"F. c #D5B5A7",
"G. c #E5BDA6",
"H. c #F5BEB0",
"J. c #F9BEB2",
"K. c #D5C6B4",
"L. c #D9CBBE",
"P. c #EFC7B9",
"I. c #F8C8B8",
"U. c #F9D1BF",
"Y. c #80FEFE",
"T. c #D6C3C7",
"R. c #E8C1CD",
"E. c #EFD5CA",
"W. c #F6D5C5",
"Q. c #F9D3C1",
"!. c #F6D9CA",
"~. c #E4DDD3",
"^. c #E4DDDB",
"/. c #E7E2DC",
"(. c #EAE4DC",
"). c #F4E5DC",
"_. c gray90",
"`. c #EEEDEC",
"'. c #F3EBE8",
"]. c #F4F1ED",
"[. c #F5F5F4",
"{. c #F9F5F4",
"}. c #FAFAFA",
/* pixels */
"t t t t t t t t t t t t t t t t t t t t t t t t t t t t t t t t t t t t t t t t t t t t t t t t t t t t t t t t t t t t t t t t ",
"p p p p p s p p p p s s p p p p r i s p p p p s p p p p p p p t p p p p p p p p p p p p p u u p p p p p p p p p p p p p p p p p ",
"j j j j j j j j j j j j j j j j r d j j j j j k k j j j j j s t h j j j j j j j b j j j j i i b j j b h j j j j j h j j j k h j ",
"n n n n n n n n n n n n n n n n r f n n n n n n k m n k n n j t n n n n n n n n n n n m n i p n n n n n n n n n n n J k n n n n ",
"m ! / ~ / ^ / / ^ m m ^ n Q ! n h k n n n n n n n n J k k k j h n j h h h h j n h b n n n j j n n n n n h b n h h h h h n n n n ",
"n ! ) / ~ ) ^ ^ M ! ! M ~ Q M n h k n n n n m n n n m m k Q k h n j h h h j b j b n n n n j j n n n n j n j j b h h h h n n n n ",
"n M ! ! ! ~ ! Q n M Q n Q m n n p j n n n m n n m n m k k g < , < < > , , > 1 7 n n n n n h f n n n n j n b j n k k k k J k n m ",
"n n n n n n n n n n n n n n n n u j n n n n n n k m k m k Q , , : , , , , , , 7 n n n n n p p n n n n n n n n n k g k k k m k m ",
"f h h h h h h h h j f h h h f h r p f f h h f f h s 1 1 1 1 *.*.*.*.s.s.*.*.*.X.1 7 f f f i i h h h f f h h h h j h h h h h f h ",
"i i i i i i i i i i i i i u i u t y u u i i i i y y 9 9 9 9 ;.;.6.6.g.g.8.8.7.O., < i i i t t i i u u i i i i i i i u u i i i i ",
"d d d d d p p r d d d d d d d d d d d h d d d y : 9 :.;.:.:.$.$.i.i.g.g.'.R.&...: < p d d p d f d d d d f s d d s u u f d d d d ",
"^ ^ ^ ^ ^ ^ n r ^ ^ ^ ^ ^ ^ ^ ^ ^ ^ ^ ^ ^ ^ ~ g 2 0 >.:.:.:.+.+.u.u.d.d.'.T.&. .: 1 ! ! ^ ^ ^ ^ ~ ) ^ ^ ^ ^ ^ ^ / s h ~ ^ ~ ) ~ ",
"^ ^ ! n v ! ! h ^ _ ` ^ } } } } } } } } ^ ^ 1 0 ;.;.@.$.#.#.                            | } } } } } } | ^ ] ` ^ / h d ^ v n ! ~ ",
"^ ^ ! n n ! M f ^ ) _ ` ) ` } } } } } } ^ ^ 1 w ;.;.#.$.$.$.                          . | } } } } } ` ) ] _ _ _ ^ s d ^ n n M ~ ",
"^ ) ! n n ! M f ^ ^ ) ` ^ _ ` ` ` ` ` ` , , =.-.$.o.                                        ] ` ` ` _ ) ` ) ) ` ^ f f / n n M ~ ",
"^ ^ ! n c ! ! h ^ ^ ^ ^ ^ ~ ) ^ ^ ^ ^ ^ , , =.-.$.o.                                        ^ ^ ~ ) ~ ~ ^ ^ ^ ^ ~ n n ~ v k ! ^ ",
"^ ^ ! c ^ ^ ! f ^ ^ ^ ^ ^ ^ ~ ^ ^ ^ : : @.@.$. ..                                           ^ ^ ) ) ~ ^ ~ ~ ) ^ ^ k n ~ / M m ~ ",
"^ ^ ^ ! Q ! M h / ^ ~ ^ M ! M M ^ ! : : @.@.#. ..                                           ^ ^ ~ ~ ^ ^ ) ~ ~ ^ ^ n k ) ! ! ~ ^ ",
"^ ^ ^ ! M ~ M p ^ ^ ^ ^ k n n M ! Q : : #.#.$. ..       r.q.}.}.}.}.r.w.].}.}.A.      . ^ ^ ^ ^ ^ ^ ^ ^ ~ ) ~ ) ^ n n / M ! ~ ^ ",
"^ ^ ! c ^ ^ n t ^ ^ ^ ~ v v ! ^ v ~ : : @.#.#. ..     . r.r.}.`.[.}.r.q.[.}.[.A.        ^ ^ ^ ^ ^ ^ ^ ^ ~ ) ~ ^ ^ k n ~ ^ M M ^ ",
"^ ^ ^ ^ ^ ^ n r ^ ^ ^ ^ / / / / / ^ 0.0.I.E.=     $ q.q.r.r.}.}..   Q.W.X ; _.T.^ ^ ~ ^ ^ ^ ^ ^ ^ ^ ^ ^ ^ ^ ~ ~ ^ s f ~ ^ ^ ^ ^ ",
"d d d d d d p t d d d d d s s h d d r.0.Q.E.=     $ r.r.e.0.[.].    Q.!.. ; _.T.s d d d d d d d d d d s d d a h d u u f s d d d ",
"i i u i i i i i i i i i i i i i 4.4.E E U.E.=     $ r.e.I.I.`.}.    Q.!.X ; _.).D.S.x x i i i i i u i i i i i i u i u u u u i i ",
"f h h h h h h f h h h h h h h h r.q.I I H.P.%     @ 3.3.U.U.'.].@ @ I.I.- H (.).U.K.P I h h h h f f h h h h h h h h f h h h f h ",
"n n n n n n n n n n n n n n n n r.r.P P y.t.@       $ % U.Q.!.U.1.1.y.y.F.G.E.!.U.G.P P n n n n n k n k n n k m n n n n n n n m ",
"n n n j j j j j j k n j n n n n 4.4.E E 0.0.6 o   X - - U.U.F.F.5.5.r.q.J.J.J.J.J.D.P P n j j j k j k j J k k k n n n n n n m n ",
"m n j h h h h h j j k j j n n n n n 0.0.0.q.0.,.. % W.W.Q.Q.  . P P q.q.w.w.w.w.w.4.Y I n j h h h h h j k h k k n n n n n m n n ",
"n n j h h h h h n j j n j n n n n n 9.9.9.0.0.<.O - U.U.P.P.    K K 9.9.9.9.9.0.0.3.K I n f h f h j k k h k k j n n n m n n n m ",
"n n n n n n n n n n n n n n n n n n       . 3.0.w.r.r.0.                                    n k k n n n k m m k k m k k n m k m ",
"j j j j j j j j j j j j j j j j j b       . 3.r.r.r.r.0.                                    k h j j j j h h j j k j k j j j j j ",
"p p p p p p p p p p s p p s p p p p p p       & 9.r.r.r.Q.Q.Q.Q.                        p p p p p p s p p p p p h p p p p p p p ",
"u t t t t t t t t t t t t t t t t t t u       & 9.q.r.r.Q.Q.Q.Q.                        t u t u t t t t t t t t t t t t t t t u ",
"/ / ^ ^ ^ ^ ^ ^ ^ / ^ / r m / ^ ^ ^ ^ ^ ^ ^ O o I E r.r.r.r.r.r.r.r.q.r.r.r.r.2.I P ~ ^ / ^ ^ ^ ^ ^ ^ ^ ~ ^ n t / ^ ^ ^ ^ ^ ^ ^ ",
"^ _ ` ` ] ` _ ` ^ _ _ / r m ~ M M ~ ^ ^ ^ ^ O + K E r.r.r.r.r.r.q.r.q.0.r.r.r.2.P I ^ ^ ] ] ` ` ] ` _ ^ ` ) m r ^ Q M M / ^ ^ ^ ",
"^ ` } } } } } ` ' ` _ / r c ! c n ! ^ ^ ^ ^ ^ g < 2 $.$.$.$.: : : : P P L L P R ) ^ ^ ^ | } } } } ] ] ) _ ) n t ^ M n n / ^ ^ ^ ",
"^ ` } } } } ` ^ } ' / ^ r m ! m m ! ^ ^ ^ ^ ! a < 2 $.@.$.$.: : : : K K K K K Y ^ ' ^ ^ | } } } } ) ) | ) ^ n y ^ M n n ^ ^ ^ ^ ",
"^ ) ~ ) ^ ^ ^ ^ ^ ^ ^ ^ h M / / n ! ^ ^ ^ ^ 3 w -.:.:.:., , @.@.I I ].`.{.].`.K.P Y ~ ^ ~ ) ^ ^ ) ~ ~ ) ~ ~ m h ^ ^ ! v / ^ ^ ^ ",
"^ ^ ^ ~ ^ ^ ^ ^ ^ ^ ^ ^ f M ~ M ! ^ ^ ^ ~ ^ q e :.7.7.:.5 8 +.@.[ { }.}.].[.[.K.[ { ) / ~ ^ ^ ^ ^ ^ ) ~ ~ ) Q f / ! ! ! ^ ^ ^ ^ ",
") ~ ^ ^ ^ ^ ^ ^ ^ ^ ^ ^ h M ^ M ! ^ ^ ^ 3 3 X.O.:.7.7.7.=.-.T T /./.}.}.[.[.}.].^.L.U Y ) ~ ^ ^ ^ ~ ) ~ ^ ^ ! h ^ ! Q ! ^ ^ ^ ^ ",
"~ ^ ^ ^ ^ ^ ^ ^ ^ ^ ^ / h M ^ ^ v ! ^ ^ , , +.%.-.-.7.7.7.>.P P }.[.[.}.[.[.}.[.[.~.P P ~ ) ^ ^ ^ ^ ~ ) ^ ^ ! d / / ! c ^ ^ ^ ^ ",
"^ ) ^ ^ ^ ^ ^ ^ ^ ^ ^ / h M ! n ^ ^ ^ ^ : < +.@.#.%.:.>.>.>.P P ].}.[.[.[.}.}.[.[.~.I I ^ ^ ^ ^ ^ ^ ^ ^ ^ ^ ! h ^ M m ^ ^ ^ ^ ^ ",
"~ ~ ^ ^ ^ ^ ^ ^ ^ ^ ^ / i m ^ ! ^ ^ ^ ^ 4 4 ..+.#.%.:.;.7.7.T T (./.`.[.[.}.}.].~.L.Y Y ^ ^ ^ ^ ^ ^ ^ ^ ^ ^ n i / ! ~ ^ ^ ^ ^ ^ ",
"v m m n m m m n m m n n r f m m m m n m l.l.4 9 @.#.$.$.7.7.$.$.P P }.}.[.[.[.K.I I v m m m n m v m m m v m f t n m m m m m m m ",
"r r r y r t t r t t t t r r t t r r r t l.h.4 8 @.#.$.$.>.>.#.#.P I }.}.[.].[.K.P I t r t t t t r t t t r t t t t t t t r t t t ",
"h h h j h h h h h u i h h h h h h h h h l.j.j.B : 5 #.#.#.#.: : : : P P P P P p.}.^.h h h h h h h h h h h h h h h h p r h h h h ",
"k k k k k k k k n i i b b j n j j n j k l.j.h.B : 5 $.$.#.#.: : : : I P P P P p.}.^.j n b n j n j n j b b n b b b n d t b b b b ",
"k n n n n n n n n d d n n j n b n n n k l.j.M.n.h.Z : : , : , : Y.Y.Y.Y.Y.C.V.n.h.A n n m M M M M M M M n M m n m m f i n n n n ",
"n n n n n n n n n j j n h h h h h j b f l.j.M.n.l.Z : : , : : : Y.Y.Y.Y.Y.C.V.n.h.A n n / ^ ^ ^ / ^ / / n ! ! n / M n h n n n n ",
"n n n m n n n n n j j n j h h h n j j n l.k.M.B.B.B.B.B.Y.Y.Z.Y.Y.Y.Y.Y.Z.C.V.n.j.A n n / ^ ^ / ^ ^ ! n / M M / n n n h n n n n ",
"n n n n n n n n n h s n k n n j n n b n h.h.M.N.N.B.B.B.Y.Y.Y.Y.Y.Y.Y.Z.Y.C.V.n.h.A n n M M M m M M M n M n n M n n f i n n n n ",
"k k k k k k j n k p i j b j j n b k j n k k A c.N.B.B.B.B.B.Y.Z.Y.Y.j.j.B.m.x.C j k j n b k b n j n k c j n n j k n d t k j j n ",
"h h h h h h h h h i u h h h h h h h h h h h A c.N.B.N.B.B.B.Z.Z.Z.Z.j.j.N.M.x.V h h h h h h h h h s h h h h h h h h p r h h h h ",
"u t u t t t t t t t t t t u t t y t t t t t A c.N.B.B.B.B.N.V.V.V.V.h.x.N.m.k.B t y t t r r t r t t r r r r y t r r t t t t t t ",
"m k m k m n m m m m f r n n m n n n n m n n D G b.n.m.m.m.n.m.m.n.n.j.j.b.v.G D n n n m n m m m n p p n m n m n n m m c m n m m ",
"/ ^ / ~ ~ ~ ~ / ! ~ m r / ) / _ _ ) ^ ^ ^ ^ / J z.l.x.x.l.k.k.x.x.x.j.j.k.S / ! ! ^ ^ ^ ^ ~ ! ! ^ f h ^ ' ) ) _ _ ' ) ) ) ' ) ^ ",
"^ ^ ~ k g n n / n ! n t / / ) } } ) ^ ^ ^ ^ _ ( F C C C C C C C C C N N C D d d n ! ^ ^ ^ M m n / n n ^ { _ ) ` } } } } } } ] ^ ",
"^ ^ ! n n ! ! n ^ ^ n r ^ ^ _ } } _ ^ ^ ^ ^ ' W P P P P P P P P P P     I l . + n ! ^ ^ ^ M n m ^ n n ^ ^ ` ` ) } } } } } } ` ) ",
") ^ ~ ! ! ^ ~ ! ^ ^ M p ^ ^ ' } } ) ^ ^ ^ ^ ^ R z z P P P P P P P P # + z l # * f n ^ ^ ^ M n c / c b ^ ^ ^ ) ^ ) _ _ ' ) ) ) ~ ",
"~ ^ ^ ^ ^ ^ ^ ^ ^ ^ Q h ^ ^ ) ` } ) ^ ^ ^ ) ~ g X o P P P P P I P P f.f.. * d.a.  o ^ ^ ^ M n M ^ b n ^ ^ ^ ^ ^ ^ ^ ^ ^ ^ ^ ~ ) ",
"^ ^ ~ ) ^ / ^ ^ ^ ^ M f ^ ^ ^ ^ } _ ^ ~ ^ ^ ~ c X o P P P P P P P P g.f.. * d.a.  O ^ ^ ^ M M ^ ^ n n ^ ^ ^ ^ ^ ^ ^ ^ ^ ~ ^ ^ ~ ",
"^ M M ^ n n v m ^ ^ ! h ^ ^ ' } ^ ^ ^ ~ ^ ^ ^ c .                                 o ^ ^ ^ ^ ! v ^ n n ^ ^ ^ ! v v k ! ^ v ~ ^ ^ ",
"^ ~ Q M ! m n n ^ ^ m i ^ ^ ) ' ` ) ^ ) ~ ^ ^ c X                                 O ^ ^ ^ ! ! ! ^ h h ^ ^ ^ ! c n M ! v ~ ~ ^ ^ ",
"^ ^ ! M ^ Q M M ^ ^ m r ^ ^ ^ ^ ` ) ^ ^ ^ ^ ^ ^ ^ ^ ^ ^ ^ ^ ^ ^ ^ ^ ^ ^ p M ^ ^ M ~ ^ ^ ^ M M ^ ^ p p ^ ^ ^ ! M M ~ ~ ! ^ ^ ^ ~ ",
"^ ^ ^ ^ ^ ^ ^ ^ ^ ^ c r ^ ^ ^ ^ ~ ~ ) ^ ^ ^ ^ ^ ^ ^ ^ ^ ^ ^ ^ ^ ^ ^ ^ / r n ^ ^ / ^ R ^ ^ ^ ^ ^ ^ b p ^ ^ ^ ^ ^ ^ ^ ~ ) ^ ^ ~ ) "
};
