/* XPM */
static char *dc9cb591741e47cb8861b1a4cee32860YmeahM2MZ5boBwQq[] = {
/* columns rows colors chars-per-pixel */
"64 64 185 2 ",
"   c #000000",
".  c #0A0403",
"X  c #0B0906",
"o  c #180E06",
"O  c #160C08",
"+  c #1F1708",
"@  c #200E0D",
"#  c #28190F",
"$  c #261110",
"%  c #271B1A",
"&  c #3A1A19",
"*  c #30251B",
"=  c #39321A",
"-  c #252322",
";  c #2C2624",
":  c #3B3B3B",
">  c #4E0101",
",  c #4D0A09",
"<  c #510204",
"1  c #520806",
"2  c #57050A",
"3  c #540E0A",
"4  c #59100B",
"5  c #490915",
"6  c #5D0610",
"7  c #441E1C",
"8  c #5A1612",
"9  c #640A16",
"0  c #690B13",
"q  c #720E1A",
"w  c #611610",
"e  c #75111D",
"r  c #7F1822",
"t  c #4E2B27",
"y  c #4E2B28",
"u  c #552925",
"i  c #542F2B",
"p  c #5F3726",
"a  c #56302C",
"s  c #5E342F",
"d  c #61362E",
"f  c #63382D",
"g  c #693B2E",
"h  c #7D3C29",
"j  c #663931",
"k  c #6B3D31",
"l  c #6A3F3C",
"z  c #713F31",
"x  c #664212",
"c  c #774C14",
"v  c #7F501B",
"b  c #6E402C",
"n  c #76432E",
"m  c #7B422B",
"M  c #774A2B",
"N  c #6F4031",
"B  c #754232",
"V  c #7A4532",
"C  c #7E4833",
"Z  c #172366",
"A  c #2B296B",
"S  c #3F3966",
"D  c #3A396B",
"F  c #272B75",
"G  c #2C317A",
"H  c #4B3C5A",
"J  c #503A57",
"K  c #403D6E",
"L  c #3D426F",
"P  c #535150",
"I  c #6D4445",
"U  c #845415",
"Y  c #885616",
"T  c #885817",
"R  c #85561A",
"E  c #89561C",
"W  c #875818",
"Q  c #8D5021",
"!  c #86522C",
"~  c #975921",
"^  c #995B23",
"/  c #804733",
"(  c #844C34",
")  c #894E35",
"_  c #875135",
"`  c #8D5135",
"'  c #8C5138",
"]  c #945636",
"[  c #975936",
"{  c #9C5D36",
"}  c #945738",
"|  c #9C5D38",
" . c #926834",
".. c #A36337",
"X. c #A26239",
"o. c #881D47",
"O. c #951D48",
"+. c #9A2349",
"@. c #942051",
"#. c #B4294E",
"$. c #A62556",
"%. c #AD265E",
"&. c #AF2760",
"*. c #B02760",
"=. c #BB2A62",
"-. c #B13467",
";. c #CF3456",
":. c #D03156",
">. c #E23863",
",. c #E6396B",
"<. c #EC3C6D",
"1. c #F33E6D",
"2. c #F83F6F",
"3. c #BD544D",
"4. c #C35650",
"5. c #D45F58",
"6. c #D5664E",
"7. c #D96359",
"8. c #E2665E",
"9. c #E66B5A",
"0. c #F54D67",
"q. c #F94070",
"w. c #F6557F",
"e. c #EF6B63",
"r. c #F46E66",
"t. c #F96E66",
"y. c #F96C69",
"u. c #F87067",
"i. c #F97068",
"p. c #EE7A71",
"a. c #F77C74",
"s. c #D6883A",
"d. c #E18B3D",
"f. c #A98657",
"g. c #B29C51",
"h. c #CFA556",
"j. c #E9CC6A",
"k. c #F9DA71",
"l. c #1D2C85",
"z. c #1F2F88",
"x. c #1F3088",
"c. c #222E84",
"v. c #203388",
"b. c #27428B",
"n. c #3A5E87",
"m. c #356792",
"M. c #376A93",
"N. c #386C94",
"B. c #3B7495",
"V. c #3E7D97",
"C. c #418199",
"Z. c #44889E",
"A. c #71E0E6",
"S. c #7CF4F6",
"D. c #B3B3B3",
"F. c #D1AA93",
"G. c #E7AF9A",
"H. c #D3B3A4",
"J. c #DCBEB0",
"K. c #E5BDA6",
"L. c #F5BEB0",
"P. c #F9BEB2",
"I. c #D6C8B7",
"U. c #EFC7B9",
"Y. c #F8C8B8",
"T. c #F9D1BF",
"R. c #DBBDC9",
"E. c #E6BCCA",
"W. c #80FEFE",
"Q. c #D4C6C1",
"!. c #EFD5CB",
"~. c #F5D5C5",
"^. c #F9D3C1",
"/. c #F7DACB",
"(. c #E4DCD6",
"). c #E6E1DC",
"_. c #EAE4DD",
"`. c #F4E5DC",
"'. c #E4E4E4",
"]. c #EDECEB",
"[. c #F3EAE8",
"{. c #F4F1EE",
"}. c #F5F5F4",
"|. c #F9F6F5",
" X c #FAFAFA",
/* pixels */
"y y y y y y y y y y y y y y y y y y y y y y y y y y y y y y y y y y y y y y y y y y y y y y y y y y y y y y y y y y y y y y y y ",
"s s s s s s s s s s d s s s s s t a s s s s d s s s s s s s a u s s s s s s s s s s s s s i a s s s s s s s s s s s s a s s s s ",
"k k k k k k k k k k k k k k k k t f k k N k k k k k k k k k s y l k k k k k l g k k k k k a a j k k N l k k k k l k k k k z l k ",
"B B B B B B B V B V B B B B B B t g B B B B B B B B B B B B k y B B B B B B B B B B V B B s s B B B B n B B B B B B B B V B B B ",
"V ( ' ' ) ` ' ' ' C C ' B ( ( B j N B B B B B B V B B B B V z j B k j j j j k B j N B B B k k B B B B B j B B j k j j j z B B B ",
"B ( ] ' ) ] ' ' C ( ( V ( ( C B j N B B B B B B B B B B B B k j B k j j j k N k B B B B B k k B B B z k B k k N j j j j B B B B ",
"B C ( ( ) ) ( ( B C ( B ( V B B s N B B B B B B 8 1 1 1 1 1 1 1 1 1 k k k N B k B B B B B j k B B B B k B k k B k k l z B B B B ",
"B B B B B z B B B B B B B B B B y l B B C B B B 8 2 < < < > < < 1 > B B B n B B B B B B B s a B B B B B B B B B h z B V z B B V ",
"j g j g j j f j j j g g j k f j t p g g j j 3 , +.;.:.;.h.h.:.:.:.:.3 3 3 3 p j f j j j j a a j k j g g j j g j j j k f j g j j ",
"i a a a a a a a a a a a i i a i t i i i i i , > :.q.w.w.k.k.0.0.<.<.0 0 0 0 u u i i a a a u y a i i i a i a i a a a a i a a a a ",
"f f f f f f s t f f f f f f f f d f d g f g 1 > o.=.E.[.k.k.s.d.*.*.1.<.<.<.9 1 u f f f f f f f f f g d g f f f j i i f f f f f ",
"` ' ` ' ' ' B t ' ' ` ` ` ` ` ` ` ` ` ' ( ( 1 > o.-.R.].j.j.s.s.$.$.2.1.q.q.q 2 h ) ` ` ` ) ] ) ` ) ` ' ` ) ` ` ' f f ' ) ] ` ) ",
"` ` ( B B ( / j ) { { ) ..............X.                            &.&.&.&.<.1.e 2 ` ] | ............X.` { { ` ' j f ) m B C ) ",
"` ` ( B V ( ( g ] ] [ { ] | ..........X..                           &.*.&.&.<.1.e 4 ) ] ............| ] { ] [ { ' f f ' B B / ' ",
"] ` ( B n ( C g ) ' ] { ` [ { | { {                                         @.*.,.>.< < { { { { { { [ ] { ] ] { ` g g ' z V C ) ",
") ` ( B n ( / g ` ` ` ` ` ` ) ] ` '                                         @.*.,.>.< < ` ` ] ) ] ` ` ) ` ` ` ` ) B B ' m B / ' ",
"` ` ( m ' ' ( g ' ` ` ) ] ) ' ` ` `                                           . o.*.%.%.> > ` ` ) ) ` ] ` ` ` ` ` z B ` ` / C ' ",
"` ` ' ( C ( C g ' ` ) ] C C C / ` (                                           . o.*.*.%.> < ` ` ) ] ) ) ` ` ` ` ] z z ` / ( ) ' ",
"` ` ) ( C ) C s ` ` ] ) V B B C ( / ( `         D. X X{.y.i. X X X Xy.i..     . o.&.*.%.> > ` ` ` ` ] ) ` ` ` ` ` z z ) C / ) ) ",
"` ` ( m ' ' B y ` ) ) ) z m C ' m ( ` ' .       D.|.|.|.y.i. X|.}. Xu.u..     . o.&.%.%.> > ` ` ` ) ] ) ` ` ` ` ` z B ] ` C C ] ",
"` ` ' ' ` ` n t ) ` ` ] ' ' ' ' ` ` ` ` ' ` ( ` Q.'.H X /.^..    X Xu.u.u.u.$     - !.Y.r.r.' ` ` ` ) ` ` ` ` ` ] f f ) ) ' ' ` ",
"f f f f f f s t f f f f f f f j f f f f f f f f Q.'.:   /.^.    }.}.t.t.i.i.$     - !.^.i.i.f f f f f f f f f d f i a f f f f d ",
"i a i a a a a a i a a a i a a a a a i i U c F.J.`.'.: X /.^.     X].Y.P.i.i.$     - !.T.^ ^ 7.e.a i a i a a a a i a i a i i a a ",
"g g j j j j j g g j j j j g j j g g g g Y U U.Y.[.'.P - Y.P.$ O {.{.T.T.7.7.@     - U.L.W W i.i.g g j g j k j j g j f k j g g g ",
"B B B B z V z B B B B B B B B B B B B B R W K.Y.^.T.J.H.a.a.7.5.~.~.T.T.% $ .     $ p.a.Y W i.i.B B B B B B z B z z B V z B B C ",
"B B z k k k k k k z B k B B B B B B B B Y W G.Y.Y.P.Y.P.i.y.9.9.H.H.^.T.; ; .   O 7 r.r.^ ^ 7.8.k k k k B z z B B V B B C z z z ",
"B B k j k j j j k k z k k B B B B B B B R Y e.y.y.y.y.y.u.u.Y Y .   ^.T.~.~.- . 3.r.u.u.r.r.j j j j j k z k z z B B B B h V C z ",
"B B B j j j j k B k k B j B B V B B B B U U 7.e.e.e.e.e.e.e.U U     U.U.T.^.* o 4.u.e.e.e.e.j g j j k B j B z j B B V B B I z C ",
"B B B B B B z B B B B B B B B B B B                                     e.y.y.i.y.7..       B B B B B B z B B B B B h z B z B V ",
"k k k k k k k k l k k k k k k k k k                                     r.y.i.i.u.7..       k k k k k l k k k k z k l k l z k z ",
"s s s s s s s s s s s s s s s s s s s s                         T.^.^.^.i.i.i.e.&     . s s s s s s s s d s s s d s s s s s d s ",
"y i y y y y y y y u y y y y y y y y y u                         T.^.^.^.i.i.r.e.&       y y y y y u y y y y y y y y y y y y y y ",
") ] ` ` ` ` ` ) ' ' ` ' t V ' ' ) ) ) ) ` ' T U 6.i.i.i.i.i.i.u.i.i.i.i.i.i.^ U + o ) ` ) ] ' ` ` ) ] ) ) ' m y ' ' ' ) ' ' ` ' ",
"] [ { { | { { { ` [ [ ' t n _ C / ) ] ] ` ' T U 6.i.t.t.i.i.i.u.i.i.i.i.i.i.~ v @ o ` ` { [ { { { { ] ] { ] V t _ ( C C ] ) ] ) ",
") { ..........{ ] [ [ ' t n ( B V ) ) ) ` ` ` ( R T U Y W W > > > > %.*.*.*.6 1 / ` ) ) ..........| [ ] [ ] B t ' C B B ` ` ) ` ",
") { ........{ ` ..[ ' ' t V _ B V ( ] ` ` ` / z E U U U U U > > > > *.*.*.*.2 1 h ) ] ] X.........} } ..] ' V y ' C n B ` ` ` ` ",
"] ] ` ` ` ` ` ` ` ` ` ' j C ` ` z ) ' ] ' ' W U I.].{.}.{.{.Y U %.%.< 1 1.q.1.,.e 4 ] ) ` ] ] ` ] ) ` ] ) ` / j ` ' ( n ' ) ] ) ",
") ) ` ` ` ` ` ` ` ` ` ' j C _ C ( ) ` ) _ _  . .I.}.}.{.}. X . .$.$.9 9 1.q.q.1.r w ( ( ` ) ) ` ` ` ` ` ` ` / k ` ( / ( ] ) ` ` ",
"` ` ` ` ` ` ) ] ) ` ` ' g C ` C ) ! ` ` W E Q.(.}.|.}.}. X X_.).Q Q >.>.q.q.q.1.#.+.4 1 ` ` ` ` ` ` ` ` ` ` / g ' ( C ( ) ] ` ` ",
"` ` ` ` ) ] ) ) ] ` ` ' g C ' ' m ( ` ` T T ).}.}. X}.}. X}.}. XT T q.q.q.q.,.>.=.$.1 < ` ` ` ` ` ` ` ` ` ` / g ' ` ( m ` ` ` ` ",
"` ` ` ` ` ` ` ` ` ` ` ' j / ( n ' ' ` ` Y W (.}.}.}. X}.}. X X}.T T q.q.2.2.=.*.&.$.< > ' ` ` ` ` ` ` ` ` ' ( j ' C C ` ` ` ` ` ",
"` ` ' ' ` ` ` ` ` ' ` ' a C ' ( ` ' ` ' T E I.(.{.|. X X}.]._._.Q Q q.q.<.<.=.*.$.O.5 5 ' ' ` ` ` ` ` ' ` ) V a ' ' _ ` ` ` ` ` ",
"h B B V V V n n V V B B t g V B V B V B V B T Y I.}.}.}.}. XW W *.*.q.q.*.*.&.&.9 5 c.c.B V V B n n V V m B k y B V B V B C n B ",
"y u y y t t t i y y y y t t t y t t t t t y v Y I.}.}.|. X XW Y %.%.q.q.*.&.&.$.9 5 c.c.y u y y t i y y y y y y t t y y t y y t ",
"j j j j j j j j j a a j j j j j j j d j j j (. Xf.T T T T W > > < > *.*.*.*.6 , A l.c.v.j j j j j j j j j j j d j j s t j j j j ",
"z z z z z z z z N a a N N B k k z k B B N N ). Xf.W T T T T > > < > *.*.*.*.6 > A c.c.v.z l z z z z k N z N N B N N g y N N k B ",
"z V B B B B B B B j d B z N N B N B B z B B G z.m.Z.A.W.W.W.W.W.> > > > > > F z.m.B.v.c.V / / / ( C C C n C C B V V g a B B B B ",
"B B B B B B B B B k k B j j j j k k k k B B G l.M.Z.A.W.W.W.W.W.> > > > > > A z.m.N.c.c.` ` ' ' ' ' ' ' B ( ( B ' C z k B B B B ",
"B B B B B B B B B l k B j j j j B k k B B B G l.m.Z.A.S.W.W.W.W.W.W.W.S.C.V.C.C.V.B.x.c.' ' ' ' ' ` ( n ' C C ' V B B j B B B B ",
"B V z B B B B B V f d B z B z z B B B B B B G l.m.Z.A.W.W.W.W.W.W.W.W.S.C.C.C.V.C.B.l.l.C C C C C C V n C V B C B B g a B B B B ",
"z z z z z z z z z a a z B k z B N k z z z z z N F v.N.C.x.x.S.S.W.W.C.C.C.C.C.V.b.G z z z z B k B k z z k z z z z z f y z k z z ",
"j j k l j j j j j i a j j j j j j j j j j j j j A v.N.V.v.v.S.S.S.S.C.C.C.C.C.V.b.G j j j j j j j j j j j j j j j j s t j k j j ",
"y y i y y y y y i y y t y y y y y t y t y y t t A v.N.V.x.z.Z.Z.Z.Z.V.C.C.C.C.V.b.F y y y y y y y y t t t y y y y y y t y y y y ",
"V z B h V B V B B B g t B B B V n V V V V B V n P K n.M.z.z.N.N.M.M.M.M.N.N.m.m.L H V B m B B V V a s n B B B V V V n n B V B V ",
"` ` ` ) ( ) ) ' ( ' B t ' ' ` } [ ' ` ` ` ` ` [ ] ' K x.z.z.x.x.x.v.v.v.x.x.x.G I ' ' ` ] ) ) ( ' g g ` } ] ] ] } } [ ] ] ] } ' ",
"` ` ) z B B C ' m ( V t ] ' [ ....[ ` ` ` ` ] ..) M J D Z Z D D D D D D D D D S l ( ` ` ) C B B ' B B `  .[ ] ..............{ ' ",
"` ` ( B B ( ( m ' ' n t ` ` } ....] ] ' ] ) [ ..# X x v     Y T T T T T T T T Y m / ! ` ` C V n ' n z ) ` |  .` ............{ ] ",
"` ` ` ( ( ' ' ( ' ` C s ' ' [ ....] ' ) ) ` / ( = + x c + + W T T T T T T T c c m ( ' ` ` C B n ) B B ] ` ] ] ` } [ } } ] ] ] ) ",
"` ` ` ` ' ` ` ` ` ` C g ` ` ] { ..] ] ) ] ) O   g.j.= . k.k.T T T T T W T Y o . p ( ` ` ` C n C ' B V ) ` ` ` ` ` ` ` ` ` ) ) ] ",
"` ` ` ` ` ' ' ' ` ` C g ' ` ` ` ..] ) ) ) ] O   g.j.= . k.k.T T T T T T T T o X f ( ` ` ` C / ' ' B z ` ` ` ` ` ` ` ` ` ` ] ) ) ",
"` C m ` n B n B ' ` / g ` ' ] ..` ` ` ] ` ` O                                 . b ! ' ) ` ' ( m ' n B ) ` ` ( n V n / ) m ( ' ] ",
"` ( ( ( ( V B V ` ' C a ' ` ` ] [ ] ` ` ` ' O                                 X f ` ] ` ` ( ( ( ` g g ' ` ` ( n B / / C ( ) ` ) ",
"` ` ( C ` / C C ` ` n t ` ` ` ` { ] ] ` ` ` ` ` ` ` ' ` ` ` ` ` ' ' ` ` s C ' ` C _ ` ` ` C / ` ` f f ' ` ` ( C C ) ) / ] ) ` ` ",
"` ` ' ` ' ` ` ` ` ` C t ` ` ` ` ) ] ) ` ` ` ` ` ` ` ` ` ` ` ` ` ` ` ` ` t n ` ' ` ` ` ` ` ` ` ` ` f s ` ` ` ` ` ` ` ] ) ) ] ) ` "
};
