/* XPM */
static char *_50036d2b4c94a25cf60a214142a3de7KyjKHOvgoamF8NCt[] = {
/* columns rows colors chars-per-pixel */
"64 64 71 1 ",
"  c #4E2B27",
". c #4E2B28",
"X c #502B26",
"o c #532F2B",
"O c #56302C",
"+ c #5E342F",
"@ c #61362E",
"# c #63382D",
"$ c #693B2E",
"% c #663931",
"& c #6B3D31",
"* c #713F31",
"= c #77432F",
"- c #78442F",
"; c #6F4031",
": c #754232",
"> c #774434",
", c #784232",
"< c #784432",
"1 c #784532",
"2 c #7A4632",
"3 c #7E4733",
"4 c #7B4634",
"5 c #7E4831",
"6 c #7C4833",
"7 c #7D4834",
"8 c #7F4A34",
"9 c #804933",
"0 c #804A32",
"q c #804A33",
"w c #834B33",
"e c #854D33",
"r c #824B34",
"t c #834D35",
"y c #844D35",
"u c #864F34",
"i c #844C36",
"p c #884E35",
"a c #894E35",
"s c #8D5133",
"d c #8A5035",
"f c #8B5235",
"g c #8B5137",
"h c #8F5135",
"j c #8E5234",
"k c #8D5137",
"l c #8E5137",
"z c #8C5236",
"x c #8C5237",
"c c #8D5237",
"v c #955733",
"b c #915536",
"n c #925537",
"m c #945636",
"M c #965934",
"N c #965935",
"B c #965A36",
"V c #9B5D36",
"C c #9B5C37",
"Z c #9B5D37",
"A c #9C5D37",
"S c #935638",
"D c #9B5D38",
"F c #9F5E38",
"G c #A36336",
"H c #A36337",
"J c #A46337",
"K c #A16239",
"L c #A26338",
"P c #A36338",
"I c #A2623A",
/* pixels */
"................................................................",
"++++++++++++++++Xo++++++++++++oX+++++++++++++OO+++++++++++++++++",
"&&&&&&&&&&&&&&&& @$&&&&&&&&&&&%.&&&&&&&&#&&&&OO&&&%;&&&&&&&&&%&&",
":::>::>:>::>::>> $2:<>>,>:<,::$.<::::::>=:::>O+2>>::::::::::>>>>",
":yhgggabd42b=yy:%*,::>>:>::>::&%:&%%%%&>#:>>>&$:>:::%::%%%%%>>>*",
":ehhhbah5rr5i94,$&::>:::::::::*%>&%%%&;%;::::&&>:::%:&&;%%%%>*:>",
":9yyiiii<59:y2:,+&:::::>,:>:,:&+:;&&&;:&::>:>##>>:*&:&&:*&&**>2:",
":::::>:::<::::::.$>::>:,>>:>>:$.::::>::::>:::++>>::::::::,*>>,*>",
"%%%%%%%%%%%&%%$% +@$#$%$$%%%%%+.%%%%$%%%%%$%#OO%%%$%%%%%%%%$%$%$",
"OOOOOOOOOOOOoOOoXOOOOoOooOOOOOO.OOOOOOOOOOoOOO.OoOOOOOOOOOOOOOoo",
"#####++ ########@##@#@##########.+%@#########+##$+#######oo@@###",
"dhdhhs2 dhhhbaabbahbsbabxhxxhdxh.2hdhhhdhdhhhzhhhshhshhha##naSga",
"hdt2=y5%aCCbKJJJJJJKhbba::::h84d.:dhLHDhdhdzLHHHHHHLhVDaa@@a=:0h",
"hh5>>e9%smmCvCJJJJJJaaha:>2t99eh.>hdLHVhdhhhHHJJHHVvFmNVb&#a,,2h",
"dhe>=y8%hhmChMCAAACFhaah459b8tgdO8ahLJAhhhdxAVVDVVNhCnmAa%$b:>4h",
"hhe>=e9%dhabaabsaabahbbabahhhabh&2hhLLAhdhdhhhhdhhdhhabah::a=24a",
"hde=hh5%abagbabasahdhhdhhhdhhahd%8hhaCAaabahhahhhdhhhdhbh::dd8<h",
"dhdt5tr%khha0455b99hdhy5hr585yhd%5hsVCmbashbhbaadhxdhddfd:>d5tux",
"hzze4y8+khba,>>9e99hdhu5t56>>thh+8hsVMhabhhaababhhhhdhhhh::d7rah",
"hde=bh2.aahh=>4s2ehhhdhh6y5>>thd.2dshACbhhahbaabdhxdhhddh;;hd75h",
"habaab, nahhkhhbdhdhhhxfzzhhhhhh.:hhdbahahhabaahzsdhhdfjh##hhdxx",
"####@#+.###@@#@####+#+######+##+.+###########%########+$#oo#####",
"OOoOoooOOOoooOoOOOOOOOOOOOOOOO OOOOOOOOOOoOOooooOOOOOOOOOOooOOOO",
"%&%%&%&#%%%%%&%%%%$%$%$$%%%##OO%%$%%%%%%$%&%%%&%%%%$%%%%%$%%&&#%",
":::::,:>::::::,*>>:>::::::>>:O+:::>>>:::,,::,::::::::::>:::>*>*>",
":::&&*&&%::&::>>>:::::>:%&&%:%%:>5yyty9:94::2&&&&&&&>*&,::>::<>>",
">:&&%%%%&&&&*:::::::2:::&%%%:&&:>rhhht99i4>>:&&%%%%&*&&*::::::::",
":>&%%%%%>&&>%&>>:>:>::&%2$%$:&&::rddh55h:>:,<&%%%%%:%:*%>>:>:>:>",
"::::>:>*::>:::,>::;:,,>:::>>:O+==:::>:>:*,,,::>>>:::*,>:,,>,:,:,",
"&&&&&&&&&&&&&%&&&&&&&&&&&&&&&OO&&&&&&&&&&&&&&&%&&&&&&&&&&%&&&&&&",
"++++++++++++@+@+++#++++@+++++OO++@++++++++++@+++++++@+++@++++++@",
" .....X......... ...X... ..X    . .... ...X.....o..........X....",
"hdhhhhdxxxxx >dhdhzdhfdhdzdhxddhbaagbaaghdffgdhhdhdhdd> dghdgkah",
"xNVADDDVhNNx 2t55dxhddhh8SNshhzshhababhbhfhhDLAAVANhVn= dt55gbba",
"hVJJHHLVSDNd =e>>tshxhdytVVSdxdzaSnNhbSShdssLLJHLFBNVn2 g5<:hnag",
"hDHHHHVhKnhhX2y>,thxdh5>HLHHvdhhhVKKgCKJfhhzKLLJJSNKsh2.b4>:kaab",
"dxdhhshdhdhd%8dg,enahhdh>NJJHShhdVh$g:2Hhuhshsshhhgfbb8%hhe>khag",
"hdhhhhhdhhhx$8u5ydshdhhd5yNJHANdhvd;::2vzhdzhhhhdhdhhat%hr9tghhb",
"dhhddxdhdhhx&7t5edhhhdhhnr5NHHASdhe:&=5hhhdddhbahhdhsa9%dt5uhdah",
"fhdhhhxhxahx%8hh=edhhuhhshy-KHJHhdy:=:8ddhhhhhaadhhdhh9%xde>dhhh",
"hhddhxhhhhdd%re:dfhhdhhdhhaa2vAhhdhdahghddgbbahbhdhhdh9%x75dddzd",
"dhhhhddhfdfhO5dedhdhhddhabbaibmsdhhhhhhahhahahhahhdshh2Oxdddhhhh",
">6>=>6>=>=>> $2>6>=2=>2>::2::2:2=>>>:,2:<2>=2,2:>=2>>=$.>2>>>6>=",
"     .  ..   . .....    ....  .  .  .. .. ......  ... ....   .. ",
"%&%#%%%%%OO%%%%%%%%%%%%%.+%%%%%%%%%%%%%%%%%%%%&%%%%%%%%%%%+ %%%%",
"*&:;:$&::OO;;&:&&;:$>;&;.&&::&:&;:&:;;:&&:**&*&:;:&;**:&&;$ ;;$>",
"*:>::::>=++>:;:;::::::>>O&*::::;::&;;;:>:::24r444887=22>5>$O:>>:",
">::2:::>>&&:%%%%%&&$>::>%*:>:>&$:&%%%%&><:::babahdgd=tt>h5;$::::",
":,,::::::%&>%%%%:&&:::>>@*:<<&&:%&&%%%&,>::>ababhgy>d57h:>:#>::>",
">*:>>>:>,@+::&&::&:::>>>o&>,,&:::*2:&:::::::0944842,6>>7=:$O::::",
"******&:*OO:;::&&::;&:&*.%**&:;>*&&::&:&**&:**&::&:;;;::&:#.:&;:",
"%%%%%%%%%oO&%%%%%%%%%%%%.+%%%%#%%%%%%%%%%&%%%%%%%%%%%%%#%%+ %%%%",
"..X...  . . .  . .. .  ...   .  ....... ....     .        . ..  ",
",,4,=>,,>>$o>>>>=6222->>>:>=>2>>:22:X$<::2,:::2>>O+>>>>2=>2=:>>>",
"baaieyahed<.dhsNShhhhddNSvSvSvmsNxhx =aeyabahaayh$$hSfjSNSvSnnns",
"abi>>:4b,t<XghvHHNddhhNHKJJJHJAdKNxx 2y:,yahb4::d:;hHSNHHHHHHHVh",
"hhy>:yy>dd> hxSLHNhhdhSHJJJHHvNHhFDd.<y>:yhhd5::d;>dsVVjHHHJJJAh",
"dhayeddrhb5+dhNJKNhdhhnNNNNSSSzShnnd+5t>:ehdh5::z:>dsSShNNNNNnSh",
"hdhdhhdhdh8$dhnVLNfddxhxhhhhjjhddhdh%5a5>yhxh725z>;zdhhdhddddhhd",
"hhdhdhhhhd5%dhssLNxhhdhddhdhdshhhdhd%8hd>tddd85dd=:hhshddhhhdhdh",
"d55d:>:,dh9$fgCLhhshdhzdhhdhdhhdhhxd&rw:dhhhhhu-d::dhzr=>:5h2ehh",
"dut8t5::hh2OxdgNAhhdzhhhdhhddhhdhxdh%5b95ddhdy8rd&$dddu>:8t5tddh",
"hhy5yt58dh> gdhhAmfdshshhhhdhhhxdxbh+5ah5udhh98zd##dhht75ay5hhhh",
"ddhhxhhhhd6.xhdhabbzdhzdhddhxdhdhhgg.<ahdhsbdsdhh##zdhhhdhhdhdhd"
};
