/* XPM */
static char *result[] = {
/* columns rows colors chars-per-pixel */
"64 64 132 2 ",
"   c #4E2B27",
".  c #4E2B28",
"X  c #502B26",
"o  c #532F2B",
"O  c #56302C",
"+  c #5E342F",
"@  c #5E3830",
"#  c #60362E",
"$  c #63382D",
"%  c #693B2E",
"&  c #663A31",
"*  c #6B3D31",
"=  c #713F32",
"-  c #76432F",
";  c #78442F",
":  c #6D4234",
">  c #6A4837",
",  c #6E4939",
"<  c #754232",
"1  c #7A4531",
"2  c #754936",
"3  c #7D4833",
"4  c #744B39",
"5  c #7A4E39",
"6  c #7A533B",
"7  c #7F593F",
"8  c #655242",
"9  c #6A5442",
"0  c #6D5945",
"q  c #7C5646",
"w  c #755A42",
"e  c #7C5B41",
"r  c #804733",
"t  c #844C34",
"y  c #894E35",
"u  c #834F3A",
"i  c #865236",
"p  c #8D5135",
"a  c #82543B",
"s  c #8C5238",
"d  c #825B3F",
"f  c #8C5A3B",
"g  c #945636",
"h  c #975936",
"j  c #9B5D36",
"k  c #935738",
"l  c #9C5D38",
"z  c #96633C",
"x  c #98673C",
"c  c #9E783E",
"v  c #A36336",
"b  c #A26239",
"n  c #A57F3F",
"m  c #815E42",
"M  c #8A5D40",
"N  c #856242",
"B  c #8B6544",
"V  c #8D6B44",
"C  c #8E6E48",
"Z  c #946744",
"A  c #926C45",
"S  c #996D47",
"D  c #976D49",
"F  c #9B6F48",
"G  c #957143",
"H  c #9A7542",
"J  c #9E7943",
"K  c #92734A",
"L  c #9E7149",
"P  c #9A7848",
"I  c #8F6757",
"U  c #A06D43",
"Y  c #A46E4C",
"T  c #A37D40",
"R  c #A3744C",
"E  c #AB774E",
"W  c #A7784D",
"Q  c #A57751",
"!  c #AC7753",
"~  c #A67852",
"^  c #AD7C52",
"/  c #B27E53",
"(  c #B97F54",
")  c #AB7F67",
"_  c #AB833F",
"`  c #AE8640",
"'  c #AF8842",
"]  c #A7854A",
"[  c #AF8F4F",
"{  c #B08942",
"}  c #B69146",
"|  c #B99548",
" . c #BD994A",
".. c #A48354",
"X. c #AD8E53",
"o. c #B68356",
"O. c #BA8456",
"+. c #BB8559",
"@. c #BF895A",
"#. c #B09151",
"$. c #BE9C51",
"%. c #B1956D",
"&. c #A48B74",
"*. c #C09C4D",
"=. c #C18555",
"-. c #C38C5D",
";. c #C98F5F",
":. c #C7905F",
">. c #C8905F",
",. c #C3A14F",
"<. c #C5A351",
"1. c #C8A752",
"2. c #CCAB56",
"3. c #C2A45C",
"4. c #CBAC59",
"5. c #CFB05C",
"6. c #D0B058",
"7. c #C98F60",
"8. c #CC9261",
"9. c #D09664",
"0. c #C4A869",
"q. c #D1B563",
"w. c #D6BB65",
"e. c #CBB070",
"r. c #DAC06C",
"t. c #A38C86",
"y. c #AD988D",
"u. c #B4A199",
"i. c #B9A79A",
"p. c #D3BC9E",
"a. c #CCBDB0",
"s. c #D5C5B7",
/* pixels */
". . . . . . . . . . . . . . . . . . . . . . . . . . . . . . . . . . . . . . . . . . . . . . . . . . . . . . . . . . . . . . . . ",
"+ + + + # # + + + + # # + + + +   O + + + + + $ + + + + # + O . + + + @ @ + + + + + + + + O O + + + + + + + + + + + @ @ + + + + ",
"* * * * * * * * * * * * * * * * . $ * * * * * * * = * * = * + . * * * * * * * * * * * = * O O * * * * * * * * * * * * * = = & * ",
"< < < < < < < < < < < < < < < < . % 1 < < < < < = < < < < = * . < < = < < < < = < < < < < O + < < < < < < < < < < < < < = = 2 = ",
"1 t s s g y g y y 3 3 s < t u < & = < < < < < < < < 1 < < < = & < * & * & * * = & = < < < * * < < < < < & * < & & & & & = = 3 = ",
"< t s s g y y s 3 t t 3 y r 3 < & = < < < < < < 3 < = = 1 < = & < * & & & * = * = < < < < * * < 1 < < * < * * = & & & & = r = 3 ",
"< 3 t y t y y t < r t < t 3 = < # = < < < 2 < < = M 7.7.8.7.7.7.7.7./ D 5 = = * < < < < < & $ < < < < * < * : < = * = = = = = q ",
"< < < < = < = < < < < < = < < < X & < < < < s Y =.9.8.9.9.9.9.9.9.9.9.( ( ! M M < < < < < + + < < < < < < < < < = = = = r r = = ",
"& % & $ & & $ & & & % % % & % &   + $ * a 9.9.9.9.9.9.9.9.9.9.9.9.7.8.9.9.9.9.R R a : $ & O O % & & & % & % & & * & % & & & & & ",
"O O O O O O O O O O O o o O O o . o ! -.9.9.9.9.9.>.^ ^ 8.@.9.9.9.7.o.9.9.8.9.9.9.:.F M o o o o O O O O O O O O O O O O O O O O ",
"$ $ $ $ $ $ + . $ # # # $ $ $ $ $ Y 9.9.9.;.-.L ^ o.9.9.9.9.9.9.9.9.7.~ L -.8.^ 8.@.8.E M $ $ $ $ $ $ $ $ $ $ $ & O O $ # $ $ $ ",
"p s p s s s ;   s g y g p p p p +.9.9.9.R -.8.7.9.8.9.9.9.R R R R Q 8.8.^ D L o.9.8.R R ;.S g s p p p p p p p p p # # p p p p p ",
"p p r ; < y r & y j j p v v v =.9.9.9.-.9.9.9.+.O.L L L R o.o.L L L L L O.o.Q B L +.8.+.! O.U v v v v v p j j p p $ $ p = = r p ",
"p p y < < t r % p g h j g j =.9.9.9.9.8.8.R L F L L N e e L L L L L L e L L L ! e B F -.8.R B F v v l g j h h j p $ $ p = r r p ",
"p p t 1 - t r & p p g j p h =.9.9.9./ R R L D N Z L L L T N d d B N L L A B B R V m A B D 8.L B l l h p j g g j p % % p = = r p ",
"p s t < ; y r % y p p p p y ( 9.-.L L F D N V L D A G K d ] _ r.<.V V B A D F m D Q m N A -.L e p p p p p p p p p = = p r = r p ",
"p g y - s y r % g y y y g y ( -.R F L B D F Z m x V <.w.' H { r.,.V  .n f f m B D D W :.+.F B 7 p p p p p p p p y = = p p r r y ",
"y y y y r y r % y p g y 3 r Y R F S e D V N P w.} V 1.w._ H { 5.1.V  ._ z h g p a N V L D Z e d p p p p p p p p p = = p r y y p ",
"g g y r 3 p 3 + p p y g < < 6 F L e L B P P | 5._ A 1.w._ H ' 6.,.V  ._ z h g y s p 7 e 7 e e -.p p p p p p p p p = ; p r r y p ",
"y y t ; p p <   y g y y ; ; / / / / ^ G  .G | 5._ V 1.w.' H H | <.A | _ f j j g s p k ^ :.8.9.W p p p p p p p p p = = g y 3 r p ",
"p p s s p p ; . y g y s s s Z -.L -.L J ` A | 5._ V 1.6._ H 6.r.<.V  .` f p p p p p p D Z L L S p p p p p p p p p $ $ y g y s y ",
"$ $ $ $ $ $ O . $ $ $ $ $ $ f R e L L [ ` V | 6._ G 1.w._ c _ 6.<.V | _ , $ # $ $ $ : D Z F L Z $ $ # $ $ $ & & $ O o $ $ $ $ $ ",
"O O O O O O O O O O O o O O m F N L L [ _ x | 6._ V 1.6.{ J _ 6.<.V | $.: O O O O O + A D F F Z O O O O X O O O O O O O O O O O ",
"% $ & & & & & & & & & & & % f L e L P #._ A | 6._ G 1.6._ H { 6.<.V $.4.2 & & $ % % : A L L L Z % % & & % % & & % % & % & & % & ",
"< < < < = < < = < < < < < < 6 L N L L X._ G | 6._ A 1.6._ J ' 6.$.&.%.H 6 < < < < < 1 D Z L L D 2 < = = = 3 = = = = < 1 = = 3 = ",
"< < < * * * = * * = < * < < 6 L m L L [ _ V | 6._ V ,.6._ H _ 6.e.t..._ i y r < t 1 2 D V F L Z * * = * 2 = = = r = < < 1 < = 3 ",
"< 1 = & & & & * * = = * < < 6 L m L L A _ G | 6._ V 1.6._ J ' r.0.s.u.p.f i r r y 3 < D Z L L Z & & & * = = = = = = < = = 3 = 3 ",
"< < * & & & & * < * * < & * 6 L m R @.N _ V | 6._ x 1.6._ #.q.,.J y.i.u.) 3 3 p < < 2 S B L L q & & = = & = = * < 3 < 3 = = 3 = ",
"< < < = < < = = < < < < < < q F L L L B ` V | 6._ C <.6.r.6._ V ] 8 I t.I - < < < < 1 D A F F q = = = 1 = = = = = = = = 3 = = 3 ",
"* * * * * * * * * * * * * * 5 F m L L N _ A | 6._ G 4.q.| c G  .<.C s.a.q * * % * * m ~ m B L 5 = = * * * = = = = = = * * * * = ",
"$ + + + # # + + + + + + + + + F m L L B _ G | 6.' r.5._ V 0 _ 6.<.V t.` : + $ + + # m L 8.L F q + + # + + + + + & + + + + + + + ",
". . . . X . . . . . . . . . . Q m L L B _ A | w.5.} J _ J V } 6.<.V ` ` & . . . . . m L L L F q . . . o . . . . . . . . . . . o ",
"p p p p p p p p s i p p   1 s L B L L B _ V 3.<.' N _ 6._ J _ 6.<.V | ` d p p p p p d L D L L d y s s s y s ;   s s y s s y y p ",
"p h j j j j l j g h h s   ; t L L L L B _ 5.,.V C 8 n 6._ J { 6.,.V | _ f s p p p p N L N L L j j j g g h g < X p t 3 r s g p p ",
"p l v v v v v j g h h s   ; t R L L L B w.,.c | H V _ 6._ J { 6.<.V  ._ f p k k p p N B A F L v v v j g j g < . p 3 < < g y g y ",
"p l v v v v j p b g s s X 1 t F L L L N _ V | 6.` V _ 6._ J _ 6.,.V | _ f j v v p p m N F R F v v g g v g y 3 X s 3 < - y y g y ",
"p p p p p p p p g p p p & t p N L L L B V 8 | 6.` V ` 4.{ H { 6.<.V _ _ f - 1 v p p e A L L B p y y p p p p t & p p t ; s p p p ",
"p p p p p p p p y y p s $ 3 t N L L L N _ V | 6.` V _ 6._ H { 6.<.V _ _ 5 - 3 k p p N D L L Z p p p p p p p r & p t r t g y p p ",
"p p p p p p p p p p p p & t y m L L L B x C | 6._ G _ 6._ J _ 6.*.V *.` 2 - 3 s p p N d L L Z s p p p p p p r % s t r y y p p p ",
"p p p p p p p p p p p s & 3 s N L L V e d V | 5.n A _ 6._ J { 6.<.X.4.V 5 - 3 p p p 7 L L L B s p p p p p p r % p s r ; g p p p ",
"p p p p p p p p p p p p % r t N L B L L N A | 6.c V _ 6._ H ' 5.6.6.J _ f y s p s p 7 D L L V s p p p p p p r & s 3 3 p p p p p ",
"p p p p p p p p s s p s o 3 p N L ^ / L N A | | _ V _ 6._ H ' w.4.P H _ g s p p p p 7 S L L Z p p p p s p s 1 O p p i s p p p p ",
"r = 3 = 3 < 3 = 1 < 1 <   % ; 5 L L L B d V J r._ V _ 6.' ] w.1.J 8 _ B 1 < 1 < 1 < 7 A L L Z < ; ; 1 1 ; ; %   < < 1 1 1 < ; ; ",
"X X X X X X X X . . . .     . % L L L A d G | 6._ G _ 6.q.5.' G ` N _ N . . X X     e D L L B   .   .   . . . . . . . .   .     ",
"& & & * & & & & & o O & & & & < L L L B d C | 6._ V 4.r.,.J A  .<.V _ V $ & & & & & m L L L D & & & & & & & & & & & + X & & & & ",
"= = = = = = = = < O O : : < * 5 L L L Z x K | 6.' r.5._ G e _ 6.,.V _ N = = = = * < m R L L B = = = = : = = * < * < $ . : < = * ",
"= = 3 = = 3 = = < $ + < * < < 5 L L P V e V | w.5.| ] J H V _ 6.<.V T 6 : < = < < < m F L L B 3 3 r 3 3 < 3 3 < 3 1 % O < < < < ",
"= r = 3 = = = 3 < * * < & & & : S L J C e c <.1.} e _ 6._ H { 6.,.V G & & & & < < 6 -.L L L B y s s s s - t t < s 3 = % < < < < ",
"= 1 = 1 < < < < < * * < * & & * D F F B d 3.1.A V 8 $.6._ H _ 1.{ V < & & & * < < 5 L R L L B s p p r ; s 3 3 s ; < < $ < < < < ",
"r = 1 = < < < < = & # < = = = 4 F A R B K 1.J } H A 1.6.' H _  .J < < < < = = < < 6 L L L 7 B 3 r 3 3 ; 3 < < 3 - < % O < < < < ",
"= = = = = = = = = O + = < * = 2 D B F N D V } 2._ V ,.6._ H _ n < * * = = = < : = 5 L L L e B : < * = - * < < : = = $ . = = < = ",
"& & & * & & & & & O o & & & & * D Z L B D 8 6.6._ G _ 6.' e , & & & & & & & & & & 4 L L L L , & & & & # & & & & & & +   & & & & ",
"o o X X . . X . X . . X . . . + G L e B D V 6.6._ G _ } c   . . . . . .   . .   . > L L B F & . . .       .       X . . . . X . ",
"= = r = 3 < 1 1 1 1 & X 4 < < 1 D L e B D N 6.6.` V _ i 1 < 1 ; < 1 < 1 . % 1 < < 6 L L B F 4 1 1 O + ; < < < < 1 < < ; < < < 1 ",
"s p p y y y y y t i < X y s k k d L N L 7 N | 6.G h g g h k k p h p p s X ; s t t d L L B A i y s $ % p h p g h k h g h g h k s ",
"s s y = = = r s < t < X k s g v N L e L e N _ _ x v v v v v j p b h p s . ; t < < a L L B e 4 < s < < s b k k v v v v v v v j s ",
"p p t 1 < y r < s s <   p p k v d L e B e 8 ] z v v v v v g g v p j j p   ; t < < a L S B e 2 < p - - p p j j p v v v v v v l s ",
"p p p r r p s r y g 3 $ p p h v m B e B e 8 e k h h g g g g p g s g g p + 3 t < < a A D V e 5 < p : - p p g g p h k h g g g g p ",
"p p p p g p s g p p r & s p g j m e 9 d e 8 t p p p p p p p p p s p p p % r p 1 < a 7 A w e , 3 p : : p p p p p p p p p p p y g ",
"p p s p p s y g p p r % s p p p 9 w > t 8 t p p p p p p p p p p p p p s * r s i ; t f d 9 8 4 y p < < p p p p p p p p p y p p y ",
"p ; r p ; < ; < s p r % p s g v p p p p p p p p p p p p p p p p p p s p & r i ; p p p p p g r ; p < < s p p y ; ; 1 r y ; y y p ",
"p y t 3 t 3 < < p p 3 O p p g g j g p p p p p p p p p p g y p p p p p p $ r s t 3 y p p p t r t p $ $ s p p t ; < r r r y y p p ",
"p p y 3 y r 3 3 p p <   p p p p j g p p p p p p p p p p g y p p p p s p + 3 s p 3 y p p p r t p p $ $ s p p t 3 3 y y r y g p p ",
"p p p p y g y p p p <   p p p p p p p p p p p p p p p p y y g p p p p s   - s p p p p p p p p p p $ $ p p p p p p p p p p p p p "
};
