/* XPM */
static char *result[] = {
/* columns rows colors chars-per-pixel */
"64 64 150 2 ",
"   c #4E2B27",
".  c #4E2B28",
"X  c #502B26",
"o  c #532E2A",
"O  c #56302C",
"+  c #5E342F",
"@  c #60362E",
"#  c #63382D",
"$  c #693B2E",
"%  c #663931",
"&  c #6B3D31",
"*  c #713F31",
"=  c #76432F",
"-  c #78422E",
";  c #6D4233",
":  c #754232",
">  c #7A4532",
",  c #754A36",
"<  c #7D4833",
"1  c #734D39",
"2  c #794F39",
"3  c #76523D",
"4  c #7B543C",
"5  c #7B593F",
"6  c #655242",
"7  c #6A5442",
"8  c #705743",
"9  c #745B42",
"0  c #7C5C42",
"q  c #7C6142",
"w  c #776355",
"e  c #804733",
"r  c #844C34",
"t  c #894E35",
"y  c #865037",
"u  c #8D5135",
"i  c #81543B",
"p  c #8C5238",
"a  c #845A3E",
"s  c #8B5B3C",
"d  c #935636",
"f  c #975936",
"g  c #9B5D36",
"h  c #945738",
"j  c #965B39",
"k  c #9C5D38",
"l  c #8D643E",
"z  c #93643B",
"x  c #966A3D",
"c  c #9A6C3D",
"v  c #9B723F",
"b  c #A36336",
"n  c #A26339",
"m  c #A8683C",
"M  c #A2753D",
"N  c #A27B3F",
"B  c #815E42",
"V  c #8C5E41",
"C  c #856243",
"Z  c #8C6544",
"A  c #846943",
"S  c #8C6A44",
"D  c #876949",
"F  c #8E6A4C",
"G  c #926444",
"H  c #936B45",
"J  c #996D47",
"K  c #9A6648",
"L  c #936C49",
"P  c #9A6E48",
"I  c #957244",
"U  c #9A7543",
"Y  c #9E7943",
"T  c #9D7149",
"R  c #9F7A4A",
"E  c #8F6E54",
"W  c #8F735F",
"Q  c #967354",
"!  c #A06A44",
"~  c #A36F4C",
"^  c #A27C41",
"/  c #A3754C",
"(  c #A9734F",
")  c #A37C4D",
"_  c #AA794F",
"`  c #B87B4B",
"'  c #A57451",
"]  c #AC7450",
"[  c #AD7C51",
"{  c #B27D52",
"}  c #BA7E52",
"|  c #AB833F",
" . c #9D844D",
".. c #A58146",
"X. c #AB8542",
"o. c #AD8844",
"O. c #A4834A",
"+. c #A9874B",
"@. c #AD8B4B",
"#. c #B28C44",
"$. c #B28E49",
"%. c #B59045",
"&. c #B5914B",
"*. c #BA964A",
"=. c #BC994D",
"-. c #A78850",
";. c #A1815A",
":. c #B48155",
">. c #B88457",
",. c #BB8558",
"<. c #BE885A",
"1. c #B49352",
"2. c #B99751",
"3. c #BD9B51",
"4. c #9F8162",
"5. c #958279",
"6. c #A68865",
"7. c #A68A6A",
"8. c #AA9079",
"9. c #C09C4C",
"0. c #C08453",
"q. c #C48D5D",
"w. c #C88F5F",
"e. c #C09E52",
"r. c #C7905F",
"t. c #C9905F",
"y. c #C3A252",
"u. c #C8A753",
"i. c #C7A857",
"p. c #CDAC56",
"a. c #CDAE5A",
"s. c #CFB05C",
"d. c #D1B15A",
"f. c #CD9462",
"g. c #D09664",
"h. c #CFB262",
"j. c #D3B660",
"k. c #D7BB66",
"l. c #D8BC67",
"z. c #A38C80",
"x. c #AB9483",
"c. c #AD998E",
"v. c #B59D8B",
"b. c #AE9B92",
"n. c #B7A292",
"m. c #BAA593",
"M. c #B5A098",
"N. c #C4B2A4",
"B. c #C7B5A9",
"V. c #D4C2AA",
/* pixels */
". . . . . . . . . . . . . . . . . . . . . . . . . . . . . . . . . . o . . . . . . . . . . . . . . . . . . . . . . . . . . . . . ",
"+ + + + @ @ + + + + @ @ + + + + X O + + + + + @ + + + + + + + . + + + + + + + + @ + + + + o o @ + + + + + + + + + + + @ + + + + ",
"& & & & & & & & & * & & & & & & . @ & * & & & & & * & & & & + . % * * * * * & & & & & * & O O & & & & & & & & & & & & & & * & & ",
"> : : : : : : : * : : : : : : : X & * > : : : > * e * * e * % o * * * * * * * * : : : : : O + : : : : : : : : : , * , * * : : : ",
": r p d p u p u p < > p : r r : % * * : * < * > < * * e * < * % , & % % & % & * % * : : : & & : : : : : % : * % % % % % : : : : ",
": r u u u t u p > r r > t e < : % * : : < * > > * < e * 8 < * & 8 * & & & & * * * : : : : & & : > : * & * * & * % % % % : : : : ",
": e r r t r t r > e r : r > : : + * * * * < * * V K ( ] ] ] ( ~ ] ( K V y * * & : : : : : % # : : : : & : * & : * & & & : : : : ",
": : : : : : * : : : : : : : : : . & < < * * G ( } w.f.f.g.g.g.g.f.f.f.<.} ~ V B : : : : : + + : : : : : : : : : : : : : : : e : ",
"$ % % & % % % % % % & $ % & # %   + # : K ,.w.f.g.g.g.g.g.g.g.g.g.w.w.f.f.f.q./ K V & & % o o & % % $ $ % $ % % % % % % % % % % ",
"o O O O O O O o O O O O o O O o . O ' <.f.f.g.g.g.t._ [ :.q.g.g.f.w.<.w.g.g.f.f.f.<.P 2 + o o o O O O O O O O O O + O O O O O O ",
"@ # # @ @ @ +   % @ @ # # # # # $ ( g.g.f.f.q.) _ :.f.f.f.f.f.g.f.f.w.] / <.t.' f.q.,./ a # # # # # # # # # % # + O o % # # @ $ ",
"u u u u u u >   u u u u u t d h } g.f.w.,.,.<.q.f.r.r.q.q.,.:._ ] { ,.w.{ P ) ,.q.<.,.{ :.! d u u u u u u u u u V + + u u u u t ",
"u u r : : r r % t g g u n b m 0.g.g.f.w.w.f.r.q.<.T P T ' ,.[ T ~ / / _ ,.[ L L / <.q.>.' :.! n b b b k u g g u u # % u * e e u ",
"u u t : - r r # t d f k d k ` f.g.g.g.q.,.{ [ T H U L K L T / T ~ P P H G / [ P C H / { <.[ G c b b k f k f f f u # # u - * e u ",
"u u r > : r < & d t d g d f } g.g.w.:.' / P H Z H T T H L C C C C Z J H H Z H L G C Z F / q.Z V b g f u g d d g u & $ u * * e t ",
"u u r : - r e & t u u u t u ` g.>.) / P Z H H J G F 0 9 8 6 6 6 6 7 0 S Z H K L L / K S ) :.P B u u u t t u u u u * * u e * e t ",
"u u r - u u r # u u u u u u } >./ J P L H P Z B 9 7 6 1 6 q A C A 5 q H S C B S K H [ <.[ T Z 4 u u u u u u u u u * * d u e e u ",
"u u t t r r < & u u u u e > P / J H B H Z 0 7 A U S H 9 A I S S S ..A R S S H Y 9 C L T H Z 0 i u u u u u u u u u * * u e e t u ",
"u u t r < t < + u u t u : : V P P B L H I q  .I S S H H  . .I I o.&.A *.a.i.=.o.q I C Z Z Z C } u u u u u u u u u e * u e e t t ",
"u u r - u u : . u u u u : - ~ ' P ' L Z Y R +.O.) O.o.$. .%.1.=.%.X.I =.j.h.o.| I @.L [ >.q.w._ u u u u u u u u u * * u u e e u ",
"u t u u u t >   u u u u u u ! >./ ,./  .2.X...%.h.a.e.#.^ X.h.j.%.X.I *.j.d.#.| I @.F H Z / _ K u u u u u u u u u # # u u u u u ",
"# # # # # # + . # # # # # # a / C T T -.y.Y ..#.l.p.9.9.^ X.s.d.%.X.I *.k.d.#.| I $.) H Z J T Z # # @ # # # @ # # O o # # # # # ",
"O O o O o o o O O O O o o O a P C T T O.9...v %.k.a.9.9.^ X.h.d.%.o.v =.j.d.o.| I %.+.H H P T V O O O O O O O O O O O O O o o o ",
"% & % % & & % % % % % % % & a P C T U O.9.v | %.k.p.*.o.^ X.d.d.| X.v *.d.d.#.| H #.O.L J J / Z $ # % $ $ % % % $ % % % % % % & ",
"* : : : * * > * : : : : : : B L C T T O.9.^ ^ #.l.p.9.=.^ X.d.d.#.| Y *.d.d.#.| I #.+.H C P T G * * * * * * < * * * * < * * < * ",
": : : & & & * & & * * * : : i K C T T O.9.^ ^ #.l.p.9.=.N o.a.d.%.o.I *.s.d.o.| I #.+.H C P T G * & * & : * * * > > : : < * < * ",
": : * % % % % % & & * & & : 4 P C T ) ) *.N ^ #.d.p.9.=.^ X.u.d.%.o.I &.s.s.| ..H #.+.H C P / V & % % & * * * * * : : > < * * < ",
": : * % % & % & : & * : & * i P C / { R &.N ..%.j.p.9.=.^ X.p.d.%.o.Y 2.y.u.X.&.I #.+.H C P P 4 % % & , & * * & : > : : * * < * ",
": : * : : : * * : : : : : : i L Z _ T R $.^ ^ #.l.a.9.*.^ X.u.d.%.o...*.u.u.@.| x o.R S C J ~ 8 * * : : * * * * * * * * < * * * ",
"& & & & & & & & & & & * & & 4 L C T J R $.^ ^ %.d.p.9.*.^ X.u.d.%.| v =.p.s.%.| I N I T Z G J 4 & * & & * % * * * & * & & * * * ",
"@ + + @ @ + + + + + + + + + & G C T T R &.^ N #.d.p.9.=.^ X.u.d.%.o.v *.d.d.#.| H N H / [ T K 8 + + % + + + + + % + + + + + @ + ",
"X . . . o . . . . . . . . . + F C ~ U / &.^ ^ #.d.p.9.=.^ o.u.d.%.o.v *.d.d.| | H N H P P / ~ 8 . . . . . . . . . o . . o . . o ",
"u u u u u u u u u p u p   : d J Z T T R &.^ N #.d.p.9.=.^ | u.d.%.o.U *.p.d.| | H v I P P T T a u u u u u u :   p u u u u u u p ",
"u f g g k k k g u f h p   : p H T T P R &.Y | %.p.p.9.=...o.i.d.%.o.U *.p.d.&.2.;.) S H H T T j k k f u f d >   p e < < u u u u ",
"u k b b b b b f h f f p   = u H T T T R 3.2.=.y.d.d.i.i.=.e.a.d.y.3.1.i.d.d.m.V.B.z.F H J T T b b k f h k d > . p < : : u u u u ",
"u k n b b n b u n f t d X = y G T T T U 2.y.y.y.y.i.y.y.y.e.y.y.y.y.y.y.y.9.V.n.c.4.F H J P P b b h h n u u > X u < : = u u u u ",
"u u u u u u u u d d t t % < p H T T T H v v I v Y Y U Y I U U ^ Y U I Y  ...v.M.N.7.F J P L J t d u t u t d e % p p r > p u u u ",
"u u u u u u u u t t t d & < y Z T T U T  .l q  .=.*.@.O.C I &.=. .S q ..*.*.V.5.b.n.Q H T K H d u u d t u u e $ p e r r u u u u ",
"u u u u u u u u u u u u % < u Z T T P Z x  .v #.d.p.*.=.^ X.u.p.%.X.I *.p.p.V.W w x.Q H P H H u u t d d u u e # u r e r t d u u ",
"u u u u u u u t u u u u & < y G T T Z 0 U v X.#.p.p.=.=.N | u.d.%.o.v =.p.d.x.4.D 6.E K T H H u u u t t u u e $ u u r - u t d t ",
"u u u u u u u u u u u u % < r Z T H T L H Y N %.d.p.9.=.N X.u.d.%.o.v *.p.d.7.c.4.m.w H T H K u u u u u u u e % u < < u u u u u ",
"u u u u u u u u u u u u O < t Z T / [ H v N N %.p.p.9.=.^ X.u.d.#.o.I *.p.d...8.n.4.C H T P L u u u u u u u < o p r y u u u u u ",
"* e - : > * > > > > : :   $ > s P / J C I ^ N #.d.p.9.=.^ X.u.d.%.o.v =.p.d.| ..L Y l S T L H : - > > > : = $   > = : > > > = = ",
"X X X X X . X X . . . .       4 P T P C x N ..@.a.p.=.@.^ X.p.d.%.o.v *.d.d.%.| I v C H T H K . .   . . . X . . . o . .   . .   ",
"% % % % % % % % % O O % % % % a P T P C I | ..*.*.&.$.1...o.u.d.%.o.Y *.p.d.| | I v S J T U J & % % % % % % % % % % + X % % % % ",
"* * * * * * * * : O O ; & : & s P T P C H v  .%.d.d.i.3.N | u.d.%.o.v *.p.d.%.| x ..H T / P C * * * * ; : & & : & : # . ; : * & ",
"* * * < > * * : : + % : : & * s T T P C U v N | p.p.9.=.N X.u.d.%.o.v *.p.d.| | I ^ S T P P B < e < > < : < < : < > $ O : : : : ",
"* < > : : : : > : & & : % % % 1 P T I C v N | %.d.d.9.=.N X.u.d.%.o.Y *.p.d.| | A ^ [ / T / C d u u p p - r r : p < * $ : : : : ",
"* < * * : : : : : & * : % % % 7 P K L C H ^ ^ &.d.a.9.=.^ X.i.d.%.@.U =.d.d.#.| I U J / / P C u u p t - p > < p : : : # : : : : ",
"< * * e : : : : * % @ : * * * 2 P Z J S I &.2.y.d.d.i.i.=.3.s.d.y.3.&.i.d.d.e.=.@.) J / P C C < < > < : < > > > : > $ O : : : : ",
"* * * * * * * * * O O * & * * 2 P Z P S I &.y.y.y.y.y.y.y.y.y.y.y.y.e.y.y.y.e.y.3.+.P T / Z 4 : : & * * : & * * * : @ . * * * * ",
"% % % & % % % % & O O % % % % , P Z L K F Z I I Y Y Y U I I Y Y U I I Y Y Y U U I H J J P H ; % % % % % % % % % % % +   % % % % ",
"o o . . . . X X o . . . . o . ; P P C H Z q C ^ =.*.o.O.C U %.=...L q O.*.=.^ H 7 Z L H H L + X . .     .     .   . .   . . . . ",
"* * e * e * : : : : & X : : > 2 H T C H Z A Y @.p.i.=.=.Y X.u.d.%.X.I *.p.p.o.| S U P H L H 2 : : + + = > : = = > > = = > : > > ",
"p u t t t t t u r u > X p u p h a T H L C x | #.d.p.=.#.Y X.u.d.%.o.v *.p.d.X.| H U J H K Z r t u @ $ u h d u d h h f d d d h u ",
"p d t * * : e u - r : X p u h b a P C S l S N #.d.p.*.*.N o.u.d.%.o.I *.p.d.#.| H U P H H B , : u : : u c d h b b n n n n b g u ",
"t t r : : t r : u u :   p p f n a J C S 0 x N #.p.p.*.#.N | y.d.| | v =.p.u.| | l v H H Z a , : u = = y u g g u n b b b b b g t ",
"d d t r t t t t u u < + u u f b a C 0 Z 0 l c | y.9.%.N M N %.u.| v x %.y.*.| N 4 H A Z B 9 : : u ; : u u d d u f f f d h h d d ",
"t u d t t u t t u u < % u u d g 5 0 8 0 0 p p c | M M z u z M | M s d v v v c s > i a Z 9 7 : < u ; : u u u u u u u u u u u t u ",
"u u u t t d d u u u < & u u u u 7 7 6 1 3 u p p d d d u u u u d h u u p ; y p p = r a 0 7 6 , p u : : u u u u u u u u u t u u u ",
"t < > t : : - : u u r # u u d b u u u u d t u u u u u u u u u u u u u u $ < r = u u u u u u t = u : : u u u r - - - e d - t t u ",
"d t r e r > : : u u > + u u u h g d u u t u u u u u u u u u u u u u u u $ < u y - u u u u r r r u # % u u u r - : < r - t t u u ",
"u u t < t r < < u u = X p u u u g d u u u u u u u u u u u u u u u u u p + < u u < r u u u < r u u # @ u u u t < < r u e u u u u ",
"u u u u d u t u u u =   p u u u u u u u u u u u u u u u u u u u u u u p   = u u u u u u u u u u u @ @ u u u u u u u u u u u u u "
};
