/* XPM */
static char *result[] = {
/* columns rows colors chars-per-pixel */
"64 64 99 2 ",
"   c #4E2B27",
".  c #4E2B28",
"X  c #502B26",
"o  c #532F2B",
"O  c #56302C",
"+  c #5D342E",
"@  c #61362E",
"#  c #63382D",
"$  c #6A3B2E",
"%  c #663931",
"&  c #6B3D31",
"*  c #713F32",
"=  c #77432F",
"-  c #78442F",
";  c #644134",
":  c #6E4234",
">  c #6A4837",
",  c #6E4738",
"<  c #6C4B38",
"1  c #754232",
"2  c #794531",
"3  c #704836",
"4  c #7D4833",
"5  c #744C39",
"6  c #784D38",
"7  c #74513C",
"8  c #7B543C",
"9  c #7F593E",
"0  c #635142",
"q  c #6A5442",
"w  c #715742",
"e  c #765841",
"r  c #7C5B41",
"t  c #804733",
"y  c #844C34",
"u  c #894E35",
"i  c #8D5135",
"p  c #84543A",
"a  c #8B5238",
"s  c #83593D",
"d  c #8B5D3E",
"f  c #935636",
"g  c #965935",
"h  c #9B5D36",
"j  c #935638",
"k  c #945D3D",
"l  c #9C5D38",
"z  c #92643D",
"x  c #98693C",
"c  c #A36336",
"v  c #A26339",
"b  c #A5763F",
"n  c #825F42",
"m  c #8C5E41",
"M  c #915C42",
"N  c #856143",
"B  c #8B6444",
"V  c #936544",
"C  c #986642",
"Z  c #956B47",
"A  c #986D47",
"S  c #9B6F48",
"D  c #9C7542",
"F  c #9D7C45",
"G  c #9E7149",
"H  c #A06C43",
"J  c #A56F4A",
"K  c #A67741",
"L  c #A3744C",
"P  c #A8784E",
"I  c #A37651",
"U  c #AC7753",
"Y  c #A77952",
"T  c #AD7C52",
"R  c #B17D53",
"E  c #B97F54",
"W  c #947973",
"Q  c #AA8546",
"!  c #A78349",
"~  c #AD8549",
"^  c #AF894E",
"/  c #B68A4A",
"(  c #B58255",
")  c #B88457",
"_  c #BE895A",
"`  c #B89051",
"'  c #BE9E53",
"]  c #9B827D",
"[  c #BA9D65",
"{  c #C38756",
"}  c #C38C5C",
"|  c #C98F5E",
" . c #C7905F",
".. c #C0A156",
"X. c #C98F60",
"o. c #CC9361",
"O. c #D09664",
"+. c #C7AE75",
"@. c #B9AAA2",
/* pixels */
". . . . . . . . . . . . . . . . . . . . . . . . . . . . . . . . . . . . . . . . . . . . . . . . . . . . . . . . . . . . . . . . ",
"+ + + + + + + + + + + @ + + + + X O + + + + + @ + + + + + + + . + + + @ + + + + + + + + + . O + + + + + + + + + + + + + + + + + ",
"& & & & & & & & & & & & & & & & . @ & * & & & * & & & & * & @ . % & & & & & & & & & & & & O O & & & & & & & & & & & & & * & , & ",
"2 1 1 1 2 1 2 1 1 1 1 1 1 1 1 1 X $ 1 1 1 1 1 1 * 4 1 * 2 * % . * 1 1 1 1 1 1 1 1 1 2 1 1 + + 1 1 1 1 1 1 1 1 1 1 1 1 1 * 2 * * ",
"1 y a i a j j u a 6 4 a 1 y u 1 % * * 1 1 2 1 2 4 * * t * * * % 1 & % & % & & 1 & & 1 1 1 & & 4 1 1 1 1 % * : % % % % % * 1 t * ",
"1 y i a i u u a 4 y y 2 u y 2 1 % * 2 1 1 1 1 1 4 * * 6 * t * % 1 & % % % & & & * * 2 1 1 & & 1 4 1 1 & 1 & & 1 % % % % e * t * ",
"1 t y u u u y y * t y 1 y 2 1 1 @ & * 4 6 * 1 1 * 2 * M O.X.X.X.X.X.X.X.U S e & 1 1 1 1 1 % # 1 1 1 * & 1 & & 1 & & * * * t * * ",
"1 1 1 1 * 1 1 1 1 2 1 1 1 1 1 1 . & 1 * 4 * 1 1 M J X.O.O.O.O.O.O.O.O.O.O.E E J m 6 1 1 1 + + 1 1 1 1 1 1 1 1 1 * * * t * * * t ",
"& # % % % % % % % % % $ % % $ %   + $ $ $ * V O.O.O.O.O.O.O.O.o.O.O.O.o.o.O.O.O.O.L L 6 & O O % % % $ $ % % $ % & % % % % % % $ ",
"O O O O O O O O O O O O O O O o   o o o U X.O.o.O.O.O.} T T o.X.O.O.o.} ( O.O.O.O.O.O.} Z s X O O O O O O O o o O + O O O O O O ",
"# # # # + # +   # # # # # # # # # # # R o.O.O.} } G T ) O.O.o.O.O.O.O.O.o.P G } O.P o.} } T s % @ @ # # # # @ @ % O O @ @ @ @ % ",
"i i i i i i 2   i u j u i i i i i i | O.O.O.L o.o.o.O.O.O.O.o.L L L L I o.o.P B L _ O. .L L o.V i i i i i i f u u @ @ i i i i i ",
"i i y 1 1 y t % i h h i c c c c c { O.O.O._ O.O.o.) ) G G G L ) R G G G G L ) ) Y B L ) O.) Y ( H c c v u h l j i @ # u * * t i ",
"i i y 1 2 y t $ i f g h f h c c | O.O.O.O.o.o.G G G G G r r n G G G G G G N A G G G n N Z o.O.S C H h g h g g h i % # u * t t i ",
"i i y 1 - y t % i i f h i g h h } O.O.O.T L G G B B Z G G G A B N B N B G G Z B B G B N Z N G o.B z g i h f f h i & $ j * 2 t i ",
"i i u 1 - y t & u i i i i i i i } O.} G G G Z N Z G Z Z s s s i % t a i m N Z A G N G G N n S _ S p i i u j u i u 1 * i - - t u ",
"i i y - i i t % i i i i i i i i } _ G G G N Z G B N p i i i i i # 4 i i j g g a n Z Z G T X.( L B s u i i i i i i * 1 i a t 4 u ",
"i i i y 4 y t $ i i u i t t t t R G G Z r G Z 8 a y 4 4 4 y i i & t i f g g j i i p s n Z G Z B r s i i i i i i i - 1 u t y u i ",
"i i i y 4 i 4 + i i i i * 2 1 t s S S r G r m 4 y t 4 1 1 y i i + 4 i i h g f i i i i i r r r r n E i i i i i i i 2 * a 4 t u i ",
"i i y - i i 2 . i i i u - - 4 u } T R R Y D x i 1 y y 1 2 y i i . 2 i i i h h i i i i i k T _ O.O.J i i i i i i i * 1 i i 4 4 i ",
"i i i i i i 1   i i i i a a a a A X.A } A Q K i i i i i i i i i . 1 i i u j u i i i i i a G B G S C u j u i u i j # # u i i i i ",
"# # + # + # + . # @ # # $ @ @ % V G r G Z ..! # @ @ # # # # # # . + # # # # # # @ # @ # ; L B G G d @ # # # @ $ # o O # # # # # ",
"O O O O O O O O O O O O O O O O V G r G Z ' ! o o + O O O . . O O O O O o O O o o o O O ; S Z G G s O o O O O O O O o o o o O O ",
"# $ % % % % % $ % % % % % % % & Z G r G A ' ! % % % % & # O o & & % & # % & % % & % $ $ , S S G G m & % % % % % % $ $ % & % & # ",
"1 1 1 1 * 1 1 1 1 1 1 1 1 1 1 * 8 G r G A ' Q 1 1 1 1 1 1 O + 1 1 1 1 1 1 1 1 1 1 1 1 1 6 J B G J M * * * 6 * 2 * * 4 * * 4 * * ",
"1 1 1 & & & & & & * 1 & 1 1 * 4 8 G r G A ' ^ 1 & ; & & 1 % # 1 1 4 u y y y t 1 y 2 1 1 6 S B G G M * & * * * * * 2 1 1 4 * 2 2 ",
"1 1 : % % % % % & & * & * * 6 1 9 G r G A Z [ : & $ % % 1 & : 1 1 y i i i y y t u 4 1 1 6 S B G G m % & * * * * 2 1 2 1 t * * 2 ",
"1 1 1 % & % % & 1 & & 1 & * * 1 8 G r P ) n +.] 1 & % & 1 & & 1 1 y i a a 4 4 i 2 1 1 1 6 S B G S w & 6 % * * & 1 1 1 1 * * * 6 ",
"1 1 1 1 1 1 * 1 1 1 1 1 1 1 1 1 r G G G G N +.@.1 1 1 1 1 + + = 1 4 1 1 - 1 1 2 1 1 1 1 6 G B G J 8 1 1 * * * * * * * * 2 * * 2 ",
"& & & & & & & & & & & & & & & & 8 G r G G r [ @.& & & & & O O & & & & & & & & & & & & & B Y N B S 7 & & & & * * * * * * * * * * ",
"+ + + @ + + + + + + + + + + + + + G r G G N [ W + + + + + O . + + + + + + + + + + + + + N G o.G G 5 + + + + + + % + + + + + + + ",
". . . . . . X . o . . . . . . X . G r G G N F . . . . .       . . . X . . X . . . . . . B G G G G < . . . . . . . . . . . . . . ",
"a a i i i i i i i a i p   1 i i i G N G G n / i j u j u u i j u u i i i a i i i u u i u N L S L S p i i a i 2 . i i i i i i i i ",
"i g l h l l h h i g g i   1 u 4 4 G G G G n / i 4 f f u j i u i i i i i i i i i f u i f N S B G G h g i h j 2   a t 4 t i i i i ",
"i h c c c c c h f g g a   = u = 1 G G G G N ` y y h c f u i u i i j j f i j f j f u i i B B A G G h g g g f 4 . i 4 1 1 a i i i ",
"i l c c c c h i v g i i   4 y = 1 G G G G n ~ - c c c c i i j u i h v v i l v v i i i i B 9 L S G g j v i i 2 X a 4 1 1 i i i i ",
"i i i i i i i i j i u j % 4 a a 1 B G G G N z i - f c c c f u j i h f # i * 2 c i i i i B Z G A Z i i j u i t % i a u - a i i i ",
"i i i i i i i i u i j u $ 4 u 4 y B G G G n b i t y j c c h g u i i i 1 1 = 4 f i i i i N Z G A Z i i i i i t # i y t y i i i i ",
"i i i i i i i i i i u u % y u 4 y B G G G n d i i t y f c c x f i i y 1 & 1 4 i i i i i B r G A Z i i i i i t & a y t y i i i i ",
"i i i i i i i i i i u j % 4 i i - B G G B B p i i f y - c c c c i i t 1 - - 4 i i i i i n S G A Z i i i i i y # a a y = i i i i ",
"i i i i i i i i i i i i % t y 1 i B G N L G p i i i i i 1 f h i i i i i i i i i i i i i r S L A Z i i i i i t % i 4 4 a i i i i ",
"i i i i i i i i i i i a O 4 i y i B G T T G p i i i i i y j j i i i i i i u i i i i u i r G S A Z i i i i i 2 O i u u i i i i i ",
"t * * t 2 2 - - 2 1 1 1   $ 4 1 1 d G G A A 8 1 1 2 2 2 - 2 1 2 2 2 - - 2 2 1 2 2 2 2 2 r S G A Z 2 2 2 2 1 $ . 1 4 1 2 2 2 - - ",
"X X X X . X X X . . . .         . 3 G G A A >   . . . .     . .   .   . . . . . . . . X r G G A Z   .       . . . . . . . .     ",
"% % % % % % % % % O O % % % % % % 8 G G Z Z 5 % . + % % % % % % % % % % % % % % % % % % B S G A A % % % % % % % % % + X % # % % ",
"* * * * * * * * 1 O O : & 1 & 1 * p G G A A 5 : . & & * * * & 1 * : * & * : * * * * * * B S S L N * * : 1 & & 1 & 1 # . : : & 1 ",
"* * 4 * 2 * * * 1 # + 1 1 & * & * p G G Z A 8 1 o & 1 1 1 1 1 & 1 1 & 1 1 & 1 1 1 1 1 2 B S S G N 4 4 4 - 4 2 2 4 2 $ O 1 1 1 1 ",
"* t 2 * 2 1 1 2 1 & & 1 & % % % % 6 J S A A 8 1 % 1 1 1 1 1 * % 1 & % % % % & 1 1 1 1 8 ) L L S N i u a 1 y y 1 a 4 * % 1 1 2 1 ",
"4 4 * 4 4 * 1 * 4 & & 1 & % % % 1 5 G G A Z 8 1 # 1 1 1 1 & & 1 % * * % % % & 1 3 1 2 8 G G G G n a y 2 a 4 4 a 1 1 1 % 1 1 1 1 ",
"* * * * * * 4 * * @ @ * * * * * 1 5 G N G N 8 1 O $ 1 2 1 1 * 1 * 1 * : & 1 * 1 1 1 1 8 G G G N N 4 4 1 4 2 2 4 - 2 $ O 1 1 1 1 ",
"* * * * * * * * * + O & * * * * 1 5 G N G r B : . % * * & * 1 : * * & 1 1 & : 1 1 * : 8 G G G r n & * * & * : 1 & * # . * & * * ",
"% % % * % % % % % + O % % % % % % , G B G N Z % . + % % % % % % % % % % % % % % % % % 8 G G G A : % % # % % % % % % +   % & % % ",
"o . . . . . X . . . . X . . . .   ; G G N N Z . . .       .     . . . . .   .   . . . 7 G G Z A + .     . .   . . . . . . . . . ",
"* * t * 2 * 2 2 2 1 & . 1 4 1 1 2 6 G G r N B 1 1 1 1 2 2 2 = 4 1 2 2 1   $ 1 2 1 2 1 8 G G B G 6 + + - 1 1 = 1 2 - 1 2 2 1 2 2 ",
"j i u u u u u a y i 2 X u j j j f i r G B G r f f g j f j f j i g i i a   = i y y i i 9 G G Z B a # $ i g i j j g f j f g g j i ",
"j a u * * 2 t a 2 y 1 X a i f c c g r G N G r c c c c c c c g i v g i a   4 y 1 1 y i 9 G G B r p 1 1 i v f g c c c c c c c g i ",
"u j y 1 1 y y 2 i i 2   i a g c c g r G n n r c c c c c c f f c i h g i X 2 y 1 1 y i 9 A G B r u : : i i h h i v c c c c c h j ",
"i u u u u u u u i i 4 + i i g c v f r m n n r j g g g f f i f f i j j i @ 4 y 1 1 y i 9 B G N r p = = i i j j i g g g j f f f u ",
"i i i i u j u u i i 4 % i i j g v g r s w r n i i i i i f u i i i i i i % t u 4 = y i 9 r G w e p 1 = i i i i i i i i i i i u i ",
"i i u j u u j u i i 4 % i i i i v f 0 6 0 e 5 a i i i i i i i i i i i i & 4 i a - y i i k 9 q 0 6 1 1 i i i i i i i i i i i i i ",
"i t 4 u 2 * - 1 i i t $ i i g v i i i i i i i i i i i i i i i i i i i i # t y 2 a i i i i i u - i 1 1 i i i y - 2 - t i 2 y i i ",
"i u y t y 4 1 2 i i 2 O a i i g h f i i i i i i i i i i i i i i i i a i & 4 i y 2 u i i i y t y i $ % i i i y - - t y t u y i i ",
"i i u 4 a y 4 4 i i 2   a i i i h f i i i i i i i i i i i i i i i i i a + 4 i i 4 u i i i y t i i # # i i i u 4 4 y u t i i i i ",
"i i i i i i i i i i 2 X a i i i i i i i i i i i i i i i i i i i i i i i   1 i i i i i i i i i i i # + i i i i i u i i i i i i i "
};
