/* XPM */
static char *result[] = {
/* columns rows colors chars-per-pixel */
"64 64 154 2 ",
"   c #4E2B27",
".  c #4E2B28",
"X  c #502B26",
"o  c #532F2B",
"O  c #56302C",
"+  c #5D342E",
"@  c #60362E",
"#  c #63382D",
"$  c #693B2E",
"%  c #613731",
"&  c #663931",
"*  c #6B3D31",
"=  c #713F31",
"-  c #76432F",
";  c #78422E",
":  c #6E4132",
">  c #674F3E",
",  c #754332",
"<  c #7A4532",
"1  c #764A36",
"2  c #7E4933",
"3  c #714D39",
"4  c #7B4D39",
"5  c #6B503F",
"6  c #7B533B",
"7  c #7E593E",
"8  c #645142",
"9  c #695342",
"0  c #6F5943",
"q  c #715541",
"w  c #7B5B41",
"e  c #7E6243",
"r  c #7B6657",
"t  c #804733",
"y  c #844C34",
"u  c #894E35",
"i  c #844E3A",
"p  c #845237",
"a  c #8D5135",
"s  c #85553B",
"d  c #8C5238",
"f  c #835A3D",
"g  c #8B5A3C",
"h  c #935636",
"j  c #975936",
"k  c #9B5D36",
"l  c #945738",
"z  c #935D3B",
"x  c #9C5D38",
"c  c #8F653B",
"v  c #96633B",
"b  c #99633C",
"n  c #956A3D",
"m  c #9C6E3E",
"M  c #9A733F",
"N  c #A36336",
"B  c #A26339",
"V  c #A2683C",
"C  c #A57E3F",
"Z  c #835E41",
"A  c #8C5E42",
"S  c #856343",
"D  c #8C6544",
"F  c #8D6A43",
"G  c #81684C",
"H  c #926544",
"J  c #9B6643",
"K  c #936C45",
"L  c #996D46",
"P  c #946C48",
"I  c #9A6E48",
"U  c #967343",
"Y  c #9A7443",
"T  c #9D7942",
"R  c #93714C",
"E  c #9E7149",
"W  c #9D7B4A",
"Q  c #A06947",
"!  c #A16E4C",
"~  c #A37C41",
"^  c #A3744C",
"/  c #AA734E",
"(  c #A27D4A",
")  c #AA7A4F",
"_  c #B4764B",
"`  c #BA7C4F",
"'  c #A37651",
"]  c #AC7450",
"[  c #AC7B51",
"{  c #B27C53",
"}  c #AB833F",
"|  c #A58145",
" . c #AA8443",
".. c #AE8946",
"X. c #A5824B",
"o. c #AA874B",
"O. c #AD8A4A",
"+. c #B28B43",
"@. c #B18E4B",
"#. c #B69147",
"$. c #B4914B",
"%. c #BA954A",
"&. c #BD9A4D",
"*. c #B58255",
"=. c #B88456",
"-. c #B28E53",
";. c #BB8659",
":. c #BE895A",
">. c #B59251",
",. c #B99654",
"<. c #BC9B53",
"1. c #B4945D",
"2. c #BFA057",
"3. c #A68761",
"4. c #A88C6B",
"5. c #A18570",
"6. c #A48A75",
"7. c #AF9372",
"8. c #AF977D",
"9. c #B89F77",
"0. c #C19E4E",
"q. c #C48D5D",
"w. c #C29F51",
"e. c #C8905F",
"r. c #C3A14F",
"t. c #C5A352",
"y. c #CEAE56",
"u. c #C4A65B",
"i. c #CBAC5A",
"p. c #CEB05D",
"a. c #D1B15A",
"s. c #CD9362",
"d. c #D09664",
"f. c #C6A760",
"g. c #C6AB6D",
"h. c #D2B561",
"j. c #D5B964",
"k. c #D7BB68",
"l. c #D9BE69",
"z. c #AD9584",
"x. c #AB968B",
"c. c #B49C81",
"v. c #AE9B94",
"b. c #B9A486",
"n. c #B5A295",
"m. c #B8A696",
"M. c #BCA997",
"N. c #B7A49A",
"B. c #BDAB9E",
"V. c #C3AD86",
"C. c #C9B49B",
"Z. c #CFBEA6",
"A. c #DAC6A4",
"S. c #D2C1B1",
/* pixels */
". . . . . . . . . . . . . . . . . . . . . . . . . . . . o . . . . . . . . . . . . . . . . . . . . . . . . . . . . . . . . . . . ",
"+ + + + + @ + + + + + % + + + + X O + + + + @ % + + + + + + O . % + % % % + + % + @ + + + o O % + + + + + % + + + + % % + + + + ",
"* * * * * * * * * * * = * * * * . @ = = = = = = * = = * = = % . & = * = * * & & * * * * * O O * * * * * * * * * * * * * * = & & ",
", , , , , , , , , , , , , , , , X * = = = = = = = t = = = = & o = = = = = t = = , , , , , O + , , , , , , , , , , , , , , , , , ",
", u d a d a d a d 2 2 a , u y , & = = t < = = < = < < = < < = & = * & & * & * = & = , , , * * , , , , , & = * & * & & & , = < q ",
", y a u a a a d 2 t u , u t < , & = = = , < < < < = = = = Z = * i = * & * = = = = , , , , * * , , , = * , * * , & & & & = < t = ",
", 2 u u u u y y - 2 y , i < , , + = = < , , = = = t H ] ] ] ] ! ] ] ] ! A A Z & , , , , , & & , , < = = , * * < = * = * = t = = ",
", , , , , = , , , , , , , , , , X * q < = , = i ] ` e.d.d.d.d.d.d.s.s.s.q.` ] A g , , , , + + , , , , , , , , , = = = t = = = t ",
"& & & & & & & & & & $ $ # & & &   + $ & , H { q.s.d.d.d.d.d.d.d.d.d.e.e.s.s.s.q.) ^ A , & o o & & & $ $ & & & & & & & $ & & $ & ",
"O O O O O O O O O O O O o O O O   X O f ;.e.d.d.d.d.e.) ) :.q.d.d.s.s.;.q.d.d.d.s.s.q.^ c + o o O O O O O O O o O + O O O O O O ",
"# # # # # # +   # # # # # # # # @ $ g d.d.s.e.q.) ) *.e.s.d.e.d.s.d.s.e.*.^ :.s.[ ;.e.:.) P $ $ @ # # # # # # # @ O O @ # # @ @ ",
"a a a a a a ,   d a a a a a a a h / e.d.e.:.;.q.q.d.e.e.e.q.;.*.[ [ { ;.q.{ ^ I [ q.:.;.{ *.^ g a a a a a a a u a % % a a a a a ",
"a a y , - y t % u k k a N N N N _ d.d.d.q.q.s.e.:.;.) E E E *.;.I ! E E ^ *.=.E H ^ =.q.=.*.*.I N B N B u k x h u @ # d = = t a ",
"a a y , , y y $ u h j k h k N _ e.d.d.d.e.:.*.) ^ K P L P K E E I ^ ^ E P K K { ' D H E *.=.*.H V B k h x j j k h & # a = t t a ",
"a a y , , u 2 $ h u h k h j k ` s.d.e.;.) ^ E P D K L E L P F F D H P P L P K D E P S D D P q.) g k j a k h h k u & $ a ; = t a ",
"a a u , ; y t & u h a a u u h _ e.q.) ^ E K H K P L D K K F S S F o.T R X.R D P H P ' P D P =.' A a a a u h u a a , , a ; = t a ",
"a a y ; a a t $ a a a a a a a _ e.^ I I P H I H e S S F U O.W | #.+.| ..p.u.| c S P P [ :.;.^ P f a a a a a a a a = , a a t 2 u ",
"a a a y t u t & a a u a t t t Q ^ I I S H P e S S F F U X.| &.l.i.+.C $.a.p...} F F S D E L D w f a a a a a a a a = = a t y y h ",
"a a u y 2 p 2 + a a a a , , < f L I S D F F e W | R O.t.o.~ %.l.t.&.| $.a.a.+.} U +.w.' S D D D ^ h a a a a a a a = , a 2 y u a ",
"a a y ; a a < . a a a u ; ; 2 / ' E ' I F U %.W #.j.j.y.| C %.l.t.%.| $.j.a.} } K +.i.o.) :.:.q.{ h a a a a a u h = , a a 2 t u ",
"a a d d a a -   a a a u d a u J *.) =.) W &.#.U } a.a.r.| M %.l.r.#.C $.a.a.+.} U +.i.X.H Q E ) L h u h u a a a a # @ h a a a a ",
"# # @ $ # # + . @ @ @ $ # # # Z E D E P X.u.+.U } a.j.r.M } %.l.t.%.C $.p.a.+. .K +.i.R D P P E H # @ # # # # # # o o # @ # # # ",
"o O O o O O O O O O O O O O O 4 L D L P | r...M } a.a.r.M } %.l.r.&.~ $.p.a.} | U +.r.F D L L E H + o O O O O O O O O O o o O O ",
"$ $ & & & & % $ * & & & & & & Z E D E P X.r...U ..a.a.&.M | %.p.t.&.~ o.t.r.| #.K #.r.K D I E E H & $ & $ & & & $ $ & & & & $ & ",
", , , , = = < = = , , , , , , 4 I D I P X.r...U } a.a.r.M } %.j.t.r.| $.i.a.%.} K +.t.E D K K E P < = = = = t = = = < = < = < = ",
", , , & * * = * = = , * , , , 4 L D I P X.r.} M } a.a.r.T T %.y.t.0.~ $.a.a...} U +.r.Y H K K ! H = = * = = = = = < = < , , q < ",
", , = & $ & & * * * = * = = = 4 I D I E W $...U } a.a.r.M } %.y.t.0.~ $.y.a.+.} U +.t.U D P P I H & & * = = = = < , , , = = = t ",
", , = & & & & * , * * , * = , w L D I [ R  .} M } a.a.0.C M %.a.r.r.~ $.y.a.} } K +.t.E H P P L A & * < * = = * , , , < t t = = ",
", , = , , , = = , , , , , , = 4 L H E ' P | ..M } a.a.r.M } %.y.t.0.~ $.y.y.} <.7.1.u.W D P P I Z , = , = = = = = = = = = = = t ",
"* * * * * * * * * * * * * * * 1 I D I E R | +.U } a.y.0.M C %.y.t.0.~ -.y.a.,.C.B.b.f.X.' H D I Z = * * * = = = = = = = = * * * ",
"@ + @ + % % + + % + + + % + + % H D E E P | +.Y } y.a.0.T ~ %.y.t.0.| <.h.h.A.N.x.3.( U I [ I I Z % % + + % + + % + + + + + % % ",
". . . . . . . . . . X . . . . . H D I E P | ..U } y.y.r.M } %.a.a.k.h.a.y.%.M.v.S.4.C P I ! ! I w X . . . . . . . . . . . . . . ",
"d h a a a a a u a a d d X , a a P P E E U | ..U } a.p.t.O.%.p.j.a.w.&.| ~ T 5.n.v.Z.g.X.I L E Y g d a a u a , . d a a a a a a a ",
"u j k x k k k k a j l d X , p 2 P E E E P ..} X.#.p.j.h.p.u.@. .| E F T ..t.-.8.r m.V.X.P D ! I b k l h k h ; X d y 2 2 d a a a ",
"a x N N N N N k l k k d X ; y - L E E E P O.&.p.p.i.%.$.| U T | T ..F O.y.a.>.c.G z.9.X.D H E I V x j l k h , . a 2 , - a a a a ",
"u x N N N N k a N l a a X , u , D E E E P o.2...| | | M S G O.t.0.&.T O.y.p.@.m.c.c.1.( Z I E P V l l N a a 2 . d 2 , , d a a a ",
"h a a a u h u u a a a a $ 2 d a 6 E ^ E K F Y e F ..r.$.F M %.y.t.0.~ $.y.y...6.z.4.<.X.K E E Z j a a a a a y % a a u ; a a a a ",
"u a a a h u u h a a a a $ t y 2 f E E E R U U S C t.a.r.T } %.y.t.&.~ $.y.a...~ R O.t.X.D I E w j a a a a a 2 $ a y 2 y a a a a ",
"a a a a a a a a a a a d $ 4 y 2 f ! E E D c M M } y.a.&.T M #.y.t.0.C $.y.a...} U +.t.X.S I ^ c z a a a a h t & d y t u a a a a ",
"a a a a a a a a a a a d & 2 a d 7 E I F S U } M } y.a.r.T } %.a.r.0.C #.y.a.} } P +.t.W P I E f z d a a a a t & a d y , a a a a ",
"a a a a a a a a a a a a $ 2 y - f E E K I U C Y } y.a.r.M C %.y.t.0.C $.y.y.} } T +.t.T D E E S j a a a a a t & d 2 2 d a a a a ",
"a a a a a a a a a d a d O ; d u f E E [ I P C U } a.a.&.M C %.y.t.r.~ $.y.y.} } U #.$.F K L E Z z a a a a a 2 o a p a a a a a a ",
"; < < , , , ; < , 2 , ,   $ 2 , 2 E E E D U C U } y.y.#.W T %.y.t.0.~ $.y.a...} U +.( 6 K E E f s , - , ; , $ . , - , , 2 , - ; ",
"X X . X X . X X . . . .         O T E P D K C U O.p.t.%.| } %.a.t.0.~ $.y.a.+.} U +.T 3 K E E f :   o . .     o . o . .   .     ",
"& & & * & & & & % O O & & & & % : E ! K H K C Y ..a.a.r.| M %.y.t.0.~ $.y.a.+.&.u.f.X.6 L E E K 4 & & % & & & & & & + X % & & & ",
"= = = = = = = = , O O , : * , , , E E P D U C Y } y.a.r.M C %.a.r.0.| <.a.h.p.y.t.<.K f L E ! K 3 = : , = , = * * : $   , : , * ",
"= = < = , , = < , + + , = , : : 2 E E P D U C M } y.p.&.M } %.p.a.k.h.p.y.$.+.W U U c f L E ^ P 4 2 2 2 - , 2 , 2 , $ O , , , , ",
"< t = < , , , , , * * , $ & & & * F E P D K } U } a.p.t.O.%.p.j.a.t.,. .~ T K F 0 W X.E ^ E E P s a a d - y y , d y = & , , , , ",
"= < , , < = < < = = * , & & & & , D E P D K | o.%.p.j.p.y.u.+...| U F T ..0.} C F ..o.P ^ E L P d a u - d 2 2 d , , = $ , , , , ",
"< = < = < = = < = % % , = = = = , P R D F K $.f.p.i.<.%.| T T W T O.F O.y.y...} U +.o.K E Q S P 4 2 , , 2 , , 2 ; , $ O , , , , ",
"= = = = * = = = = + O * , = = = , D L D K D $.| | | T T e S ..r.&.&.M O.y.a...} F #.o.P E E K Z , * , : , * * , , : $ . = * = = ",
"& & * * & & & & * O O & & & & & * F L D H S K e F ..r.$.U Y %.y.r.r.C #.y.a...} U +.| K E E L 6 & & & & & & & & & & +   & & & & ",
". . . . . . X X X X . . . . . . o F L K D D S S | t.a.0.M } %.y.t.r.| $.y.r.} } F ..| P ! c E 5 . .       .   .   X     . o . . ",
"< = t = t = , < , , $ . , 1 < , 2 D E K D S M U } a.y.0.M C %.a.r.} C $.y.%.} M 4 p f F ! S E 6 , + + , 1 < - - 2 , , - , , , , ",
"A d a u u u u a u d < . a a h l l s L L L S M U } y.a.r.M } ..t.&.} M T T n g p y u s K ^ S D w a $ # a h h a h h h j j l l l a ",
"u u u = = = t a = y < . d u l B N g L P P S M U } y.y.r.M U C | %.K d d O < u , , u s H I D S 6 a , , a b j h N N N N N N N k a ",
"u h y , , y u = a h , X a a l N N g P F D w M U C 0.r.#.M v z b g k b d   - y , , u s D P F Z 6 d - , a a k b a N N N N N N k a ",
"a u u u u u u y a u 2 @ a a l N N f S A D w n K M C C m l a a h a a h a + 2 y , , y s Z K D w 3 d : , a a h h a h h l l j l l a ",
"a a u a u h u h a u y & a a h k B f 7 6 w w f a a v g a d a a a a a a a & t u 2 , u s f D w q > a - - u a a a a a a a a a a a a ",
"a a h u u d h u h u t & a a a a B 6 9 5 9 q i u a a a a a a a a a a a a & 2 a a - y a d f 9 8 9 p , - a a a a a a a a a a a a a ",
"u 2 < u , , ; , a a y $ a a l N a a a a a a u u a a a a a a a a a a d a $ t p ; a a h a a a y ; u , , a a a y ; ; , 2 h ; u a a ",
"h u y t y 2 , , a h , O d a h l k h a a a a h h a a a a a a a a a a a a & t d y ; u a a a y t y a $ & a a a y ; , t t ; y u a a ",
"u h u 2 a y 2 2 a a , X a a u a k h a a a a u u a a a a a a a a a a a a + 2 a a 2 p a a a y t a a # @ a a a y 2 2 u u t h u u h ",
"a u a a a a u a a a ,   a a a a a a a a a a h a a a a a a a a a a a a a   - d a a a a a a a a a a # # a a a a a a a h u u u h u "
};
