/* XPM */
static char *_c5c8f2d14654483ec6b5693171a6b8aesixYLKNvKRl258m[] = {
/* columns rows colors chars-per-pixel */
"64 64 89 1 ",
"  c #0E0707",
". c #0F0808",
"X c #120A09",
"o c #17110E",
"O c #320605",
"+ c #3D0606",
"@ c #261412",
"# c #2F1B12",
"$ c #341D13",
"% c #362116",
"& c #3B2517",
"* c #36231C",
"= c #3D2718",
"- c #4E0303",
"; c #540302",
": c #5E0806",
"> c #690000",
", c #750202",
"< c #7D0202",
"1 c #402717",
"2 c #42291D",
"3 c #442D22",
"4 c #4D2B26",
"5 c #4E2B28",
"6 c #502B25",
"7 c #522F2A",
"8 c #4B3220",
"9 c #523127",
"0 c #55302B",
"q c #5D352E",
"w c #60372D",
"e c #64392E",
"r c #6A3C2E",
"t c #653A31",
"y c #6B3D31",
"u c #703F31",
"i c #6B412D",
"p c #76432F",
"a c #78452F",
"s c #6F4031",
"d c #754331",
"f c #794531",
"g c #7E4832",
"h c #7E5233",
"j c #840201",
"k c #8E0000",
"l c #920000",
"z c #9A0101",
"x c #A40101",
"c c #AE0101",
"v c #B10101",
"b c #BD0101",
"n c #B10B0B",
"m c #BE0B0B",
"M c #C40101",
"N c #CA0101",
"B c #C80B0B",
"V c #D30000",
"C c #D90101",
"Z c #D30909",
"A c #E40202",
"S c #E20C0C",
"D c #F10101",
"F c #FC0202",
"G c #F40A0A",
"H c #87482E",
"J c #874330",
"K c #894530",
"L c #844D33",
"P c #884E34",
"I c #8D5135",
"U c #8B5238",
"Y c #935636",
"T c #955935",
"R c #9B5D36",
"E c #935838",
"W c #9A5E38",
"Q c #9E6035",
"! c #A36336",
"~ c #A16339",
"^ c #C54E4E",
"/ c #C55A5A",
"( c #F35252",
") c #D79797",
"_ c #DD9595",
"` c #E7A4A4",
"' c #DCD7D7",
"] c #EBE7E7",
"[ c #F4F0F0",
/* pixels */
"5555555555555555545555555555555555555555555555555555555555755555",
"qqqqqqqqqqqqqqqq67qqqqqqqqqqqwq5qqqqqqqqqqqqq50qqqqqqqqqqqqqqqqq",
"yyyyyyyyyyyyyyyy4wyyyyyyyyyyyyq5tyuyyytyyyyyy00yyyyyyyyytyyyyyty",
"dddddddddddddddd6rddddddddddddt5udddddddddfddqqddddddddddddddddd",
"dLIIIIIIUgfUdLLdtudfddddddugudutdyttttydtudddyyfddddtsdttyttdfdd",
"dLIIIIUUfLLgLLfdtufudfddddguugutdytttuyyyddddyyddddydyysttttddfd",
"dLLLPPPLpggdPfddqydffdfufddguguqdutyyddydddddteddddydyyduuutdddd",
"dddddduddddddddd7ydufudddddugut5dddddddddddddqqddddddddduudddddd",
"eetttttttteretet4qerrereeyeettq5tttteertetrte00terertyettytttttt",
"0000000900000000477007070000077500000000000077777077700900000000",
"eeqeqeq5eeqeweeewewteeeeeeeqwete5qtteeeeeeeeeeeeeeeeweeet70weeee",
"IIIIIIa4IIIIIIIIIIIIIPIIIIIIIIII5dIIIIIIIIIPPYKIIIIIIIIIUtwIPIPP",
"IIPdpLgtIRRP!!!!!!!!IIIIdddpUggI5dYP!!RIIIII!!!!!!!!IWWIIeeIpdgP",
"IILddLgiIYTRTQ!!!!!!IIPIddgLgLLP5dII!!RIIIII!!!!!!QYQTTWIeqIpfgI",
"IILddLLeIIYRYTRRRRRRIIIIggLIgPII0fII!!WIIIIIRRRRRQTIQIIQIerPfdgP",
"IILdpHLeIIPYPPIIIIIIIIIIIIIIIIIIygII!!WIIIIIIIKYIPYPIIIIIduYudgI",
"IILpIILtPPYIIIPIIIIIIIIIIIIIIIIIeHIIIRRIIIIIYKIIIIIIIKYIYudIUgfP",
"IYILgLLeUYPIgLggILHIIILgPLggLLIIeHIIRYYIIIIIIIIIIIIIIIIIPddPgLLI",
"IIPLLLgqYPYIdddgLLLIIILLLLfddLPIqgIIRTYIIIIIIIIIIIIIIIIIYduUggPI",
"IILpIId4IPPIppgIpLPIIIIIaLLddLII4dIIIRRIIIIIIIIIIIIIIIIIPddUIgLI",
"IIIIPIf4PPIPIIIIYIPIIIIIIIPIYPYP4dIIIIIIIKYIPIIPIKPIIIIIIeeIIIPI",
"weewew05ettewwwtweeewwweweeewwwe5qeeeeeeteetttteereeeeeee09eeeeq",
"0777000070777000777770007777777700000000007700000777700090000000",
"ertytetyttyttytytyyereertyytr77tyteetetterttttttytyttttetteereee",
"dddduufuddddddduuuudufuuguugd0qddddddddduddddddddudddduddddddddd",
"dddyyuuyyudyddddfffdfdguyyyydytddgLPLPLdUdddduytyyyyduuddddddddd",
"ddutttttyuuyudddffdddduuyyttdyyfdLIIILLfUddddytttyyyuyuuddddugdd",
"dduttttydyydyudduufdfduyuytyuyyudLIIIggPJudfdyytttydtduyddfdddug",
"ddudddudddddddddfduuffuuufuufqqfdfddddfduddudddudddduufuguuugudg",
"yyyyyyyyyyyyyyyyyuyyyuyyyuyyy00yyyyyyyyyyyuyyyyyyyytytuyyuuyutyy",
"wqqqqqqqqqqqqqqqwqqqqwqqqqqqw77qqqqqqqqqqqqwwqqqqqqwqqqqtqqqqqqq",
"7555755555555555555555555555565565556556555555557555555555555555",
"IIIIIIIIIUIU8aIIPPPYIIIIIIIUIIIIIIIIUIIUIIIIPYIIIPIIIId4UIIIIIIU",
"IRRRRWRRITTU5aLgLPYPIIIIgTTUIIIIIIIIIIIIIIIIRRWWRRRIRYd4UgggIIII",
"PW!!!!!RTWTU4dLadLIIIILLhRQiiiiiyrisIEYEYPII!!!!!~TTWYd5IgddIIII",
"IW~!!!RI!YII4aLdfLIIIILp!Qh=%%%*%&=3iQQQIIII~!!!!YY!IIf5IgadUIII",
"IIIYYPIIIIIItgIUuLYPIIIIaT8h!YIIUQT03df!PIIIYIIYIIIIIIgtIILpIIII",
"IIYKPYIIIIIIygPgPPYPIIIYLLE8hQTIIEi*dsgTYPIIIIPPIKIIIILtILLLIIYI",
"IIPIIPIIIIIUrgPgPPPYIIIIILhYo!RYIUodiigUYPKIIIPIIIIYIIJtPggLIIII",
"IIIIIIIIIIIItgIIpLIPIIIIIILpo!!!IHoddagIIYIIIIYIIIIIIILtUILpIIII",
"IIIIIIIIIIIItgLpIIIIIIIYTIIUXHWIH,.UIUUIIIIIYIIPIIIIIILeIggIIIII",
"IIIIIIIIIIUI0gILIIIIIIIIUUII.:HH,jXUIUIIIIIIIUIIIIIIIIf0UPUUIIII",
"fdddfdfddffd4rfddfddfddfdddf.:>,jkXffdfddffdfdddfddfddt4aaadddad",
"6676555755565555445645555555.>,jll.55555455555555454745555555558",
"tyttttttt7qttttttttttttt5qt7O,jlzl+9ytttttttttttttttttytttq4tttt",
"uuuuuuuuiq0yduyyuydrssss4e0O,klzxzl+0ssssdydssuudyssidsssse4dsss",
"ddfdfddddqwduyuddddddddd09O,jkzxvxzl+qsdddddggggggggpfgdfdr0dddd",
"dddddddddyydtytttyyyddddt ,jlzxvbvxzk.sddddfIIIIIIIUpLLdIgdtdfdd",
"dddfdddddyydtttydrydfddd5OjlzxvbM^/xl+0dddddUIIUIULdUggUdddedddd",
"dddddddddwwddyuuddyddddd.<lzxvbNZ)]/xzXdfdddggggggffgdfgddi0dddd",
"uuuuydduuq0syuuuuuuudyds.<zxvbMVAZ'[nxXsudssssssdyydssssise4dsds",
"ttttttttt00ttttttttttttt.jxvbMCADS'[mcXttttttttttttttttyttq4tttt",
"777555556455755555555657.<vbMCADFG'[BbX5555555555545455554544545",
"ddddddfdfdr4dffffffdfdfd2:xbNCAFF(]`Bj2ddddfaaadd0qpadaafadpddfd",
"UIIPPLPILPf4UYIYYYYPIIIEUX<xbNCAG_`Nb.ILLIIIIPLPIeiIYIEYTTTTTYYI",
"IIPuddgIdLd4IIY!!YPIIUY!~2-<xMNCACNb<*LddLIIIgdpIddI~TYQ!!!!!!WI",
"IILdfLLfIIf4IIY~~RIIIIY!!!1-;xcNCNjj@aLdaPIIIgdpIddIIRQI!!!!!!RY",
"IIPLLPPLIIgqIIY!~YIIIKIRYEE$$-;jkj$%qgLddLIIIfdpUdsIIYYIYYYETYYP",
"IIIIPYYPIILeIIYW!YIIIIIIIIIYP$###%IItLPgiLIIIgagIiiIIIIIIIIIIIPY",
"IIIIIIIPIIgtIIII!YIIIIIYIIIIPYIIIIIItgUUaHIIIggIIdpIIIIIIIIIIPYP",
"IggIfdpdUYLyIIYQKIYIIIIIIIIIIIIIIIIIegLdTIIIIILpIdsIIILppuHPuPYP",
"IPLgLfddPPd7IIIYRYIIIIIIIIIIIIIIIIIIeLILgLIIILLLIitIIILddgLgPPYP",
"IILgPLgLIIf5IIII~YIIIIIIIIIIIIIIIIIUqgIIgLIIIggIIeeIIILggLPLPYPI",
"IIIIYPPIIIf8IIIIIIIIIIYKIIIIIIIIIIII4aIIIIIIIIIIIeqIIIIIIIIIIIII"
};
